<svg width="24" height="24" viewBox="0 0 24 24" fill="none" xmlns="http://www.w3.org/2000/svg">
<path d="M12 0C18.6276 0 24 5.3724 24 12C24 18.6276 18.6276 24 12 24C5.3724 24 0 18.6276 0 12C0 5.3724 5.3724 0 12 0ZM12 2.4C9.45392 2.4 7.01212 3.41143 5.21178 5.21178C3.41143 7.01212 2.4 9.45392 2.4 12C2.4 14.5461 3.41143 16.9879 5.21178 18.7882C7.01212 20.5886 9.45392 21.6 12 21.6C14.5461 21.6 16.9879 20.5886 18.7882 18.7882C20.5886 16.9879 21.6 14.5461 21.6 12C21.6 9.45392 20.5886 7.01212 18.7882 5.21178C16.9879 3.41143 14.5461 2.4 12 2.4ZM12 6C13.2631 6.00048 14.4938 6.39957 15.5169 7.14041C16.5399 7.88125 17.303 8.92605 17.6975 10.126C18.0921 11.3259 18.0978 12.6197 17.7141 13.8231C17.3303 15.0265 16.5765 16.078 15.5601 16.828C14.5438 17.5779 13.3166 17.988 12.0536 17.9997C10.7905 18.0115 9.55599 17.6244 8.52583 16.8935C7.49567 16.1626 6.72245 15.1252 6.31633 13.9292C5.9102 12.7331 5.89189 11.4394 6.264 10.2324C6.54471 10.8597 7.03233 11.3715 7.64527 11.6822C8.25821 11.9929 8.95927 12.0837 9.63114 11.9393C10.303 11.795 10.9049 11.4243 11.3361 10.8892C11.7673 10.3541 12.0017 9.6872 12 9C12.0002 8.42216 11.8334 7.85657 11.5199 7.37121C11.2063 6.88585 10.7592 6.50138 10.2324 6.264C10.7916 6.0924 11.3844 6 12 6Z" fill="#767E90"/>
</svg>
