<?xml version="1.0" encoding="UTF-8"?><svg id="svg2" xmlns="http://www.w3.org/2000/svg" viewBox="0 0 400 58.21"><defs><style>.cls-1{fill:#fff;}</style></defs><path id="path4" class="cls-1" d="M0,0V24.94H24.44V0S0,0,0,0ZM15.83,16.15h-7.22v-7.37h7.22v7.37Zm35.84,16.77h11.04c4.16,0,6.16,1.84,6.16,5.2,0,4.4-3.19,5.44-6.88,5.44h-10.32s0-10.64,0-10.64Zm-17.59,24.24h32.38c10.08,0,19.99-5.92,19.99-17.36,0-8.4-4.8-12.47-9.91-14.24,4.24-2.31,7.03-5.44,7.03-11.19,0-5.84-3.19-14.31-18.23-14.31h-31.27V57.16ZM51.67,13.65h9.28c3.6,0,6,1.04,6,3.92,0,3.68-2.32,4.72-6,4.72h-9.28V13.65Zm51.65,18.07c.72-4.48,3.44-6.96,8.16-6.96,4.07,0,6.95,3.12,6.95,6.96h-15.11Zm30.31,8.23c0-16.15-7.12-25.35-23.59-25.35-13.12,0-21.92,9.84-21.92,21.92,0,13.83,10,21.67,23.28,21.67,9.43,0,18.15-4.16,21.35-13.12h-14.79c-1.28,2-4.08,2.96-6.65,2.96-4.95,0-7.67-3.36-8.07-8.08h30.39s0,0,0,0ZM153.48,3.01h-15.84V15.66h-7.04v9.75h7.04v19.84c0,11.35,7.44,12.39,14.16,12.39,3.36,0,6.96-.48,10.16-.48v-12c-1.2,.17-2.4,.24-3.6,.24-3.99,0-4.88-1.68-4.88-5.52v-14.48h8.48V15.66h-8.48V3.01h0Zm11.11,54.15h15.83v-21.91c0-6.64,3.6-8,6.32-8,4.63,0,5.19,3.36,5.19,8.16v21.76h15.84V28.68c0-9.52-6.81-14.07-14.25-14.07-6.71,0-10.24,2.32-12.96,5.52h-.16V.06h-15.83V57.16h0Zm60.43-25.43c.72-4.48,3.44-6.96,8.16-6.96,4.08,0,6.95,3.12,6.95,6.96h-15.11Zm30.31,8.23c0-16.15-7.11-25.35-23.59-25.35-13.12,0-21.92,9.84-21.92,21.92,0,13.83,10,21.67,23.29,21.67,9.42,0,18.15-4.92,21.34-13.88h-14.79c-1.27,2-4.08,3.72-6.65,3.72-4.95,0-7.68-3.36-8.07-8.08h30.39Zm39.84-12.23c-.39-10.63-11.19-13.11-20.15-13.11-8.32,0-19.6,2.72-19.6,13.2,0,7.12,4.88,10.96,16.95,13.03,7.36,1.28,8.72,2,8.72,4.4s-3.28,3.2-5.35,3.2c-1.92,0-3.44-.49-4.24-1.2-1.2-1.03-1.84-1.47-1.91-2.92h-15.11c.23,10.72,10.96,13.88,20.7,13.88s21.12-3.12,21.12-14.64c0-6.8-4.64-9.92-9.92-11.6-5.28-1.76-11.27-2.08-13.91-3.2-.87-.4-1.84-.95-1.84-2.16,0-2.71,2.55-3.19,4.8-3.19,1.28,0,2.56,.4,3.51,1.2,1.05,.72,1.76,1.76,1.85,3.12h14.38s0,0,0,0ZM341.87,.06h-15.83V20.21h-.16c-2.4-3.52-6.64-5.6-11.36-5.6-13.92,0-17.68,11.84-17.68,21.59,0,10.4,5.68,22,17.44,22,7.76,0,10.15-2.96,12.16-5.61h.16v4.56h15.27V.07h0Zm-15.27,36.3c0,4.95-1.28,10.31-6.95,10.31s-6.97-5.36-6.97-10.31,1.28-10.24,6.96-10.24,6.95,5.36,6.95,10.24m45.16,6c-.24,4.32-3.03,6.47-6.64,6.47-2.87,0-4.96-1.91-4.96-3.83,0-2.81,1.84-3.69,5.36-4.48,2.17-.49,4.32-1.04,6.24-2v3.84h0Zm15.2-11.52c0-7.99,.15-16.24-19.68-16.24-9.84,0-20.87,1.92-21.35,13.59h14.71c.09-1.75,1.05-4.24,5.92-4.24,2.57,0,5.2,1.04,5.2,3.85,0,2.64-2.16,3.28-4.32,3.68-8.08,1.52-23.43,1.03-23.43,14.16,0,8.71,6.63,12.55,14.63,12.55,5.13,0,9.99-1.13,13.36-4.96h.16c-.08,1.12,.15,2.8,.56,3.92h16.16c-1.76-2.64-1.91-6.16-1.91-9.28V30.85h0Zm4.62-8.75h-1.2v-4.9h-1.84v-1.04h4.83v1.04h-1.78v4.9h0Zm3.62,0h-1.13v-5.94h1.88l1.07,4.1,1.08-4.1h1.89v5.94h-1.15v-4.73l-1.29,4.73h-1.08l-1.27-4.73v4.74s0,0,0,0Z"/></svg>