<svg width="1858" height="1087" viewBox="0 0 1858 1087" fill="none" xmlns="http://www.w3.org/2000/svg">
<g clip-path="url(#clip0_3508_18)">
<g opacity="0.19">
<path opacity="0.19" d="M261.326 13.9664C260.781 13.5423 260.231 13.1302 259.675 12.7305L167.412 101.309C167.832 101.839 168.263 102.367 168.702 102.893L261.326 13.9664Z" fill="#4181E0"/>
<path opacity="0.19" d="M238.787 2.5937C238.021 2.37572 237.252 2.1761 236.481 1.98602L156.222 79.0402C156.421 79.7819 156.629 80.5205 156.856 81.2542L238.787 2.5937Z" fill="#4181E0"/>
<path opacity="0.19" d="M254.619 9.40269C254.011 9.03999 253.397 8.68923 252.776 8.35042L162.85 94.6853C163.205 95.2794 163.571 95.8695 163.946 96.4556L254.619 9.40269Z" fill="#4181E0"/>
<path opacity="0.19" d="M247.137 5.5802C246.456 5.28544 245.773 5.00203 245.085 4.72995L159.08 87.3008C159.364 87.9622 159.658 88.6195 159.967 89.2709L247.137 5.5802Z" fill="#4181E0"/>
<path opacity="0.19" d="M229.38 0.625548C228.509 0.505418 227.636 0.405259 226.761 0.319351L154.485 69.709C154.575 70.549 154.679 71.388 154.803 72.224L229.38 0.625548Z" fill="#4181E0"/>
<path opacity="0.19" d="M266.589 18.508C266.341 18.2694 266.092 18.0419 265.844 17.8112L172.703 107.233C172.945 107.472 173.184 107.711 173.429 107.949C173.674 108.188 173.926 108.415 174.175 108.646L267.314 19.2238C267.073 18.9852 266.833 18.7418 266.589 18.508Z" fill="#4181E0"/>
<path opacity="0.19" d="M218.568 0C217.54 0.0201723 216.514 0.0647305 215.489 0.133577L154.293 58.8875C154.222 59.871 154.175 60.8563 154.152 61.843L218.568 0Z" fill="#4181E0"/>
<path opacity="0.19" d="M155.746 49.3106L205.513 1.52707C204.188 1.8129 202.869 2.13897 201.557 2.50538L156.763 45.5104C156.38 46.7681 156.04 48.0348 155.746 49.3106Z" fill="#4181E0"/>
<path opacity="0.19" d="M285.726 67.5661C285.795 66.5816 285.842 65.5961 285.865 64.6105L221.45 126.453C222.477 126.431 223.504 126.387 224.528 126.32L285.726 67.5661Z" fill="#4181E0"/>
<path opacity="0.19" d="M285.535 56.7463C285.444 55.9065 285.34 55.0674 285.216 54.2306L210.64 125.83C211.511 125.949 212.384 126.05 213.26 126.136L285.535 56.7463Z" fill="#4181E0"/>
<path opacity="0.19" d="M283.256 80.9411C283.636 79.6836 283.976 78.417 284.273 77.1425L234.505 124.926C235.831 124.638 237.149 124.311 238.462 123.947L283.256 80.9411Z" fill="#4181E0"/>
<path opacity="0.19" d="M253.467 117.723C263.071 112.265 271.086 104.571 276.77 95.3497L253.467 117.723Z" fill="#4181E0"/>
<path opacity="0.19" d="M277.168 31.7673C276.813 31.174 276.447 30.5844 276.072 29.9985L185.4 117.051C186.007 117.413 186.621 117.763 187.242 118.103L277.168 31.7673Z" fill="#4181E0"/>
<path opacity="0.19" d="M272.606 25.1452C272.186 24.6113 271.757 24.0826 271.319 23.5593L178.693 112.487C179.237 112.911 179.787 113.323 180.343 113.723L272.606 25.1452Z" fill="#4181E0"/>
<path opacity="0.19" d="M283.795 47.4113C283.597 46.6716 283.387 45.9327 283.162 45.1986L201.231 123.86C201.995 124.078 202.764 124.276 203.535 124.467L283.795 47.4113Z" fill="#4181E0"/>
<path opacity="0.19" d="M280.938 39.1515C280.654 38.4913 280.359 37.8349 280.051 37.1821L192.881 120.874C193.561 121.169 194.245 121.455 194.933 121.726L280.938 39.1515Z" fill="#4181E0"/>
</g>
<g opacity="0.19">
<path opacity="0.19" d="M847.024 643.198C846.324 642.652 845.617 642.122 844.902 641.608L726.279 755.494C726.819 756.177 727.371 756.855 727.936 757.532L847.024 643.198Z" fill="#4181E0"/>
<path opacity="0.19" d="M818.046 628.575C817.061 628.295 816.073 628.039 815.081 627.794L711.892 726.864C712.147 727.817 712.415 728.767 712.706 729.711L818.046 628.575Z" fill="#4181E0"/>
<path opacity="0.19" d="M838.4 637.33C837.619 636.863 836.83 636.413 836.032 635.977L720.413 746.979C720.869 747.744 721.34 748.502 721.823 749.255L838.4 637.33Z" fill="#4181E0"/>
<path opacity="0.19" d="M828.782 632.415C827.907 632.036 827.028 631.672 826.144 631.322L715.567 737.485C715.93 738.335 716.309 739.18 716.706 740.018L828.782 632.415Z" fill="#4181E0"/>
<path opacity="0.19" d="M805.953 626.045C804.831 625.89 803.708 625.762 802.583 625.651L709.658 714.866C709.774 715.946 709.908 717.025 710.068 718.101L805.953 626.045Z" fill="#4181E0"/>
<path opacity="0.19" d="M853.792 649.037C853.472 648.73 853.152 648.438 852.833 648.141L733.082 763.112C733.392 763.419 733.7 763.726 734.015 764.032C734.33 764.339 734.654 764.631 734.973 764.928L854.723 649.957C854.414 649.65 854.106 649.337 853.792 649.037Z" fill="#4181E0"/>
<path opacity="0.19" d="M792.05 625.241C790.728 625.267 789.409 625.324 788.092 625.412L709.41 700.953C709.319 702.217 709.259 703.484 709.229 704.753L792.05 625.241Z" fill="#4181E0"/>
<path opacity="0.19" d="M711.278 688.64L775.266 627.204C773.562 627.572 771.866 627.991 770.179 628.462L712.587 683.754C712.095 685.371 711.659 687 711.278 688.64Z" fill="#4181E0"/>
<path opacity="0.19" d="M878.396 712.112C878.485 710.845 878.545 709.579 878.575 708.311L795.755 787.823C797.077 787.795 798.396 787.738 799.713 787.651L878.396 712.112Z" fill="#4181E0"/>
<path opacity="0.19" d="M878.149 698.2C878.033 697.12 877.9 696.041 877.74 694.965L781.857 787.021C782.976 787.176 784.099 787.304 785.226 787.415L878.149 698.2Z" fill="#4181E0"/>
<path opacity="0.19" d="M750.886 636.466C738.538 643.484 728.233 653.379 720.925 665.237L750.886 636.466Z" fill="#4181E0"/>
<path opacity="0.19" d="M875.219 729.307C875.71 727.691 876.145 726.063 876.528 724.424L812.541 785.859C814.244 785.489 815.94 785.07 817.627 784.601L875.219 729.307Z" fill="#4181E0"/>
<path opacity="0.19" d="M836.92 776.599C849.268 769.582 859.574 759.688 866.882 747.833L836.92 776.599Z" fill="#4181E0"/>
<path opacity="0.19" d="M867.393 666.084C866.937 665.321 866.467 664.564 865.984 663.81L749.406 775.735C750.187 776.2 750.976 776.65 751.775 777.088L867.393 666.084Z" fill="#4181E0"/>
<path opacity="0.19" d="M861.527 657.57C860.987 656.884 860.435 656.204 859.873 655.531L740.782 769.866C741.482 770.412 742.189 770.942 742.904 771.455L861.527 657.57Z" fill="#4181E0"/>
<path opacity="0.19" d="M875.913 686.198C875.658 685.247 875.39 684.297 875.099 683.353L769.759 784.488C770.742 784.768 771.731 785.024 772.722 785.27L875.913 686.198Z" fill="#4181E0"/>
<path opacity="0.19" d="M872.24 675.578C871.875 674.73 871.496 673.886 871.1 673.046L759.023 780.65C759.898 781.029 760.778 781.397 761.662 781.745L872.24 675.578Z" fill="#4181E0"/>
</g>
<path d="M1037.83 138.072V151.956" stroke="#A2BADD" stroke-width="2" stroke-linecap="round" stroke-linejoin="round"/>
<path d="M1045.07 145.013H1030.61" stroke="#A2BADD" stroke-width="2" stroke-linecap="round" stroke-linejoin="round"/>
<path d="M571.063 397.04V410.924" stroke="#EAF1FD" stroke-width="2" stroke-linecap="round" stroke-linejoin="round"/>
<path d="M578.292 403.981H563.835" stroke="#EAF1FD" stroke-width="2" stroke-linecap="round" stroke-linejoin="round"/>
<path d="M465.228 667.594V681.479" stroke="#F87F28" stroke-width="2" stroke-linecap="round" stroke-linejoin="round"/>
<path d="M472.457 674.537H458" stroke="#F87F28" stroke-width="2" stroke-linecap="round" stroke-linejoin="round"/>
<path d="M904.039 506.927V520.812" stroke="#F87F28" stroke-width="2" stroke-linecap="round" stroke-linejoin="round"/>
<path d="M911.268 513.868H896.811" stroke="#F87F28" stroke-width="2" stroke-linecap="round" stroke-linejoin="round"/>
<path d="M1194.99 339.682V353.567" stroke="#F87F28" stroke-width="2" stroke-linecap="round" stroke-linejoin="round"/>
<path d="M1202.22 346.623H1187.77" stroke="#F87F28" stroke-width="2" stroke-linecap="round" stroke-linejoin="round"/>
<path d="M1581.85 59.323V73.2073" stroke="#F87F28" stroke-width="2" stroke-linecap="round" stroke-linejoin="round"/>
<path d="M1589.07 66.2634H1574.62" stroke="#F87F28" stroke-width="2" stroke-linecap="round" stroke-linejoin="round"/>
<path d="M338.257 302.859V316.744" stroke="#F87F28" stroke-width="2" stroke-linecap="round" stroke-linejoin="round"/>
<path d="M345.486 309.8H331.029" stroke="#F87F28" stroke-width="2" stroke-linecap="round" stroke-linejoin="round"/>
<path d="M563.835 93.9186V107.802" stroke="#BDD7FE" stroke-width="2" stroke-linecap="round" stroke-linejoin="round"/>
<path d="M571.063 100.859H556.606" stroke="#BDD7FE" stroke-width="2" stroke-linecap="round" stroke-linejoin="round"/>
<path d="M977.789 881.157V895.042" stroke="#FAFAFA" stroke-opacity="0.28" stroke-width="2" stroke-linecap="round" stroke-linejoin="round"/>
<path d="M1009.05 881.157V895.042" stroke="#FAFAFA" stroke-opacity="0.28" stroke-width="2" stroke-linecap="round" stroke-linejoin="round"/>
<path d="M1040.3 881.157V895.042" stroke="#FAFAFA" stroke-opacity="0.28" stroke-width="2" stroke-linecap="round" stroke-linejoin="round"/>
<path d="M1035.12 646.6C1035.12 646.997 1034.99 647.387 1034.76 647.717C1034.53 648.048 1034.21 648.306 1033.82 648.458C1033.43 648.61 1033.01 648.65 1032.61 648.572C1032.2 648.495 1031.83 648.303 1031.54 648.022C1031.25 647.74 1031.05 647.382 1030.97 646.991C1030.88 646.602 1030.92 646.198 1031.08 645.83C1031.24 645.462 1031.51 645.149 1031.85 644.928C1032.2 644.706 1032.61 644.589 1033.01 644.589C1033.3 644.589 1033.57 644.641 1033.82 644.742C1034.07 644.844 1034.3 644.991 1034.5 645.178C1034.7 645.365 1034.84 645.586 1034.95 645.83C1035.05 646.074 1035.12 646.336 1035.12 646.6Z" fill="#A2BADD"/>
<path d="M1049.32 646.6C1049.32 646.997 1049.21 647.387 1048.98 647.717C1048.75 648.048 1048.41 648.305 1048.04 648.458C1047.65 648.61 1047.23 648.649 1046.82 648.572C1046.42 648.495 1046.04 648.303 1045.75 648.021C1045.45 647.74 1045.26 647.382 1045.18 646.991C1045.1 646.601 1045.14 646.197 1045.3 645.829C1045.45 645.462 1045.73 645.148 1046.07 644.927C1046.42 644.706 1046.82 644.589 1047.23 644.589C1047.51 644.589 1047.78 644.641 1048.04 644.742C1048.29 644.843 1048.52 644.991 1048.72 645.178C1048.9 645.365 1049.06 645.586 1049.16 645.83C1049.27 646.074 1049.32 646.336 1049.32 646.6Z" fill="#A2BADD"/>
<path d="M1063.55 646.6C1063.55 646.997 1063.42 647.386 1063.19 647.717C1062.96 648.048 1062.64 648.305 1062.25 648.458C1061.88 648.61 1061.45 648.649 1061.04 648.572C1060.64 648.495 1060.27 648.303 1059.97 648.022C1059.68 647.74 1059.48 647.382 1059.4 646.992C1059.31 646.602 1059.36 646.198 1059.51 645.83C1059.68 645.463 1059.94 645.149 1060.29 644.928C1060.63 644.707 1061.04 644.589 1061.45 644.589C1061.73 644.589 1062 644.641 1062.25 644.741C1062.5 644.843 1062.74 644.991 1062.93 645.178C1063.13 645.365 1063.28 645.586 1063.39 645.83C1063.5 646.074 1063.55 646.336 1063.55 646.6Z" fill="#A2BADD"/>
<path d="M1035.12 660.251C1035.12 660.648 1034.99 661.038 1034.76 661.368C1034.53 661.699 1034.21 661.957 1033.82 662.11C1033.43 662.261 1033.01 662.301 1032.61 662.224C1032.2 662.147 1031.83 661.955 1031.54 661.673C1031.25 661.392 1031.05 661.034 1030.97 660.643C1030.88 660.253 1030.92 659.848 1031.08 659.481C1031.24 659.114 1031.51 658.8 1031.85 658.579C1032.2 658.358 1032.61 658.241 1033.01 658.241C1033.57 658.241 1034.1 658.453 1034.5 658.829C1034.89 659.206 1035.12 659.717 1035.12 660.251Z" fill="#A2BADD"/>
<path d="M1049.32 660.251C1049.32 660.648 1049.21 661.038 1048.98 661.368C1048.75 661.699 1048.41 661.957 1048.04 662.11C1047.65 662.261 1047.23 662.301 1046.82 662.224C1046.42 662.147 1046.05 661.955 1045.76 661.673C1045.45 661.392 1045.26 661.034 1045.18 660.643C1045.1 660.253 1045.14 659.848 1045.3 659.481C1045.45 659.114 1045.73 658.8 1046.07 658.579C1046.42 658.358 1046.82 658.241 1047.23 658.241C1047.78 658.241 1048.32 658.453 1048.72 658.829C1049.1 659.206 1049.32 659.717 1049.32 660.251Z" fill="#A2BADD"/>
<path d="M1063.55 660.251C1063.55 660.648 1063.42 661.037 1063.19 661.368C1062.96 661.699 1062.64 661.957 1062.25 662.11C1061.88 662.261 1061.45 662.301 1061.04 662.224C1060.64 662.147 1060.27 661.955 1059.97 661.674C1059.68 661.393 1059.48 661.035 1059.4 660.644C1059.31 660.254 1059.36 659.85 1059.51 659.482C1059.68 659.115 1059.94 658.801 1060.29 658.58C1060.63 658.358 1061.04 658.241 1061.45 658.241C1061.73 658.241 1062 658.292 1062.25 658.393C1062.5 658.495 1062.73 658.642 1062.93 658.829C1063.13 659.016 1063.28 659.237 1063.39 659.481C1063.5 659.725 1063.55 659.986 1063.55 660.251Z" fill="#A2BADD"/>
<path d="M1035.12 673.902C1035.12 674.3 1034.99 674.689 1034.76 675.02C1034.53 675.351 1034.21 675.609 1033.82 675.76C1033.43 675.913 1033.01 675.953 1032.61 675.876C1032.2 675.798 1031.83 675.607 1031.54 675.325C1031.25 675.044 1031.05 674.686 1030.97 674.295C1030.88 673.905 1030.92 673.5 1031.08 673.133C1031.24 672.766 1031.51 672.452 1031.85 672.231C1032.2 672.01 1032.61 671.892 1033.01 671.893C1033.57 671.893 1034.1 672.104 1034.5 672.481C1034.89 672.858 1035.12 673.369 1035.12 673.902Z" fill="#A2BADD"/>
<path d="M1049.32 673.902C1049.32 674.3 1049.21 674.689 1048.98 675.02C1048.75 675.351 1048.41 675.609 1048.04 675.76C1047.65 675.913 1047.23 675.953 1046.82 675.876C1046.42 675.798 1046.05 675.607 1045.76 675.325C1045.45 675.044 1045.26 674.686 1045.18 674.295C1045.1 673.905 1045.14 673.5 1045.3 673.133C1045.45 672.766 1045.73 672.452 1046.07 672.231C1046.42 672.01 1046.82 671.892 1047.23 671.893C1047.78 671.893 1048.32 672.104 1048.72 672.481C1049.1 672.858 1049.32 673.369 1049.32 673.902Z" fill="#A2BADD"/>
<path d="M1063.55 673.902C1063.55 674.3 1063.42 674.689 1063.19 675.02C1062.96 675.351 1062.64 675.609 1062.25 675.76C1061.88 675.913 1061.45 675.953 1061.04 675.876C1060.64 675.799 1060.27 675.607 1059.97 675.326C1059.68 675.044 1059.48 674.686 1059.4 674.296C1059.31 673.906 1059.36 673.501 1059.51 673.134C1059.68 672.767 1059.94 672.453 1060.29 672.231C1060.63 672.01 1061.04 671.893 1061.45 671.893C1061.73 671.892 1062 671.944 1062.25 672.045C1062.5 672.146 1062.73 672.294 1062.93 672.481C1063.13 672.667 1063.28 672.889 1063.39 673.133C1063.5 673.377 1063.55 673.638 1063.55 673.902Z" fill="#A2BADD"/>
<path d="M194.37 277.389C195.517 277.389 196.447 276.496 196.447 275.394C196.447 274.293 195.517 273.4 194.37 273.4C193.222 273.4 192.293 274.293 192.293 275.394C192.293 276.496 193.222 277.389 194.37 277.389Z" fill="#A2BADD"/>
<path d="M210.546 275.394C210.546 275.789 210.424 276.175 210.196 276.503C209.967 276.831 209.643 277.086 209.263 277.237C208.884 277.388 208.466 277.428 208.063 277.351C207.661 277.274 207.29 277.084 207 276.805C206.709 276.526 206.511 276.171 206.431 275.783C206.351 275.397 206.392 274.995 206.549 274.631C206.706 274.267 206.973 273.955 207.315 273.736C207.655 273.516 208.058 273.4 208.469 273.4C209.02 273.4 209.548 273.61 209.937 273.984C210.326 274.358 210.546 274.865 210.546 275.394Z" fill="#A2BADD"/>
<path d="M224.648 275.394C224.648 275.789 224.526 276.175 224.297 276.503C224.069 276.831 223.745 277.086 223.366 277.237C222.987 277.388 222.568 277.428 222.166 277.351C221.762 277.274 221.392 277.084 221.102 276.805C220.811 276.526 220.614 276.171 220.534 275.783C220.454 275.397 220.494 274.995 220.652 274.631C220.809 274.267 221.076 273.955 221.416 273.736C221.758 273.516 222.16 273.4 222.57 273.4C222.843 273.4 223.114 273.451 223.366 273.551C223.618 273.652 223.847 273.799 224.039 273.984C224.233 274.17 224.385 274.389 224.49 274.631C224.594 274.873 224.648 275.132 224.648 275.394Z" fill="#A2BADD"/>
<path d="M236.671 277.389C237.818 277.389 238.748 276.496 238.748 275.394C238.748 274.293 237.818 273.4 236.671 273.4C235.524 273.4 234.594 274.293 234.594 275.394C234.594 276.496 235.524 277.389 236.671 277.389Z" fill="#A2BADD"/>
<path d="M252.848 275.394C252.848 275.789 252.726 276.175 252.498 276.503C252.27 276.831 251.946 277.086 251.566 277.237C251.187 277.388 250.769 277.428 250.366 277.351C249.963 277.274 249.593 277.084 249.302 276.805C249.011 276.526 248.814 276.171 248.734 275.783C248.654 275.397 248.695 274.995 248.852 274.631C249.009 274.267 249.276 273.955 249.617 273.736C249.958 273.516 250.36 273.4 250.771 273.4C251.043 273.4 251.314 273.451 251.566 273.551C251.818 273.652 252.047 273.798 252.24 273.984C252.433 274.168 252.585 274.389 252.69 274.631C252.794 274.873 252.848 275.132 252.848 275.394Z" fill="#A2BADD"/>
<path d="M266.947 275.394C266.947 275.789 266.825 276.175 266.597 276.503C266.368 276.831 266.044 277.086 265.665 277.237C265.285 277.388 264.867 277.428 264.465 277.351C264.062 277.274 263.692 277.084 263.402 276.805C263.111 276.526 262.913 276.171 262.833 275.783C262.752 275.397 262.794 274.995 262.951 274.631C263.108 274.267 263.374 273.955 263.716 273.736C264.058 273.516 264.459 273.4 264.87 273.4C265.143 273.4 265.413 273.451 265.665 273.551C265.917 273.652 266.146 273.798 266.339 273.984C266.531 274.168 266.685 274.389 266.79 274.631C266.893 274.873 266.947 275.132 266.947 275.394Z" fill="#A2BADD"/>
<path d="M196.447 288.936C196.447 289.331 196.325 289.716 196.097 290.044C195.869 290.373 195.544 290.628 195.165 290.779C194.785 290.93 194.368 290.97 193.965 290.892C193.562 290.815 193.192 290.625 192.901 290.346C192.611 290.067 192.413 289.712 192.333 289.325C192.252 288.938 192.294 288.537 192.451 288.173C192.608 287.808 192.874 287.496 193.216 287.277C193.558 287.059 193.959 286.941 194.37 286.941C194.921 286.941 195.449 287.152 195.838 287.526C196.228 287.9 196.446 288.407 196.447 288.936Z" fill="#A2BADD"/>
<path d="M210.546 288.936C210.546 289.331 210.424 289.716 210.196 290.044C209.967 290.373 209.643 290.628 209.263 290.779C208.884 290.93 208.466 290.97 208.063 290.892C207.661 290.815 207.29 290.625 207 290.346C206.709 290.067 206.511 289.712 206.431 289.325C206.351 288.938 206.392 288.537 206.549 288.173C206.706 287.808 206.973 287.496 207.315 287.277C207.655 287.059 208.058 286.941 208.469 286.941C209.019 286.941 209.548 287.152 209.936 287.526C210.326 287.9 210.545 288.407 210.546 288.936Z" fill="#A2BADD"/>
<path d="M224.648 288.936C224.648 289.331 224.526 289.716 224.297 290.044C224.069 290.373 223.745 290.628 223.366 290.779C222.987 290.93 222.568 290.97 222.166 290.892C221.762 290.815 221.392 290.625 221.102 290.346C220.811 290.067 220.614 289.712 220.534 289.325C220.454 288.938 220.494 288.537 220.652 288.173C220.809 287.808 221.076 287.496 221.416 287.277C221.758 287.059 222.16 286.941 222.57 286.941C223.121 286.941 223.649 287.152 224.039 287.526C224.429 287.9 224.648 288.407 224.648 288.936Z" fill="#A2BADD"/>
<path d="M238.747 288.936C238.747 289.331 238.625 289.716 238.397 290.044C238.169 290.373 237.844 290.628 237.465 290.779C237.085 290.93 236.668 290.97 236.265 290.892C235.862 290.815 235.492 290.625 235.201 290.346C234.911 290.067 234.713 289.711 234.633 289.325C234.553 288.937 234.594 288.537 234.752 288.172C234.909 287.807 235.175 287.496 235.517 287.277C235.859 287.058 236.26 286.941 236.671 286.941C237.222 286.941 237.75 287.152 238.139 287.526C238.529 287.9 238.747 288.407 238.747 288.936Z" fill="#A2BADD"/>
<path d="M252.848 288.936C252.848 289.331 252.726 289.716 252.498 290.044C252.27 290.373 251.946 290.628 251.566 290.779C251.187 290.93 250.769 290.97 250.366 290.892C249.963 290.815 249.593 290.625 249.302 290.346C249.011 290.067 248.814 289.712 248.734 289.325C248.654 288.938 248.695 288.537 248.852 288.173C249.009 287.808 249.276 287.496 249.617 287.277C249.958 287.059 250.36 286.941 250.771 286.941C251.322 286.941 251.85 287.151 252.239 287.525C252.629 287.9 252.848 288.407 252.848 288.936Z" fill="#A2BADD"/>
<path d="M266.947 288.936C266.947 289.331 266.825 289.716 266.597 290.044C266.368 290.373 266.044 290.628 265.665 290.779C265.285 290.93 264.867 290.97 264.465 290.892C264.062 290.815 263.692 290.625 263.402 290.346C263.111 290.067 262.913 289.712 262.833 289.325C262.752 288.938 262.794 288.537 262.951 288.173C263.108 287.808 263.374 287.496 263.716 287.277C264.058 287.059 264.459 286.941 264.87 286.941C265.421 286.941 265.949 287.151 266.339 287.525C266.728 287.9 266.947 288.407 266.947 288.936Z" fill="#A2BADD"/>
<path d="M196.447 302.478C196.446 302.872 196.324 303.258 196.095 303.585C195.866 303.912 195.542 304.168 195.161 304.317C194.782 304.468 194.365 304.507 193.962 304.43C193.56 304.353 193.19 304.162 192.899 303.883C192.61 303.604 192.412 303.249 192.333 302.861C192.252 302.475 192.294 302.073 192.451 301.709C192.609 301.345 192.875 301.034 193.216 300.815C193.558 300.596 193.959 300.479 194.37 300.479C194.643 300.479 194.914 300.531 195.166 300.631C195.418 300.732 195.646 300.879 195.84 301.065C196.032 301.25 196.186 301.471 196.289 301.713C196.394 301.956 196.447 302.216 196.447 302.478Z" fill="#A2BADD"/>
<path d="M210.546 302.478C210.545 302.872 210.421 303.258 210.194 303.585C209.965 303.913 209.64 304.168 209.26 304.318C208.88 304.468 208.462 304.507 208.06 304.43C207.658 304.352 207.288 304.162 206.997 303.882C206.707 303.603 206.51 303.248 206.43 302.86C206.351 302.473 206.393 302.072 206.551 301.708C206.708 301.344 206.975 301.033 207.317 300.814C207.658 300.595 208.06 300.479 208.471 300.479C208.744 300.48 209.013 300.532 209.265 300.632C209.517 300.733 209.746 300.88 209.939 301.066C210.132 301.251 210.285 301.471 210.388 301.714C210.493 301.956 210.546 302.216 210.546 302.478Z" fill="#A2BADD"/>
<path d="M224.648 302.478C224.647 302.872 224.524 303.258 224.295 303.585C224.067 303.912 223.742 304.168 223.363 304.317C222.983 304.468 222.565 304.507 222.163 304.43C221.76 304.353 221.39 304.162 221.101 303.883C220.81 303.604 220.614 303.249 220.533 302.861C220.454 302.475 220.494 302.073 220.652 301.709C220.809 301.345 221.076 301.034 221.417 300.815C221.758 300.596 222.16 300.479 222.571 300.479C222.844 300.479 223.114 300.531 223.366 300.631C223.619 300.732 223.848 300.879 224.04 301.065C224.234 301.25 224.386 301.471 224.491 301.713C224.595 301.956 224.649 302.216 224.648 302.478Z" fill="#A2BADD"/>
<path d="M238.747 302.478C238.746 302.872 238.624 303.258 238.395 303.585C238.166 303.912 237.842 304.168 237.461 304.317C237.082 304.468 236.665 304.507 236.262 304.43C235.859 304.353 235.49 304.162 235.199 303.883C234.91 303.603 234.712 303.248 234.633 302.861C234.553 302.474 234.594 302.073 234.752 301.709C234.91 301.345 235.176 301.034 235.517 300.815C235.859 300.595 236.26 300.479 236.671 300.479C236.944 300.479 237.215 300.531 237.467 300.631C237.719 300.732 237.948 300.879 238.141 301.065C238.333 301.25 238.486 301.471 238.59 301.713C238.695 301.956 238.748 302.216 238.747 302.478Z" fill="#A2BADD"/>
<path d="M252.848 302.478C252.848 302.872 252.726 303.258 252.498 303.586C252.27 303.914 251.946 304.17 251.566 304.32C251.187 304.472 250.769 304.511 250.366 304.434C249.963 304.358 249.593 304.167 249.302 303.888C249.011 303.609 248.814 303.254 248.734 302.867C248.654 302.48 248.695 302.078 248.852 301.714C249.009 301.35 249.276 301.039 249.617 300.819C249.958 300.6 250.36 300.483 250.771 300.483C251.322 300.483 251.85 300.693 252.239 301.067C252.629 301.441 252.848 301.949 252.848 302.478Z" fill="#A2BADD"/>
<path d="M266.947 302.478C266.947 302.872 266.825 303.258 266.597 303.586C266.368 303.914 266.044 304.17 265.665 304.32C265.285 304.472 264.867 304.511 264.465 304.434C264.062 304.358 263.692 304.167 263.402 303.888C263.111 303.609 262.913 303.254 262.833 302.867C262.752 302.48 262.794 302.078 262.951 301.714C263.108 301.35 263.374 301.039 263.716 300.819C264.058 300.6 264.459 300.483 264.87 300.483C265.421 300.483 265.949 300.693 266.339 301.067C266.728 301.441 266.947 301.949 266.947 302.478Z" fill="#A2BADD"/>
<path d="M196.447 316.019C196.447 316.414 196.325 316.799 196.097 317.127C195.869 317.456 195.544 317.711 195.165 317.862C194.785 318.014 194.368 318.053 193.965 317.975C193.562 317.899 193.192 317.708 192.901 317.429C192.611 317.15 192.413 316.795 192.333 316.409C192.252 316.021 192.294 315.621 192.451 315.256C192.608 314.891 192.874 314.58 193.216 314.36C193.558 314.142 193.959 314.024 194.37 314.024C194.921 314.024 195.449 314.235 195.839 314.609C196.228 314.983 196.447 315.491 196.447 316.019Z" fill="#A2BADD"/>
<path d="M210.546 316.019C210.546 316.414 210.424 316.799 210.196 317.127C209.967 317.456 209.643 317.711 209.263 317.862C208.884 318.014 208.466 318.053 208.063 317.975C207.661 317.899 207.29 317.708 207 317.429C206.709 317.15 206.511 316.795 206.431 316.409C206.351 316.021 206.392 315.621 206.549 315.256C206.706 314.891 206.973 314.58 207.315 314.36C207.655 314.142 208.058 314.024 208.469 314.024C209.02 314.024 209.548 314.235 209.937 314.609C210.326 314.983 210.546 315.491 210.546 316.019Z" fill="#A2BADD"/>
<path d="M224.648 316.019C224.648 316.414 224.526 316.799 224.297 317.127C224.069 317.456 223.745 317.711 223.366 317.862C222.987 318.014 222.568 318.053 222.166 317.975C221.762 317.899 221.392 317.708 221.102 317.429C220.811 317.15 220.614 316.795 220.534 316.409C220.454 316.021 220.494 315.621 220.652 315.256C220.809 314.891 221.076 314.58 221.416 314.36C221.758 314.142 222.16 314.024 222.57 314.024C222.843 314.024 223.114 314.076 223.366 314.177C223.618 314.277 223.847 314.424 224.039 314.609C224.233 314.794 224.385 315.014 224.49 315.256C224.594 315.499 224.648 315.757 224.648 316.019Z" fill="#A2BADD"/>
<path d="M238.747 316.019C238.747 316.414 238.625 316.799 238.397 317.127C238.169 317.456 237.844 317.711 237.465 317.862C237.085 318.014 236.668 318.053 236.265 317.975C235.862 317.899 235.492 317.708 235.201 317.429C234.911 317.15 234.713 316.795 234.633 316.408C234.553 316.021 234.594 315.62 234.752 315.256C234.909 314.891 235.175 314.579 235.517 314.36C235.859 314.142 236.26 314.024 236.671 314.024C236.944 314.024 237.214 314.076 237.466 314.177C237.718 314.277 237.947 314.424 238.14 314.609C238.332 314.794 238.485 315.014 238.589 315.256C238.694 315.499 238.747 315.757 238.747 316.019Z" fill="#A2BADD"/>
<path d="M252.848 316.019C252.848 316.414 252.726 316.799 252.498 317.127C252.27 317.456 251.946 317.711 251.566 317.862C251.187 318.014 250.769 318.053 250.366 317.975C249.963 317.899 249.593 317.708 249.302 317.429C249.011 317.15 248.814 316.795 248.734 316.409C248.654 316.021 248.695 315.621 248.852 315.256C249.009 314.891 249.276 314.58 249.617 314.36C249.958 314.142 250.36 314.024 250.771 314.024C251.043 314.024 251.314 314.076 251.566 314.176C251.818 314.276 252.047 314.424 252.24 314.608C252.433 314.794 252.585 315.014 252.69 315.256C252.794 315.498 252.848 315.757 252.848 316.019Z" fill="#A2BADD"/>
<path d="M266.947 316.019C266.947 316.414 266.825 316.799 266.597 317.127C266.368 317.456 266.044 317.711 265.665 317.862C265.285 318.014 264.867 318.053 264.465 317.975C264.062 317.899 263.692 317.708 263.402 317.429C263.111 317.15 262.913 316.795 262.833 316.409C262.752 316.021 262.794 315.621 262.951 315.256C263.108 314.891 263.374 314.58 263.716 314.36C264.058 314.142 264.459 314.024 264.87 314.024C265.143 314.024 265.413 314.076 265.665 314.176C265.917 314.276 266.146 314.424 266.339 314.608C266.531 314.794 266.685 315.014 266.79 315.256C266.893 315.498 266.947 315.757 266.947 316.019Z" fill="#A2BADD"/>
<path d="M194.37 331.556C195.517 331.556 196.447 330.663 196.447 329.561C196.447 328.459 195.517 327.567 194.37 327.567C193.222 327.567 192.293 328.459 192.293 329.561C192.293 330.663 193.222 331.556 194.37 331.556Z" fill="#A2BADD"/>
<path d="M210.546 329.56C210.546 329.954 210.424 330.341 210.196 330.669C209.968 330.997 209.644 331.253 209.264 331.404C208.885 331.555 208.467 331.594 208.064 331.518C207.661 331.441 207.291 331.251 207 330.972C206.709 330.693 206.512 330.338 206.431 329.95C206.351 329.564 206.392 329.162 206.549 328.798C206.706 328.434 206.973 328.122 207.315 327.903C207.655 327.683 208.058 327.567 208.469 327.567C209.019 327.567 209.548 327.776 209.936 328.15C210.326 328.524 210.545 329.031 210.546 329.56Z" fill="#A2BADD"/>
<path d="M224.648 329.56C224.648 329.954 224.526 330.341 224.298 330.669C224.071 330.997 223.745 331.253 223.366 331.404C222.987 331.555 222.569 331.594 222.166 331.518C221.763 331.441 221.393 331.251 221.103 330.972C220.812 330.693 220.614 330.338 220.534 329.95C220.454 329.564 220.494 329.162 220.652 328.798C220.809 328.434 221.076 328.122 221.416 327.903C221.758 327.683 222.16 327.567 222.57 327.567C223.121 327.567 223.649 327.776 224.039 328.15C224.429 328.524 224.648 329.031 224.648 329.56Z" fill="#A2BADD"/>
<path d="M236.671 331.556C237.818 331.556 238.748 330.663 238.748 329.561C238.748 328.459 237.818 327.567 236.671 327.567C235.524 327.567 234.594 328.459 234.594 329.561C234.594 330.663 235.524 331.556 236.671 331.556Z" fill="#A2BADD"/>
<path d="M252.848 329.56C252.848 329.954 252.726 330.341 252.499 330.669C252.271 330.997 251.946 331.253 251.566 331.404C251.187 331.555 250.77 331.594 250.366 331.518C249.964 331.441 249.594 331.251 249.303 330.972C249.012 330.693 248.814 330.338 248.734 329.95C248.654 329.564 248.695 329.162 248.852 328.798C249.009 328.434 249.276 328.122 249.617 327.903C249.958 327.683 250.36 327.567 250.771 327.567C251.043 327.566 251.314 327.618 251.566 327.718C251.818 327.818 252.047 327.965 252.239 328.15C252.433 328.335 252.585 328.555 252.69 328.797C252.794 329.039 252.848 329.298 252.848 329.56Z" fill="#A2BADD"/>
<path d="M266.947 329.56C266.947 329.954 266.825 330.341 266.597 330.669C266.369 330.997 266.045 331.253 265.666 331.404C265.286 331.555 264.868 331.594 264.466 331.518C264.062 331.441 263.692 331.251 263.402 330.972C263.111 330.693 262.913 330.338 262.833 329.95C262.752 329.564 262.794 329.162 262.951 328.798C263.108 328.434 263.374 328.122 263.716 327.903C264.057 327.683 264.459 327.567 264.87 327.567C265.143 327.566 265.413 327.618 265.665 327.718C265.917 327.818 266.146 327.965 266.339 328.15C266.531 328.335 266.684 328.555 266.789 328.797C266.893 329.039 266.947 329.298 266.947 329.56Z" fill="#A2BADD"/>
<path d="M1486.45 24.8676C1486.45 25.2207 1486.35 25.5658 1486.14 25.8594C1485.94 26.1528 1485.65 26.3816 1485.3 26.5167C1484.97 26.6518 1484.59 26.6871 1484.24 26.6183C1483.87 26.5494 1483.54 26.3794 1483.27 26.1298C1483.02 25.8801 1482.85 25.5621 1482.77 25.2159C1482.7 24.8696 1482.73 24.5107 1482.88 24.1846C1483.01 23.8584 1483.25 23.5797 1483.56 23.3835C1483.87 23.1874 1484.23 23.0827 1484.59 23.0827C1485.08 23.0827 1485.56 23.2708 1485.91 23.6055C1486.25 23.9403 1486.45 24.3942 1486.45 24.8676Z" fill="#A2BADD"/>
<path d="M1497.21 26.6526C1498.23 26.6526 1499.07 25.8534 1499.07 24.8676C1499.07 23.8819 1498.23 23.0827 1497.21 23.0827C1496.19 23.0827 1495.35 23.8819 1495.35 24.8676C1495.35 25.8534 1496.19 26.6526 1497.21 26.6526Z" fill="#A2BADD"/>
<path d="M1511.69 24.8676C1511.69 25.2207 1511.58 25.5658 1511.37 25.8594C1511.16 26.1529 1510.88 26.3817 1510.54 26.5168C1510.2 26.6519 1509.83 26.6872 1509.46 26.6183C1509.11 26.5493 1508.77 26.3792 1508.51 26.1295C1508.26 25.8797 1508.08 25.5616 1508.01 25.2154C1507.93 24.869 1507.97 24.5101 1508.11 24.184C1508.25 23.8578 1508.49 23.5791 1508.79 23.3831C1509.11 23.1871 1509.46 23.0825 1509.83 23.0827C1510.08 23.0827 1510.32 23.1289 1510.54 23.2186C1510.77 23.3083 1510.97 23.4398 1511.14 23.6056C1511.31 23.7713 1511.46 23.9681 1511.54 24.1847C1511.63 24.4012 1511.69 24.6333 1511.69 24.8676Z" fill="#A2BADD"/>
<path d="M1524.3 24.8676C1524.3 25.2207 1524.2 25.5658 1523.99 25.8594C1523.79 26.1528 1523.5 26.3816 1523.16 26.5167C1522.82 26.6518 1522.44 26.6871 1522.09 26.6183C1521.72 26.5494 1521.39 26.3794 1521.13 26.1298C1520.88 25.8801 1520.7 25.5621 1520.63 25.2159C1520.55 24.8696 1520.58 24.5107 1520.73 24.1846C1520.87 23.8584 1521.11 23.5797 1521.41 23.3835C1521.72 23.1874 1522.08 23.0827 1522.44 23.0827C1522.7 23.0826 1522.94 23.1287 1523.16 23.2183C1523.38 23.308 1523.58 23.4395 1523.76 23.6053C1523.93 23.771 1524.07 23.9679 1524.16 24.1845C1524.25 24.401 1524.3 24.6333 1524.3 24.8676Z" fill="#A2BADD"/>
<path d="M1535.06 26.6526C1536.09 26.6526 1536.92 25.8534 1536.92 24.8676C1536.92 23.8819 1536.09 23.0827 1535.06 23.0827C1534.04 23.0827 1533.2 23.8819 1533.2 24.8676C1533.2 25.8534 1534.04 26.6526 1535.06 26.6526Z" fill="#A2BADD"/>
<path d="M1549.54 24.8676C1549.54 25.2207 1549.43 25.5658 1549.23 25.8594C1549.03 26.1528 1548.73 26.3816 1548.39 26.5167C1548.05 26.6518 1547.68 26.6871 1547.32 26.6183C1546.96 26.5494 1546.62 26.3794 1546.36 26.1298C1546.11 25.8801 1545.93 25.5621 1545.86 25.2159C1545.79 24.8696 1545.82 24.5107 1545.96 24.1846C1546.1 23.8584 1546.34 23.5797 1546.64 23.3835C1546.96 23.1874 1547.31 23.0827 1547.68 23.0827C1548.17 23.0827 1548.65 23.2708 1549 23.6055C1549.34 23.9403 1549.54 24.3942 1549.54 24.8676Z" fill="#A2BADD"/>
<path d="M1562.16 24.8676C1562.16 25.2207 1562.05 25.5658 1561.84 25.8594C1561.64 26.1528 1561.35 26.3816 1561.01 26.5167C1560.67 26.6518 1560.3 26.6871 1559.94 26.6183C1559.57 26.5494 1559.24 26.3794 1558.99 26.1298C1558.73 25.8801 1558.55 25.5621 1558.48 25.2159C1558.4 24.8696 1558.45 24.5107 1558.58 24.1846C1558.72 23.8584 1558.96 23.5797 1559.26 23.3835C1559.57 23.1874 1559.93 23.0827 1560.3 23.0827C1560.79 23.0827 1561.27 23.2708 1561.61 23.6055C1561.96 23.9403 1562.16 24.3942 1562.16 24.8676Z" fill="#A2BADD"/>
<path d="M1499.07 36.9853C1499.07 37.3383 1498.97 37.6834 1498.76 37.977C1498.55 38.2705 1498.26 38.4992 1497.92 38.6343C1497.59 38.7695 1497.21 38.8048 1496.85 38.7359C1496.49 38.667 1496.15 38.497 1495.89 38.2474C1495.64 37.9978 1495.46 37.6798 1495.39 37.3335C1495.32 36.9872 1495.35 36.6283 1495.5 36.3022C1495.63 35.9761 1495.87 35.6973 1496.17 35.5012C1496.49 35.305 1496.84 35.2003 1497.21 35.2003C1497.7 35.2006 1498.18 35.3887 1498.53 35.7234C1498.87 36.0581 1499.07 36.5119 1499.07 36.9853Z" fill="#A2BADD"/>
<path d="M1511.69 36.9853C1511.69 37.3384 1511.58 37.6835 1511.37 37.9771C1511.16 38.2706 1510.88 38.4993 1510.54 38.6344C1510.2 38.7695 1509.83 38.8048 1509.46 38.7359C1509.11 38.6669 1508.77 38.4968 1508.51 38.2471C1508.26 37.9974 1508.08 37.6793 1508.01 37.333C1507.93 36.9866 1507.97 36.6277 1508.11 36.3016C1508.25 35.9755 1508.49 35.6968 1508.79 35.5007C1509.11 35.3047 1509.46 35.2001 1509.83 35.2003C1510.32 35.2006 1510.8 35.3887 1511.14 35.7235C1511.49 36.0582 1511.69 36.512 1511.69 36.9853Z" fill="#A2BADD"/>
<path d="M1524.3 36.9853C1524.3 37.3383 1524.2 37.6834 1523.99 37.977C1523.79 38.2705 1523.5 38.4992 1523.16 38.6343C1522.82 38.7695 1522.44 38.8048 1522.09 38.7359C1521.72 38.667 1521.39 38.497 1521.13 38.2474C1520.88 37.9978 1520.7 37.6798 1520.63 37.3335C1520.55 36.9872 1520.58 36.6283 1520.73 36.3022C1520.87 35.9761 1521.11 35.6973 1521.41 35.5012C1521.72 35.305 1522.08 35.2003 1522.44 35.2003C1522.94 35.2003 1523.42 35.3884 1523.76 35.7231C1524.11 36.0579 1524.3 36.5119 1524.3 36.9853Z" fill="#A2BADD"/>
<path d="M1536.92 36.9853C1536.92 37.3383 1536.82 37.6834 1536.61 37.977C1536.4 38.2705 1536.12 38.4992 1535.77 38.6343C1535.44 38.7695 1535.06 38.8048 1534.71 38.7359C1534.34 38.667 1534.01 38.497 1533.74 38.2474C1533.49 37.9978 1533.32 37.6798 1533.24 37.3335C1533.17 36.9872 1533.2 36.6283 1533.35 36.3022C1533.48 35.9761 1533.72 35.6973 1534.03 35.5012C1534.34 35.305 1534.7 35.2003 1535.06 35.2003C1535.55 35.2003 1536.03 35.3884 1536.38 35.7231C1536.72 36.0579 1536.92 36.5119 1536.92 36.9853Z" fill="#A2BADD"/>
<path d="M1549.54 36.9853C1549.54 37.3383 1549.43 37.6834 1549.23 37.977C1549.03 38.2705 1548.73 38.4992 1548.39 38.6343C1548.05 38.7695 1547.68 38.8048 1547.32 38.7359C1546.96 38.667 1546.62 38.497 1546.36 38.2474C1546.11 37.9978 1545.93 37.6798 1545.86 37.3335C1545.79 36.9872 1545.82 36.6283 1545.96 36.3022C1546.1 35.9761 1546.34 35.6973 1546.64 35.5012C1546.96 35.305 1547.31 35.2003 1547.68 35.2003C1548.17 35.2006 1548.65 35.3887 1549 35.7234C1549.34 36.0581 1549.54 36.5119 1549.54 36.9853Z" fill="#A2BADD"/>
<path d="M1562.16 36.9853C1562.16 37.3383 1562.05 37.6834 1561.84 37.977C1561.64 38.2705 1561.35 38.4992 1561.01 38.6343C1560.67 38.7695 1560.3 38.8048 1559.94 38.7359C1559.57 38.667 1559.24 38.497 1558.99 38.2474C1558.73 37.9978 1558.55 37.6798 1558.48 37.3335C1558.4 36.9872 1558.45 36.6283 1558.58 36.3022C1558.72 35.9761 1558.96 35.6973 1559.26 35.5012C1559.57 35.305 1559.93 35.2003 1560.3 35.2003C1560.79 35.2006 1561.27 35.3887 1561.61 35.7234C1561.96 36.0581 1562.16 36.5119 1562.16 36.9853Z" fill="#A2BADD"/>
<path d="M1574.77 36.9853C1574.77 37.3384 1574.67 37.6835 1574.46 37.9771C1574.26 38.2706 1573.97 38.4993 1573.62 38.6344C1573.29 38.7695 1572.91 38.8048 1572.56 38.7359C1572.19 38.6669 1571.86 38.4968 1571.6 38.2471C1571.35 37.9974 1571.17 37.6793 1571.09 37.333C1571.02 36.9866 1571.06 36.6277 1571.2 36.3016C1571.33 35.9755 1571.58 35.6968 1571.89 35.5007C1572.19 35.3047 1572.55 35.2001 1572.91 35.2003C1573.4 35.2006 1573.89 35.3887 1574.23 35.7235C1574.58 36.0582 1574.77 36.512 1574.77 36.9853Z" fill="#A2BADD"/>
<path d="M1315.44 754.166C1315.43 755.153 1315.13 756.118 1314.57 756.938C1313.99 757.758 1313.18 758.398 1312.24 758.775C1311.28 759.153 1310.24 759.251 1309.23 759.058C1308.22 758.865 1307.29 758.39 1306.57 757.692C1305.84 756.994 1305.35 756.105 1305.15 755.137C1304.95 754.169 1305.05 753.166 1305.44 752.254C1305.84 751.343 1306.51 750.563 1307.35 750.015C1308.21 749.467 1309.21 749.174 1310.24 749.174C1310.93 749.174 1311.6 749.303 1312.24 749.554C1312.86 749.805 1313.44 750.172 1313.92 750.636C1314.4 751.1 1314.79 751.65 1315.05 752.256C1315.31 752.861 1315.44 753.51 1315.44 754.166Z" stroke="#EAF1FD" stroke-miterlimit="10"/>
<path d="M1350.73 754.166C1350.73 755.153 1350.42 756.119 1349.85 756.94C1349.28 757.76 1348.47 758.4 1347.52 758.778C1346.56 759.155 1345.52 759.255 1344.52 759.062C1343.5 758.869 1342.58 758.394 1341.85 757.696C1341.13 756.998 1340.63 756.108 1340.43 755.14C1340.23 754.172 1340.33 753.167 1340.72 752.256C1341.12 751.344 1341.79 750.564 1342.63 750.015C1343.49 749.466 1344.5 749.174 1345.53 749.174C1346.91 749.174 1348.23 749.7 1349.2 750.636C1350.18 751.572 1350.73 752.842 1350.73 754.166Z" stroke="#EAF1FD" stroke-miterlimit="10"/>
<path d="M1386.01 754.166C1386.01 755.153 1385.7 756.119 1385.14 756.94C1384.56 757.76 1383.75 758.4 1382.8 758.778C1381.85 759.155 1380.8 759.255 1379.8 759.062C1378.79 758.869 1377.86 758.394 1377.13 757.696C1376.41 756.998 1375.91 756.108 1375.71 755.14C1375.51 754.172 1375.61 753.167 1376.01 752.256C1376.4 751.344 1377.07 750.564 1377.93 750.015C1378.78 749.466 1379.79 749.174 1380.81 749.174C1381.49 749.174 1382.17 749.302 1382.8 749.553C1383.43 749.804 1384.01 750.171 1384.49 750.635C1384.97 751.099 1385.36 751.65 1385.62 752.255C1385.87 752.861 1386.01 753.51 1386.01 754.166Z" stroke="#EAF1FD" stroke-miterlimit="10"/>
<path d="M1315.43 788.052C1315.43 789.038 1315.13 790.003 1314.57 790.824C1313.99 791.644 1313.18 792.283 1312.23 792.66C1311.28 793.038 1310.24 793.136 1309.23 792.943C1308.22 792.751 1307.29 792.275 1306.57 791.577C1305.84 790.88 1305.35 789.991 1305.15 789.022C1304.95 788.055 1305.04 787.051 1305.44 786.139C1305.84 785.228 1306.5 784.449 1307.35 783.9C1308.21 783.352 1309.21 783.059 1310.24 783.059C1310.93 783.059 1311.6 783.188 1312.24 783.439C1312.86 783.69 1313.44 784.058 1313.92 784.521C1314.4 784.985 1314.79 785.536 1315.05 786.141C1315.31 786.747 1315.43 787.396 1315.43 788.052Z" stroke="#EAF1FD" stroke-miterlimit="10"/>
<path d="M1350.73 788.052C1350.73 789.039 1350.42 790.004 1349.85 790.825C1349.28 791.646 1348.47 792.286 1347.52 792.663C1346.56 793.042 1345.52 793.14 1344.52 792.948C1343.5 792.756 1342.58 792.28 1341.85 791.582C1341.13 790.883 1340.63 789.994 1340.43 789.025C1340.23 788.057 1340.33 787.053 1340.72 786.141C1341.12 785.229 1341.79 784.449 1342.63 783.901C1343.49 783.352 1344.5 783.059 1345.53 783.059C1346.91 783.059 1348.23 783.585 1349.2 784.521C1350.18 785.458 1350.73 786.727 1350.73 788.052Z" stroke="#EAF1FD" stroke-miterlimit="10"/>
<path d="M1386.01 788.052C1386.01 789.039 1385.7 790.004 1385.14 790.825C1384.56 791.646 1383.75 792.286 1382.8 792.663C1381.85 793.042 1380.8 793.14 1379.8 792.948C1378.79 792.756 1377.86 792.28 1377.13 791.582C1376.41 790.883 1375.91 789.994 1375.71 789.025C1375.51 788.057 1375.61 787.053 1376.01 786.141C1376.4 785.229 1377.07 784.449 1377.93 783.901C1378.78 783.352 1379.79 783.059 1380.81 783.059C1381.49 783.059 1382.17 783.188 1382.8 783.439C1383.43 783.689 1384.01 784.057 1384.49 784.521C1384.97 784.985 1385.36 785.535 1385.62 786.141C1385.87 786.746 1386.01 787.395 1386.01 788.052Z" stroke="#EAF1FD" stroke-miterlimit="10"/>
<path d="M1494.86 194.78C1494.86 195.589 1494.61 196.381 1494.14 197.054C1493.67 197.727 1493.01 198.251 1492.22 198.561C1491.44 198.871 1490.58 198.951 1489.76 198.793C1488.93 198.635 1488.18 198.245 1487.57 197.672C1486.98 197.1 1486.58 196.371 1486.41 195.577C1486.24 194.783 1486.33 193.96 1486.65 193.211C1486.98 192.464 1487.52 191.824 1488.22 191.374C1488.92 190.924 1489.75 190.683 1490.59 190.683C1491.15 190.683 1491.7 190.789 1492.22 190.994C1492.74 191.2 1493.22 191.502 1493.6 191.883C1494 192.263 1494.31 192.715 1494.53 193.211C1494.74 193.709 1494.86 194.242 1494.86 194.78Z" stroke="#F87F28" stroke-miterlimit="10"/>
<path d="M1523.82 194.78C1523.82 195.59 1523.57 196.382 1523.1 197.055C1522.63 197.73 1521.96 198.254 1521.19 198.565C1520.41 198.875 1519.55 198.955 1518.72 198.797C1517.9 198.639 1517.13 198.249 1516.54 197.676C1515.94 197.103 1515.53 196.374 1515.37 195.579C1515.21 194.784 1515.29 193.961 1515.62 193.212C1515.93 192.464 1516.49 191.823 1517.19 191.374C1517.89 190.923 1518.71 190.683 1519.56 190.683C1520.69 190.683 1521.78 191.115 1522.57 191.883C1523.37 192.651 1523.82 193.693 1523.82 194.78Z" stroke="#F87F28" stroke-miterlimit="10"/>
<path d="M1552.78 194.78C1552.78 195.59 1552.53 196.382 1552.07 197.055C1551.6 197.73 1550.93 198.254 1550.15 198.565C1549.37 198.875 1548.51 198.955 1547.69 198.797C1546.85 198.639 1546.1 198.249 1545.5 197.676C1544.91 197.103 1544.5 196.374 1544.33 195.579C1544.17 194.784 1544.25 193.961 1544.57 193.212C1544.9 192.464 1545.44 191.823 1546.14 191.374C1546.85 190.923 1547.68 190.683 1548.51 190.683C1549.64 190.683 1550.73 191.115 1551.54 191.883C1552.33 192.651 1552.78 193.693 1552.78 194.78Z" stroke="#F87F28" stroke-miterlimit="10"/>
<path d="M1581.76 194.78C1581.76 195.59 1581.51 196.382 1581.04 197.055C1580.57 197.73 1579.9 198.254 1579.12 198.565C1578.34 198.875 1577.48 198.955 1576.66 198.797C1575.83 198.639 1575.07 198.249 1574.47 197.676C1573.88 197.103 1573.47 196.374 1573.3 195.579C1573.14 194.784 1573.23 193.961 1573.55 193.212C1573.86 192.464 1574.42 191.823 1575.12 191.374C1575.82 190.923 1576.65 190.683 1577.49 190.683C1578.05 190.683 1578.6 190.79 1579.12 190.995C1579.64 191.201 1580.11 191.502 1580.5 191.883C1580.9 192.264 1581.21 192.715 1581.43 193.212C1581.64 193.709 1581.76 194.242 1581.76 194.78Z" stroke="#F87F28" stroke-miterlimit="10"/>
<path d="M1610.72 194.78C1610.72 195.59 1610.47 196.382 1610 197.055C1609.53 197.73 1608.86 198.254 1608.09 198.565C1607.31 198.875 1606.45 198.955 1605.62 198.797C1604.8 198.639 1604.03 198.248 1603.44 197.675C1602.84 197.102 1602.43 196.373 1602.27 195.578C1602.1 194.783 1602.18 193.959 1602.51 193.21C1602.83 192.462 1603.39 191.822 1604.09 191.373C1604.79 190.923 1605.61 190.683 1606.46 190.683C1607.01 190.683 1607.57 190.79 1608.09 190.995C1608.6 191.201 1609.07 191.503 1609.47 191.884C1609.87 192.264 1610.18 192.716 1610.4 193.212C1610.61 193.709 1610.72 194.242 1610.72 194.78Z" stroke="#F87F28" stroke-miterlimit="10"/>
<path d="M1494.86 222.587C1494.86 223.397 1494.61 224.188 1494.14 224.862C1493.67 225.535 1493.01 226.059 1492.22 226.369C1491.45 226.679 1490.59 226.761 1489.76 226.603C1488.93 226.445 1488.18 226.055 1487.58 225.483C1486.98 224.911 1486.58 224.181 1486.41 223.387C1486.24 222.593 1486.33 221.77 1486.65 221.022C1486.98 220.273 1487.52 219.634 1488.22 219.183C1488.92 218.734 1489.75 218.493 1490.59 218.493C1491.15 218.492 1491.7 218.598 1492.22 218.804C1492.74 219.01 1493.21 219.311 1493.6 219.691C1494 220.072 1494.31 220.523 1494.53 221.02C1494.74 221.517 1494.86 222.049 1494.86 222.587Z" stroke="#F87F28" stroke-miterlimit="10"/>
<path d="M1523.82 222.587C1523.82 223.398 1523.57 224.189 1523.1 224.864C1522.63 225.537 1521.97 226.063 1521.19 226.373C1520.41 226.683 1519.55 226.765 1518.72 226.607C1517.9 226.449 1517.13 226.059 1516.54 225.486C1515.94 224.914 1515.53 224.183 1515.37 223.388C1515.21 222.595 1515.29 221.771 1515.62 221.022C1515.93 220.273 1516.49 219.633 1517.19 219.183C1517.89 218.733 1518.71 218.493 1519.56 218.493C1520.69 218.493 1521.78 218.923 1522.57 219.691C1523.37 220.459 1523.82 221.501 1523.82 222.587Z" stroke="#F87F28" stroke-miterlimit="10"/>
<path d="M1552.78 222.587C1552.78 223.398 1552.54 224.189 1552.07 224.864C1551.6 225.537 1550.93 226.063 1550.16 226.373C1549.37 226.683 1548.51 226.765 1547.69 226.607C1546.86 226.449 1546.1 226.059 1545.5 225.486C1544.91 224.914 1544.5 224.183 1544.33 223.388C1544.17 222.595 1544.25 221.771 1544.57 221.022C1544.9 220.273 1545.44 219.633 1546.14 219.183C1546.85 218.733 1547.68 218.493 1548.51 218.493C1549.64 218.493 1550.73 218.923 1551.54 219.691C1552.33 220.459 1552.78 221.501 1552.78 222.587Z" stroke="#F87F28" stroke-miterlimit="10"/>
<path d="M1581.76 222.587C1581.76 223.398 1581.51 224.189 1581.04 224.864C1580.57 225.537 1579.91 226.063 1579.12 226.373C1578.34 226.683 1577.48 226.765 1576.66 226.607C1575.83 226.449 1575.07 226.059 1574.47 225.486C1573.88 224.914 1573.47 224.183 1573.3 223.388C1573.14 222.595 1573.23 221.771 1573.55 221.022C1573.86 220.273 1574.42 219.633 1575.12 219.183C1575.82 218.733 1576.65 218.493 1577.49 218.493C1578.62 218.493 1579.71 218.923 1580.5 219.691C1581.31 220.459 1581.76 221.501 1581.76 222.587Z" stroke="#F87F28" stroke-miterlimit="10"/>
<path d="M1610.72 222.587C1610.72 223.398 1610.47 224.189 1610 224.864C1609.53 225.537 1608.86 226.063 1608.09 226.373C1607.31 226.683 1606.45 226.765 1605.62 226.607C1604.8 226.448 1604.03 226.059 1603.44 225.486C1602.84 224.913 1602.43 224.182 1602.27 223.387C1602.1 222.593 1602.18 221.769 1602.51 221.02C1602.83 220.272 1603.39 219.632 1604.09 219.182C1604.79 218.732 1605.61 218.492 1606.46 218.493C1607.59 218.493 1608.67 218.923 1609.47 219.692C1610.27 220.46 1610.72 221.501 1610.72 222.587Z" stroke="#F87F28" stroke-miterlimit="10"/>
<path d="M1494.86 250.396C1494.86 251.206 1494.61 251.997 1494.14 252.67C1493.67 253.343 1493.01 253.868 1492.22 254.177C1491.44 254.487 1490.58 254.568 1489.76 254.41C1488.93 254.252 1488.18 253.862 1487.57 253.29C1486.98 252.717 1486.58 251.987 1486.41 251.193C1486.24 250.399 1486.33 249.576 1486.65 248.829C1486.98 248.08 1487.52 247.441 1488.22 246.991C1488.92 246.54 1489.75 246.301 1490.59 246.3C1491.15 246.3 1491.7 246.405 1492.22 246.611C1492.74 246.816 1493.22 247.118 1493.6 247.499C1494 247.879 1494.31 248.331 1494.53 248.829C1494.74 249.325 1494.86 249.858 1494.86 250.396Z" stroke="#F87F28" stroke-miterlimit="10"/>
<path d="M1523.82 250.396C1523.82 251.206 1523.57 251.998 1523.1 252.672C1522.63 253.346 1521.96 253.871 1521.19 254.181C1520.41 254.491 1519.55 254.572 1518.72 254.414C1517.9 254.256 1517.13 253.866 1516.54 253.293C1515.94 252.72 1515.53 251.99 1515.37 251.195C1515.21 250.4 1515.29 249.577 1515.62 248.829C1515.93 248.08 1516.49 247.441 1517.19 246.99C1517.89 246.54 1518.71 246.3 1519.56 246.3C1520.69 246.3 1521.78 246.731 1522.57 247.5C1523.37 248.268 1523.82 249.309 1523.82 250.396Z" stroke="#F87F28" stroke-miterlimit="10"/>
<path d="M1552.78 250.396C1552.78 251.206 1552.53 251.998 1552.07 252.672C1551.6 253.346 1550.93 253.871 1550.15 254.181C1549.37 254.491 1548.51 254.572 1547.69 254.414C1546.85 254.256 1546.1 253.866 1545.5 253.293C1544.91 252.72 1544.5 251.99 1544.33 251.195C1544.17 250.4 1544.25 249.577 1544.57 248.829C1544.9 248.08 1545.44 247.441 1546.14 246.99C1546.85 246.54 1547.68 246.3 1548.51 246.3C1549.64 246.3 1550.73 246.731 1551.54 247.5C1552.33 248.268 1552.78 249.309 1552.78 250.396Z" stroke="#F87F28" stroke-miterlimit="10"/>
<path d="M1581.76 250.396C1581.76 251.206 1581.51 251.998 1581.04 252.672C1580.57 253.346 1579.9 253.871 1579.12 254.181C1578.34 254.491 1577.48 254.572 1576.66 254.414C1575.83 254.256 1575.07 253.866 1574.47 253.293C1573.88 252.72 1573.47 251.99 1573.3 251.195C1573.14 250.4 1573.23 249.577 1573.55 248.829C1573.86 248.08 1574.42 247.441 1575.12 246.99C1575.82 246.54 1576.65 246.3 1577.49 246.3C1578.05 246.3 1578.6 246.406 1579.12 246.612C1579.64 246.817 1580.11 247.12 1580.5 247.5C1580.9 247.88 1581.21 248.332 1581.43 248.829C1581.64 249.325 1581.76 249.858 1581.76 250.396Z" stroke="#F87F28" stroke-miterlimit="10"/>
<path d="M1610.72 250.396C1610.72 251.206 1610.47 251.999 1610 252.672C1609.53 253.346 1608.86 253.871 1608.09 254.181C1607.31 254.491 1606.45 254.572 1605.62 254.414C1604.8 254.255 1604.03 253.865 1603.44 253.292C1602.84 252.719 1602.43 251.989 1602.27 251.194C1602.1 250.399 1602.18 249.575 1602.51 248.827C1602.83 248.079 1603.39 247.439 1604.09 246.989C1604.79 246.539 1605.61 246.3 1606.46 246.3C1607.01 246.3 1607.57 246.406 1608.09 246.612C1608.6 246.817 1609.07 247.12 1609.47 247.5C1609.87 247.88 1610.18 248.332 1610.4 248.829C1610.61 249.325 1610.72 249.858 1610.72 250.396Z" stroke="#F87F28" stroke-miterlimit="10"/>
<path d="M1494.86 278.206C1494.86 279.015 1494.61 279.807 1494.14 280.479C1493.67 281.152 1493.01 281.677 1492.22 281.987C1491.44 282.297 1490.58 282.377 1489.76 282.219C1488.93 282.061 1488.18 281.671 1487.57 281.098C1486.98 280.526 1486.58 279.797 1486.41 279.003C1486.24 278.209 1486.33 277.386 1486.65 276.637C1486.98 275.89 1487.52 275.25 1488.22 274.8C1488.92 274.35 1489.75 274.109 1490.59 274.109C1491.72 274.109 1492.81 274.541 1493.6 275.309C1494.41 276.077 1494.86 277.119 1494.86 278.206Z" stroke="#F87F28" stroke-miterlimit="10"/>
<path d="M1523.82 278.206C1523.82 279.016 1523.57 279.808 1523.1 280.481C1522.63 281.156 1521.96 281.68 1521.19 281.991C1520.41 282.301 1519.55 282.381 1518.72 282.223C1517.9 282.065 1517.13 281.675 1516.54 281.102C1515.94 280.529 1515.53 279.8 1515.37 279.005C1515.21 278.21 1515.29 277.386 1515.62 276.638C1515.93 275.89 1516.49 275.249 1517.19 274.8C1517.89 274.349 1518.71 274.109 1519.56 274.109C1520.69 274.109 1521.78 274.542 1522.57 275.31C1523.37 276.077 1523.82 277.119 1523.82 278.206Z" stroke="#F87F28" stroke-miterlimit="10"/>
<path d="M1552.78 278.206C1552.78 279.016 1552.53 279.808 1552.07 280.481C1551.6 281.156 1550.93 281.68 1550.15 281.991C1549.37 282.301 1548.51 282.381 1547.69 282.223C1546.85 282.065 1546.1 281.675 1545.5 281.102C1544.91 280.529 1544.5 279.8 1544.33 279.005C1544.17 278.21 1544.25 277.386 1544.57 276.638C1544.9 275.89 1545.44 275.249 1546.14 274.8C1546.85 274.349 1547.68 274.109 1548.51 274.109C1549.64 274.109 1550.73 274.542 1551.54 275.31C1552.33 276.077 1552.78 277.119 1552.78 278.206Z" stroke="#F87F28" stroke-miterlimit="10"/>
<path d="M1581.76 278.206C1581.76 279.016 1581.51 279.808 1581.04 280.481C1580.57 281.156 1579.9 281.68 1579.12 281.991C1578.34 282.301 1577.48 282.381 1576.66 282.223C1575.83 282.065 1575.07 281.675 1574.47 281.102C1573.88 280.529 1573.47 279.8 1573.3 279.005C1573.14 278.21 1573.23 277.386 1573.55 276.638C1573.86 275.89 1574.42 275.249 1575.12 274.8C1575.82 274.349 1576.65 274.109 1577.49 274.109C1578.62 274.109 1579.71 274.542 1580.5 275.31C1581.31 276.077 1581.76 277.119 1581.76 278.206Z" stroke="#F87F28" stroke-miterlimit="10"/>
<path d="M1610.72 278.206C1610.72 279.016 1610.47 279.808 1610 280.482C1609.53 281.155 1608.86 281.68 1608.09 281.991C1607.31 282.301 1606.45 282.381 1605.62 282.223C1604.8 282.065 1604.03 281.674 1603.44 281.101C1602.84 280.528 1602.43 279.799 1602.27 279.004C1602.1 278.209 1602.18 277.385 1602.51 276.636C1602.83 275.888 1603.39 275.248 1604.09 274.799C1604.79 274.349 1605.61 274.109 1606.46 274.109C1607.59 274.109 1608.67 274.542 1609.47 275.31C1610.27 276.078 1610.72 277.119 1610.72 278.206Z" stroke="#F87F28" stroke-miterlimit="10"/>
<path d="M1494.86 306.015C1494.86 306.824 1494.61 307.616 1494.14 308.289C1493.67 308.962 1493.01 309.486 1492.22 309.796C1491.44 310.105 1490.58 310.186 1489.76 310.029C1488.93 309.87 1488.18 309.481 1487.57 308.908C1486.98 308.336 1486.58 307.606 1486.41 306.812C1486.24 306.019 1486.33 305.195 1486.65 304.447C1486.98 303.699 1487.52 303.06 1488.22 302.609C1488.92 302.16 1489.75 301.919 1490.59 301.919C1491.72 301.919 1492.81 302.35 1493.6 303.118C1494.41 303.887 1494.86 304.929 1494.86 306.015Z" stroke="#F87F28" stroke-miterlimit="10"/>
<path d="M1523.82 306.015C1523.82 306.825 1523.57 307.617 1523.1 308.291C1522.63 308.964 1521.96 309.489 1521.19 309.799C1520.41 310.109 1519.55 310.191 1518.72 310.033C1517.9 309.874 1517.13 309.484 1516.54 308.912C1515.94 308.339 1515.53 307.608 1515.37 306.814C1515.21 306.02 1515.29 305.196 1515.62 304.447C1515.93 303.699 1516.49 303.059 1517.19 302.609C1517.89 302.159 1518.71 301.919 1519.56 301.919C1520.69 301.919 1521.78 302.35 1522.57 303.119C1523.37 303.887 1523.82 304.929 1523.82 306.015Z" stroke="#F87F28" stroke-miterlimit="10"/>
<path d="M1552.78 306.015C1552.78 306.825 1552.53 307.617 1552.07 308.291C1551.6 308.964 1550.93 309.489 1550.15 309.799C1549.37 310.109 1548.51 310.191 1547.69 310.033C1546.85 309.874 1546.1 309.484 1545.5 308.912C1544.91 308.339 1544.5 307.608 1544.33 306.814C1544.17 306.02 1544.25 305.196 1544.57 304.447C1544.9 303.699 1545.44 303.059 1546.14 302.609C1546.85 302.159 1547.68 301.919 1548.51 301.919C1549.64 301.919 1550.73 302.35 1551.54 303.119C1552.33 303.887 1552.78 304.929 1552.78 306.015Z" stroke="#F87F28" stroke-miterlimit="10"/>
<path d="M1581.76 306.015C1581.76 306.825 1581.51 307.617 1581.04 308.291C1580.57 308.964 1579.9 309.489 1579.12 309.799C1578.34 310.109 1577.48 310.191 1576.66 310.033C1575.83 309.874 1575.07 309.484 1574.47 308.912C1573.88 308.339 1573.47 307.608 1573.3 306.814C1573.14 306.02 1573.23 305.196 1573.55 304.447C1573.86 303.699 1574.42 303.059 1575.12 302.609C1575.82 302.159 1576.65 301.919 1577.49 301.919C1578.62 301.919 1579.71 302.35 1580.5 303.119C1581.31 303.887 1581.76 304.929 1581.76 306.015Z" stroke="#F87F28" stroke-miterlimit="10"/>
<path d="M1610.72 306.015C1610.72 306.825 1610.47 307.617 1610 308.291C1609.53 308.965 1608.86 309.49 1608.09 309.8C1607.31 310.109 1606.45 310.19 1605.62 310.032C1604.8 309.874 1604.03 309.484 1603.44 308.911C1602.84 308.338 1602.43 307.607 1602.27 306.812C1602.1 306.018 1602.18 305.195 1602.51 304.446C1602.83 303.697 1603.39 303.058 1604.09 302.608C1604.79 302.158 1605.61 301.918 1606.46 301.919C1607.59 301.919 1608.67 302.35 1609.47 303.119C1610.27 303.887 1610.72 304.929 1610.72 306.015Z" stroke="#F87F28" stroke-miterlimit="10"/>
<g opacity="0.29">
<path opacity="0.29" d="M1040.33 667.246C1041.54 667.246 1042.54 666.299 1042.54 665.129C1042.54 663.96 1041.54 663.013 1040.33 663.013C1039.11 663.013 1038.13 663.96 1038.13 665.129C1038.13 666.299 1039.11 667.246 1040.33 667.246Z" fill="#F89300"/>
<path opacity="0.29" d="M1069.09 667.246C1070.3 667.246 1071.28 666.299 1071.28 665.129C1071.28 663.96 1070.3 663.013 1069.09 663.013C1067.87 663.013 1066.88 663.96 1066.88 665.129C1066.88 666.299 1067.87 667.246 1069.09 667.246Z" fill="#F89300"/>
<path opacity="0.29" d="M1097.84 667.246C1099.06 667.246 1100.04 666.299 1100.04 665.129C1100.04 663.96 1099.06 663.013 1097.84 663.013C1096.62 663.013 1095.64 663.96 1095.64 665.129C1095.64 666.299 1096.62 667.246 1097.84 667.246Z" fill="#F89300"/>
<path opacity="0.29" d="M1126.59 667.246C1127.82 667.246 1128.8 666.299 1128.8 665.129C1128.8 663.96 1127.82 663.013 1126.59 663.013C1125.38 663.013 1124.39 663.96 1124.39 665.129C1124.39 666.299 1125.38 667.246 1126.59 667.246Z" fill="#F89300"/>
<path opacity="0.29" d="M1040.33 694.613C1041.54 694.613 1042.54 693.666 1042.54 692.496C1042.54 691.327 1041.54 690.38 1040.33 690.38C1039.11 690.38 1038.13 691.327 1038.13 692.496C1038.13 693.666 1039.11 694.613 1040.33 694.613Z" fill="#F89300"/>
<path opacity="0.29" d="M1069.09 694.613C1070.3 694.613 1071.28 693.666 1071.28 692.496C1071.28 691.327 1070.3 690.38 1069.09 690.38C1067.87 690.38 1066.88 691.327 1066.88 692.496C1066.88 693.666 1067.87 694.613 1069.09 694.613Z" fill="#F89300"/>
<path opacity="0.29" d="M1097.84 694.613C1099.06 694.613 1100.04 693.666 1100.04 692.496C1100.04 691.327 1099.06 690.38 1097.84 690.38C1096.62 690.38 1095.64 691.327 1095.64 692.496C1095.64 693.666 1096.62 694.613 1097.84 694.613Z" fill="#F89300"/>
<path opacity="0.29" d="M1126.59 694.613C1127.82 694.613 1128.8 693.666 1128.8 692.496C1128.8 691.327 1127.82 690.38 1126.59 690.38C1125.38 690.38 1124.39 691.327 1124.39 692.496C1124.39 693.666 1125.38 694.613 1126.59 694.613Z" fill="#F89300"/>
<path opacity="0.29" d="M1042.54 719.864C1042.54 720.282 1042.4 720.691 1042.16 721.04C1041.92 721.388 1041.58 721.659 1041.17 721.82C1040.77 721.979 1040.32 722.021 1039.9 721.94C1039.47 721.858 1039.08 721.657 1038.77 721.361C1038.46 721.065 1038.25 720.687 1038.17 720.277C1038.08 719.866 1038.13 719.441 1038.29 719.054C1038.46 718.667 1038.74 718.336 1039.11 718.104C1039.46 717.871 1039.89 717.747 1040.33 717.747C1040.92 717.747 1041.47 717.97 1041.89 718.367C1042.3 718.765 1042.54 719.302 1042.54 719.864Z" fill="#F89300"/>
<path opacity="0.29" d="M1071.28 719.864C1071.28 720.282 1071.16 720.691 1070.92 721.04C1070.68 721.388 1070.33 721.659 1069.93 721.82C1069.53 721.979 1069.08 722.021 1068.65 721.94C1068.23 721.858 1067.83 721.657 1067.52 721.361C1067.22 721.065 1067.01 720.687 1066.93 720.277C1066.84 719.866 1066.88 719.441 1067.05 719.054C1067.22 718.667 1067.5 718.336 1067.86 718.104C1068.22 717.871 1068.65 717.747 1069.09 717.747C1069.67 717.747 1070.23 717.97 1070.65 718.367C1071.05 718.765 1071.28 719.302 1071.28 719.864Z" fill="#F89300"/>
<path opacity="0.29" d="M1100.04 719.864C1100.04 720.282 1099.92 720.691 1099.68 721.04C1099.44 721.388 1099.09 721.659 1098.68 721.82C1098.29 721.979 1097.84 722.021 1097.41 721.94C1096.98 721.858 1096.59 721.657 1096.28 721.361C1095.98 721.065 1095.77 720.687 1095.68 720.277C1095.6 719.866 1095.64 719.441 1095.81 719.054C1095.98 718.667 1096.26 718.336 1096.61 718.104C1096.98 717.871 1097.41 717.747 1097.84 717.747C1098.42 717.747 1098.99 717.97 1099.4 718.367C1099.81 718.765 1100.04 719.302 1100.04 719.864Z" fill="#F89300"/>
<path opacity="0.29" d="M1128.8 719.864C1128.8 720.282 1128.67 720.691 1128.43 721.04C1128.18 721.388 1127.85 721.659 1127.44 721.82C1127.03 721.979 1126.59 722.021 1126.16 721.94C1125.74 721.858 1125.35 721.657 1125.04 721.361C1124.73 721.065 1124.52 720.687 1124.43 720.277C1124.35 719.866 1124.39 719.441 1124.55 719.054C1124.72 718.667 1125 718.336 1125.37 718.104C1125.74 717.871 1126.16 717.747 1126.59 717.747C1126.89 717.747 1127.17 717.802 1127.44 717.908C1127.71 718.015 1127.95 718.17 1128.15 718.367C1128.36 718.564 1128.53 718.797 1128.63 719.054C1128.75 719.311 1128.8 719.586 1128.8 719.864Z" fill="#F89300"/>
<path opacity="0.29" d="M1042.54 747.233C1042.54 747.651 1042.4 748.061 1042.16 748.409C1041.92 748.756 1041.58 749.028 1041.17 749.188C1040.77 749.348 1040.32 749.389 1039.89 749.308C1039.47 749.226 1039.08 749.024 1038.77 748.728C1038.46 748.432 1038.25 748.055 1038.17 747.644C1038.08 747.234 1038.13 746.808 1038.29 746.422C1038.46 746.035 1038.74 745.704 1039.11 745.472C1039.46 745.239 1039.89 745.115 1040.33 745.115C1040.61 745.115 1040.91 745.17 1041.17 745.277C1041.44 745.383 1041.68 745.538 1041.89 745.735C1042.09 745.932 1042.26 746.166 1042.37 746.423C1042.47 746.68 1042.54 746.955 1042.54 747.233Z" fill="#F89300"/>
<path opacity="0.29" d="M1071.28 747.233C1071.28 747.651 1071.16 748.061 1070.92 748.409C1070.68 748.756 1070.33 749.028 1069.93 749.188C1069.53 749.348 1069.08 749.389 1068.65 749.308C1068.22 749.226 1067.83 749.024 1067.52 748.728C1067.22 748.432 1067.01 748.055 1066.93 747.644C1066.84 747.234 1066.88 746.808 1067.05 746.422C1067.22 746.035 1067.5 745.704 1067.86 745.472C1068.22 745.239 1068.65 745.115 1069.09 745.115C1069.37 745.115 1069.66 745.17 1069.93 745.277C1070.2 745.383 1070.44 745.538 1070.65 745.735C1070.85 745.932 1071.01 746.166 1071.12 746.423C1071.23 746.68 1071.28 746.955 1071.28 747.233Z" fill="#F89300"/>
<path opacity="0.29" d="M1100.04 747.233C1100.04 747.651 1099.92 748.061 1099.68 748.409C1099.44 748.756 1099.09 749.028 1098.68 749.188C1098.29 749.348 1097.84 749.389 1097.41 749.308C1096.98 749.226 1096.59 749.024 1096.28 748.728C1095.98 748.432 1095.77 748.055 1095.68 747.644C1095.6 747.234 1095.64 746.808 1095.81 746.422C1095.98 746.035 1096.26 745.704 1096.61 745.472C1096.98 745.239 1097.41 745.115 1097.84 745.115C1098.42 745.116 1098.99 745.339 1099.4 745.736C1099.81 746.133 1100.04 746.672 1100.04 747.233Z" fill="#F89300"/>
<path opacity="0.29" d="M1128.8 747.233C1128.8 747.651 1128.67 748.061 1128.43 748.409C1128.18 748.756 1127.84 749.028 1127.44 749.188C1127.03 749.348 1126.59 749.389 1126.16 749.308C1125.74 749.226 1125.35 749.024 1125.04 748.728C1124.73 748.432 1124.52 748.055 1124.43 747.644C1124.35 747.234 1124.39 746.808 1124.55 746.422C1124.72 746.035 1125 745.704 1125.37 745.472C1125.74 745.239 1126.16 745.115 1126.59 745.115C1126.89 745.115 1127.17 745.17 1127.44 745.277C1127.71 745.383 1127.95 745.538 1128.15 745.735C1128.36 745.932 1128.53 746.166 1128.63 746.423C1128.75 746.68 1128.8 746.955 1128.8 747.233Z" fill="#F89300"/>
</g>
<g opacity="0.29">
<path opacity="0.29" d="M1152.18 667.246C1153.4 667.246 1154.39 666.299 1154.39 665.129C1154.39 663.96 1153.4 663.013 1152.18 663.013C1150.96 663.013 1149.98 663.96 1149.98 665.129C1149.98 666.299 1150.96 667.246 1152.18 667.246Z" fill="#F89300"/>
<path opacity="0.29" d="M1180.94 667.246C1182.15 667.246 1183.14 666.299 1183.14 665.129C1183.14 663.96 1182.15 663.013 1180.94 663.013C1179.72 663.013 1178.73 663.96 1178.73 665.129C1178.73 666.299 1179.72 667.246 1180.94 667.246Z" fill="#F89300"/>
<path opacity="0.29" d="M1209.69 667.246C1210.91 667.246 1211.89 666.299 1211.89 665.129C1211.89 663.96 1210.91 663.013 1209.69 663.013C1208.47 663.013 1207.49 663.96 1207.49 665.129C1207.49 666.299 1208.47 667.246 1209.69 667.246Z" fill="#F89300"/>
<path opacity="0.29" d="M1238.44 667.246C1239.67 667.246 1240.65 666.299 1240.65 665.129C1240.65 663.96 1239.67 663.013 1238.44 663.013C1237.23 663.013 1236.24 663.96 1236.24 665.129C1236.24 666.299 1237.23 667.246 1238.44 667.246Z" fill="#F89300"/>
<path opacity="0.29" d="M1152.18 694.613C1153.4 694.613 1154.39 693.666 1154.39 692.496C1154.39 691.327 1153.4 690.38 1152.18 690.38C1150.96 690.38 1149.98 691.327 1149.98 692.496C1149.98 693.666 1150.96 694.613 1152.18 694.613Z" fill="#F89300"/>
<path opacity="0.29" d="M1180.94 694.613C1182.15 694.613 1183.14 693.666 1183.14 692.496C1183.14 691.327 1182.15 690.38 1180.94 690.38C1179.72 690.38 1178.73 691.327 1178.73 692.496C1178.73 693.666 1179.72 694.613 1180.94 694.613Z" fill="#F89300"/>
<path opacity="0.29" d="M1209.69 694.613C1210.91 694.613 1211.89 693.666 1211.89 692.496C1211.89 691.327 1210.91 690.38 1209.69 690.38C1208.47 690.38 1207.49 691.327 1207.49 692.496C1207.49 693.666 1208.47 694.613 1209.69 694.613Z" fill="#F89300"/>
<path opacity="0.29" d="M1238.44 694.613C1239.67 694.613 1240.65 693.666 1240.65 692.496C1240.65 691.327 1239.67 690.38 1238.44 690.38C1237.23 690.38 1236.24 691.327 1236.24 692.496C1236.24 693.666 1237.23 694.613 1238.44 694.613Z" fill="#F89300"/>
<path opacity="0.29" d="M1154.39 719.864C1154.39 720.282 1154.25 720.691 1154.01 721.04C1153.77 721.388 1153.43 721.659 1153.02 721.82C1152.62 721.979 1152.17 722.021 1151.75 721.94C1151.33 721.858 1150.93 721.657 1150.63 721.361C1150.31 721.065 1150.1 720.687 1150.02 720.277C1149.94 719.866 1149.98 719.441 1150.14 719.054C1150.31 718.667 1150.59 718.336 1150.96 718.104C1151.32 717.871 1151.74 717.747 1152.18 717.747C1152.77 717.747 1153.32 717.97 1153.74 718.367C1154.15 718.765 1154.39 719.302 1154.39 719.864Z" fill="#F89300"/>
<path opacity="0.29" d="M1183.14 719.864C1183.14 720.282 1183.01 720.691 1182.77 721.04C1182.53 721.388 1182.18 721.659 1181.78 721.82C1181.38 721.979 1180.93 722.021 1180.5 721.94C1180.08 721.858 1179.69 721.657 1179.37 721.361C1179.07 721.065 1178.86 720.687 1178.78 720.277C1178.69 719.866 1178.73 719.441 1178.9 719.054C1179.07 718.667 1179.35 718.336 1179.71 718.104C1180.07 717.871 1180.5 717.747 1180.94 717.747C1181.53 717.747 1182.08 717.97 1182.5 718.367C1182.91 718.765 1183.14 719.302 1183.14 719.864Z" fill="#F89300"/>
<path opacity="0.29" d="M1211.89 719.864C1211.89 720.282 1211.77 720.691 1211.53 721.04C1211.29 721.388 1210.94 721.659 1210.53 721.82C1210.14 721.979 1209.69 722.021 1209.26 721.94C1208.83 721.858 1208.44 721.657 1208.13 721.361C1207.83 721.065 1207.62 720.687 1207.53 720.277C1207.45 719.866 1207.49 719.441 1207.66 719.054C1207.83 718.667 1208.11 718.336 1208.46 718.104C1208.83 717.871 1209.26 717.747 1209.69 717.747C1210.27 717.747 1210.84 717.97 1211.26 718.367C1211.66 718.765 1211.89 719.302 1211.89 719.864Z" fill="#F89300"/>
<path opacity="0.29" d="M1240.65 719.864C1240.65 720.282 1240.53 720.691 1240.28 721.04C1240.03 721.388 1239.7 721.659 1239.29 721.82C1238.88 721.979 1238.44 722.021 1238.02 721.94C1237.59 721.858 1237.2 721.657 1236.89 721.361C1236.58 721.065 1236.38 720.687 1236.28 720.277C1236.2 719.866 1236.24 719.441 1236.41 719.054C1236.57 718.667 1236.86 718.336 1237.22 718.104C1237.59 717.871 1238.02 717.747 1238.44 717.747C1238.74 717.747 1239.02 717.802 1239.29 717.908C1239.56 718.015 1239.8 718.17 1240 718.367C1240.21 718.564 1240.38 718.797 1240.48 719.054C1240.6 719.311 1240.65 719.586 1240.65 719.864Z" fill="#F89300"/>
<path opacity="0.29" d="M1154.39 747.233C1154.39 747.651 1154.25 748.061 1154.01 748.409C1153.77 748.756 1153.43 749.028 1153.02 749.188C1152.62 749.348 1152.17 749.389 1151.74 749.308C1151.33 749.226 1150.93 749.024 1150.63 748.728C1150.31 748.432 1150.1 748.055 1150.02 747.644C1149.94 747.234 1149.98 746.808 1150.14 746.422C1150.31 746.035 1150.59 745.704 1150.96 745.472C1151.32 745.239 1151.74 745.115 1152.18 745.115C1152.47 745.115 1152.76 745.17 1153.02 745.277C1153.29 745.383 1153.53 745.538 1153.74 745.735C1153.94 745.932 1154.11 746.166 1154.22 746.423C1154.33 746.68 1154.39 746.955 1154.39 747.233Z" fill="#F89300"/>
<path opacity="0.29" d="M1183.14 747.233C1183.14 747.651 1183.01 748.061 1182.77 748.409C1182.53 748.756 1182.18 749.028 1181.78 749.188C1181.38 749.348 1180.93 749.389 1180.5 749.308C1180.07 749.226 1179.69 749.024 1179.37 748.728C1179.07 748.432 1178.86 748.055 1178.78 747.644C1178.69 747.234 1178.73 746.808 1178.9 746.422C1179.07 746.035 1179.35 745.704 1179.71 745.472C1180.07 745.239 1180.5 745.115 1180.94 745.115C1181.22 745.115 1181.52 745.17 1181.78 745.277C1182.05 745.383 1182.29 745.538 1182.5 745.735C1182.7 745.932 1182.86 746.166 1182.97 746.423C1183.08 746.68 1183.14 746.955 1183.14 747.233Z" fill="#F89300"/>
<path opacity="0.29" d="M1211.89 747.233C1211.89 747.651 1211.77 748.061 1211.53 748.409C1211.29 748.756 1210.94 749.028 1210.53 749.188C1210.14 749.348 1209.69 749.389 1209.26 749.308C1208.83 749.226 1208.44 749.024 1208.13 748.728C1207.83 748.432 1207.62 748.055 1207.53 747.644C1207.45 747.234 1207.49 746.808 1207.66 746.422C1207.83 746.035 1208.11 745.704 1208.46 745.472C1208.83 745.239 1209.26 745.115 1209.69 745.115C1210.27 745.116 1210.84 745.339 1211.26 745.736C1211.66 746.133 1211.89 746.672 1211.89 747.233Z" fill="#F89300"/>
<path opacity="0.29" d="M1240.65 747.233C1240.65 747.651 1240.53 748.061 1240.28 748.409C1240.03 748.756 1239.69 749.028 1239.29 749.188C1238.88 749.348 1238.44 749.389 1238.02 749.308C1237.59 749.226 1237.2 749.024 1236.89 748.728C1236.58 748.432 1236.38 748.055 1236.28 747.644C1236.2 747.234 1236.24 746.808 1236.41 746.422C1236.57 746.035 1236.86 745.704 1237.22 745.472C1237.59 745.239 1238.02 745.115 1238.44 745.115C1238.74 745.115 1239.02 745.17 1239.29 745.277C1239.56 745.383 1239.8 745.538 1240 745.735C1240.21 745.932 1240.38 746.166 1240.48 746.423C1240.6 746.68 1240.65 746.955 1240.65 747.233Z" fill="#F89300"/>
</g>
<g opacity="0.29">
<path opacity="0.29" d="M1264.04 667.246C1265.25 667.246 1266.24 666.299 1266.24 665.129C1266.24 663.96 1265.25 663.013 1264.04 663.013C1262.81 663.013 1261.83 663.96 1261.83 665.129C1261.83 666.299 1262.81 667.246 1264.04 667.246Z" fill="#F89300"/>
<path opacity="0.29" d="M1292.79 667.246C1294.01 667.246 1294.99 666.299 1294.99 665.129C1294.99 663.96 1294.01 663.013 1292.79 663.013C1291.57 663.013 1290.59 663.96 1290.59 665.129C1290.59 666.299 1291.57 667.246 1292.79 667.246Z" fill="#F89300"/>
<path opacity="0.29" d="M1321.54 667.246C1322.76 667.246 1323.74 666.299 1323.74 665.129C1323.74 663.96 1322.76 663.013 1321.54 663.013C1320.33 663.013 1319.34 663.96 1319.34 665.129C1319.34 666.299 1320.33 667.246 1321.54 667.246Z" fill="#F89300"/>
<path opacity="0.29" d="M1350.3 667.246C1351.52 667.246 1352.5 666.299 1352.5 665.129C1352.5 663.96 1351.52 663.013 1350.3 663.013C1349.08 663.013 1348.09 663.96 1348.09 665.129C1348.09 666.299 1349.08 667.246 1350.3 667.246Z" fill="#F89300"/>
<path opacity="0.29" d="M1264.04 694.613C1265.25 694.613 1266.24 693.666 1266.24 692.496C1266.24 691.327 1265.25 690.38 1264.04 690.38C1262.81 690.38 1261.83 691.327 1261.83 692.496C1261.83 693.666 1262.81 694.613 1264.04 694.613Z" fill="#F89300"/>
<path opacity="0.29" d="M1292.79 694.613C1294.01 694.613 1294.99 693.666 1294.99 692.496C1294.99 691.327 1294.01 690.38 1292.79 690.38C1291.57 690.38 1290.59 691.327 1290.59 692.496C1290.59 693.666 1291.57 694.613 1292.79 694.613Z" fill="#F89300"/>
<path opacity="0.29" d="M1321.54 694.613C1322.76 694.613 1323.74 693.666 1323.74 692.496C1323.74 691.327 1322.76 690.38 1321.54 690.38C1320.33 690.38 1319.34 691.327 1319.34 692.496C1319.34 693.666 1320.33 694.613 1321.54 694.613Z" fill="#F89300"/>
<path opacity="0.29" d="M1350.3 694.613C1351.52 694.613 1352.5 693.666 1352.5 692.496C1352.5 691.327 1351.52 690.38 1350.3 690.38C1349.08 690.38 1348.09 691.327 1348.09 692.496C1348.09 693.666 1349.08 694.613 1350.3 694.613Z" fill="#F89300"/>
<path opacity="0.29" d="M1266.24 719.864C1266.24 720.282 1266.1 720.691 1265.86 721.04C1265.62 721.388 1265.28 721.659 1264.87 721.82C1264.47 721.979 1264.02 722.021 1263.61 721.94C1263.18 721.858 1262.78 721.657 1262.48 721.361C1262.16 721.065 1261.95 720.687 1261.87 720.277C1261.79 719.866 1261.83 719.441 1262 719.054C1262.16 718.667 1262.45 718.336 1262.81 718.104C1263.17 717.871 1263.6 717.747 1264.04 717.747C1264.62 717.747 1265.17 717.97 1265.59 718.367C1266 718.765 1266.24 719.302 1266.24 719.864Z" fill="#F89300"/>
<path opacity="0.29" d="M1294.99 719.864C1294.99 720.282 1294.86 720.691 1294.62 721.04C1294.38 721.388 1294.04 721.659 1293.63 721.82C1293.23 721.979 1292.78 722.021 1292.35 721.94C1291.94 721.858 1291.54 721.657 1291.22 721.361C1290.92 721.065 1290.71 720.687 1290.63 720.277C1290.55 719.866 1290.59 719.441 1290.75 719.054C1290.92 718.667 1291.2 718.336 1291.56 718.104C1291.92 717.871 1292.35 717.747 1292.79 717.747C1293.38 717.747 1293.93 717.97 1294.35 718.367C1294.76 718.765 1294.99 719.302 1294.99 719.864Z" fill="#F89300"/>
<path opacity="0.29" d="M1323.75 719.864C1323.75 720.282 1323.62 720.691 1323.38 721.04C1323.14 721.388 1322.79 721.659 1322.39 721.82C1321.99 721.979 1321.54 722.021 1321.11 721.94C1320.68 721.858 1320.3 721.657 1319.98 721.361C1319.68 721.065 1319.47 720.687 1319.39 720.277C1319.3 719.866 1319.34 719.441 1319.51 719.054C1319.68 718.667 1319.96 718.336 1320.32 718.104C1320.68 717.871 1321.11 717.747 1321.54 717.747C1322.13 717.747 1322.69 717.97 1323.11 718.367C1323.52 718.765 1323.75 719.302 1323.75 719.864Z" fill="#F89300"/>
<path opacity="0.29" d="M1352.5 719.864C1352.5 720.282 1352.38 720.691 1352.14 721.04C1351.89 721.388 1351.55 721.659 1351.14 721.82C1350.74 721.979 1350.3 722.021 1349.87 721.94C1349.44 721.858 1349.05 721.657 1348.74 721.361C1348.44 721.065 1348.23 720.687 1348.13 720.277C1348.05 719.866 1348.09 719.441 1348.26 719.054C1348.43 718.667 1348.71 718.336 1349.07 718.104C1349.44 717.871 1349.87 717.747 1350.3 717.747C1350.59 717.747 1350.87 717.802 1351.14 717.908C1351.42 718.015 1351.66 718.17 1351.85 718.367C1352.06 718.564 1352.23 718.797 1352.34 719.054C1352.45 719.311 1352.5 719.586 1352.5 719.864Z" fill="#F89300"/>
<path opacity="0.29" d="M1266.24 747.233C1266.24 747.651 1266.1 748.061 1265.86 748.409C1265.62 748.756 1265.28 749.028 1264.87 749.188C1264.47 749.348 1264.02 749.389 1263.6 749.308C1263.18 749.226 1262.78 749.024 1262.48 748.728C1262.16 748.432 1261.95 748.055 1261.87 747.644C1261.79 747.234 1261.83 746.808 1262 746.422C1262.16 746.035 1262.45 745.704 1262.81 745.472C1263.17 745.239 1263.6 745.115 1264.04 745.115C1264.32 745.115 1264.61 745.17 1264.87 745.277C1265.14 745.383 1265.38 745.538 1265.59 745.735C1265.79 745.932 1265.96 746.166 1266.07 746.423C1266.18 746.68 1266.24 746.955 1266.24 747.233Z" fill="#F89300"/>
<path opacity="0.29" d="M1294.99 747.233C1294.99 747.651 1294.86 748.061 1294.62 748.409C1294.38 748.756 1294.04 749.028 1293.63 749.188C1293.23 749.348 1292.78 749.389 1292.35 749.308C1291.92 749.226 1291.54 749.024 1291.22 748.728C1290.92 748.432 1290.71 748.055 1290.63 747.644C1290.55 747.234 1290.59 746.808 1290.75 746.422C1290.92 746.035 1291.2 745.704 1291.56 745.472C1291.92 745.239 1292.35 745.115 1292.79 745.115C1293.07 745.115 1293.37 745.17 1293.63 745.277C1293.9 745.383 1294.14 745.538 1294.35 745.735C1294.55 745.932 1294.72 746.166 1294.82 746.423C1294.94 746.68 1294.99 746.955 1294.99 747.233Z" fill="#F89300"/>
<path opacity="0.29" d="M1323.75 747.233C1323.75 747.651 1323.62 748.061 1323.38 748.409C1323.14 748.756 1322.79 749.028 1322.39 749.188C1321.99 749.348 1321.54 749.389 1321.11 749.308C1320.68 749.226 1320.3 749.024 1319.98 748.728C1319.68 748.432 1319.47 748.055 1319.39 747.644C1319.3 747.234 1319.34 746.808 1319.51 746.422C1319.68 746.035 1319.96 745.704 1320.32 745.472C1320.68 745.239 1321.11 745.115 1321.54 745.115C1322.13 745.116 1322.69 745.339 1323.11 745.736C1323.52 746.133 1323.75 746.672 1323.75 747.233Z" fill="#F89300"/>
<path opacity="0.29" d="M1352.5 747.233C1352.5 747.651 1352.38 748.061 1352.14 748.409C1351.89 748.756 1351.54 749.028 1351.14 749.188C1350.74 749.348 1350.3 749.389 1349.87 749.308C1349.44 749.226 1349.05 749.024 1348.74 748.728C1348.44 748.432 1348.23 748.055 1348.13 747.644C1348.05 747.234 1348.09 746.808 1348.26 746.422C1348.43 746.035 1348.71 745.704 1349.07 745.472C1349.44 745.239 1349.87 745.115 1350.3 745.115C1350.59 745.115 1350.87 745.17 1351.14 745.277C1351.42 745.383 1351.66 745.538 1351.85 745.735C1352.06 745.932 1352.23 746.166 1352.34 746.423C1352.45 746.68 1352.5 746.955 1352.5 747.233Z" fill="#F89300"/>
</g>
<g opacity="0.29">
<path opacity="0.29" d="M1040.33 774.631C1041.54 774.631 1042.54 773.683 1042.54 772.514C1042.54 771.345 1041.54 770.398 1040.33 770.398C1039.11 770.398 1038.13 771.345 1038.13 772.514C1038.13 773.683 1039.11 774.631 1040.33 774.631Z" fill="#F89300"/>
<path opacity="0.29" d="M1069.09 774.631C1070.3 774.631 1071.28 773.683 1071.28 772.514C1071.28 771.345 1070.3 770.398 1069.09 770.398C1067.87 770.398 1066.88 771.345 1066.88 772.514C1066.88 773.683 1067.87 774.631 1069.09 774.631Z" fill="#F89300"/>
<path opacity="0.29" d="M1097.84 774.631C1099.06 774.631 1100.04 773.683 1100.04 772.514C1100.04 771.345 1099.06 770.398 1097.84 770.398C1096.62 770.398 1095.64 771.345 1095.64 772.514C1095.64 773.683 1096.62 774.631 1097.84 774.631Z" fill="#F89300"/>
<path opacity="0.29" d="M1126.59 774.631C1127.82 774.631 1128.8 773.683 1128.8 772.514C1128.8 771.345 1127.82 770.398 1126.59 770.398C1125.38 770.398 1124.39 771.345 1124.39 772.514C1124.39 773.683 1125.38 774.631 1126.59 774.631Z" fill="#F89300"/>
<path opacity="0.29" d="M1040.33 801.998C1041.54 801.998 1042.54 801.051 1042.54 799.881C1042.54 798.712 1041.54 797.765 1040.33 797.765C1039.11 797.765 1038.13 798.712 1038.13 799.881C1038.13 801.051 1039.11 801.998 1040.33 801.998Z" fill="#F89300"/>
<path opacity="0.29" d="M1069.09 801.998C1070.3 801.998 1071.28 801.051 1071.28 799.881C1071.28 798.712 1070.3 797.765 1069.09 797.765C1067.87 797.765 1066.88 798.712 1066.88 799.881C1066.88 801.051 1067.87 801.998 1069.09 801.998Z" fill="#F89300"/>
<path opacity="0.29" d="M1097.84 801.998C1099.06 801.998 1100.04 801.051 1100.04 799.881C1100.04 798.712 1099.06 797.765 1097.84 797.765C1096.62 797.765 1095.64 798.712 1095.64 799.881C1095.64 801.051 1096.62 801.998 1097.84 801.998Z" fill="#F89300"/>
<path opacity="0.29" d="M1126.59 801.998C1127.82 801.998 1128.8 801.051 1128.8 799.881C1128.8 798.712 1127.82 797.765 1126.59 797.765C1125.38 797.765 1124.39 798.712 1124.39 799.881C1124.39 801.051 1125.38 801.998 1126.59 801.998Z" fill="#F89300"/>
<path opacity="0.29" d="M1042.54 827.248C1042.54 827.667 1042.4 828.076 1042.16 828.424C1041.92 828.773 1041.58 829.044 1041.17 829.204C1040.77 829.364 1040.32 829.406 1039.9 829.325C1039.47 829.242 1039.08 829.042 1038.77 828.746C1038.46 828.45 1038.25 828.072 1038.17 827.662C1038.08 827.251 1038.13 826.826 1038.29 826.438C1038.46 826.052 1038.74 825.721 1039.11 825.489C1039.46 825.256 1039.89 825.132 1040.33 825.132C1040.92 825.132 1041.47 825.354 1041.89 825.752C1042.3 826.149 1042.54 826.687 1042.54 827.248Z" fill="#F89300"/>
<path opacity="0.29" d="M1071.28 827.248C1071.28 827.667 1071.16 828.076 1070.92 828.424C1070.68 828.773 1070.33 829.044 1069.93 829.204C1069.53 829.364 1069.08 829.406 1068.65 829.325C1068.23 829.242 1067.83 829.042 1067.52 828.746C1067.22 828.45 1067.01 828.072 1066.93 827.662C1066.84 827.251 1066.88 826.826 1067.05 826.438C1067.22 826.052 1067.5 825.721 1067.86 825.489C1068.22 825.256 1068.65 825.132 1069.09 825.132C1069.67 825.132 1070.23 825.354 1070.65 825.752C1071.05 826.149 1071.28 826.687 1071.28 827.248Z" fill="#F89300"/>
<path opacity="0.29" d="M1100.04 827.248C1100.04 827.667 1099.92 828.076 1099.68 828.424C1099.44 828.773 1099.09 829.044 1098.68 829.204C1098.29 829.364 1097.84 829.406 1097.41 829.325C1096.98 829.242 1096.59 829.042 1096.28 828.746C1095.98 828.45 1095.77 828.072 1095.68 827.662C1095.6 827.251 1095.64 826.826 1095.81 826.438C1095.98 826.052 1096.26 825.721 1096.61 825.489C1096.98 825.256 1097.41 825.132 1097.84 825.132C1098.42 825.132 1098.99 825.354 1099.4 825.752C1099.81 826.149 1100.04 826.687 1100.04 827.248Z" fill="#F89300"/>
<path opacity="0.29" d="M1128.8 827.248C1128.8 827.667 1128.67 828.076 1128.43 828.424C1128.18 828.773 1127.85 829.044 1127.44 829.204C1127.03 829.364 1126.59 829.406 1126.16 829.325C1125.74 829.242 1125.35 829.042 1125.04 828.746C1124.73 828.45 1124.52 828.072 1124.43 827.662C1124.35 827.251 1124.39 826.826 1124.55 826.438C1124.72 826.052 1125 825.721 1125.37 825.489C1125.74 825.256 1126.16 825.132 1126.59 825.132C1126.89 825.132 1127.17 825.187 1127.44 825.293C1127.71 825.4 1127.95 825.555 1128.15 825.752C1128.36 825.949 1128.53 826.181 1128.63 826.438C1128.75 826.695 1128.8 826.97 1128.8 827.248Z" fill="#F89300"/>
<path opacity="0.29" d="M1042.54 854.617C1042.54 855.036 1042.4 855.445 1042.16 855.794C1041.92 856.141 1041.58 856.413 1041.17 856.572C1040.77 856.733 1040.32 856.774 1039.89 856.693C1039.47 856.611 1039.08 856.409 1038.77 856.113C1038.46 855.817 1038.25 855.439 1038.17 855.029C1038.08 854.619 1038.13 854.193 1038.29 853.807C1038.46 853.42 1038.74 853.089 1039.11 852.857C1039.46 852.624 1039.89 852.5 1040.33 852.5C1040.61 852.5 1040.91 852.555 1041.17 852.662C1041.44 852.768 1041.68 852.923 1041.89 853.12C1042.09 853.317 1042.26 853.551 1042.37 853.808C1042.47 854.064 1042.54 854.339 1042.54 854.617Z" fill="#F89300"/>
<path opacity="0.29" d="M1071.28 854.617C1071.28 855.036 1071.16 855.445 1070.92 855.794C1070.68 856.141 1070.33 856.413 1069.93 856.572C1069.53 856.733 1069.08 856.774 1068.65 856.693C1068.22 856.611 1067.83 856.409 1067.52 856.113C1067.22 855.817 1067.01 855.439 1066.93 855.029C1066.84 854.619 1066.88 854.193 1067.05 853.807C1067.22 853.42 1067.5 853.089 1067.86 852.857C1068.22 852.624 1068.65 852.5 1069.09 852.5C1069.37 852.5 1069.66 852.555 1069.93 852.662C1070.2 852.768 1070.44 852.923 1070.65 853.12C1070.85 853.317 1071.01 853.551 1071.12 853.808C1071.23 854.064 1071.28 854.339 1071.28 854.617Z" fill="#F89300"/>
<path opacity="0.29" d="M1100.04 854.617C1100.04 855.036 1099.92 855.445 1099.68 855.794C1099.44 856.141 1099.09 856.413 1098.68 856.572C1098.29 856.733 1097.84 856.774 1097.41 856.693C1096.98 856.611 1096.59 856.409 1096.28 856.113C1095.98 855.817 1095.77 855.439 1095.68 855.029C1095.6 854.619 1095.64 854.193 1095.81 853.807C1095.98 853.42 1096.26 853.089 1096.61 852.857C1096.98 852.624 1097.41 852.5 1097.84 852.5C1098.42 852.501 1098.99 852.724 1099.4 853.121C1099.81 853.518 1100.04 854.056 1100.04 854.617Z" fill="#F89300"/>
<path opacity="0.29" d="M1128.8 854.617C1128.8 855.036 1128.67 855.445 1128.43 855.794C1128.18 856.141 1127.84 856.413 1127.44 856.572C1127.03 856.733 1126.59 856.774 1126.16 856.693C1125.74 856.611 1125.35 856.409 1125.04 856.113C1124.73 855.817 1124.52 855.439 1124.43 855.029C1124.35 854.619 1124.39 854.193 1124.55 853.807C1124.72 853.42 1125 853.089 1125.37 852.857C1125.74 852.624 1126.16 852.5 1126.59 852.5C1126.89 852.5 1127.17 852.555 1127.44 852.662C1127.71 852.768 1127.95 852.923 1128.15 853.12C1128.36 853.317 1128.53 853.551 1128.63 853.808C1128.75 854.064 1128.8 854.339 1128.8 854.617Z" fill="#F89300"/>
</g>
<g opacity="0.29">
<path opacity="0.29" d="M1152.18 774.631C1153.4 774.631 1154.39 773.683 1154.39 772.514C1154.39 771.345 1153.4 770.398 1152.18 770.398C1150.96 770.398 1149.98 771.345 1149.98 772.514C1149.98 773.683 1150.96 774.631 1152.18 774.631Z" fill="#F89300"/>
<path opacity="0.29" d="M1180.94 774.631C1182.15 774.631 1183.14 773.683 1183.14 772.514C1183.14 771.345 1182.15 770.398 1180.94 770.398C1179.72 770.398 1178.73 771.345 1178.73 772.514C1178.73 773.683 1179.72 774.631 1180.94 774.631Z" fill="#F89300"/>
<path opacity="0.29" d="M1209.69 774.631C1210.91 774.631 1211.89 773.683 1211.89 772.514C1211.89 771.345 1210.91 770.398 1209.69 770.398C1208.47 770.398 1207.49 771.345 1207.49 772.514C1207.49 773.683 1208.47 774.631 1209.69 774.631Z" fill="#F89300"/>
<path opacity="0.29" d="M1238.44 774.631C1239.67 774.631 1240.65 773.683 1240.65 772.514C1240.65 771.345 1239.67 770.398 1238.44 770.398C1237.23 770.398 1236.24 771.345 1236.24 772.514C1236.24 773.683 1237.23 774.631 1238.44 774.631Z" fill="#F89300"/>
<path opacity="0.29" d="M1152.18 801.998C1153.4 801.998 1154.39 801.051 1154.39 799.881C1154.39 798.712 1153.4 797.765 1152.18 797.765C1150.96 797.765 1149.98 798.712 1149.98 799.881C1149.98 801.051 1150.96 801.998 1152.18 801.998Z" fill="#F89300"/>
<path opacity="0.29" d="M1180.94 801.998C1182.15 801.998 1183.14 801.051 1183.14 799.881C1183.14 798.712 1182.15 797.765 1180.94 797.765C1179.72 797.765 1178.73 798.712 1178.73 799.881C1178.73 801.051 1179.72 801.998 1180.94 801.998Z" fill="#F89300"/>
<path opacity="0.29" d="M1209.69 801.998C1210.91 801.998 1211.89 801.051 1211.89 799.881C1211.89 798.712 1210.91 797.765 1209.69 797.765C1208.47 797.765 1207.49 798.712 1207.49 799.881C1207.49 801.051 1208.47 801.998 1209.69 801.998Z" fill="#F89300"/>
<path opacity="0.29" d="M1238.44 801.998C1239.67 801.998 1240.65 801.051 1240.65 799.881C1240.65 798.712 1239.67 797.765 1238.44 797.765C1237.23 797.765 1236.24 798.712 1236.24 799.881C1236.24 801.051 1237.23 801.998 1238.44 801.998Z" fill="#F89300"/>
<path opacity="0.29" d="M1154.39 827.248C1154.39 827.667 1154.25 828.076 1154.01 828.424C1153.77 828.773 1153.43 829.044 1153.02 829.204C1152.62 829.364 1152.17 829.406 1151.75 829.325C1151.33 829.242 1150.93 829.042 1150.63 828.746C1150.31 828.45 1150.1 828.072 1150.02 827.662C1149.94 827.251 1149.98 826.826 1150.14 826.438C1150.31 826.052 1150.59 825.721 1150.96 825.489C1151.32 825.256 1151.74 825.132 1152.18 825.132C1152.77 825.132 1153.32 825.354 1153.74 825.752C1154.15 826.149 1154.39 826.687 1154.39 827.248Z" fill="#F89300"/>
<path opacity="0.29" d="M1183.14 827.248C1183.14 827.667 1183.01 828.076 1182.77 828.424C1182.53 828.773 1182.18 829.044 1181.78 829.204C1181.38 829.364 1180.93 829.406 1180.5 829.325C1180.08 829.242 1179.69 829.042 1179.37 828.746C1179.07 828.45 1178.86 828.072 1178.78 827.662C1178.69 827.251 1178.73 826.826 1178.9 826.438C1179.07 826.052 1179.35 825.721 1179.71 825.489C1180.07 825.256 1180.5 825.132 1180.94 825.132C1181.53 825.132 1182.08 825.354 1182.5 825.752C1182.91 826.149 1183.14 826.687 1183.14 827.248Z" fill="#F89300"/>
<path opacity="0.29" d="M1211.89 827.248C1211.89 827.667 1211.77 828.076 1211.53 828.424C1211.29 828.773 1210.94 829.044 1210.53 829.204C1210.14 829.364 1209.69 829.406 1209.26 829.325C1208.83 829.242 1208.44 829.042 1208.13 828.746C1207.83 828.45 1207.62 828.072 1207.53 827.662C1207.45 827.251 1207.49 826.826 1207.66 826.438C1207.83 826.052 1208.11 825.721 1208.46 825.489C1208.83 825.256 1209.26 825.132 1209.69 825.132C1210.27 825.132 1210.84 825.354 1211.26 825.752C1211.66 826.149 1211.89 826.687 1211.89 827.248Z" fill="#F89300"/>
<path opacity="0.29" d="M1240.65 827.248C1240.65 827.667 1240.53 828.076 1240.28 828.424C1240.03 828.773 1239.7 829.044 1239.29 829.204C1238.88 829.364 1238.44 829.406 1238.02 829.325C1237.59 829.242 1237.2 829.042 1236.89 828.746C1236.58 828.45 1236.38 828.072 1236.28 827.662C1236.2 827.251 1236.24 826.826 1236.41 826.438C1236.57 826.052 1236.86 825.721 1237.22 825.489C1237.59 825.256 1238.02 825.132 1238.44 825.132C1238.74 825.132 1239.02 825.187 1239.29 825.293C1239.56 825.4 1239.8 825.555 1240 825.752C1240.21 825.949 1240.38 826.181 1240.48 826.438C1240.6 826.695 1240.65 826.97 1240.65 827.248Z" fill="#F89300"/>
<path opacity="0.29" d="M1154.39 854.617C1154.39 855.036 1154.25 855.445 1154.01 855.794C1153.77 856.141 1153.43 856.413 1153.02 856.572C1152.62 856.733 1152.17 856.774 1151.74 856.693C1151.33 856.611 1150.93 856.409 1150.63 856.113C1150.31 855.817 1150.1 855.439 1150.02 855.029C1149.94 854.619 1149.98 854.193 1150.14 853.807C1150.31 853.42 1150.59 853.089 1150.96 852.857C1151.32 852.624 1151.74 852.5 1152.18 852.5C1152.47 852.5 1152.76 852.555 1153.02 852.662C1153.29 852.768 1153.53 852.923 1153.74 853.12C1153.94 853.317 1154.11 853.551 1154.22 853.808C1154.33 854.064 1154.39 854.339 1154.39 854.617Z" fill="#F89300"/>
<path opacity="0.29" d="M1183.14 854.617C1183.14 855.036 1183.01 855.445 1182.77 855.794C1182.53 856.141 1182.18 856.413 1181.78 856.572C1181.38 856.733 1180.93 856.774 1180.5 856.693C1180.07 856.611 1179.69 856.409 1179.37 856.113C1179.07 855.817 1178.86 855.439 1178.78 855.029C1178.69 854.619 1178.73 854.193 1178.9 853.807C1179.07 853.42 1179.35 853.089 1179.71 852.857C1180.07 852.624 1180.5 852.5 1180.94 852.5C1181.22 852.5 1181.52 852.555 1181.78 852.662C1182.05 852.768 1182.29 852.923 1182.5 853.12C1182.7 853.317 1182.86 853.551 1182.97 853.808C1183.08 854.064 1183.14 854.339 1183.14 854.617Z" fill="#F89300"/>
<path opacity="0.29" d="M1211.89 854.617C1211.89 855.036 1211.77 855.445 1211.53 855.794C1211.29 856.141 1210.94 856.413 1210.53 856.572C1210.14 856.733 1209.69 856.774 1209.26 856.693C1208.83 856.611 1208.44 856.409 1208.13 856.113C1207.83 855.817 1207.62 855.439 1207.53 855.029C1207.45 854.619 1207.49 854.193 1207.66 853.807C1207.83 853.42 1208.11 853.089 1208.46 852.857C1208.83 852.624 1209.26 852.5 1209.69 852.5C1210.27 852.501 1210.84 852.724 1211.26 853.121C1211.66 853.518 1211.89 854.056 1211.89 854.617Z" fill="#F89300"/>
<path opacity="0.29" d="M1240.65 854.617C1240.65 855.036 1240.53 855.445 1240.28 855.794C1240.03 856.141 1239.69 856.413 1239.29 856.572C1238.88 856.733 1238.44 856.774 1238.02 856.693C1237.59 856.611 1237.2 856.409 1236.89 856.113C1236.58 855.817 1236.38 855.439 1236.28 855.029C1236.2 854.619 1236.24 854.193 1236.41 853.807C1236.57 853.42 1236.86 853.089 1237.22 852.857C1237.59 852.624 1238.02 852.5 1238.44 852.5C1238.74 852.5 1239.02 852.555 1239.29 852.662C1239.56 852.768 1239.8 852.923 1240 853.12C1240.21 853.317 1240.38 853.551 1240.48 853.808C1240.6 854.064 1240.65 854.339 1240.65 854.617Z" fill="#F89300"/>
</g>
<g opacity="0.29">
<path opacity="0.29" d="M1264.04 774.631C1265.25 774.631 1266.24 773.683 1266.24 772.514C1266.24 771.345 1265.25 770.398 1264.04 770.398C1262.81 770.398 1261.83 771.345 1261.83 772.514C1261.83 773.683 1262.81 774.631 1264.04 774.631Z" fill="#F89300"/>
<path opacity="0.29" d="M1292.79 774.631C1294.01 774.631 1294.99 773.683 1294.99 772.514C1294.99 771.345 1294.01 770.398 1292.79 770.398C1291.57 770.398 1290.59 771.345 1290.59 772.514C1290.59 773.683 1291.57 774.631 1292.79 774.631Z" fill="#F89300"/>
<path opacity="0.29" d="M1321.54 774.631C1322.76 774.631 1323.74 773.683 1323.74 772.514C1323.74 771.345 1322.76 770.398 1321.54 770.398C1320.33 770.398 1319.34 771.345 1319.34 772.514C1319.34 773.683 1320.33 774.631 1321.54 774.631Z" fill="#F89300"/>
<path opacity="0.29" d="M1350.3 774.631C1351.52 774.631 1352.5 773.683 1352.5 772.514C1352.5 771.345 1351.52 770.398 1350.3 770.398C1349.08 770.398 1348.09 771.345 1348.09 772.514C1348.09 773.683 1349.08 774.631 1350.3 774.631Z" fill="#F89300"/>
<path opacity="0.29" d="M1264.04 801.998C1265.25 801.998 1266.24 801.051 1266.24 799.881C1266.24 798.712 1265.25 797.765 1264.04 797.765C1262.81 797.765 1261.83 798.712 1261.83 799.881C1261.83 801.051 1262.81 801.998 1264.04 801.998Z" fill="#F89300"/>
<path opacity="0.29" d="M1292.79 801.998C1294.01 801.998 1294.99 801.051 1294.99 799.881C1294.99 798.712 1294.01 797.765 1292.79 797.765C1291.57 797.765 1290.59 798.712 1290.59 799.881C1290.59 801.051 1291.57 801.998 1292.79 801.998Z" fill="#F89300"/>
<path opacity="0.29" d="M1321.54 801.998C1322.76 801.998 1323.74 801.051 1323.74 799.881C1323.74 798.712 1322.76 797.765 1321.54 797.765C1320.33 797.765 1319.34 798.712 1319.34 799.881C1319.34 801.051 1320.33 801.998 1321.54 801.998Z" fill="#F89300"/>
<path opacity="0.29" d="M1350.3 801.998C1351.52 801.998 1352.5 801.051 1352.5 799.881C1352.5 798.712 1351.52 797.765 1350.3 797.765C1349.08 797.765 1348.09 798.712 1348.09 799.881C1348.09 801.051 1349.08 801.998 1350.3 801.998Z" fill="#F89300"/>
<path opacity="0.29" d="M1266.24 827.248C1266.24 827.667 1266.1 828.076 1265.86 828.424C1265.62 828.773 1265.28 829.044 1264.87 829.204C1264.47 829.364 1264.02 829.406 1263.61 829.325C1263.18 829.242 1262.78 829.042 1262.48 828.746C1262.16 828.45 1261.95 828.072 1261.87 827.662C1261.79 827.251 1261.83 826.826 1262 826.438C1262.16 826.052 1262.45 825.721 1262.81 825.489C1263.17 825.256 1263.6 825.132 1264.04 825.132C1264.62 825.132 1265.17 825.354 1265.59 825.752C1266 826.149 1266.24 826.687 1266.24 827.248Z" fill="#F89300"/>
<path opacity="0.29" d="M1294.99 827.248C1294.99 827.667 1294.86 828.076 1294.62 828.424C1294.38 828.773 1294.04 829.044 1293.63 829.204C1293.23 829.364 1292.78 829.406 1292.35 829.325C1291.94 829.242 1291.54 829.042 1291.22 828.746C1290.92 828.45 1290.71 828.072 1290.63 827.662C1290.55 827.251 1290.59 826.826 1290.75 826.438C1290.92 826.052 1291.2 825.721 1291.56 825.489C1291.92 825.256 1292.35 825.132 1292.79 825.132C1293.38 825.132 1293.93 825.354 1294.35 825.752C1294.76 826.149 1294.99 826.687 1294.99 827.248Z" fill="#F89300"/>
<path opacity="0.29" d="M1323.75 827.248C1323.75 827.667 1323.62 828.076 1323.38 828.424C1323.14 828.773 1322.79 829.044 1322.39 829.204C1321.99 829.364 1321.54 829.406 1321.11 829.325C1320.68 829.242 1320.3 829.042 1319.98 828.746C1319.68 828.45 1319.47 828.072 1319.39 827.662C1319.3 827.251 1319.34 826.826 1319.51 826.438C1319.68 826.052 1319.96 825.721 1320.32 825.489C1320.68 825.256 1321.11 825.132 1321.54 825.132C1322.13 825.132 1322.69 825.354 1323.11 825.752C1323.52 826.149 1323.75 826.687 1323.75 827.248Z" fill="#F89300"/>
<path opacity="0.29" d="M1352.5 827.248C1352.5 827.667 1352.38 828.076 1352.14 828.424C1351.89 828.773 1351.55 829.044 1351.14 829.204C1350.74 829.364 1350.3 829.406 1349.87 829.325C1349.44 829.242 1349.05 829.042 1348.74 828.746C1348.44 828.45 1348.23 828.072 1348.13 827.662C1348.05 827.251 1348.09 826.826 1348.26 826.438C1348.43 826.052 1348.71 825.721 1349.07 825.489C1349.44 825.256 1349.87 825.132 1350.3 825.132C1350.59 825.132 1350.87 825.187 1351.14 825.293C1351.42 825.4 1351.66 825.555 1351.85 825.752C1352.06 825.949 1352.23 826.181 1352.34 826.438C1352.45 826.695 1352.5 826.97 1352.5 827.248Z" fill="#F89300"/>
<path opacity="0.29" d="M1266.24 854.617C1266.24 855.036 1266.1 855.445 1265.86 855.794C1265.62 856.141 1265.28 856.413 1264.87 856.572C1264.47 856.733 1264.02 856.774 1263.6 856.693C1263.18 856.611 1262.78 856.409 1262.48 856.113C1262.16 855.817 1261.95 855.439 1261.87 855.029C1261.79 854.619 1261.83 854.193 1262 853.807C1262.16 853.42 1262.45 853.089 1262.81 852.857C1263.17 852.624 1263.6 852.5 1264.04 852.5C1264.32 852.5 1264.61 852.555 1264.87 852.662C1265.14 852.768 1265.38 852.923 1265.59 853.12C1265.79 853.317 1265.96 853.551 1266.07 853.808C1266.18 854.064 1266.24 854.339 1266.24 854.617Z" fill="#F89300"/>
<path opacity="0.29" d="M1294.99 854.617C1294.99 855.036 1294.86 855.445 1294.62 855.794C1294.38 856.141 1294.04 856.413 1293.63 856.572C1293.23 856.733 1292.78 856.774 1292.35 856.693C1291.92 856.611 1291.54 856.409 1291.22 856.113C1290.92 855.817 1290.71 855.439 1290.63 855.029C1290.55 854.619 1290.59 854.193 1290.75 853.807C1290.92 853.42 1291.2 853.089 1291.56 852.857C1291.92 852.624 1292.35 852.5 1292.79 852.5C1293.07 852.5 1293.37 852.555 1293.63 852.662C1293.9 852.768 1294.14 852.923 1294.35 853.12C1294.55 853.317 1294.72 853.551 1294.82 853.808C1294.94 854.064 1294.99 854.339 1294.99 854.617Z" fill="#F89300"/>
<path opacity="0.29" d="M1323.75 854.617C1323.75 855.036 1323.62 855.445 1323.38 855.794C1323.14 856.141 1322.79 856.413 1322.39 856.572C1321.99 856.733 1321.54 856.774 1321.11 856.693C1320.68 856.611 1320.3 856.409 1319.98 856.113C1319.68 855.817 1319.47 855.439 1319.39 855.029C1319.3 854.619 1319.34 854.193 1319.51 853.807C1319.68 853.42 1319.96 853.089 1320.32 852.857C1320.68 852.624 1321.11 852.5 1321.54 852.5C1322.13 852.501 1322.69 852.724 1323.11 853.121C1323.52 853.518 1323.75 854.056 1323.75 854.617Z" fill="#F89300"/>
<path opacity="0.29" d="M1352.5 854.617C1352.5 855.036 1352.38 855.445 1352.14 855.794C1351.89 856.141 1351.54 856.413 1351.14 856.572C1350.74 856.733 1350.3 856.774 1349.87 856.693C1349.44 856.611 1349.05 856.409 1348.74 856.113C1348.44 855.817 1348.23 855.439 1348.13 855.029C1348.05 854.619 1348.09 854.193 1348.26 853.807C1348.43 853.42 1348.71 853.089 1349.07 852.857C1349.44 852.624 1349.87 852.5 1350.3 852.5C1350.59 852.5 1350.87 852.555 1351.14 852.662C1351.42 852.768 1351.66 852.923 1351.85 853.12C1352.06 853.317 1352.23 853.551 1352.34 853.808C1352.45 854.064 1352.5 854.339 1352.5 854.617Z" fill="#F89300"/>
</g>
<path opacity="0.16" fill-rule="evenodd" clip-rule="evenodd" d="M1511.93 517.737C1412.32 473.143 1293.91 514.519 1247.46 610.15C1201.01 705.783 1244.1 819.459 1343.71 864.053C1443.32 908.647 1561.73 867.272 1608.18 771.639C1654.63 676.007 1611.53 562.331 1511.93 517.737ZM1246.51 609.727C1293.2 513.591 1412.23 471.999 1512.37 516.828C1612.5 561.656 1655.82 675.929 1609.12 772.063C1562.43 868.198 1443.41 909.791 1343.27 864.962C1243.14 820.135 1199.82 705.861 1246.51 609.727ZM1506.62 528.666C1413.29 486.887 1302.36 525.651 1258.84 615.247C1215.32 704.843 1255.7 811.343 1349.02 853.123C1442.35 894.902 1553.28 856.139 1596.8 766.543C1640.32 676.947 1599.94 570.446 1506.62 528.666ZM1257.89 614.822C1301.66 524.723 1413.21 485.744 1507.06 527.757C1600.9 569.771 1641.51 676.868 1597.74 766.967C1553.98 857.065 1442.42 896.046 1348.58 854.032C1254.73 812.019 1214.13 704.921 1257.89 614.822ZM1501.31 539.595C1414.27 500.631 1310.81 536.782 1270.22 620.342C1229.64 703.902 1267.3 803.228 1354.33 842.193C1441.37 881.157 1544.82 845.006 1585.42 761.445C1626 677.886 1588.34 578.56 1501.31 539.595ZM1269.28 619.918C1310.11 535.856 1414.19 499.487 1501.75 538.686C1589.3 577.885 1627.19 677.808 1586.36 761.87C1545.53 845.932 1441.45 882.3 1353.89 843.102C1266.33 803.904 1228.45 703.981 1269.28 619.918ZM1496 550.526C1415.24 514.375 1319.26 547.916 1281.61 625.44C1243.95 702.964 1278.89 795.115 1359.64 831.265C1440.38 867.415 1536.38 833.874 1574.03 756.35C1611.68 678.826 1576.75 586.675 1496 550.526ZM1280.67 625.016C1318.56 546.989 1415.17 513.232 1496.44 549.615C1577.71 586 1612.88 678.748 1574.97 756.775C1537.08 834.8 1440.47 868.558 1359.2 832.175C1277.93 795.791 1242.76 703.042 1280.67 625.016ZM1490.69 561.455C1416.23 528.119 1327.72 559.048 1292.99 630.535C1258.28 702.024 1290.48 786.999 1364.95 820.334C1439.41 853.67 1527.92 822.741 1562.65 751.254C1597.36 679.766 1565.15 594.789 1490.69 561.455ZM1292.05 630.112C1327.01 558.121 1416.14 526.975 1491.13 560.545C1566.12 594.115 1598.56 679.687 1563.59 751.677C1528.62 823.667 1439.5 854.814 1364.5 821.245C1289.52 787.674 1257.08 702.102 1292.05 630.112ZM1485.38 572.384C1417.21 541.863 1336.16 570.18 1304.37 635.632C1272.59 701.083 1302.09 778.884 1370.26 809.404C1438.43 839.925 1519.46 811.608 1551.26 746.157C1583.05 680.705 1553.55 602.904 1485.38 572.384ZM1303.43 635.207C1335.46 569.254 1417.13 540.72 1485.83 571.474C1554.52 602.229 1584.24 680.627 1552.2 746.58C1520.18 812.535 1438.51 841.069 1369.81 810.314C1301.12 779.559 1271.39 701.161 1303.43 635.207Z" fill="#3680EE"/>
<line x1="392" y1="189.5" x2="465" y2="189.5" stroke="#F87F28" stroke-width="3"/>
</g>
<path d="M52.1621 1522C35.1638 1522 17.6137 1521.4 0 1520.21V721C25.0789 735.15 50.9785 752.967 76.981 773.958C103.347 795.347 128.59 818.662 152.567 843.77C177.295 869.596 200.773 897.095 222.883 926.134C244.786 954.828 265.214 985.091 284.056 1016.75C302.013 1046.83 318.108 1078.44 332.212 1111.33C338.984 1127.29 345.036 1143.25 350.197 1158.76C355.319 1174.06 359.751 1189.69 363.475 1205.56C366.991 1220.55 369.692 1235.8 371.562 1251.2C373.325 1265.75 374.131 1280.45 373.973 1295.15C373.813 1309.16 372.558 1323.12 370.223 1336.85C369.066 1343.56 367.619 1350.18 365.888 1356.7C364.16 1363.19 362.138 1369.56 359.83 1375.79C357.362 1382.43 354.53 1388.86 351.352 1395.05C348.179 1401.21 344.683 1407.13 340.885 1412.76C337.042 1418.45 332.922 1423.87 328.548 1428.98C324.075 1434.19 319.372 1439.12 314.459 1443.73C309.55 1448.35 304.26 1452.84 298.739 1457.07C293.312 1461.22 287.514 1465.25 281.505 1469.03C269.072 1476.76 256.197 1483.43 242.976 1488.98C228.835 1494.92 214.429 1499.91 199.824 1503.92C185.088 1508.02 169.335 1511.47 153.003 1514.18C121.809 1519.37 87.8821 1522 52.1621 1522V1522Z" fill="#1E5DE9" fill-opacity="0.07"/>
<path d="M1902 956C1889.56 954.718 1877.04 952.921 1864.78 950.658C1850.5 948.028 1836.16 944.683 1822.14 940.729C1807.93 936.723 1793.7 931.985 1779.84 926.647C1764.57 920.764 1749.51 914.307 1735.1 907.456C1720.64 900.586 1706.47 893.148 1692.96 885.351C1679.41 877.518 1666.19 869.125 1653.69 860.405C1641.11 851.636 1628.93 842.311 1617.48 832.691C1570.41 793.109 1533.58 746.969 1508.02 695.547C1501.48 682.385 1495.67 668.867 1490.63 655.057C1485.52 641.032 1481.2 626.73 1477.68 612.218C1474.1 597.349 1471.34 582.291 1469.42 567.115C1467.45 551.42 1466.33 535.63 1466.06 519.814C1465.8 503.319 1466.39 486.822 1467.84 470.389C1469.32 453.515 1471.72 436.193 1474.98 418.908C1478.29 401.355 1482.58 383.368 1487.71 365.446C1492.93 347.24 1499.18 328.611 1506.27 310.076C1519.97 274.246 1537.92 236.905 1559.62 199.09C1581.79 160.658 1606.31 123.641 1633.05 88.2498C1660.71 51.5357 1690.41 16.4163 1722.01 -16.9409C1753.47 -50.2211 1786.84 -81.625 1821.95 -110.992C1830.95 -118.499 1840.14 -125.903 1849.26 -133H1902V955.999V956Z" fill="#1E5DE9" fill-opacity="0.07"/>
<defs>
<clipPath id="clip0_3508_18">
<rect width="1512" height="885" fill="white" transform="translate(187)"/>
</clipPath>
</defs>
</svg>
