<?xml version="1.0" encoding="UTF-8"?><svg id="Calque_2" xmlns="http://www.w3.org/2000/svg" xmlns:xlink="http://www.w3.org/1999/xlink" viewBox="0 0 1860 1031.04"><defs><style>.cls-1,.cls-2,.cls-3,.cls-4,.cls-5,.cls-6,.cls-7,.cls-8,.cls-9,.cls-10{fill:none;}.cls-11{fill:#3680ee;}.cls-11,.cls-12,.cls-2,.cls-3,.cls-13,.cls-14{isolation:isolate;}.cls-11,.cls-2,.cls-3,.cls-15{opacity:.16;}.cls-11,.cls-14{fill-rule:evenodd;}.cls-16{clip-path:url(#clippath);}.cls-17{fill:#f87f28;}.cls-18{fill:#c3d6f2;}.cls-19{fill:#a2badd;}.cls-12,.cls-14{fill:#f89300;}.cls-12,.cls-20{opacity:.29;}.cls-2{stroke:#f89300;}.cls-2,.cls-3,.cls-8,.cls-9,.cls-10{stroke-miterlimit:10;}.cls-3{stroke:#2f74b4;}.cls-13{fill:#4181e0;}.cls-13,.cls-21{opacity:.19;}.cls-22{clip-path:url(#clippath-1);}.cls-4,.cls-5,.cls-6,.cls-7{stroke-linecap:round;stroke-linejoin:round;stroke-width:2px;}.cls-4,.cls-8{stroke:#eaf1fd;}.cls-14{opacity:.22;}.cls-5{stroke:#f87f28;}.cls-6{stroke:#a2badd;}.cls-7{stroke:rgba(250,250,250,.28);}.cls-9{stroke:#c3d6f2;}.cls-10{stroke:#dfeafc;}</style><clipPath id="clippath"><rect class="cls-1" width="1860" height="1031.04"/></clipPath><clipPath id="clippath-1"><rect class="cls-1" y="-1906" width="1860" height="6536"/></clipPath></defs><g id="Calque_1-2"><g class="cls-16"><g class="cls-22"><g><path class="cls-6" d="M1717.59,22.54h13.4"/><path class="cls-6" d="M1724.29,15.84v13.4"/><path class="cls-6" d="M1724.29-13.13V.27"/><path class="cls-7" d="M1001.6,66.39v13.4"/><path class="cls-7" d="M1008.3,73.09h-13.39"/><path class="cls-7" d="M1030.58,66.39v13.4"/><path class="cls-7" d="M1037.27,73.09h-13.4"/><path class="cls-7" d="M1059.54,66.39v13.4"/><path class="cls-7" d="M1066.24,73.09h-13.4"/><path class="cls-10" d="M1406.28,26.5c0,1.12-.33,2.21-.95,3.13-.62,.93-1.5,1.65-2.54,2.08-1.03,.43-2.16,.54-3.26,.32-1.09-.22-2.09-.76-2.88-1.54-.79-.79-1.32-1.8-1.54-2.89-.22-1.1-.11-2.23,.32-3.26,.42-1.03,1.15-1.91,2.08-2.53,.92-.62,2.01-.95,3.13-.95,.73,0,1.47,.15,2.16,.43,.68,.28,1.3,.7,1.82,1.22s.94,1.15,1.23,1.83c.28,.69,.43,1.42,.43,2.16Z"/><path class="cls-10" d="M1444.56,26.5c0,1.12-.33,2.21-.95,3.14-.62,.92-1.5,1.65-2.54,2.07-1.02,.43-2.16,.54-3.25,.32-1.1-.21-2.1-.75-2.89-1.54-.79-.79-1.33-1.79-1.54-2.89-.22-1.09-.11-2.23,.32-3.26,.43-1.03,1.14-1.91,2.07-2.53,.93-.62,2.02-.95,3.14-.95,1.49,0,2.93,.59,3.98,1.65,1.06,1.06,1.66,2.49,1.66,3.99Z"/><path class="cls-10" d="M1482.84,26.5c0,1.12-.33,2.21-.95,3.14-.62,.92-1.5,1.65-2.53,2.07-1.03,.43-2.17,.54-3.26,.32-1.09-.21-2.1-.75-2.89-1.54-.79-.79-1.32-1.79-1.54-2.89-.22-1.09-.11-2.23,.32-3.26,.42-1.03,1.15-1.91,2.08-2.53,.92-.62,2.01-.95,3.13-.95,.74,0,1.47,.15,2.16,.43,.69,.28,1.31,.7,1.83,1.22,.52,.53,.94,1.15,1.22,1.83,.28,.69,.43,1.42,.43,2.16Z"/><path class="cls-10" d="M1406.28,64.79c0,1.12-.33,2.21-.95,3.13-.62,.93-1.5,1.65-2.54,2.08-1.03,.43-2.16,.54-3.26,.32-1.09-.22-2.09-.75-2.88-1.54s-1.32-1.8-1.54-2.89c-.22-1.09-.11-2.23,.32-3.26,.42-1.03,1.15-1.91,2.08-2.53,.92-.62,2.01-.95,3.13-.95,.73,0,1.47,.15,2.16,.43,.68,.28,1.3,.7,1.82,1.22,.53,.53,.94,1.15,1.23,1.83,.28,.69,.43,1.42,.43,2.16Z"/><path class="cls-10" d="M1444.56,64.79c0,1.12-.33,2.21-.95,3.14-.62,.92-1.5,1.65-2.54,2.07-1.02,.43-2.16,.54-3.25,.33-1.1-.22-2.1-.76-2.89-1.55s-1.33-1.79-1.54-2.89c-.22-1.09-.11-2.23,.32-3.26,.43-1.03,1.14-1.91,2.07-2.53,.93-.62,2.02-.95,3.14-.95,1.49,0,2.93,.6,3.98,1.65s1.66,2.5,1.66,3.99Z"/><path class="cls-10" d="M1482.84,64.79c0,1.12-.33,2.21-.95,3.14-.62,.92-1.5,1.65-2.53,2.07-1.03,.43-2.17,.54-3.26,.33-1.09-.22-2.1-.76-2.89-1.55-.79-.79-1.32-1.79-1.54-2.89-.22-1.09-.11-2.23,.32-3.26,.42-1.03,1.15-1.91,2.08-2.53,.92-.62,2.01-.95,3.13-.95,.74,0,1.47,.15,2.16,.43,.69,.28,1.31,.7,1.83,1.22,.52,.53,.94,1.15,1.22,1.83,.28,.69,.43,1.42,.43,2.16Z"/><path class="cls-17" d="M42.83,12.75c.77,0,1.39-.63,1.39-1.4s-.62-1.39-1.39-1.39-1.4,.62-1.4,1.39,.62,1.4,1.4,1.4Z"/><path class="cls-17" d="M61.03,12.75c.77,0,1.4-.63,1.4-1.4s-.62-1.39-1.4-1.39-1.4,.62-1.4,1.39,.62,1.4,1.4,1.4Z"/><path class="cls-17" d="M79.22,12.75c.77,0,1.39-.63,1.39-1.4s-.62-1.39-1.39-1.39-1.4,.62-1.4,1.39,.62,1.4,1.4,1.4Z"/><path class="cls-17" d="M97.42,12.75c.77,0,1.4-.63,1.4-1.4s-.62-1.39-1.4-1.39-1.4,.62-1.4,1.39,.62,1.4,1.4,1.4Z"/><path class="cls-17" d="M44.22,29.4c0,.27-.08,.54-.24,.77-.15,.23-.37,.41-.63,.52-.25,.1-.54,.13-.81,.08-.27-.06-.52-.19-.71-.39-.2-.19-.33-.44-.38-.71-.05-.27-.03-.55,.08-.81,.11-.25,.28-.47,.51-.62,.23-.16,.5-.24,.78-.24,.37,0,.72,.15,.99,.41,.26,.26,.41,.62,.41,.99Z"/><path class="cls-17" d="M62.42,29.4c0,.27-.08,.54-.24,.77-.15,.23-.37,.41-.63,.52-.25,.1-.54,.13-.81,.08-.27-.06-.52-.19-.71-.39-.2-.19-.33-.44-.38-.71-.05-.27-.03-.55,.08-.81,.11-.25,.28-.47,.51-.62,.23-.16,.5-.24,.78-.24,.37,0,.72,.15,.99,.41,.26,.26,.41,.62,.41,.99Z"/><path class="cls-17" d="M80.62,29.4c0,.27-.08,.54-.24,.77-.15,.23-.37,.41-.63,.52-.25,.1-.54,.13-.81,.08-.27-.06-.52-.19-.71-.39-.2-.19-.33-.44-.38-.71-.05-.27-.03-.55,.08-.81,.11-.25,.28-.47,.51-.62,.23-.16,.5-.24,.78-.24,.37,0,.72,.15,.99,.41,.26,.26,.41,.62,.41,.99Z"/><path class="cls-17" d="M98.81,29.4c0,.27-.08,.54-.23,.77-.15,.23-.37,.41-.63,.52-.25,.1-.53,.13-.81,.08-.27-.06-.52-.19-.71-.39-.2-.19-.33-.44-.38-.71-.05-.27-.03-.55,.08-.81,.11-.25,.28-.47,.51-.62,.23-.16,.5-.24,.77-.24,.18,0,.37,.04,.53,.11,.17,.07,.32,.17,.45,.3,.13,.13,.23,.28,.3,.45,.07,.17,.11,.35,.11,.54Z"/><path class="cls-17" d="M44.22,47.44c0,.28-.08,.55-.24,.78-.15,.23-.37,.41-.63,.51-.26,.11-.54,.14-.81,.08-.27-.05-.52-.18-.71-.38-.2-.19-.33-.44-.38-.71-.05-.27-.03-.55,.08-.81,.11-.25,.28-.47,.51-.63,.23-.15,.5-.23,.77-.23,.18,0,.36,.03,.53,.11,.17,.06,.32,.17,.45,.3,.13,.13,.23,.28,.3,.45,.07,.17,.11,.35,.11,.53Z"/><path class="cls-17" d="M62.42,47.44c0,.28-.08,.55-.24,.78-.15,.23-.37,.41-.63,.51-.26,.11-.54,.14-.81,.08-.27-.05-.52-.18-.71-.38-.2-.19-.33-.44-.38-.71-.05-.27-.03-.55,.08-.81,.11-.25,.28-.47,.51-.63,.23-.15,.5-.23,.78-.23,.18,0,.36,.03,.53,.11,.17,.06,.32,.17,.45,.3,.13,.13,.23,.28,.3,.45,.07,.17,.11,.35,.11,.53Z"/><path class="cls-17" d="M80.62,47.44c0,.28-.08,.55-.24,.78-.15,.23-.37,.41-.63,.51-.25,.11-.54,.14-.81,.08-.27-.05-.52-.18-.71-.38-.19-.19-.33-.44-.38-.71-.05-.27-.03-.55,.08-.81,.11-.25,.28-.47,.51-.63,.23-.15,.5-.23,.77-.23,.37,0,.72,.15,.99,.41,.26,.26,.41,.61,.41,.98Z"/><path class="cls-17" d="M98.81,47.44c0,.28-.08,.55-.24,.78-.15,.23-.37,.41-.63,.51-.25,.11-.54,.14-.81,.08-.27-.05-.52-.18-.71-.38-.19-.19-.33-.44-.38-.71s-.03-.55,.08-.81c.11-.25,.28-.47,.51-.63,.23-.15,.5-.23,.77-.23,.18,0,.37,.03,.53,.11,.17,.06,.32,.17,.45,.3s.23,.28,.3,.45c.07,.17,.11,.35,.11,.53Z"/><path class="cls-17" d="M8.61,12.75c.77,0,1.4-.63,1.4-1.4s-.62-1.39-1.4-1.39-1.4,.62-1.4,1.39,.62,1.4,1.4,1.4Z"/><path class="cls-17" d="M26.81,12.75c.77,0,1.4-.63,1.4-1.4s-.62-1.39-1.4-1.39-1.4,.62-1.4,1.39,.62,1.4,1.4,1.4Z"/><path class="cls-17" d="M10.01,29.4c0,.27-.08,.54-.24,.77-.15,.23-.37,.41-.63,.52-.25,.1-.54,.13-.81,.08-.27-.06-.52-.19-.71-.39-.2-.19-.33-.44-.38-.71-.05-.27-.03-.55,.08-.81,.11-.25,.28-.47,.51-.62,.23-.16,.5-.24,.78-.24,.37,0,.72,.15,.99,.41,.26,.26,.41,.62,.41,.99Z"/><path class="cls-17" d="M28.2,29.4c0,.27-.08,.54-.24,.77-.15,.23-.37,.41-.63,.52-.25,.1-.54,.13-.81,.08-.27-.06-.52-.19-.71-.39-.2-.19-.33-.44-.38-.71-.05-.27-.03-.55,.08-.81,.11-.25,.28-.47,.51-.62,.23-.16,.5-.24,.78-.24,.18,0,.36,.04,.53,.11,.17,.07,.32,.17,.45,.3,.13,.13,.23,.28,.3,.45,.07,.17,.11,.35,.11,.54Z"/><path class="cls-17" d="M10.01,47.44c0,.28-.08,.55-.24,.78-.15,.23-.37,.41-.63,.51-.25,.11-.54,.14-.81,.08-.27-.05-.52-.18-.71-.38-.2-.19-.33-.44-.38-.71-.05-.27-.03-.55,.08-.81,.11-.25,.28-.47,.51-.63,.23-.15,.5-.23,.77-.23,.37,0,.72,.15,.99,.41,.26,.26,.41,.61,.41,.98Z"/><path class="cls-17" d="M28.2,47.44c0,.28-.08,.55-.24,.78-.15,.23-.37,.41-.63,.51-.26,.11-.54,.14-.81,.08-.27-.05-.52-.18-.71-.38-.19-.19-.33-.44-.38-.71-.05-.27-.03-.55,.08-.81,.11-.25,.28-.47,.51-.63,.23-.15,.5-.23,.77-.23,.18,0,.36,.03,.53,.11,.17,.06,.32,.17,.45,.3,.13,.13,.23,.28,.3,.45,.07,.17,.11,.35,.11,.53Z"/><path class="cls-17" d="M8.61,65.53c.77,0,1.4-.63,1.4-1.4s-.62-1.39-1.4-1.39-1.4,.62-1.4,1.39,.62,1.4,1.4,1.4Z"/><path class="cls-17" d="M26.81,65.53c.77,0,1.4-.63,1.4-1.4s-.62-1.39-1.4-1.39-1.4,.62-1.4,1.39,.62,1.4,1.4,1.4Z"/><path class="cls-17" d="M8.61,83.57c.77,0,1.4-.62,1.4-1.39s-.62-1.4-1.4-1.4-1.4,.63-1.4,1.4,.62,1.39,1.4,1.39Z"/><path class="cls-17" d="M26.81,83.57c.77,0,1.4-.62,1.4-1.39s-.62-1.4-1.4-1.4-1.4,.63-1.4,1.4,.62,1.39,1.4,1.39Z"/><path class="cls-17" d="M42.83,65.53c.77,0,1.39-.63,1.39-1.4s-.62-1.39-1.39-1.39-1.4,.62-1.4,1.39,.62,1.4,1.4,1.4Z"/><path class="cls-17" d="M61.03,65.53c.77,0,1.4-.63,1.4-1.4s-.62-1.39-1.4-1.39-1.4,.62-1.4,1.39,.62,1.4,1.4,1.4Z"/><path class="cls-17" d="M79.22,65.53c.77,0,1.39-.63,1.39-1.4s-.62-1.39-1.39-1.39-1.4,.62-1.4,1.39,.62,1.4,1.4,1.4Z"/><path class="cls-17" d="M97.42,65.53c.77,0,1.4-.63,1.4-1.4s-.62-1.39-1.4-1.39-1.4,.62-1.4,1.39,.62,1.4,1.4,1.4Z"/><path class="cls-17" d="M42.83,83.57c.77,0,1.39-.62,1.39-1.39s-.62-1.4-1.39-1.4-1.4,.63-1.4,1.4,.62,1.39,1.4,1.39Z"/><path class="cls-17" d="M61.03,83.57c.77,0,1.4-.62,1.4-1.39s-.62-1.4-1.4-1.4-1.4,.63-1.4,1.4,.62,1.39,1.4,1.39Z"/><path class="cls-17" d="M79.22,83.57c.77,0,1.39-.62,1.39-1.39s-.62-1.4-1.39-1.4-1.4,.63-1.4,1.4,.62,1.39,1.4,1.39Z"/><path class="cls-17" d="M97.42,83.57c.77,0,1.4-.62,1.4-1.39s-.62-1.4-1.4-1.4-1.4,.63-1.4,1.4,.62,1.39,1.4,1.39Z"/><g class="cls-21"><path class="cls-13" d="M352.39,118.23c-.53-.43-1.06-.84-1.6-1.25l-89.25,89.26c.41,.53,.82,1.06,1.25,1.59l89.6-89.6Z"/><path class="cls-13" d="M330.58,106.77c-.74-.22-1.49-.42-2.23-.61l-77.64,77.64c.19,.75,.39,1.49,.61,2.23l79.26-79.26Z"/><path class="cls-13" d="M345.9,113.63c-.59-.36-1.18-.72-1.78-1.06l-86.99,86.99c.34,.6,.7,1.19,1.06,1.79l87.71-87.72Z"/><path class="cls-13" d="M338.66,109.78c-.66-.3-1.32-.58-1.99-.86l-83.2,83.2c.27,.67,.56,1.33,.86,1.99l84.32-84.33Z"/><path class="cls-13" d="M321.48,104.79c-.84-.12-1.69-.23-2.53-.31l-69.92,69.91c.09,.85,.19,1.7,.31,2.54l72.14-72.14Z"/><path class="cls-13" d="M357.48,122.81c-.24-.24-.48-.47-.72-.71l-90.1,90.11c.23,.24,.46,.48,.7,.72,.24,.24,.48,.47,.72,.7l90.1-90.1c-.23-.24-.46-.49-.7-.72Z"/><path class="cls-13" d="M311.02,104.16c-.99,.02-1.99,.06-2.98,.13l-59.2,59.2c-.07,.99-.12,1.99-.14,2.98l62.31-62.31Z"/><path class="cls-13" d="M250.25,153.84l48.14-48.14c-1.28,.28-2.56,.61-3.83,.98l-43.33,43.33c-.37,1.27-.7,2.55-.98,3.83Z"/><path class="cls-13" d="M375.99,172.24c.07-1,.11-1.99,.13-2.98l-62.31,62.31c.99-.02,1.99-.07,2.98-.13l59.2-59.2Z"/><path class="cls-13" d="M375.8,161.33c-.09-.84-.19-1.69-.31-2.53l-72.14,72.14c.84,.12,1.69,.22,2.54,.31l69.91-69.92Z"/><path class="cls-13" d="M280.05,112.95c-9.29,5.5-17.04,13.26-22.54,22.55l22.54-22.55Z"/><path class="cls-13" d="M373.6,185.71c.37-1.26,.7-2.54,.98-3.82l-48.14,48.14c1.28-.29,2.56-.62,3.83-.98l43.33-43.34Z"/><path class="cls-13" d="M344.78,222.77c9.29-5.49,17.05-13.25,22.54-22.54l-22.54,22.54Z"/><path class="cls-13" d="M367.71,136.17c-.34-.6-.7-1.2-1.06-1.79l-87.71,87.72c.59,.36,1.18,.71,1.78,1.06l86.99-86.99Z"/><path class="cls-13" d="M363.3,129.49c-.41-.53-.82-1.07-1.25-1.59l-89.6,89.6c.52,.43,1.06,.84,1.6,1.24l89.25-89.25Z"/><path class="cls-13" d="M374.12,151.93c-.19-.75-.39-1.49-.61-2.23l-79.26,79.26c.74,.22,1.48,.42,2.23,.61l77.64-77.64Z"/><path class="cls-13" d="M371.36,143.61c-.27-.67-.56-1.33-.86-1.99l-84.33,84.33c.66,.3,1.32,.59,1.99,.86l83.2-83.2Z"/></g><path class="cls-14" d="M-.05,443.12c59.15,12.5,121.24-16.81,147.89-73.95,31.03-66.55,2.24-145.65-64.31-176.68-27.14-12.66-56.37-15.36-83.58-9.62v1.04c27.06-5.76,56.15-3.1,83.15,9.49,66.04,30.8,94.61,109.3,63.82,175.34C120.44,425.52,58.71,454.6-.05,442.08v1.04Zm0-8.54c55.95,12.66,115.1-14.82,140.33-68.93,29.09-62.38,2.1-136.52-60.27-165.61-26.01-12.13-54.07-14.5-80.06-8.63v1.04c25.84-5.89,53.75-3.56,79.63,8.51,61.87,28.85,88.64,102.39,59.79,164.26C114.3,418.96,55.51,446.22-.05,433.54v1.04Zm0-8.57c52.74,12.84,108.95-12.8,132.77-63.89,27.14-58.2,1.96-127.38-56.24-154.52-24.88-11.6-51.78-13.64-76.53-7.63v1.04c24.6-6.03,51.36-4.03,76.1,7.51,57.69,26.9,82.66,95.48,55.75,153.18C108.16,412.41,52.31,437.83-.05,424.97v1.04Zm0-8.6c49.52,13.05,102.81-10.76,125.22-58.81,25.19-54.03,1.82-118.25-52.21-143.44-23.76-11.08-49.49-12.77-73.01-6.59v1.05c23.37-6.2,48.96-4.56,72.58,6.45,53.52,24.96,76.68,88.58,51.72,142.1C102.01,405.86,49.08,429.44-.05,416.36v1.05Zm0-8.65c46.29,13.3,96.66-8.66,117.66-53.68,23.25-49.86,1.68-109.12-48.18-132.37-22.64-10.55-47.22-11.87-69.48-5.49v1.05c22.11-6.4,46.55-5.13,69.05,5.36,49.35,23.01,70.7,81.67,47.69,131.02C95.87,399.31,45.84,421.04-.05,407.71v1.05Zm0-8.71c43.03,13.6,90.52-6.49,110.1-48.5,21.3-45.68,1.54-99.98-44.14-121.28-21.52-10.04-44.96-10.96-65.96-4.34v1.06c20.84-6.65,44.14-5.78,65.53,4.2,45.17,21.06,64.72,74.76,43.65,119.93C89.72,392.76,42.58,412.63-.05,398.99v1.06Z"/><path class="cls-18" d="M31.46,888.2c.65,0,1.18-.53,1.18-1.19s-.53-1.18-1.18-1.18-1.18,.53-1.18,1.18,.53,1.19,1.18,1.19Z"/><path class="cls-18" d="M46.82,888.2c.65,0,1.18-.53,1.18-1.19s-.53-1.18-1.18-1.18-1.18,.53-1.18,1.18,.53,1.19,1.18,1.19Z"/><path class="cls-18" d="M62.17,888.2c.65,0,1.18-.53,1.18-1.19s-.53-1.18-1.18-1.18-1.18,.53-1.18,1.18,.53,1.19,1.18,1.19Z"/><path class="cls-18" d="M77.53,888.2c.65,0,1.18-.53,1.18-1.19s-.53-1.18-1.18-1.18-1.18,.53-1.18,1.18,.53,1.19,1.18,1.19Z"/><path class="cls-18" d="M31.46,903.48c.65,0,1.18-.53,1.18-1.18s-.53-1.18-1.18-1.18-1.18,.53-1.18,1.18,.53,1.18,1.18,1.18Z"/><path class="cls-18" d="M46.82,903.48c.65,0,1.18-.53,1.18-1.18s-.53-1.18-1.18-1.18-1.18,.53-1.18,1.18,.53,1.18,1.18,1.18Z"/><path class="cls-18" d="M62.17,903.48c.65,0,1.18-.53,1.18-1.18s-.53-1.18-1.18-1.18-1.18,.53-1.18,1.18,.53,1.18,1.18,1.18Z"/><path class="cls-18" d="M77.53,903.48c.65,0,1.18-.53,1.18-1.18s-.53-1.18-1.18-1.18-1.18,.53-1.18,1.18,.53,1.18,1.18,1.18Z"/><path class="cls-18" d="M32.64,917.58c0,.24-.07,.47-.2,.66-.13,.2-.31,.35-.53,.44-.22,.09-.45,.11-.68,.06-.23-.04-.44-.15-.6-.32-.16-.16-.28-.38-.32-.6-.05-.23-.02-.47,.07-.69,.09-.21,.24-.4,.43-.53,.19-.13,.42-.2,.65-.2,.31,0,.61,.13,.83,.35,.22,.22,.34,.52,.34,.83Z"/><path class="cls-18" d="M48,917.58c0,.24-.07,.47-.2,.66-.13,.2-.31,.35-.53,.44-.22,.09-.45,.11-.68,.06-.23-.04-.44-.15-.6-.32-.16-.16-.28-.38-.32-.6-.05-.23-.02-.47,.07-.69,.09-.21,.24-.4,.43-.53,.19-.13,.42-.2,.65-.2,.31,0,.61,.13,.83,.35,.22,.22,.34,.52,.34,.83Z"/><path class="cls-18" d="M63.35,917.58c0,.24-.07,.47-.2,.66-.13,.2-.31,.35-.53,.44-.22,.09-.45,.11-.68,.06-.23-.04-.44-.15-.6-.32-.16-.16-.28-.38-.32-.6-.05-.23-.02-.47,.07-.69,.09-.21,.24-.4,.43-.53,.19-.13,.42-.2,.65-.2,.31,0,.61,.13,.83,.35,.22,.22,.34,.52,.34,.83Z"/><path class="cls-18" d="M78.7,917.58c0,.24-.07,.47-.2,.66-.13,.2-.31,.35-.53,.44-.22,.09-.45,.11-.68,.06-.23-.04-.44-.15-.6-.32-.16-.16-.28-.38-.32-.6-.05-.23-.02-.47,.07-.69,.09-.21,.24-.4,.43-.53,.19-.13,.42-.2,.65-.2,.15,0,.31,.03,.45,.09,.14,.06,.27,.15,.38,.26,.11,.11,.2,.24,.26,.38,.06,.15,.09,.3,.09,.45Z"/><path class="cls-18" d="M32.64,932.87c0,.23-.07,.46-.2,.66-.13,.19-.31,.34-.53,.43-.22,.09-.45,.12-.68,.07-.23-.05-.44-.16-.6-.32-.16-.17-.28-.38-.32-.61-.05-.23-.02-.47,.07-.68,.09-.22,.24-.4,.43-.53,.19-.13,.42-.2,.65-.2,.15,0,.31,.03,.45,.09,.14,.06,.27,.15,.38,.25,.11,.12,.2,.25,.26,.39,.06,.14,.09,.3,.09,.45Z"/><path class="cls-18" d="M48,932.87c0,.23-.07,.46-.2,.66-.13,.19-.31,.34-.53,.43-.22,.09-.45,.12-.68,.07-.23-.05-.44-.16-.6-.32-.16-.17-.28-.38-.32-.61-.05-.23-.02-.47,.07-.68,.09-.22,.24-.4,.43-.53,.19-.13,.42-.2,.65-.2,.15,0,.31,.03,.45,.09,.14,.06,.27,.15,.38,.25,.11,.12,.2,.25,.26,.39,.06,.14,.09,.3,.09,.45Z"/><path class="cls-18" d="M63.35,932.87c0,.23-.07,.46-.2,.66-.13,.19-.31,.34-.53,.43-.22,.09-.45,.12-.68,.07-.23-.05-.44-.16-.6-.32-.16-.17-.28-.38-.32-.61-.05-.23-.02-.47,.07-.68,.09-.22,.24-.4,.43-.53,.19-.13,.42-.2,.65-.2,.31,0,.61,.12,.83,.34,.22,.23,.34,.53,.34,.84Z"/><path class="cls-18" d="M78.7,932.87c0,.23-.07,.46-.2,.66-.13,.19-.31,.34-.53,.43-.22,.09-.45,.12-.68,.07-.23-.05-.44-.16-.6-.32-.16-.17-.28-.38-.32-.61-.05-.23-.02-.47,.07-.68,.09-.22,.24-.4,.43-.53,.19-.13,.42-.2,.65-.2,.15,0,.31,.03,.45,.09,.14,.06,.27,.15,.38,.25,.11,.12,.2,.25,.26,.39,.06,.14,.09,.3,.09,.45Z"/><path class="cls-18" d="M91.19,888.2c.65,0,1.18-.53,1.18-1.19s-.53-1.18-1.18-1.18-1.18,.53-1.18,1.18,.53,1.19,1.18,1.19Z"/><path class="cls-18" d="M106.54,888.2c.65,0,1.18-.53,1.18-1.19s-.53-1.18-1.18-1.18-1.18,.53-1.18,1.18,.53,1.19,1.18,1.19Z"/><path class="cls-18" d="M121.9,888.2c.65,0,1.18-.53,1.18-1.19s-.53-1.18-1.18-1.18-1.18,.53-1.18,1.18,.53,1.19,1.18,1.19Z"/><path class="cls-18" d="M137.25,888.2c.65,0,1.18-.53,1.18-1.19s-.53-1.18-1.18-1.18-1.18,.53-1.18,1.18,.53,1.19,1.18,1.19Z"/><path class="cls-18" d="M91.19,903.48c.65,0,1.18-.53,1.18-1.18s-.53-1.18-1.18-1.18-1.18,.53-1.18,1.18,.53,1.18,1.18,1.18Z"/><path class="cls-18" d="M106.54,903.48c.65,0,1.18-.53,1.18-1.18s-.53-1.18-1.18-1.18-1.18,.53-1.18,1.18,.53,1.18,1.18,1.18Z"/><path class="cls-18" d="M121.9,903.48c.65,0,1.18-.53,1.18-1.18s-.53-1.18-1.18-1.18-1.18,.53-1.18,1.18,.53,1.18,1.18,1.18Z"/><path class="cls-18" d="M137.25,903.48c.65,0,1.18-.53,1.18-1.18s-.53-1.18-1.18-1.18-1.18,.53-1.18,1.18,.53,1.18,1.18,1.18Z"/><path class="cls-18" d="M92.36,917.58c0,.24-.07,.47-.2,.66-.13,.2-.31,.35-.53,.44-.22,.09-.45,.11-.68,.06-.23-.04-.44-.15-.6-.32-.16-.16-.28-.38-.32-.6-.05-.23-.02-.47,.07-.69,.09-.21,.24-.4,.43-.53,.19-.13,.42-.2,.65-.2,.31,0,.61,.13,.83,.35s.34,.52,.34,.83Z"/><path class="cls-18" d="M107.72,917.58c0,.24-.07,.47-.2,.66-.13,.2-.31,.35-.53,.44-.21,.09-.45,.11-.68,.06-.23-.04-.44-.15-.6-.32-.17-.16-.28-.38-.32-.6-.05-.23-.02-.47,.07-.69,.09-.21,.24-.4,.43-.53,.19-.13,.42-.2,.65-.2,.31,0,.61,.13,.83,.35,.22,.22,.35,.52,.35,.83Z"/><path class="cls-18" d="M123.07,917.58c0,.24-.07,.47-.2,.66-.13,.2-.31,.35-.53,.44-.21,.09-.45,.11-.68,.06-.23-.04-.44-.15-.6-.32-.17-.16-.28-.38-.32-.6-.04-.23-.02-.47,.07-.69,.09-.21,.24-.4,.43-.53,.19-.13,.42-.2,.65-.2,.31,0,.61,.13,.83,.35,.22,.22,.35,.52,.35,.83Z"/><path class="cls-18" d="M138.43,917.58c0,.24-.07,.47-.2,.66-.13,.2-.31,.35-.53,.44-.21,.09-.45,.11-.68,.06-.23-.04-.44-.15-.6-.32-.17-.16-.28-.38-.32-.6-.04-.23-.02-.47,.07-.69,.09-.21,.24-.4,.43-.53,.19-.13,.42-.2,.65-.2,.16,0,.31,.03,.45,.09,.14,.06,.27,.15,.38,.26,.11,.11,.2,.24,.26,.38,.06,.15,.09,.3,.09,.45Z"/><path class="cls-18" d="M92.36,932.87c0,.23-.07,.46-.2,.66-.13,.19-.31,.34-.53,.43-.22,.09-.45,.12-.68,.07s-.44-.16-.6-.32c-.16-.17-.28-.38-.32-.61-.05-.23-.02-.47,.07-.68,.09-.22,.24-.4,.43-.53,.19-.13,.42-.2,.65-.2,.15,0,.31,.03,.45,.09,.14,.06,.27,.15,.38,.25,.11,.12,.2,.25,.26,.39,.06,.14,.09,.3,.09,.45Z"/><path class="cls-18" d="M107.72,932.87c0,.23-.07,.46-.2,.66-.13,.19-.31,.34-.53,.43-.21,.09-.45,.12-.68,.07-.23-.05-.44-.16-.6-.32-.17-.17-.28-.38-.32-.61-.05-.23-.02-.47,.07-.68,.09-.22,.24-.4,.43-.53,.19-.13,.42-.2,.65-.2,.15,0,.31,.03,.45,.09,.14,.06,.27,.15,.38,.25,.11,.12,.2,.25,.26,.39,.06,.14,.09,.3,.09,.45Z"/><path class="cls-18" d="M123.07,932.87c0,.23-.07,.46-.2,.66-.13,.19-.31,.34-.53,.43-.22,.09-.45,.12-.68,.07s-.44-.16-.6-.32c-.17-.17-.28-.38-.32-.61-.04-.23-.02-.47,.07-.68,.09-.22,.24-.4,.43-.53,.19-.13,.42-.2,.65-.2,.31,0,.61,.12,.83,.34,.22,.23,.35,.53,.35,.84Z"/><path class="cls-18" d="M138.43,932.87c0,.23-.07,.46-.2,.66-.13,.19-.31,.34-.53,.43-.21,.09-.45,.12-.68,.07-.23-.05-.44-.16-.6-.32-.17-.17-.28-.38-.32-.61s-.02-.47,.07-.68c.09-.22,.24-.4,.43-.53,.19-.13,.42-.2,.65-.2,.16,0,.31,.03,.45,.09,.14,.06,.27,.15,.38,.25,.11,.12,.2,.25,.25,.39,.06,.14,.09,.3,.09,.45Z"/><path class="cls-18" d="M150.91,888.2c.65,0,1.18-.53,1.18-1.19s-.53-1.18-1.18-1.18-1.18,.53-1.18,1.18,.53,1.19,1.18,1.19Z"/><path class="cls-18" d="M166.26,888.2c.65,0,1.18-.53,1.18-1.19s-.53-1.18-1.18-1.18-1.18,.53-1.18,1.18,.53,1.19,1.18,1.19Z"/><path class="cls-18" d="M181.62,888.2c.65,0,1.18-.53,1.18-1.19s-.53-1.18-1.18-1.18-1.18,.53-1.18,1.18,.53,1.19,1.18,1.19Z"/><path class="cls-18" d="M196.97,888.2c.65,0,1.18-.53,1.18-1.19s-.53-1.18-1.18-1.18-1.18,.53-1.18,1.18,.53,1.19,1.18,1.19Z"/><path class="cls-18" d="M150.91,903.48c.65,0,1.18-.53,1.18-1.18s-.53-1.18-1.18-1.18-1.18,.53-1.18,1.18,.53,1.18,1.18,1.18Z"/><path class="cls-18" d="M166.26,903.48c.65,0,1.18-.53,1.18-1.18s-.53-1.18-1.18-1.18-1.18,.53-1.18,1.18,.53,1.18,1.18,1.18Z"/><path class="cls-18" d="M181.62,903.48c.65,0,1.18-.53,1.18-1.18s-.53-1.18-1.18-1.18-1.18,.53-1.18,1.18,.53,1.18,1.18,1.18Z"/><path class="cls-18" d="M196.97,903.48c.65,0,1.18-.53,1.18-1.18s-.53-1.18-1.18-1.18-1.18,.53-1.18,1.18,.53,1.18,1.18,1.18Z"/><path class="cls-18" d="M152.09,917.58c0,.24-.07,.47-.2,.66-.13,.2-.31,.35-.53,.44-.21,.09-.45,.11-.68,.06-.23-.04-.44-.15-.6-.32-.17-.16-.28-.38-.32-.6-.04-.23-.02-.47,.07-.69,.09-.21,.24-.4,.43-.53,.19-.13,.42-.2,.65-.2,.31,0,.61,.13,.83,.35,.22,.22,.35,.52,.35,.83Z"/><path class="cls-18" d="M167.44,917.58c0,.24-.07,.47-.2,.66-.13,.2-.31,.35-.53,.44-.21,.09-.45,.11-.68,.06-.23-.04-.44-.15-.6-.32-.17-.16-.28-.38-.32-.6-.05-.23-.02-.47,.07-.69,.09-.21,.24-.4,.43-.53,.19-.13,.42-.2,.65-.2,.31,0,.61,.13,.83,.35,.22,.22,.34,.52,.34,.83Z"/><path class="cls-18" d="M182.8,917.58c0,.24-.07,.47-.2,.66-.13,.2-.31,.35-.53,.44-.22,.09-.45,.11-.68,.06-.23-.04-.44-.15-.6-.32-.16-.16-.28-.38-.32-.6-.05-.23-.02-.47,.07-.69,.09-.21,.24-.4,.43-.53,.19-.13,.42-.2,.65-.2,.31,0,.61,.13,.83,.35,.22,.22,.35,.52,.35,.83Z"/><path class="cls-18" d="M198.15,917.58c0,.24-.07,.47-.2,.66-.13,.2-.31,.35-.53,.44-.22,.09-.45,.11-.68,.06-.23-.04-.44-.15-.6-.32-.16-.16-.28-.38-.32-.6-.04-.23-.02-.47,.07-.69,.09-.21,.24-.4,.43-.53,.19-.13,.42-.2,.65-.2,.15,0,.31,.03,.45,.09,.14,.06,.27,.15,.38,.26,.11,.11,.2,.24,.26,.38,.06,.15,.09,.3,.09,.45Z"/><path class="cls-18" d="M152.09,932.87c0,.23-.07,.46-.2,.66-.13,.19-.31,.34-.53,.43-.21,.09-.45,.12-.68,.07-.23-.05-.44-.16-.6-.32-.17-.17-.28-.38-.32-.61-.04-.23-.02-.47,.07-.68,.09-.22,.24-.4,.43-.53,.19-.13,.42-.2,.65-.2,.15,0,.31,.03,.45,.09,.14,.06,.27,.15,.38,.25,.11,.12,.2,.25,.26,.39,.06,.14,.09,.3,.09,.45Z"/><path class="cls-18" d="M167.44,932.87c0,.23-.07,.46-.2,.66-.13,.19-.31,.34-.53,.43-.22,.09-.45,.12-.68,.07-.23-.05-.44-.16-.6-.32-.17-.17-.28-.38-.32-.61-.05-.23-.02-.47,.07-.68,.09-.22,.24-.4,.43-.53,.19-.13,.42-.2,.65-.2,.15,0,.31,.03,.45,.09,.14,.06,.27,.15,.38,.25,.11,.12,.2,.25,.26,.39,.06,.14,.09,.3,.09,.45Z"/><path class="cls-18" d="M182.8,932.87c0,.23-.07,.46-.2,.66-.13,.19-.31,.34-.53,.43-.22,.09-.45,.12-.68,.07-.23-.05-.44-.16-.6-.32-.16-.17-.28-.38-.32-.61-.05-.23-.02-.47,.07-.68,.09-.22,.24-.4,.43-.53,.19-.13,.42-.2,.65-.2,.31,0,.61,.12,.83,.34,.22,.23,.35,.53,.35,.84Z"/><path class="cls-18" d="M198.15,932.87c0,.23-.07,.46-.2,.66-.13,.19-.31,.34-.53,.43-.21,.09-.45,.12-.68,.07-.23-.05-.44-.16-.6-.32-.16-.17-.28-.38-.32-.61-.04-.23-.02-.47,.07-.68,.09-.22,.24-.4,.43-.53,.19-.13,.42-.2,.65-.2,.15,0,.31,.03,.45,.09,.14,.06,.27,.15,.38,.25,.11,.12,.2,.25,.26,.39,.06,.14,.09,.3,.09,.45Z"/><path class="cls-18" d="M31.46,948.17c.65,0,1.18-.52,1.18-1.18s-.53-1.18-1.18-1.18-1.18,.53-1.18,1.18,.53,1.18,1.18,1.18Z"/><path class="cls-18" d="M46.82,948.17c.65,0,1.18-.52,1.18-1.18s-.53-1.18-1.18-1.18-1.18,.53-1.18,1.18,.53,1.18,1.18,1.18Z"/><path class="cls-18" d="M62.17,948.17c.65,0,1.18-.52,1.18-1.18s-.53-1.18-1.18-1.18-1.18,.53-1.18,1.18,.53,1.18,1.18,1.18Z"/><path class="cls-18" d="M77.53,948.17c.65,0,1.18-.52,1.18-1.18s-.53-1.18-1.18-1.18-1.18,.53-1.18,1.18,.53,1.18,1.18,1.18Z"/><path class="cls-18" d="M31.46,963.46c.65,0,1.18-.53,1.18-1.18s-.53-1.18-1.18-1.18-1.18,.53-1.18,1.18,.53,1.18,1.18,1.18Z"/><path class="cls-18" d="M46.82,963.46c.65,0,1.18-.53,1.18-1.18s-.53-1.18-1.18-1.18-1.18,.53-1.18,1.18,.53,1.18,1.18,1.18Z"/><path class="cls-18" d="M62.17,963.46c.65,0,1.18-.53,1.18-1.18s-.53-1.18-1.18-1.18-1.18,.53-1.18,1.18,.53,1.18,1.18,1.18Z"/><path class="cls-18" d="M77.53,963.46c.65,0,1.18-.53,1.18-1.18s-.53-1.18-1.18-1.18-1.18,.53-1.18,1.18,.53,1.18,1.18,1.18Z"/><path class="cls-18" d="M32.64,977.56c0,.24-.07,.47-.2,.66-.13,.19-.31,.35-.53,.44-.22,.09-.45,.11-.68,.06-.23-.04-.44-.16-.6-.32-.16-.17-.28-.38-.32-.61-.05-.22-.02-.46,.07-.68,.09-.21,.24-.4,.43-.53,.19-.13,.42-.2,.65-.2,.31,0,.61,.13,.83,.35,.22,.22,.34,.52,.34,.83Z"/><path class="cls-18" d="M48,977.56c0,.24-.07,.47-.2,.66s-.31,.35-.53,.44c-.22,.09-.45,.11-.68,.06-.23-.04-.44-.16-.6-.32-.16-.17-.28-.38-.32-.61-.05-.22-.02-.46,.07-.68,.09-.21,.24-.4,.43-.53,.19-.13,.42-.2,.65-.2,.31,0,.61,.13,.83,.35,.22,.22,.34,.52,.34,.83Z"/><path class="cls-18" d="M63.35,977.56c0,.24-.07,.47-.2,.66s-.31,.35-.53,.44c-.22,.09-.45,.11-.68,.06-.23-.04-.44-.16-.6-.32-.16-.17-.28-.38-.32-.61-.05-.22-.02-.46,.07-.68,.09-.21,.24-.4,.43-.53,.19-.13,.42-.2,.65-.2,.31,0,.61,.13,.83,.35,.22,.22,.34,.52,.34,.83Z"/><path class="cls-18" d="M78.7,977.56c0,.24-.07,.47-.2,.66-.13,.19-.31,.35-.53,.44-.22,.09-.45,.11-.68,.06-.23-.04-.44-.16-.6-.32-.16-.17-.28-.38-.32-.61-.05-.22-.02-.46,.07-.68,.09-.21,.24-.4,.43-.53,.19-.13,.42-.2,.65-.2,.15,0,.31,.03,.45,.09,.14,.06,.27,.15,.38,.26,.11,.11,.2,.24,.26,.38,.06,.15,.09,.3,.09,.45Z"/><path class="cls-18" d="M32.64,992.85c0,.23-.07,.46-.2,.66-.13,.19-.31,.34-.53,.43-.22,.09-.45,.12-.68,.07-.23-.05-.44-.16-.6-.32-.16-.17-.28-.38-.32-.61-.05-.23-.02-.47,.07-.68,.09-.22,.24-.4,.43-.53,.19-.13,.42-.2,.65-.2,.15,0,.31,.03,.45,.09,.14,.06,.27,.14,.38,.25,.11,.11,.2,.24,.26,.39,.06,.14,.09,.3,.09,.45Z"/><path class="cls-18" d="M48,992.85c0,.23-.07,.46-.2,.66-.13,.19-.31,.34-.53,.43-.22,.09-.45,.12-.68,.07-.23-.05-.44-.16-.6-.32-.16-.17-.28-.38-.32-.61-.05-.23-.02-.47,.07-.68,.09-.22,.24-.4,.43-.53,.19-.13,.42-.2,.65-.2,.15,0,.31,.03,.45,.09,.14,.06,.27,.14,.38,.25,.11,.11,.2,.24,.26,.39,.06,.14,.09,.3,.09,.45Z"/><path class="cls-18" d="M63.35,992.85c0,.23-.07,.46-.2,.66-.13,.19-.31,.34-.53,.43-.22,.09-.45,.12-.68,.07-.23-.05-.44-.16-.6-.32-.16-.17-.28-.38-.32-.61-.05-.23-.02-.47,.07-.68,.09-.22,.24-.4,.43-.53,.19-.13,.42-.2,.65-.2,.31,0,.61,.12,.83,.34,.22,.23,.34,.53,.34,.84Z"/><path class="cls-18" d="M78.7,992.85c0,.23-.07,.46-.2,.66-.13,.19-.31,.34-.53,.43-.22,.09-.45,.12-.68,.07-.23-.05-.44-.16-.6-.32-.16-.17-.28-.38-.32-.61-.05-.23-.02-.47,.07-.68,.09-.22,.24-.4,.43-.53,.19-.13,.42-.2,.65-.2,.15,0,.31,.03,.45,.09,.14,.06,.27,.14,.38,.25s.2,.24,.26,.39c.06,.14,.09,.3,.09,.45Z"/><path class="cls-18" d="M91.19,948.17c.65,0,1.18-.52,1.18-1.18s-.53-1.18-1.18-1.18-1.18,.53-1.18,1.18,.53,1.18,1.18,1.18Z"/><path class="cls-18" d="M106.54,948.17c.65,0,1.18-.52,1.18-1.18s-.53-1.18-1.18-1.18-1.18,.53-1.18,1.18,.53,1.18,1.18,1.18Z"/><path class="cls-18" d="M121.9,948.17c.65,0,1.18-.52,1.18-1.18s-.53-1.18-1.18-1.18-1.18,.53-1.18,1.18,.53,1.18,1.18,1.18Z"/><path class="cls-18" d="M137.25,948.17c.65,0,1.18-.52,1.18-1.18s-.53-1.18-1.18-1.18-1.18,.53-1.18,1.18,.53,1.18,1.18,1.18Z"/><path class="cls-18" d="M91.19,963.46c.65,0,1.18-.53,1.18-1.18s-.53-1.18-1.18-1.18-1.18,.53-1.18,1.18,.53,1.18,1.18,1.18Z"/><path class="cls-18" d="M106.54,963.46c.65,0,1.18-.53,1.18-1.18s-.53-1.18-1.18-1.18-1.18,.53-1.18,1.18,.53,1.18,1.18,1.18Z"/><path class="cls-18" d="M121.9,963.46c.65,0,1.18-.53,1.18-1.18s-.53-1.18-1.18-1.18-1.18,.53-1.18,1.18,.53,1.18,1.18,1.18Z"/><path class="cls-18" d="M137.25,963.46c.65,0,1.18-.53,1.18-1.18s-.53-1.18-1.18-1.18-1.18,.53-1.18,1.18,.53,1.18,1.18,1.18Z"/><path class="cls-18" d="M92.36,977.56c0,.24-.07,.47-.2,.66-.13,.19-.31,.35-.53,.44-.22,.09-.45,.11-.68,.06-.23-.04-.44-.15-.6-.32-.16-.17-.28-.38-.32-.61-.05-.22-.02-.46,.07-.68,.09-.21,.24-.4,.43-.53,.19-.13,.42-.2,.65-.2,.31,0,.61,.13,.83,.35s.34,.52,.34,.83Z"/><path class="cls-18" d="M107.72,977.56c0,.24-.07,.47-.2,.66-.13,.19-.31,.35-.53,.44-.21,.09-.45,.11-.68,.06-.23-.04-.44-.15-.6-.32-.17-.17-.28-.38-.32-.61-.05-.22-.02-.46,.07-.68,.09-.21,.24-.4,.43-.53,.19-.13,.42-.2,.65-.2,.31,0,.61,.13,.83,.35,.22,.22,.35,.52,.35,.83Z"/><path class="cls-18" d="M123.07,977.56c0,.24-.07,.47-.2,.66-.13,.19-.31,.35-.53,.44-.21,.09-.45,.11-.68,.06-.23-.04-.44-.15-.6-.32-.17-.17-.28-.38-.32-.61-.04-.22-.02-.46,.07-.68,.09-.21,.24-.4,.43-.53,.19-.13,.42-.2,.65-.2,.31,0,.61,.13,.83,.35,.22,.22,.35,.52,.35,.83Z"/><path class="cls-18" d="M138.43,977.56c0,.24-.07,.47-.2,.66-.13,.19-.31,.35-.53,.44-.21,.09-.45,.11-.68,.06-.23-.04-.44-.15-.6-.32-.17-.17-.28-.38-.32-.61-.04-.22-.02-.46,.07-.68,.09-.21,.24-.4,.43-.53,.19-.13,.42-.2,.65-.2,.16,0,.31,.03,.45,.09,.14,.06,.27,.15,.38,.26,.11,.11,.2,.24,.26,.38,.06,.15,.09,.3,.09,.45Z"/><path class="cls-18" d="M92.36,992.85c0,.23-.07,.46-.2,.66-.13,.19-.31,.34-.53,.43-.22,.09-.45,.12-.68,.07s-.44-.16-.6-.32c-.16-.17-.28-.38-.32-.61-.05-.23-.02-.47,.07-.68,.09-.22,.24-.4,.43-.53,.19-.13,.42-.2,.65-.2,.15,0,.31,.03,.45,.09,.14,.06,.27,.14,.38,.25,.11,.11,.2,.24,.26,.39,.06,.14,.09,.3,.09,.45Z"/><path class="cls-18" d="M107.72,992.85c0,.23-.07,.46-.2,.66-.13,.19-.31,.34-.53,.43-.21,.09-.45,.12-.68,.07-.23-.05-.44-.16-.6-.32-.17-.17-.28-.38-.32-.61-.05-.23-.02-.47,.07-.68,.09-.22,.24-.4,.43-.53,.19-.13,.42-.2,.65-.2,.15,0,.31,.03,.45,.09,.14,.06,.27,.14,.38,.25s.2,.24,.26,.39c.06,.14,.09,.3,.09,.45Z"/><path class="cls-18" d="M123.07,992.85c0,.23-.07,.46-.2,.66-.13,.19-.31,.34-.53,.43-.22,.09-.45,.12-.68,.07s-.44-.16-.6-.32c-.17-.17-.28-.38-.32-.61-.04-.23-.02-.47,.07-.68,.09-.22,.24-.4,.43-.53,.19-.13,.42-.2,.65-.2,.31,0,.61,.12,.83,.34,.22,.23,.35,.53,.35,.84Z"/><path class="cls-18" d="M138.43,992.85c0,.23-.07,.46-.2,.66-.13,.19-.31,.34-.53,.43-.21,.09-.45,.12-.68,.07-.23-.05-.44-.16-.6-.32-.17-.17-.28-.38-.32-.61s-.02-.47,.07-.68c.09-.22,.24-.4,.43-.53,.19-.13,.42-.2,.65-.2,.16,0,.31,.03,.45,.09,.14,.06,.27,.14,.38,.25,.11,.11,.2,.24,.25,.39,.06,.14,.09,.3,.09,.45Z"/><path class="cls-18" d="M150.91,948.17c.65,0,1.18-.52,1.18-1.18s-.53-1.18-1.18-1.18-1.18,.53-1.18,1.18,.53,1.18,1.18,1.18Z"/><path class="cls-18" d="M166.26,948.17c.65,0,1.18-.52,1.18-1.18s-.53-1.18-1.18-1.18-1.18,.53-1.18,1.18,.53,1.18,1.18,1.18Z"/><path class="cls-18" d="M181.62,948.17c.65,0,1.18-.52,1.18-1.18s-.53-1.18-1.18-1.18-1.18,.53-1.18,1.18,.53,1.18,1.18,1.18Z"/><path class="cls-18" d="M196.97,948.17c.65,0,1.18-.52,1.18-1.18s-.53-1.18-1.18-1.18-1.18,.53-1.18,1.18,.53,1.18,1.18,1.18Z"/><path class="cls-18" d="M150.91,963.46c.65,0,1.18-.53,1.18-1.18s-.53-1.18-1.18-1.18-1.18,.53-1.18,1.18,.53,1.18,1.18,1.18Z"/><path class="cls-18" d="M166.26,963.46c.65,0,1.18-.53,1.18-1.18s-.53-1.18-1.18-1.18-1.18,.53-1.18,1.18,.53,1.18,1.18,1.18Z"/><path class="cls-18" d="M181.62,963.46c.65,0,1.18-.53,1.18-1.18s-.53-1.18-1.18-1.18-1.18,.53-1.18,1.18,.53,1.18,1.18,1.18Z"/><path class="cls-18" d="M196.97,963.46c.65,0,1.18-.53,1.18-1.18s-.53-1.18-1.18-1.18-1.18,.53-1.18,1.18,.53,1.18,1.18,1.18Z"/><path class="cls-18" d="M152.09,977.56c0,.24-.07,.47-.2,.66-.13,.19-.31,.35-.53,.44-.21,.09-.45,.11-.68,.06-.23-.04-.44-.15-.6-.32-.17-.17-.28-.38-.32-.61-.04-.22-.02-.46,.07-.68,.09-.21,.24-.4,.43-.53,.19-.13,.42-.2,.65-.2,.31,0,.61,.13,.83,.35,.22,.22,.35,.52,.35,.83Z"/><path class="cls-18" d="M167.44,977.56c0,.24-.07,.47-.2,.66-.13,.19-.31,.35-.53,.44-.21,.09-.45,.11-.68,.06-.23-.04-.44-.15-.6-.32-.17-.17-.28-.38-.32-.61-.05-.22-.02-.46,.07-.68,.09-.21,.24-.4,.43-.53,.19-.13,.42-.2,.65-.2,.31,0,.61,.13,.83,.35,.22,.22,.34,.52,.34,.83Z"/><path class="cls-18" d="M182.8,977.56c0,.24-.07,.47-.2,.66-.13,.19-.31,.35-.53,.44-.22,.09-.45,.11-.68,.06-.23-.04-.44-.15-.6-.32-.16-.17-.28-.38-.32-.61-.05-.22-.02-.46,.07-.68,.09-.21,.24-.4,.43-.53,.19-.13,.42-.2,.65-.2,.31,0,.61,.13,.83,.35,.22,.22,.35,.52,.35,.83Z"/><path class="cls-18" d="M198.15,977.56c0,.24-.07,.47-.2,.66s-.31,.35-.53,.44c-.22,.09-.45,.11-.68,.06-.23-.04-.44-.15-.6-.32-.16-.17-.28-.38-.32-.61-.04-.22-.02-.46,.07-.68,.09-.21,.24-.4,.43-.53,.19-.13,.42-.2,.65-.2,.15,0,.31,.03,.45,.09,.14,.06,.27,.15,.38,.26,.11,.11,.2,.24,.26,.38,.06,.15,.09,.3,.09,.45Z"/><path class="cls-18" d="M152.09,992.85c0,.23-.07,.46-.2,.66-.13,.19-.31,.34-.53,.43-.21,.09-.45,.12-.68,.07-.23-.05-.44-.16-.6-.32-.17-.17-.28-.38-.32-.61-.04-.23-.02-.47,.07-.68,.09-.22,.24-.4,.43-.53,.19-.13,.42-.2,.65-.2,.15,0,.31,.03,.45,.09,.14,.06,.27,.14,.38,.25,.11,.11,.2,.24,.26,.39,.06,.14,.09,.3,.09,.45Z"/><path class="cls-18" d="M167.44,992.85c0,.23-.07,.46-.2,.66-.13,.19-.31,.34-.53,.43-.22,.09-.45,.12-.68,.07-.23-.05-.44-.16-.6-.32-.17-.17-.28-.38-.32-.61-.05-.23-.02-.47,.07-.68,.09-.22,.24-.4,.43-.53,.19-.13,.42-.2,.65-.2,.15,0,.31,.03,.45,.09,.14,.06,.27,.14,.38,.25,.11,.11,.2,.24,.26,.39,.06,.14,.09,.3,.09,.45Z"/><path class="cls-18" d="M182.8,992.85c0,.23-.07,.46-.2,.66-.13,.19-.31,.34-.53,.43-.22,.09-.45,.12-.68,.07-.23-.05-.44-.16-.6-.32-.16-.17-.28-.38-.32-.61-.05-.23-.02-.47,.07-.68,.09-.22,.24-.4,.43-.53,.19-.13,.42-.2,.65-.2,.31,0,.61,.12,.83,.34,.22,.23,.35,.53,.35,.84Z"/><path class="cls-18" d="M198.15,992.85c0,.23-.07,.46-.2,.66-.13,.19-.31,.34-.53,.43-.21,.09-.45,.12-.68,.07-.23-.05-.44-.16-.6-.32-.16-.17-.28-.38-.32-.61-.04-.23-.02-.47,.07-.68,.09-.22,.24-.4,.43-.53,.19-.13,.42-.2,.65-.2,.15,0,.31,.03,.45,.09,.14,.06,.27,.14,.38,.25,.11,.11,.2,.24,.26,.39,.06,.14,.09,.3,.09,.45Z"/><g class="cls-15"><path class="cls-3" d="M1804,314.34c-27.72,59.46-2,130.14,57.46,157.87,59.46,27.72,130.14,2,157.87-57.46,27.72-59.46,2-130.14-57.46-157.86-59.46-27.73-130.14-2.01-157.87,57.45Z"/><path class="cls-3" d="M1810.79,317.5c-25.99,55.72-1.88,121.95,53.83,147.93,55.72,25.98,121.95,1.88,147.92-53.84,25.99-55.72,1.89-121.95-53.83-147.93-55.72-25.98-121.95-1.87-147.92,53.84Z"/><path class="cls-3" d="M1817.56,320.66c-24.24,51.98-1.75,113.76,50.23,137.99,51.97,24.24,113.75,1.75,137.98-50.22,24.24-51.97,1.75-113.75-50.22-137.99-51.97-24.23-113.75-1.75-137.99,50.22Z"/><path class="cls-3" d="M1824.34,323.82c-22.49,48.23-1.62,105.57,46.6,128.05,48.23,22.49,105.56,1.63,128.05-46.6s1.62-105.56-46.6-128.05c-48.23-22.49-105.56-1.62-128.05,46.6Z"/><path class="cls-3" d="M1831.11,326.98c-20.74,44.49-1.5,97.37,42.99,118.12,44.49,20.74,97.37,1.49,118.12-42.99,20.74-44.49,1.5-97.37-43-118.11-44.48-20.75-97.36-1.5-118.11,42.98Z"/><path class="cls-3" d="M1837.9,330.15c-19,40.74-1.38,89.17,39.36,108.17,40.75,19,89.18,1.37,108.17-39.37,19-40.75,1.38-89.18-39.36-108.18-40.74-19-89.18-1.37-108.17,39.38Z"/></g><g class="cls-15"><path class="cls-2" d="M1680.61,127.37c-15.1,32.39-1.09,70.89,31.3,85.99,32.39,15.1,70.89,1.09,85.98-31.3,15.1-32.38,1.09-70.88-31.29-85.98-32.39-15.1-70.89-1.09-85.99,31.29Z"/><path class="cls-2" d="M1684.3,129.09c-14.14,30.35-1.02,66.43,29.33,80.58,30.34,14.15,66.41,1.02,80.57-29.33,14.15-30.35,1.02-66.42-29.32-80.57-30.35-14.15-66.43-1.02-80.58,29.32Z"/><path class="cls-2" d="M1687.99,130.82c-13.19,28.3-.95,61.95,27.36,75.15,28.31,13.21,61.95,.96,75.16-27.35,13.2-28.31,.95-61.96-27.35-75.16-28.32-13.2-61.96-.95-75.17,27.36Z"/><path class="cls-2" d="M1691.68,132.54c-12.24,26.27-.88,57.49,25.4,69.74,26.26,12.25,57.48,.89,69.74-25.38,12.25-26.27,.88-57.5-25.39-69.75-26.26-12.25-57.49-.88-69.75,25.39Z"/><path class="cls-2" d="M1695.37,134.26c-11.29,24.23-.8,53.03,23.42,64.33,24.23,11.3,53.03,.82,64.34-23.41,11.29-24.23,.81-53.04-23.42-64.34-24.23-11.3-53.03-.81-64.34,23.42Z"/><path class="cls-2" d="M1699.07,135.98c-10.35,22.19-.75,48.57,21.44,58.92,22.2,10.35,48.57,.75,58.93-21.44,10.34-22.2,.75-48.58-21.45-58.92-22.2-10.35-48.57-.75-58.92,21.44Z"/></g><g class="cls-21"><path class="cls-13" d="M918.97,752.24c-.68-.55-1.36-1.08-2.05-1.6l-114.75,114.75c.52,.69,1.06,1.37,1.6,2.05l115.2-115.2Z"/><path class="cls-13" d="M890.93,737.51c-.95-.28-1.91-.54-2.87-.79l-99.82,99.82c.25,.96,.51,1.92,.79,2.87l101.9-101.9Z"/><path class="cls-13" d="M910.62,746.33c-.76-.47-1.52-.92-2.29-1.36l-111.84,111.84c.44,.77,.9,1.54,1.36,2.29l112.77-112.77Z"/><path class="cls-13" d="M901.32,741.38c-.85-.38-1.7-.75-2.55-1.1l-106.97,106.97c.35,.85,.72,1.7,1.1,2.55l108.42-108.42Z"/><path class="cls-13" d="M879.23,734.96c-1.08-.16-2.17-.29-3.26-.4l-89.89,89.89c.11,1.09,.24,2.18,.4,3.26l92.76-92.75Z"/><path class="cls-13" d="M925.51,758.13c-.31-.31-.62-.61-.93-.91l-115.84,115.85c.3,.31,.6,.62,.9,.92,.3,.31,.62,.61,.93,.91l115.84-115.85c-.3-.31-.6-.62-.9-.92Z"/><path class="cls-13" d="M865.79,734.15c-1.28,.02-2.55,.08-3.83,.17l-76.11,76.12c-.09,1.27-.15,2.55-.17,3.83l80.12-80.12Z"/><path class="cls-13" d="M787.65,798.03l61.9-61.9c-1.65,.37-3.29,.79-4.92,1.26l-55.71,55.72c-.48,1.63-.9,3.27-1.27,4.92Z"/><path class="cls-13" d="M949.32,821.68c.09-1.28,.14-2.55,.17-3.83l-80.12,80.12c1.28-.03,2.55-.09,3.83-.18l76.11-76.11Z"/><path class="cls-13" d="M949.08,807.66c-.11-1.09-.24-2.17-.4-3.26l-92.75,92.76c1.08,.15,2.17,.28,3.26,.39l89.89-89.89Z"/><path class="cls-13" d="M825.97,745.46c-11.95,7.07-21.91,17.04-28.98,28.99l28.98-28.99Z"/><path class="cls-13" d="M946.24,839.01c.47-1.63,.9-3.27,1.27-4.92l-61.9,61.9c1.65-.38,3.29-.8,4.92-1.27l55.71-55.71Z"/><path class="cls-13" d="M909.19,886.66c11.94-7.07,21.91-17.04,28.98-28.99l-28.98,28.99Z"/><path class="cls-13" d="M938.67,775.3c-.44-.77-.9-1.53-1.36-2.29l-112.77,112.78c.76,.46,1.52,.92,2.29,1.36l111.84-111.85Z"/><path class="cls-13" d="M933,766.72c-.52-.69-1.06-1.37-1.6-2.05l-115.2,115.2c.68,.55,1.36,1.09,2.05,1.6l114.75-114.75Z"/><path class="cls-13" d="M946.91,795.57c-.25-.96-.51-1.92-.79-2.87l-101.9,101.91c.95,.28,1.91,.54,2.87,.78l99.82-99.82Z"/><path class="cls-13" d="M943.36,784.87c-.35-.86-.72-1.71-1.1-2.55l-108.42,108.42c.85,.38,1.7,.75,2.55,1.1l106.97-106.97Z"/></g><path class="cls-6" d="M1792.85,946.24h13.98"/><path class="cls-6" d="M1799.83,939.25v13.98"/><path class="cls-6" d="M1792.85,915.99h13.98"/><path class="cls-6" d="M1799.83,909v13.99"/><path class="cls-6" d="M1792.85,885.75h13.98"/><path class="cls-6" d="M1799.83,878.75v13.99"/><path class="cls-6" d="M1103.55,243.28v13.99"/><path class="cls-6" d="M1110.55,250.27h-13.99"/><path class="cls-4" d="M652.01,504.21v13.99"/><path class="cls-4" d="M659.01,511.21h-13.99"/><path class="cls-5" d="M549.63,776.82v13.99"/><path class="cls-5" d="M556.63,783.82h-13.98"/><path class="cls-5" d="M974.12,614.94v13.99"/><path class="cls-5" d="M981.11,621.93h-13.98"/><path class="cls-5" d="M1255.57,446.42v13.99"/><path class="cls-5" d="M1262.57,453.41h-13.98"/><path class="cls-5" d="M1629.81,163.93v13.99"/><path class="cls-5" d="M1636.79,170.92h-13.98"/><path class="cls-5" d="M426.81,409.32v13.99"/><path class="cls-5" d="M433.8,416.31h-13.98"/><path class="cls-7" d="M1045.46,992.01v13.99"/><path class="cls-7" d="M1052.46,999h-13.98"/><path class="cls-7" d="M1075.71,992.01v13.99"/><path class="cls-7" d="M1082.7,999h-13.99"/><path class="cls-7" d="M1105.93,992.01v13.99"/><path class="cls-7" d="M1112.93,999h-13.98"/><path class="cls-5" d="M229.71,364.22v13.99"/><path class="cls-5" d="M236.7,371.21h-13.99"/><path class="cls-19" d="M1100.92,755.67c0,.4-.12,.79-.35,1.13-.22,.33-.53,.59-.91,.74-.37,.16-.77,.2-1.17,.12-.39-.08-.75-.27-1.03-.56-.28-.28-.48-.64-.56-1.04-.08-.39-.04-.8,.11-1.17,.16-.37,.42-.68,.75-.9,.34-.23,.73-.35,1.13-.35,.27,0,.53,.06,.77,.16,.25,.1,.47,.25,.66,.44,.19,.19,.34,.41,.44,.65,.1,.25,.16,.51,.16,.78Z"/><path class="cls-19" d="M1114.66,755.67c0,.4-.11,.79-.33,1.13-.23,.33-.55,.59-.91,.74-.38,.16-.78,.19-1.18,.12-.39-.08-.75-.27-1.04-.56-.28-.28-.47-.64-.54-1.04-.08-.39-.04-.8,.11-1.17,.15-.37,.41-.68,.75-.91,.33-.22,.72-.34,1.12-.34,.27,0,.53,.06,.78,.16,.24,.1,.46,.25,.65,.44,.19,.19,.34,.41,.44,.65,.1,.25,.15,.51,.15,.78Z"/><path class="cls-19" d="M1128.42,755.67c0,.4-.12,.79-.34,1.13-.22,.33-.54,.59-.91,.74-.36,.16-.78,.19-1.17,.12-.39-.08-.75-.27-1.03-.56-.29-.28-.48-.64-.56-1.03-.08-.4-.04-.81,.11-1.18,.16-.37,.41-.68,.75-.9,.33-.23,.73-.35,1.12-.35,.27,0,.54,.06,.78,.16,.24,.1,.47,.25,.66,.44,.19,.19,.33,.41,.44,.65,.1,.25,.15,.51,.15,.78Z"/><path class="cls-19" d="M1100.92,769.42c0,.41-.12,.8-.35,1.13-.22,.33-.53,.59-.91,.75-.37,.15-.77,.19-1.17,.11-.39-.08-.75-.27-1.03-.55-.28-.29-.48-.65-.56-1.04-.08-.39-.04-.8,.11-1.17,.16-.37,.42-.69,.75-.91,.34-.22,.73-.34,1.13-.34,.53,0,1.05,.21,1.43,.59,.38,.38,.6,.9,.6,1.43Z"/><path class="cls-19" d="M1114.66,769.42c0,.41-.11,.8-.33,1.13-.23,.33-.55,.59-.91,.75-.38,.15-.78,.19-1.18,.11-.39-.08-.74-.27-1.03-.55-.29-.29-.48-.65-.55-1.04-.08-.39-.04-.8,.11-1.17,.15-.37,.41-.69,.75-.91,.33-.22,.72-.34,1.12-.34,.53,0,1.05,.21,1.43,.59,.38,.38,.59,.9,.59,1.43Z"/><path class="cls-19" d="M1128.42,769.42c0,.41-.12,.8-.34,1.13-.22,.33-.54,.59-.91,.75-.36,.15-.78,.19-1.17,.11-.39-.08-.75-.27-1.03-.55-.29-.28-.48-.65-.56-1.04-.08-.39-.04-.8,.11-1.17,.16-.37,.41-.69,.75-.91,.33-.22,.73-.34,1.12-.34,.27,0,.54,.05,.78,.15,.24,.1,.46,.25,.66,.44,.19,.19,.33,.41,.44,.66,.1,.24,.15,.51,.15,.77Z"/><path class="cls-19" d="M1100.92,783.18c0,.4-.12,.79-.35,1.13-.22,.33-.53,.59-.91,.74-.37,.16-.77,.2-1.17,.12-.39-.08-.75-.27-1.03-.56-.28-.28-.48-.64-.56-1.03-.08-.4-.04-.81,.11-1.18,.16-.37,.42-.68,.75-.9,.34-.23,.73-.35,1.13-.35,.53,0,1.05,.22,1.43,.6s.6,.89,.6,1.43Z"/><path class="cls-19" d="M1114.66,783.18c0,.4-.11,.79-.33,1.13-.23,.33-.55,.59-.91,.74-.38,.16-.78,.2-1.18,.12-.39-.08-.74-.27-1.03-.56-.29-.28-.48-.64-.55-1.03-.08-.4-.04-.81,.11-1.18,.15-.37,.41-.68,.75-.9,.33-.23,.72-.35,1.12-.35,.53,0,1.05,.22,1.43,.6s.59,.89,.59,1.43Z"/><path class="cls-19" d="M1128.42,783.18c0,.4-.12,.79-.34,1.13-.22,.33-.54,.59-.91,.74-.36,.16-.78,.2-1.17,.12-.39-.08-.75-.27-1.03-.56-.29-.28-.48-.64-.56-1.03-.08-.4-.04-.8,.11-1.17,.16-.37,.41-.69,.75-.91,.33-.23,.73-.35,1.12-.35,.27,0,.54,.06,.78,.16,.24,.1,.46,.25,.66,.44,.19,.19,.33,.41,.44,.65,.1,.25,.15,.51,.15,.78Z"/><path class="cls-19" d="M275.99,381.64c0,.4-.12,.79-.34,1.12-.22,.33-.54,.59-.9,.74-.37,.15-.77,.19-1.16,.11-.39-.07-.75-.27-1.03-.55-.28-.28-.47-.63-.55-1.02-.08-.39-.04-.8,.11-1.16,.15-.37,.41-.69,.74-.91,.33-.22,.72-.34,1.12-.34,.26,0,.52,.06,.77,.16,.24,.1,.47,.25,.65,.43,.19,.19,.33,.41,.44,.66,.1,.24,.15,.5,.15,.76Z"/><path class="cls-19" d="M287.62,383.65c1.11,0,2.01-.9,2.01-2.01s-.9-2.01-2.01-2.01-2.01,.9-2.01,2.01,.9,2.01,2.01,2.01Z"/><path class="cls-19" d="M303.27,381.64c0,.4-.12,.79-.34,1.12-.22,.33-.54,.59-.9,.74-.37,.15-.77,.19-1.16,.12-.39-.08-.75-.27-1.03-.55-.28-.29-.47-.64-.55-1.03-.08-.39-.04-.8,.11-1.16,.15-.37,.41-.69,.74-.91,.33-.22,.72-.34,1.12-.34,.53,0,1.04,.22,1.42,.59,.38,.38,.59,.89,.59,1.42Z"/><path class="cls-19" d="M316.91,381.64c0,.4-.12,.79-.34,1.12-.22,.33-.53,.59-.9,.74-.37,.15-.77,.19-1.16,.12-.39-.08-.75-.27-1.03-.55-.28-.29-.47-.64-.55-1.03-.08-.39-.04-.8,.11-1.16,.15-.37,.41-.69,.74-.91,.33-.22,.72-.34,1.12-.34,.26,0,.53,.06,.77,.16,.24,.1,.47,.25,.65,.43,.19,.19,.34,.41,.44,.66,.1,.24,.15,.5,.15,.76Z"/><path class="cls-19" d="M328.54,383.65c1.11,0,2.01-.9,2.01-2.01s-.9-2.01-2.01-2.01-2.01,.9-2.01,2.01,.9,2.01,2.01,2.01Z"/><path class="cls-19" d="M344.19,381.64c0,.4-.12,.79-.34,1.12-.22,.33-.53,.59-.9,.74-.37,.15-.77,.19-1.16,.12-.39-.08-.75-.27-1.03-.55-.28-.29-.47-.64-.55-1.03-.08-.39-.04-.8,.11-1.16,.15-.37,.41-.69,.74-.91,.33-.22,.72-.34,1.12-.34,.26,0,.53,.06,.77,.16,.24,.1,.46,.25,.65,.43,.19,.19,.33,.41,.43,.66,.1,.24,.15,.5,.15,.76Z"/><path class="cls-19" d="M357.83,381.64c0,.4-.12,.79-.34,1.12-.22,.33-.54,.59-.9,.74-.37,.15-.77,.19-1.16,.12-.39-.08-.75-.27-1.03-.55-.28-.29-.47-.64-.55-1.03-.08-.39-.04-.8,.11-1.16,.15-.37,.41-.69,.74-.91,.33-.22,.72-.34,1.12-.34,.26,0,.52,.06,.77,.16,.24,.1,.46,.25,.65,.43,.19,.19,.34,.41,.44,.66,.1,.24,.15,.5,.15,.76Z"/><path class="cls-19" d="M275.99,395.29c0,.4-.12,.78-.34,1.11-.22,.33-.54,.59-.9,.74-.37,.16-.77,.2-1.16,.12-.39-.08-.75-.27-1.03-.55-.28-.28-.47-.64-.55-1.03-.08-.39-.04-.79,.11-1.16,.15-.37,.41-.68,.74-.9,.33-.22,.72-.34,1.12-.34,.53,0,1.04,.21,1.42,.59,.38,.37,.59,.89,.59,1.42Z"/><path class="cls-19" d="M289.63,395.29c0,.4-.12,.78-.34,1.12-.22,.33-.54,.58-.9,.74-.37,.15-.77,.19-1.16,.11-.39-.08-.75-.27-1.03-.55-.28-.28-.47-.64-.55-1.03-.08-.39-.04-.79,.11-1.16,.15-.37,.41-.68,.74-.9,.33-.22,.72-.34,1.12-.34,.53,0,1.04,.21,1.42,.59,.38,.37,.59,.89,.59,1.42Z"/><path class="cls-19" d="M303.27,395.29c0,.4-.12,.78-.34,1.12-.22,.33-.54,.58-.9,.74-.37,.15-.77,.19-1.16,.11s-.75-.27-1.03-.55c-.28-.28-.47-.64-.55-1.03-.08-.39-.04-.79,.11-1.16,.15-.37,.41-.68,.74-.9,.33-.22,.72-.34,1.12-.34,.53,0,1.04,.21,1.42,.59,.38,.37,.59,.89,.59,1.42Z"/><path class="cls-19" d="M316.91,395.29c0,.4-.12,.78-.34,1.12-.22,.33-.53,.58-.9,.74-.37,.15-.77,.19-1.16,.11-.39-.08-.75-.27-1.03-.55-.28-.28-.47-.64-.55-1.03-.08-.39-.04-.79,.11-1.16,.15-.37,.41-.68,.74-.9,.33-.22,.72-.34,1.12-.34,.53,0,1.04,.21,1.42,.59,.38,.37,.59,.89,.59,1.42Z"/><path class="cls-19" d="M330.55,395.29c0,.4-.12,.78-.34,1.12-.22,.33-.54,.58-.9,.74-.37,.15-.77,.19-1.16,.11-.39-.08-.75-.27-1.03-.55-.28-.28-.47-.64-.55-1.03-.08-.39-.04-.79,.12-1.16,.15-.37,.41-.68,.74-.9,.33-.22,.72-.34,1.12-.34,.53,0,1.04,.21,1.42,.59,.38,.37,.59,.89,.59,1.42Z"/><path class="cls-19" d="M344.19,395.29c0,.4-.12,.78-.34,1.12-.22,.33-.53,.58-.9,.74-.37,.15-.77,.19-1.16,.11-.39-.08-.75-.27-1.03-.55-.28-.28-.47-.64-.55-1.03-.08-.39-.04-.79,.11-1.16,.15-.37,.41-.68,.74-.9,.33-.22,.72-.34,1.12-.34,.53,0,1.05,.21,1.42,.59,.38,.37,.59,.89,.59,1.42Z"/><path class="cls-19" d="M357.83,395.29c0,.4-.12,.78-.34,1.12-.22,.33-.54,.58-.9,.74-.37,.15-.77,.19-1.16,.11-.39-.08-.75-.27-1.03-.55-.28-.28-.47-.64-.55-1.03-.08-.39-.04-.79,.11-1.16,.15-.37,.41-.68,.74-.9,.33-.22,.72-.34,1.12-.34,.53,0,1.04,.21,1.42,.59,.38,.37,.59,.89,.59,1.42Z"/><path class="cls-19" d="M275.99,408.93c0,.4-.12,.79-.34,1.12-.22,.33-.54,.58-.9,.74-.37,.15-.77,.19-1.16,.11-.39-.08-.75-.27-1.03-.55-.28-.28-.47-.64-.55-1.03-.08-.39-.04-.79,.11-1.16,.15-.37,.41-.68,.74-.9,.33-.22,.72-.34,1.12-.34,.26,0,.53,.05,.77,.15,.24,.1,.47,.25,.65,.44,.19,.19,.33,.41,.44,.65,.1,.25,.15,.51,.15,.77Z"/><path class="cls-19" d="M289.63,408.93c0,.4-.12,.79-.34,1.12-.22,.33-.53,.59-.9,.74-.37,.15-.77,.19-1.16,.11-.39-.08-.75-.27-1.03-.55-.28-.28-.47-.64-.55-1.03-.08-.39-.04-.79,.11-1.16,.15-.37,.41-.68,.74-.9,.33-.22,.72-.34,1.12-.34,.26,0,.53,.05,.77,.15,.24,.1,.46,.25,.65,.44,.19,.19,.33,.41,.43,.65,.1,.25,.15,.51,.15,.77Z"/><path class="cls-19" d="M303.27,408.93c0,.4-.12,.79-.34,1.12-.22,.33-.54,.59-.9,.74-.37,.15-.77,.19-1.16,.11-.39-.08-.75-.27-1.03-.55-.28-.28-.47-.64-.55-1.03-.08-.39-.04-.8,.12-1.16,.15-.37,.41-.68,.74-.9,.33-.22,.72-.34,1.12-.34,.26,0,.53,.05,.77,.15,.24,.1,.46,.25,.65,.44,.19,.19,.33,.41,.43,.65,.1,.25,.15,.51,.15,.77Z"/><path class="cls-19" d="M316.91,408.93c0,.4-.12,.79-.34,1.12-.22,.33-.54,.59-.9,.74-.37,.15-.77,.19-1.16,.11-.39-.08-.75-.27-1.03-.55-.28-.28-.47-.64-.55-1.03-.08-.39-.04-.79,.11-1.16,.15-.37,.41-.68,.74-.9,.33-.22,.72-.34,1.12-.34,.26,0,.53,.05,.77,.15,.25,.1,.47,.25,.65,.44s.33,.41,.43,.65c.1,.25,.15,.51,.15,.77Z"/><path class="cls-19" d="M330.55,408.93c0,.4-.12,.79-.34,1.12-.22,.33-.53,.59-.9,.74-.37,.15-.77,.19-1.16,.11-.39-.08-.75-.27-1.03-.55-.28-.28-.47-.64-.55-1.03-.08-.39-.04-.79,.12-1.16,.15-.37,.41-.68,.74-.9,.33-.22,.72-.34,1.12-.34,.26,0,.53,.05,.77,.15,.24,.1,.46,.25,.65,.44,.19,.19,.33,.41,.43,.65,.1,.25,.15,.51,.15,.77Z"/><path class="cls-19" d="M344.19,408.93c0,.4-.12,.79-.34,1.12-.22,.33-.53,.59-.9,.74-.37,.15-.77,.19-1.16,.11-.39-.07-.75-.26-1.03-.55-.28-.28-.47-.64-.55-1.02-.08-.39-.04-.8,.11-1.17,.15-.36,.41-.68,.74-.9,.33-.22,.72-.34,1.12-.34,.53,0,1.05,.22,1.42,.59,.38,.38,.59,.89,.59,1.42Z"/><path class="cls-19" d="M357.83,408.93c0,.4-.12,.79-.34,1.12-.22,.33-.54,.59-.9,.74-.37,.15-.77,.19-1.16,.11-.39-.07-.75-.26-1.03-.55-.28-.28-.47-.64-.55-1.02-.08-.39-.04-.8,.11-1.17,.15-.36,.41-.68,.74-.9,.33-.22,.72-.34,1.12-.34,.53,0,1.04,.22,1.42,.59,.38,.38,.59,.89,.59,1.42Z"/><path class="cls-19" d="M275.99,422.58c0,.39-.12,.78-.34,1.11-.22,.33-.54,.59-.9,.74-.37,.15-.77,.19-1.16,.12-.39-.08-.75-.27-1.03-.55-.28-.28-.47-.64-.55-1.03-.08-.39-.04-.79,.11-1.16,.15-.37,.41-.68,.74-.9,.33-.22,.72-.34,1.12-.34,.26,0,.52,.05,.77,.15,.24,.1,.47,.25,.65,.44,.19,.18,.33,.4,.44,.65,.1,.24,.15,.5,.15,.77Z"/><path class="cls-19" d="M289.63,422.58c0,.39-.12,.78-.34,1.11-.22,.33-.54,.59-.9,.74-.37,.16-.77,.2-1.16,.12-.39-.08-.75-.27-1.03-.55-.28-.28-.47-.64-.55-1.03-.08-.39-.04-.79,.11-1.16,.15-.37,.41-.68,.74-.9,.33-.22,.72-.34,1.12-.34,.53,0,1.04,.21,1.42,.59,.38,.37,.59,.88,.59,1.42Z"/><path class="cls-19" d="M303.27,422.58c0,.39-.12,.78-.34,1.11-.22,.33-.54,.59-.9,.74-.37,.16-.77,.2-1.16,.12-.39-.08-.75-.27-1.03-.55-.28-.28-.47-.64-.55-1.03-.08-.39-.04-.79,.11-1.16,.15-.37,.41-.68,.74-.9,.33-.22,.72-.34,1.12-.34,.53,0,1.04,.21,1.42,.59,.38,.37,.59,.88,.59,1.42Z"/><path class="cls-19" d="M316.91,422.58c0,.39-.12,.78-.34,1.11-.22,.33-.53,.59-.9,.74-.37,.16-.77,.2-1.16,.12-.39-.08-.75-.27-1.03-.55-.28-.28-.47-.64-.55-1.03-.08-.39-.04-.79,.11-1.16,.15-.37,.41-.68,.74-.9,.33-.22,.72-.34,1.12-.34,.26,0,.53,.05,.77,.15,.24,.1,.47,.25,.65,.44,.19,.18,.34,.4,.44,.65,.1,.24,.15,.5,.15,.77Z"/><path class="cls-19" d="M330.55,422.58c0,.39-.12,.78-.34,1.11-.22,.33-.54,.59-.9,.74-.37,.16-.77,.2-1.16,.12-.39-.08-.75-.27-1.03-.55-.28-.28-.47-.64-.55-1.03-.08-.39-.04-.79,.12-1.16,.15-.37,.41-.68,.74-.9,.33-.22,.72-.34,1.12-.34,.26,0,.53,.05,.77,.15,.24,.1,.46,.25,.65,.44,.19,.18,.33,.4,.43,.65,.1,.24,.15,.5,.15,.77Z"/><path class="cls-19" d="M344.19,422.58c0,.39-.12,.78-.34,1.11-.22,.33-.53,.59-.9,.74-.37,.16-.77,.2-1.16,.12-.39-.08-.75-.27-1.03-.55-.28-.28-.47-.64-.55-1.03-.08-.39-.04-.79,.11-1.16,.15-.37,.41-.68,.74-.9,.33-.22,.72-.34,1.12-.34,.26,0,.53,.05,.77,.15,.24,.1,.46,.25,.65,.44,.19,.18,.33,.4,.43,.65,.1,.24,.15,.5,.15,.77Z"/><path class="cls-19" d="M357.83,422.58c0,.39-.12,.78-.34,1.11-.22,.33-.54,.59-.9,.74-.37,.16-.77,.2-1.16,.12-.39-.08-.75-.27-1.03-.55-.28-.28-.47-.64-.55-1.03-.08-.39-.04-.79,.11-1.16,.15-.37,.41-.68,.74-.9,.33-.22,.72-.34,1.12-.34,.26,0,.52,.05,.77,.15,.24,.1,.46,.25,.65,.44,.19,.18,.34,.4,.44,.65,.1,.24,.15,.5,.15,.77Z"/><path class="cls-19" d="M275.99,436.22c0,.4-.12,.79-.34,1.12-.22,.33-.53,.58-.9,.74-.37,.15-.77,.19-1.16,.11-.39-.08-.75-.27-1.03-.55-.28-.28-.47-.64-.55-1.03-.08-.39-.04-.79,.11-1.16,.15-.36,.41-.68,.74-.9,.33-.22,.72-.34,1.12-.34,.26,0,.52,.05,.77,.16,.24,.1,.46,.24,.65,.43,.19,.19,.33,.41,.44,.65,.1,.25,.15,.51,.15,.77Z"/><path class="cls-19" d="M287.62,438.23c1.11,0,2.01-.9,2.01-2.01s-.9-2.01-2.01-2.01-2.01,.9-2.01,2.01,.9,2.01,2.01,2.01Z"/><path class="cls-19" d="M303.27,436.22c0,.4-.12,.79-.34,1.12-.22,.33-.53,.59-.9,.74-.37,.15-.77,.19-1.16,.11-.39-.07-.75-.27-1.03-.55-.28-.28-.47-.64-.55-1.03-.08-.39-.04-.79,.11-1.16,.15-.36,.41-.68,.74-.9,.33-.22,.72-.34,1.12-.34,.53,0,1.04,.21,1.42,.59,.38,.38,.59,.89,.59,1.42Z"/><path class="cls-19" d="M316.91,436.22c0,.4-.12,.79-.34,1.12-.22,.33-.54,.59-.9,.74-.37,.15-.77,.19-1.16,.11-.39-.07-.75-.27-1.03-.55-.28-.28-.47-.64-.55-1.03-.08-.39-.04-.79,.11-1.16,.15-.36,.41-.68,.74-.9,.33-.22,.72-.34,1.12-.34,.53,0,1.04,.21,1.42,.59,.38,.38,.59,.89,.59,1.42Z"/><path class="cls-19" d="M328.54,438.23c1.11,0,2.01-.9,2.01-2.01s-.9-2.01-2.01-2.01-2.01,.9-2.01,2.01,.9,2.01,2.01,2.01Z"/><path class="cls-19" d="M344.19,436.22c0,.4-.12,.79-.34,1.12-.22,.33-.54,.59-.9,.74-.37,.15-.77,.19-1.16,.11-.39-.07-.75-.27-1.03-.55-.28-.28-.47-.64-.55-1.03-.08-.38-.04-.79,.11-1.16,.15-.36,.41-.68,.74-.9,.33-.22,.72-.34,1.12-.34,.26,0,.53,.05,.77,.16,.24,.1,.46,.24,.65,.43,.19,.19,.34,.41,.44,.65,.1,.25,.15,.51,.15,.77Z"/><path class="cls-19" d="M357.83,436.22c0,.4-.12,.79-.34,1.12-.22,.33-.53,.59-.9,.74-.37,.15-.77,.19-1.16,.11-.39-.07-.75-.27-1.03-.55-.28-.28-.47-.64-.55-1.03-.08-.38-.04-.79,.11-1.16,.15-.36,.41-.68,.74-.9,.33-.22,.72-.34,1.12-.34,.26,0,.52,.05,.77,.16,.24,.1,.46,.24,.65,.43,.19,.19,.33,.41,.43,.65,.1,.25,.15,.51,.15,.77Z"/><path class="cls-19" d="M1537.52,129.21c0,.36-.1,.71-.3,1-.19,.3-.48,.53-.81,.67-.32,.13-.69,.17-1.03,.1-.35-.07-.68-.24-.93-.49-.24-.26-.42-.58-.49-.93-.07-.34-.04-.71,.1-1.03,.14-.33,.37-.61,.66-.81,.31-.2,.65-.3,1-.3,.48,0,.94,.18,1.28,.52,.33,.34,.52,.8,.52,1.27Z"/><path class="cls-19" d="M1547.93,131.01c.99,0,1.8-.8,1.8-1.8s-.81-1.79-1.8-1.79-1.8,.8-1.8,1.79,.81,1.8,1.8,1.8Z"/><path class="cls-19" d="M1561.93,129.21c0,.36-.1,.71-.3,1-.2,.3-.47,.53-.81,.67-.32,.13-.69,.17-1.04,.1-.34-.07-.67-.24-.92-.49-.24-.26-.41-.58-.49-.93-.07-.35-.04-.71,.11-1.04,.13-.32,.36-.6,.65-.8,.31-.2,.65-.31,1-.3,.25,0,.48,.04,.69,.13,.22,.09,.42,.22,.59,.39,.16,.17,.3,.37,.38,.59,.09,.21,.14,.45,.14,.68Z"/><path class="cls-19" d="M1574.14,129.21c0,.36-.1,.71-.3,1-.2,.3-.48,.53-.81,.67-.33,.13-.69,.17-1.03,.1-.36-.07-.68-.24-.93-.49-.25-.26-.42-.58-.49-.93-.07-.34-.04-.71,.1-1.03,.13-.33,.37-.61,.66-.81,.3-.2,.65-.3,1-.3,.24-.01,.48,.04,.69,.13,.22,.09,.41,.22,.58,.39,.17,.17,.31,.37,.39,.59,.09,.21,.14,.45,.14,.68Z"/><path class="cls-19" d="M1584.55,131.01c.99,0,1.8-.8,1.8-1.8s-.81-1.79-1.8-1.79-1.8,.8-1.8,1.79,.8,1.8,1.8,1.8Z"/><path class="cls-19" d="M1598.55,129.21c0,.36-.1,.71-.3,1-.19,.3-.48,.53-.81,.67-.33,.13-.69,.17-1.03,.1-.36-.07-.68-.24-.93-.49-.25-.26-.42-.58-.49-.93-.07-.34-.04-.71,.1-1.03,.13-.33,.37-.61,.66-.81,.3-.2,.65-.3,1-.3,.48,0,.94,.18,1.27,.52,.34,.34,.53,.8,.53,1.27Z"/><path class="cls-19" d="M1610.76,129.21c0,.36-.11,.71-.31,1-.19,.3-.47,.53-.81,.67-.32,.13-.68,.17-1.03,.1-.35-.07-.68-.24-.92-.49-.25-.26-.42-.58-.49-.93-.07-.34-.03-.71,.1-1.03,.13-.33,.36-.61,.65-.81,.31-.2,.65-.3,1.01-.3,.47,0,.94,.18,1.27,.52,.33,.34,.53,.8,.53,1.27Z"/><path class="cls-19" d="M1549.73,141.42c0,.36-.1,.71-.3,1-.21,.3-.48,.53-.81,.66-.33,.14-.69,.18-1.04,.11-.35-.07-.67-.24-.93-.49-.24-.26-.41-.58-.48-.93-.07-.34-.04-.71,.1-1.04,.13-.32,.36-.6,.66-.8,.3-.2,.64-.31,1-.31,.47,.01,.94,.19,1.27,.53,.34,.34,.53,.8,.53,1.27Z"/><path class="cls-19" d="M1561.93,141.42c0,.36-.1,.71-.3,1-.2,.3-.47,.53-.81,.66-.32,.14-.69,.18-1.04,.11-.34-.07-.67-.24-.92-.5-.24-.25-.41-.57-.49-.92-.07-.35-.04-.71,.11-1.04,.13-.32,.36-.6,.65-.8,.31-.2,.65-.31,1-.31,.48,.01,.94,.19,1.28,.53,.33,.34,.52,.8,.52,1.27Z"/><path class="cls-19" d="M1574.14,141.42c0,.36-.1,.71-.3,1-.2,.3-.48,.53-.81,.66-.33,.14-.69,.18-1.03,.11-.36-.07-.68-.24-.93-.49-.25-.26-.42-.58-.49-.93-.07-.34-.04-.71,.1-1.04,.13-.32,.37-.6,.66-.8,.3-.2,.65-.31,1-.31,.48,0,.94,.19,1.27,.53,.34,.34,.53,.8,.53,1.27Z"/><path class="cls-19" d="M1586.35,141.42c0,.36-.11,.71-.31,1-.2,.3-.47,.53-.81,.66-.32,.14-.68,.18-1.03,.11-.35-.07-.68-.24-.93-.49-.24-.26-.41-.58-.48-.93-.08-.34-.04-.71,.1-1.04,.13-.32,.36-.6,.65-.8,.31-.2,.65-.31,1.01-.31,.47,0,.94,.19,1.27,.53,.33,.34,.53,.8,.53,1.27Z"/><path class="cls-19" d="M1598.55,141.42c0,.36-.1,.71-.3,1-.19,.3-.48,.53-.81,.66-.33,.14-.69,.18-1.03,.11-.36-.07-.68-.24-.93-.49-.25-.26-.42-.58-.49-.93-.07-.34-.04-.71,.1-1.04,.13-.32,.37-.6,.66-.8,.3-.2,.65-.31,1-.31,.48,.01,.94,.19,1.27,.53,.34,.34,.53,.8,.53,1.27Z"/><path class="cls-19" d="M1610.76,141.42c0,.36-.11,.71-.31,1-.19,.3-.47,.53-.81,.66-.32,.14-.68,.18-1.03,.11-.35-.07-.68-.24-.92-.49-.25-.26-.42-.58-.49-.93-.07-.34-.03-.71,.1-1.04,.13-.32,.36-.6,.65-.8,.31-.2,.65-.31,1.01-.31,.47,.01,.94,.19,1.27,.53,.33,.34,.53,.8,.53,1.27Z"/><path class="cls-19" d="M1622.96,141.42c0,.36-.1,.71-.3,1-.19,.3-.48,.53-.81,.66-.32,.14-.69,.18-1.03,.11-.36-.07-.68-.24-.93-.5-.25-.25-.42-.57-.49-.92-.07-.35-.03-.71,.1-1.04,.13-.32,.37-.6,.67-.8,.29-.2,.64-.31,.99-.31,.48,.01,.94,.19,1.28,.53,.33,.34,.52,.8,.52,1.27Z"/><path class="cls-8" d="M1372.1,864.05c-.01,1-.31,1.97-.85,2.8-.56,.82-1.35,1.47-2.26,1.85-.92,.38-1.93,.48-2.91,.28-.97-.19-1.87-.67-2.57-1.37-.71-.71-1.18-1.6-1.37-2.58-.2-.97-.09-1.98,.28-2.9,.38-.92,1.03-1.71,1.85-2.26,.83-.55,1.8-.85,2.79-.85,.67,0,1.32,.13,1.93,.39,.61,.25,1.17,.62,1.63,1.09,.47,.46,.84,1.02,1.09,1.63,.26,.61,.39,1.26,.39,1.92Z"/><path class="cls-8" d="M1406.23,864.05c0,1-.3,1.97-.85,2.8-.55,.82-1.34,1.47-2.26,1.85-.92,.38-1.93,.48-2.9,.29-.98-.2-1.87-.68-2.58-1.38-.7-.7-1.18-1.6-1.37-2.58-.2-.97-.1-1.98,.28-2.9,.38-.92,1.03-1.71,1.85-2.26,.83-.55,1.8-.85,2.8-.85,1.34,0,2.61,.53,3.55,1.48,.95,.94,1.48,2.22,1.48,3.55Z"/><path class="cls-8" d="M1440.36,864.05c0,1-.3,1.97-.84,2.8-.56,.82-1.35,1.47-2.27,1.85-.92,.38-1.93,.48-2.9,.29-.97-.2-1.87-.68-2.58-1.38-.7-.7-1.18-1.6-1.38-2.58-.19-.97-.09-1.98,.3-2.9,.37-.92,1.02-1.71,1.85-2.26,.83-.55,1.8-.85,2.79-.85,.66,0,1.31,.13,1.92,.39,.62,.25,1.17,.62,1.64,1.09s.84,1.02,1.09,1.63c.24,.61,.38,1.26,.38,1.92Z"/><path class="cls-8" d="M1372.09,898.2c0,.99-.3,1.96-.84,2.79-.56,.83-1.35,1.47-2.27,1.85-.91,.38-1.92,.48-2.9,.29-.97-.2-1.87-.68-2.57-1.38-.71-.7-1.18-1.6-1.37-2.58-.2-.97-.1-1.98,.28-2.9s1.02-1.7,1.85-2.26c.83-.55,1.8-.84,2.79-.84,.67,0,1.32,.13,1.93,.38s1.17,.62,1.63,1.09c.47,.47,.84,1.02,1.09,1.63,.26,.61,.38,1.27,.38,1.93Z"/><path class="cls-8" d="M1406.23,898.2c0,.99-.3,1.96-.85,2.79s-1.34,1.47-2.26,1.85c-.92,.38-1.93,.48-2.9,.29-.98-.19-1.87-.67-2.58-1.38-.7-.7-1.18-1.6-1.37-2.57-.2-.98-.1-1.99,.28-2.91s1.03-1.7,1.85-2.26c.83-.55,1.8-.84,2.8-.84,1.34,0,2.61,.53,3.55,1.47,.95,.94,1.48,2.22,1.48,3.56Z"/><path class="cls-8" d="M1440.36,898.2c0,.99-.3,1.96-.84,2.79-.56,.83-1.35,1.47-2.27,1.85-.92,.38-1.93,.48-2.9,.29-.97-.19-1.87-.67-2.58-1.38-.7-.7-1.18-1.6-1.38-2.57-.19-.98-.09-1.99,.3-2.91,.37-.92,1.02-1.7,1.85-2.26,.83-.55,1.8-.84,2.79-.84,.66,0,1.31,.13,1.92,.38,.62,.25,1.17,.62,1.64,1.09,.46,.47,.84,1.02,1.09,1.63,.24,.61,.38,1.27,.38,1.93Z"/><path class="cls-9" d="M1545.65,300.42c0,.81-.24,1.61-.69,2.29-.46,.68-1.1,1.2-1.85,1.52-.76,.31-1.59,.39-2.39,.23-.8-.16-1.53-.55-2.11-1.13-.58-.57-.97-1.31-1.13-2.11-.16-.8-.08-1.63,.24-2.38,.31-.76,.84-1.4,1.51-1.85,.68-.46,1.48-.7,2.3-.7,.53,0,1.07,.11,1.58,.31,.49,.21,.96,.51,1.33,.9,.38,.38,.69,.84,.9,1.34,.2,.5,.31,1.04,.31,1.58Z"/><path class="cls-9" d="M1573.67,300.42c0,.81-.24,1.61-.69,2.29-.46,.68-1.11,1.21-1.85,1.52-.76,.31-1.59,.39-2.39,.24-.8-.16-1.54-.56-2.11-1.13-.58-.58-.97-1.32-1.14-2.12-.15-.8-.07-1.63,.25-2.38,.3-.76,.84-1.4,1.51-1.85,.68-.46,1.48-.7,2.3-.7,1.09,0,2.14,.43,2.91,1.21,.78,.77,1.21,1.82,1.21,2.92Z"/><path class="cls-9" d="M1601.69,300.42c0,.81-.25,1.61-.69,2.29-.46,.68-1.1,1.21-1.86,1.52-.75,.31-1.58,.39-2.38,.24-.81-.16-1.54-.56-2.11-1.13-.58-.58-.97-1.32-1.14-2.12-.16-.8-.08-1.63,.24-2.38,.31-.76,.84-1.4,1.51-1.85,.69-.46,1.49-.7,2.3-.7,1.09,0,2.14,.43,2.92,1.21s1.21,1.82,1.21,2.92Z"/><path class="cls-9" d="M1629.72,300.42c0,.81-.25,1.61-.7,2.29-.46,.68-1.1,1.21-1.85,1.52-.76,.31-1.59,.39-2.39,.24-.8-.16-1.54-.56-2.11-1.13-.58-.58-.97-1.32-1.13-2.12-.16-.8-.08-1.63,.24-2.38,.3-.76,.84-1.4,1.52-1.85,.67-.46,1.47-.7,2.29-.7,.54,0,1.07,.11,1.58,.31,.49,.21,.95,.51,1.33,.9,.39,.38,.69,.84,.9,1.34,.21,.5,.32,1.04,.32,1.58Z"/><path class="cls-9" d="M1657.74,300.42c0,.81-.25,1.61-.7,2.29-.46,.68-1.1,1.21-1.85,1.52-.76,.31-1.59,.39-2.39,.24-.8-.16-1.53-.56-2.11-1.14-.58-.57-.97-1.31-1.13-2.11-.17-.8-.08-1.63,.23-2.38,.31-.76,.85-1.4,1.53-1.86,.67-.45,1.47-.69,2.29-.69,.54,0,1.07,.11,1.58,.31,.49,.21,.95,.52,1.33,.9,.39,.38,.69,.84,.9,1.34,.21,.5,.32,1.04,.32,1.58Z"/><path class="cls-9" d="M1545.65,328.43c0,.82-.24,1.62-.69,2.3-.46,.68-1.1,1.2-1.85,1.52-.75,.31-1.58,.39-2.39,.23-.8-.16-1.53-.55-2.1-1.13-.59-.57-.98-1.31-1.14-2.11-.16-.8-.08-1.63,.24-2.38,.31-.76,.84-1.4,1.51-1.85,.68-.46,1.48-.7,2.3-.7,.53,0,1.07,.11,1.58,.31,.49,.21,.95,.51,1.33,.9,.38,.38,.69,.84,.9,1.34,.2,.5,.31,1.03,.31,1.57Z"/><path class="cls-9" d="M1573.67,328.43c0,.82-.24,1.62-.69,2.3-.46,.68-1.1,1.21-1.85,1.52-.76,.31-1.59,.39-2.39,.24-.8-.16-1.54-.56-2.11-1.13-.58-.58-.97-1.32-1.14-2.12-.15-.8-.07-1.63,.25-2.38,.3-.76,.84-1.4,1.51-1.85,.68-.46,1.48-.7,2.3-.7,1.09,0,2.14,.43,2.91,1.21,.78,.77,1.21,1.82,1.21,2.91Z"/><path class="cls-9" d="M1601.69,328.43c0,.82-.24,1.62-.69,2.3-.46,.68-1.1,1.21-1.85,1.52-.76,.31-1.59,.39-2.39,.24-.8-.16-1.54-.56-2.11-1.13-.58-.58-.97-1.32-1.14-2.12-.16-.8-.08-1.63,.24-2.38,.31-.76,.84-1.4,1.51-1.85,.69-.46,1.49-.7,2.3-.7,1.09,0,2.14,.43,2.92,1.21s1.21,1.82,1.21,2.91Z"/><path class="cls-9" d="M1629.72,328.43c0,.82-.25,1.62-.7,2.3-.46,.68-1.09,1.21-1.85,1.52s-1.59,.39-2.39,.24c-.8-.16-1.54-.56-2.11-1.13-.58-.58-.97-1.32-1.13-2.12-.16-.8-.08-1.63,.24-2.38,.3-.76,.84-1.4,1.52-1.85,.67-.46,1.47-.7,2.29-.7,1.09,0,2.14,.43,2.91,1.21,.78,.77,1.22,1.82,1.22,2.91Z"/><path class="cls-9" d="M1657.74,328.43c0,.82-.25,1.62-.7,2.3-.46,.68-1.1,1.21-1.85,1.52-.76,.31-1.59,.39-2.39,.24-.8-.16-1.53-.56-2.11-1.13-.58-.58-.97-1.32-1.13-2.12-.17-.8-.08-1.63,.23-2.38,.31-.76,.85-1.4,1.53-1.86,.67-.45,1.47-.69,2.29-.69,1.09,0,2.15,.43,2.91,1.21,.78,.77,1.22,1.82,1.22,2.91Z"/><path class="cls-9" d="M1545.65,356.46c0,.81-.24,1.61-.69,2.29-.46,.67-1.1,1.2-1.85,1.52-.76,.31-1.59,.39-2.39,.23-.8-.16-1.53-.55-2.11-1.13-.58-.58-.97-1.31-1.13-2.11-.16-.8-.08-1.63,.24-2.38,.31-.76,.84-1.4,1.51-1.86,.68-.45,1.48-.69,2.3-.69,.53,0,1.07,.1,1.58,.31,.49,.21,.96,.51,1.33,.9,.38,.38,.69,.83,.9,1.34,.2,.5,.31,1.03,.31,1.58Z"/><path class="cls-9" d="M1573.67,356.46c0,.81-.24,1.61-.69,2.29-.46,.68-1.11,1.21-1.85,1.52-.76,.31-1.59,.39-2.39,.23-.8-.15-1.54-.55-2.11-1.13-.58-.57-.97-1.31-1.14-2.11-.15-.8-.07-1.63,.25-2.38,.3-.76,.84-1.4,1.51-1.86,.68-.45,1.48-.69,2.3-.69,1.09,0,2.14,.43,2.91,1.21,.78,.77,1.21,1.82,1.21,2.92Z"/><path class="cls-9" d="M1601.69,356.46c0,.81-.25,1.61-.69,2.29-.46,.68-1.1,1.21-1.86,1.52-.75,.31-1.58,.39-2.38,.23-.81-.15-1.54-.55-2.11-1.13-.58-.57-.97-1.31-1.14-2.11-.16-.8-.08-1.63,.24-2.38,.31-.76,.84-1.4,1.51-1.86,.69-.45,1.49-.69,2.3-.69,1.09,0,2.14,.43,2.92,1.21s1.21,1.82,1.21,2.92Z"/><path class="cls-9" d="M1629.72,356.46c0,.81-.25,1.61-.7,2.29-.46,.68-1.1,1.21-1.85,1.52-.76,.31-1.59,.39-2.39,.23-.8-.15-1.54-.55-2.11-1.13-.58-.57-.97-1.31-1.13-2.11-.16-.8-.08-1.63,.24-2.38,.3-.76,.84-1.4,1.52-1.86,.67-.45,1.47-.69,2.29-.69,.54,0,1.07,.11,1.58,.31,.49,.21,.95,.51,1.33,.9,.39,.38,.69,.84,.9,1.34,.21,.5,.32,1.03,.32,1.58Z"/><path class="cls-9" d="M1657.74,356.46c0,.81-.25,1.61-.7,2.29-.46,.68-1.1,1.21-1.85,1.52-.76,.31-1.59,.39-2.39,.23-.8-.16-1.53-.55-2.11-1.13-.58-.57-.97-1.31-1.13-2.11-.17-.8-.08-1.63,.23-2.39,.31-.75,.85-1.39,1.53-1.85,.67-.45,1.47-.69,2.29-.69,.54,0,1.07,.11,1.58,.31,.49,.21,.95,.51,1.33,.9,.39,.38,.69,.84,.9,1.34,.21,.5,.32,1.03,.32,1.58Z"/><path class="cls-9" d="M1545.65,384.48c0,.81-.24,1.61-.69,2.29-.46,.68-1.1,1.2-1.85,1.52-.76,.31-1.59,.39-2.39,.23-.8-.16-1.53-.55-2.11-1.13-.58-.58-.97-1.31-1.13-2.11-.16-.8-.08-1.63,.24-2.38,.31-.76,.84-1.4,1.51-1.86,.68-.45,1.48-.69,2.3-.69,1.09,0,2.14,.43,2.91,1.21,.78,.77,1.21,1.82,1.21,2.92Z"/><path class="cls-9" d="M1573.67,384.48c0,.81-.24,1.61-.69,2.29-.46,.68-1.11,1.21-1.85,1.52-.76,.31-1.59,.39-2.39,.23-.8-.15-1.54-.55-2.11-1.12-.58-.58-.97-1.32-1.14-2.12-.15-.8-.07-1.63,.25-2.38,.3-.76,.84-1.4,1.51-1.86,.68-.45,1.48-.69,2.3-.69,1.09,0,2.14,.43,2.91,1.21,.78,.77,1.21,1.82,1.21,2.92Z"/><path class="cls-9" d="M1601.69,384.48c0,.81-.25,1.61-.69,2.29-.46,.68-1.1,1.21-1.86,1.52-.75,.31-1.58,.39-2.38,.23-.81-.15-1.54-.55-2.11-1.12-.58-.58-.97-1.32-1.14-2.12-.16-.8-.08-1.63,.24-2.38,.31-.76,.84-1.4,1.51-1.86,.69-.45,1.49-.69,2.3-.69,1.09,0,2.14,.43,2.92,1.21s1.21,1.82,1.21,2.92Z"/><path class="cls-9" d="M1629.72,384.48c0,.81-.25,1.61-.7,2.29-.46,.68-1.1,1.21-1.85,1.52-.76,.31-1.59,.39-2.39,.23-.8-.15-1.54-.55-2.11-1.12-.58-.58-.97-1.32-1.13-2.12-.16-.8-.08-1.63,.24-2.38,.3-.76,.84-1.4,1.52-1.86,.67-.45,1.47-.69,2.29-.69,1.09,0,2.14,.43,2.91,1.21,.78,.77,1.22,1.82,1.22,2.92Z"/><path class="cls-9" d="M1657.74,384.48c0,.81-.25,1.61-.7,2.29-.46,.68-1.1,1.21-1.85,1.52-.76,.31-1.59,.39-2.39,.23-.8-.15-1.53-.55-2.11-1.13-.58-.57-.97-1.31-1.13-2.11-.17-.8-.08-1.63,.23-2.38,.31-.76,.85-1.4,1.53-1.86,.67-.45,1.47-.69,2.29-.69,1.09,0,2.15,.43,2.91,1.21,.78,.77,1.22,1.82,1.22,2.92Z"/><path class="cls-9" d="M1545.65,412.5c0,.81-.24,1.61-.69,2.29-.46,.68-1.1,1.2-1.85,1.52-.76,.31-1.59,.39-2.39,.23-.8-.16-1.53-.55-2.11-1.13-.58-.57-.97-1.31-1.13-2.11-.16-.8-.08-1.63,.24-2.38,.31-.76,.84-1.4,1.51-1.85,.68-.46,1.48-.7,2.3-.7,1.09,0,2.14,.43,2.91,1.21,.78,.77,1.21,1.82,1.21,2.92Z"/><path class="cls-9" d="M1573.67,412.5c0,.81-.24,1.61-.69,2.29-.46,.68-1.11,1.21-1.85,1.52-.76,.31-1.59,.39-2.39,.24-.8-.16-1.54-.56-2.11-1.13-.58-.58-.97-1.32-1.14-2.12-.15-.8-.07-1.63,.25-2.38,.3-.76,.84-1.4,1.51-1.85,.68-.46,1.48-.7,2.3-.7,1.09,0,2.14,.43,2.91,1.21,.78,.77,1.21,1.82,1.21,2.92Z"/><path class="cls-9" d="M1601.69,412.5c0,.81-.25,1.61-.69,2.29-.46,.68-1.1,1.21-1.86,1.52-.75,.31-1.58,.39-2.38,.24-.81-.16-1.54-.56-2.11-1.13-.58-.58-.97-1.32-1.14-2.12-.16-.8-.08-1.63,.24-2.38,.31-.76,.84-1.4,1.51-1.85,.69-.46,1.49-.7,2.3-.7,1.09,0,2.14,.43,2.92,1.21s1.21,1.82,1.21,2.92Z"/><path class="cls-9" d="M1629.72,412.5c0,.81-.25,1.61-.7,2.29-.46,.68-1.1,1.21-1.85,1.52-.76,.31-1.59,.39-2.39,.24-.8-.16-1.54-.56-2.11-1.13-.58-.58-.97-1.32-1.13-2.12-.16-.8-.08-1.63,.24-2.38,.3-.76,.84-1.4,1.52-1.85,.67-.46,1.47-.7,2.29-.7,1.09,0,2.14,.43,2.91,1.21,.78,.77,1.22,1.82,1.22,2.92Z"/><path class="cls-9" d="M1657.74,412.5c0,.81-.25,1.61-.7,2.29-.46,.68-1.1,1.21-1.85,1.52-.76,.31-1.59,.39-2.39,.23-.8-.15-1.53-.55-2.11-1.12-.58-.58-.97-1.32-1.13-2.12-.17-.8-.08-1.63,.23-2.38,.31-.76,.85-1.4,1.53-1.86,.67-.45,1.47-.69,2.29-.69,1.09,0,2.15,.43,2.91,1.21,.78,.77,1.22,1.82,1.22,2.92Z"/><g class="cls-20"><path class="cls-12" d="M1105.96,776.47c1.18,0,2.14-.95,2.14-2.13s-.96-2.13-2.14-2.13-2.13,.95-2.13,2.13,.95,2.13,2.13,2.13Z"/><path class="cls-12" d="M1133.78,776.47c1.18,0,2.13-.95,2.13-2.13s-.95-2.13-2.13-2.13-2.13,.95-2.13,2.13,.95,2.13,2.13,2.13Z"/><path class="cls-12" d="M1161.59,776.47c1.18,0,2.14-.95,2.14-2.13s-.96-2.13-2.14-2.13-2.12,.95-2.12,2.13,.95,2.13,2.12,2.13Z"/><path class="cls-12" d="M1189.41,776.47c1.18,0,2.13-.95,2.13-2.13s-.95-2.13-2.13-2.13-2.13,.95-2.13,2.13,.96,2.13,2.13,2.13Z"/><path class="cls-12" d="M1105.96,804.05c1.18,0,2.14-.96,2.14-2.13s-.96-2.14-2.14-2.14-2.13,.96-2.13,2.14,.95,2.13,2.13,2.13Z"/><path class="cls-12" d="M1133.78,804.05c1.18,0,2.13-.96,2.13-2.13s-.95-2.14-2.13-2.14-2.13,.96-2.13,2.14,.95,2.13,2.13,2.13Z"/><path class="cls-12" d="M1161.59,804.05c1.18,0,2.14-.96,2.14-2.13s-.96-2.14-2.14-2.14-2.12,.96-2.12,2.14,.95,2.13,2.12,2.13Z"/><path class="cls-12" d="M1189.41,804.05c1.18,0,2.13-.96,2.13-2.13s-.95-2.14-2.13-2.14-2.13,.96-2.13,2.14,.96,2.13,2.13,2.13Z"/><path class="cls-12" d="M1108.1,829.49c0,.42-.13,.83-.37,1.19-.23,.35-.56,.62-.96,.78-.38,.16-.82,.2-1.22,.12-.42-.08-.8-.28-1.09-.58-.31-.3-.51-.68-.59-1.09-.08-.42-.04-.85,.12-1.24,.16-.38,.44-.72,.79-.95,.34-.24,.76-.36,1.18-.36,.57,0,1.11,.22,1.51,.62s.63,.95,.63,1.51Z"/><path class="cls-12" d="M1135.91,829.49c0,.42-.12,.83-.36,1.19-.23,.35-.56,.62-.96,.78-.38,.16-.82,.2-1.23,.12-.41-.08-.79-.28-1.09-.58-.3-.3-.5-.68-.58-1.09-.08-.42-.04-.85,.12-1.24,.16-.38,.44-.72,.78-.95,.35-.24,.77-.36,1.19-.36,.57,0,1.11,.22,1.51,.62,.39,.4,.62,.95,.62,1.51Z"/><path class="cls-12" d="M1163.73,829.49c0,.42-.13,.83-.36,1.19-.23,.35-.56,.62-.96,.78-.38,.16-.82,.2-1.23,.12-.42-.08-.79-.28-1.1-.58-.29-.3-.49-.68-.57-1.09-.08-.42-.04-.85,.12-1.24,.16-.38,.43-.72,.78-.95,.35-.24,.77-.36,1.18-.36,.57,0,1.11,.22,1.52,.62,.39,.4,.62,.95,.62,1.51Z"/><path class="cls-12" d="M1191.54,829.49c0,.42-.12,.83-.35,1.19-.24,.35-.57,.62-.96,.78-.4,.16-.82,.2-1.23,.12-.42-.08-.79-.28-1.1-.58-.29-.3-.49-.68-.58-1.09-.08-.42-.04-.85,.12-1.24,.16-.38,.43-.72,.79-.95,.35-.24,.77-.36,1.18-.36,.28,0,.56,.05,.82,.16,.26,.11,.49,.26,.69,.46,.2,.2,.36,.44,.46,.69,.11,.26,.16,.54,.16,.82Z"/><path class="cls-12" d="M1108.1,857.07c0,.42-.13,.83-.37,1.18-.23,.35-.56,.63-.96,.79-.38,.16-.82,.2-1.23,.12-.41-.08-.79-.29-1.08-.59-.31-.29-.51-.67-.59-1.09-.08-.41-.04-.84,.12-1.23s.44-.72,.79-.96c.34-.23,.76-.36,1.18-.36,.28,0,.56,.06,.81,.17,.27,.1,.5,.26,.7,.46,.19,.2,.35,.43,.47,.69,.1,.26,.16,.54,.16,.82Z"/><path class="cls-12" d="M1135.91,857.07c0,.42-.12,.83-.36,1.18-.23,.35-.56,.63-.96,.79-.38,.16-.82,.2-1.23,.12-.42-.08-.79-.29-1.09-.59-.3-.29-.5-.67-.58-1.09-.08-.41-.04-.84,.12-1.23,.16-.39,.44-.72,.78-.96,.35-.23,.77-.36,1.19-.36,.28,0,.56,.06,.81,.17,.26,.1,.5,.26,.7,.46,.19,.2,.35,.43,.45,.69,.12,.26,.17,.54,.17,.82Z"/><path class="cls-12" d="M1163.73,857.07c0,.42-.13,.83-.36,1.18s-.56,.63-.96,.79c-.38,.16-.82,.2-1.23,.12-.42-.08-.79-.29-1.1-.59-.29-.29-.49-.67-.57-1.09-.08-.41-.04-.84,.12-1.23s.43-.72,.78-.96c.35-.23,.77-.36,1.18-.36,.57,.01,1.11,.23,1.52,.63,.39,.4,.62,.94,.62,1.51Z"/><path class="cls-12" d="M1191.54,857.07c0,.42-.12,.83-.35,1.18-.24,.35-.58,.63-.96,.79-.4,.16-.82,.2-1.23,.12-.42-.08-.79-.29-1.1-.59-.29-.29-.49-.67-.58-1.09-.08-.41-.04-.84,.12-1.23,.16-.39,.43-.72,.79-.96,.35-.23,.77-.36,1.18-.36,.28,0,.56,.06,.82,.17,.26,.1,.49,.26,.69,.46,.2,.2,.36,.43,.46,.69,.11,.26,.16,.54,.16,.82Z"/></g><g class="cls-20"><path class="cls-12" d="M1214.16,776.47c1.18,0,2.14-.95,2.14-2.13s-.96-2.13-2.14-2.13-2.13,.95-2.13,2.13,.95,2.13,2.13,2.13Z"/><path class="cls-12" d="M1241.98,776.47c1.18,0,2.13-.95,2.13-2.13s-.95-2.13-2.13-2.13-2.13,.95-2.13,2.13,.95,2.13,2.13,2.13Z"/><path class="cls-12" d="M1269.79,776.47c1.19,0,2.14-.95,2.14-2.13s-.95-2.13-2.14-2.13-2.12,.95-2.12,2.13,.95,2.13,2.12,2.13Z"/><path class="cls-12" d="M1297.61,776.47c1.18,0,2.13-.95,2.13-2.13s-.95-2.13-2.13-2.13-2.13,.95-2.13,2.13,.96,2.13,2.13,2.13Z"/><path class="cls-12" d="M1214.16,804.05c1.18,0,2.14-.96,2.14-2.13s-.96-2.14-2.14-2.14-2.13,.96-2.13,2.14,.95,2.13,2.13,2.13Z"/><path class="cls-12" d="M1241.98,804.05c1.18,0,2.13-.96,2.13-2.13s-.95-2.14-2.13-2.14-2.13,.96-2.13,2.14,.95,2.13,2.13,2.13Z"/><path class="cls-12" d="M1269.79,804.05c1.19,0,2.14-.96,2.14-2.13s-.95-2.14-2.14-2.14-2.12,.96-2.12,2.14,.95,2.13,2.12,2.13Z"/><path class="cls-12" d="M1297.61,804.05c1.18,0,2.13-.96,2.13-2.13s-.95-2.14-2.13-2.14-2.13,.96-2.13,2.14,.96,2.13,2.13,2.13Z"/><path class="cls-12" d="M1216.3,829.49c0,.42-.13,.83-.37,1.19-.23,.35-.56,.62-.96,.78-.38,.16-.82,.2-1.22,.12-.41-.08-.8-.28-1.09-.58-.31-.3-.51-.68-.59-1.09-.08-.42-.04-.85,.12-1.24,.16-.38,.44-.72,.79-.95,.35-.24,.76-.36,1.18-.36,.57,0,1.11,.22,1.51,.62,.4,.4,.63,.95,.63,1.51Z"/><path class="cls-12" d="M1244.11,829.49c0,.42-.12,.83-.36,1.19-.23,.35-.56,.62-.96,.78-.38,.16-.82,.2-1.23,.12-.41-.08-.79-.28-1.09-.58-.3-.3-.5-.68-.58-1.09-.08-.42-.04-.85,.12-1.24,.16-.38,.44-.72,.78-.95,.35-.24,.77-.36,1.19-.36,.57,0,1.11,.22,1.51,.62,.39,.4,.62,.95,.62,1.51Z"/><path class="cls-12" d="M1271.93,829.49c0,.42-.13,.83-.36,1.19-.23,.35-.56,.62-.96,.78-.38,.16-.82,.2-1.23,.12-.42-.08-.79-.28-1.09-.58-.3-.3-.5-.68-.58-1.09-.08-.42-.04-.85,.12-1.24,.16-.38,.44-.72,.78-.95,.35-.24,.77-.36,1.18-.36,.57,0,1.11,.22,1.52,.62,.39,.4,.62,.95,.62,1.51Z"/><path class="cls-12" d="M1299.74,829.49c0,.42-.12,.83-.35,1.19-.24,.35-.57,.62-.96,.78-.39,.16-.82,.2-1.23,.12-.42-.08-.79-.28-1.1-.58-.29-.3-.49-.68-.58-1.09-.08-.42-.04-.85,.12-1.24,.16-.38,.43-.72,.79-.95,.35-.24,.77-.36,1.18-.36,.28,0,.56,.05,.82,.16,.26,.11,.5,.26,.69,.46,.2,.2,.36,.44,.46,.69,.11,.26,.16,.54,.16,.82Z"/><path class="cls-12" d="M1216.3,857.07c0,.42-.13,.83-.37,1.18-.23,.35-.56,.63-.96,.79-.38,.16-.82,.2-1.23,.12-.4-.08-.79-.29-1.08-.59-.31-.29-.51-.67-.59-1.09-.08-.41-.04-.84,.12-1.23,.16-.39,.44-.72,.79-.96,.35-.23,.76-.36,1.18-.36,.28,0,.56,.06,.81,.17,.27,.1,.5,.26,.7,.46,.19,.2,.36,.43,.47,.69,.1,.26,.16,.54,.16,.82Z"/><path class="cls-12" d="M1244.11,857.07c0,.42-.12,.83-.36,1.18-.23,.35-.56,.63-.96,.79-.38,.16-.82,.2-1.23,.12-.42-.08-.79-.29-1.09-.59-.3-.29-.5-.67-.58-1.09-.08-.41-.04-.84,.12-1.23s.44-.72,.78-.96c.35-.23,.77-.36,1.19-.36,.28,0,.56,.06,.81,.17,.27,.1,.5,.26,.7,.46,.19,.2,.35,.43,.46,.69,.11,.26,.16,.54,.16,.82Z"/><path class="cls-12" d="M1271.93,857.07c0,.42-.13,.83-.36,1.18-.23,.35-.56,.63-.96,.79-.38,.16-.82,.2-1.23,.12-.42-.08-.79-.29-1.09-.59-.3-.29-.5-.67-.58-1.09-.08-.41-.04-.84,.12-1.23,.16-.39,.44-.72,.78-.96,.35-.23,.77-.36,1.18-.36,.57,.01,1.11,.23,1.52,.63,.39,.4,.62,.94,.62,1.51Z"/><path class="cls-12" d="M1299.74,857.07c0,.42-.12,.83-.35,1.18-.24,.35-.58,.63-.96,.79-.39,.16-.82,.2-1.23,.12-.42-.08-.79-.29-1.1-.59-.29-.29-.49-.67-.58-1.09-.08-.41-.04-.84,.12-1.23s.43-.72,.79-.96c.35-.23,.77-.36,1.18-.36,.28,0,.56,.06,.82,.17,.26,.1,.5,.26,.69,.46,.2,.2,.36,.43,.46,.69,.11,.26,.16,.54,.16,.82Z"/></g><g class="cls-20"><path class="cls-12" d="M1322.37,776.47c1.17,0,2.13-.95,2.13-2.13s-.96-2.13-2.13-2.13-2.14,.95-2.14,2.13,.95,2.13,2.14,2.13Z"/><path class="cls-12" d="M1350.18,776.47c1.18,0,2.13-.95,2.13-2.13s-.95-2.13-2.13-2.13-2.13,.95-2.13,2.13,.95,2.13,2.13,2.13Z"/><path class="cls-12" d="M1377.99,776.47c1.19,0,2.14-.95,2.14-2.13s-.95-2.13-2.14-2.13-2.12,.95-2.12,2.13,.95,2.13,2.12,2.13Z"/><path class="cls-12" d="M1405.81,776.47c1.18,0,2.14-.95,2.14-2.13s-.96-2.13-2.14-2.13-2.13,.95-2.13,2.13,.96,2.13,2.13,2.13Z"/><path class="cls-12" d="M1322.37,804.05c1.17,0,2.13-.96,2.13-2.13s-.96-2.14-2.13-2.14-2.14,.96-2.14,2.14,.95,2.13,2.14,2.13Z"/><path class="cls-12" d="M1350.18,804.05c1.18,0,2.13-.96,2.13-2.13s-.95-2.14-2.13-2.14-2.13,.96-2.13,2.14,.95,2.13,2.13,2.13Z"/><path class="cls-12" d="M1377.99,804.05c1.19,0,2.14-.96,2.14-2.13s-.95-2.14-2.14-2.14-2.12,.96-2.12,2.14,.95,2.13,2.12,2.13Z"/><path class="cls-12" d="M1405.81,804.05c1.18,0,2.14-.96,2.14-2.13s-.96-2.14-2.14-2.14-2.13,.96-2.13,2.14,.96,2.13,2.13,2.13Z"/><path class="cls-12" d="M1324.5,829.49c0,.42-.13,.83-.36,1.19-.24,.35-.57,.62-.97,.78-.38,.16-.81,.2-1.22,.12-.41-.08-.8-.28-1.09-.58-.3-.3-.51-.68-.59-1.09-.08-.42-.04-.85,.12-1.24,.17-.38,.44-.72,.79-.95,.35-.24,.76-.36,1.19-.36,.56,0,1.1,.22,1.5,.62s.63,.95,.63,1.51Z"/><path class="cls-12" d="M1352.31,829.49c0,.42-.12,.83-.36,1.19-.23,.35-.56,.62-.96,.78-.38,.16-.82,.2-1.23,.12-.41-.08-.79-.28-1.09-.58-.3-.3-.5-.68-.58-1.09-.08-.42-.04-.85,.12-1.24,.16-.38,.44-.72,.78-.95,.35-.24,.77-.36,1.19-.36,.57,0,1.11,.22,1.51,.62,.4,.4,.62,.95,.62,1.51Z"/><path class="cls-12" d="M1380.13,829.49c0,.42-.12,.83-.36,1.19-.23,.35-.56,.62-.96,.78-.38,.16-.82,.2-1.23,.12-.42-.08-.79-.28-1.09-.58s-.5-.68-.58-1.09c-.08-.42-.04-.85,.12-1.24,.16-.38,.44-.72,.78-.95,.35-.24,.77-.36,1.18-.36,.57,0,1.12,.22,1.52,.62,.39,.4,.62,.95,.62,1.51Z"/><path class="cls-12" d="M1407.95,829.49c0,.42-.13,.83-.36,1.19-.24,.35-.56,.62-.96,.78-.39,.16-.82,.2-1.23,.12-.42-.08-.79-.28-1.1-.58-.29-.3-.49-.68-.58-1.09-.08-.42-.04-.85,.12-1.24,.16-.38,.43-.72,.79-.95,.35-.24,.77-.36,1.18-.36,.28,0,.56,.05,.82,.16,.26,.11,.5,.26,.69,.46,.2,.2,.36,.44,.46,.69,.11,.26,.17,.54,.17,.82Z"/><path class="cls-12" d="M1324.5,857.07c0,.42-.13,.83-.36,1.18-.24,.35-.57,.63-.97,.79-.38,.16-.81,.2-1.23,.12-.4-.08-.79-.29-1.08-.59-.3-.29-.51-.67-.59-1.09-.08-.41-.04-.84,.12-1.23,.17-.39,.44-.72,.79-.96,.35-.23,.76-.36,1.19-.36,.27,0,.55,.06,.8,.17,.27,.1,.5,.26,.7,.46,.19,.2,.36,.43,.47,.69,.1,.26,.16,.54,.16,.82Z"/><path class="cls-12" d="M1352.31,857.07c0,.42-.12,.83-.36,1.18-.23,.35-.56,.63-.96,.79-.38,.16-.82,.2-1.23,.12-.42-.08-.79-.29-1.09-.59-.3-.29-.5-.67-.58-1.09-.08-.41-.04-.84,.12-1.23,.16-.39,.44-.72,.78-.96,.35-.23,.77-.36,1.19-.36,.28,0,.56,.06,.81,.17,.27,.1,.5,.26,.7,.46,.19,.2,.35,.43,.46,.69s.16,.54,.16,.82Z"/><path class="cls-12" d="M1380.13,857.07c0,.42-.12,.83-.36,1.18-.23,.35-.56,.63-.96,.79-.38,.16-.82,.2-1.23,.12-.42-.08-.79-.29-1.09-.59-.3-.29-.5-.67-.58-1.09-.08-.41-.04-.84,.12-1.23,.16-.39,.44-.72,.78-.96,.35-.23,.77-.36,1.18-.36,.57,.01,1.12,.23,1.52,.63,.39,.4,.62,.94,.62,1.51Z"/><path class="cls-12" d="M1407.95,857.07c0,.42-.13,.83-.36,1.18-.24,.35-.58,.63-.96,.79-.39,.16-.82,.2-1.23,.12-.42-.08-.79-.29-1.1-.59-.29-.29-.49-.67-.58-1.09-.08-.41-.04-.84,.12-1.23,.16-.39,.43-.72,.79-.96,.35-.23,.77-.36,1.18-.36,.28,0,.56,.06,.82,.17,.26,.1,.5,.26,.69,.46,.2,.2,.36,.43,.46,.69,.11,.26,.17,.54,.17,.82Z"/></g><g class="cls-20"><path class="cls-12" d="M1105.96,884.67c1.18,0,2.14-.95,2.14-2.13s-.96-2.13-2.14-2.13-2.13,.95-2.13,2.13,.95,2.13,2.13,2.13Z"/><path class="cls-12" d="M1133.78,884.67c1.18,0,2.13-.95,2.13-2.13s-.95-2.13-2.13-2.13-2.13,.95-2.13,2.13,.95,2.13,2.13,2.13Z"/><path class="cls-12" d="M1161.59,884.67c1.18,0,2.14-.95,2.14-2.13s-.96-2.13-2.14-2.13-2.12,.95-2.12,2.13,.95,2.13,2.12,2.13Z"/><path class="cls-12" d="M1189.41,884.67c1.18,0,2.13-.95,2.13-2.13s-.95-2.13-2.13-2.13-2.13,.95-2.13,2.13,.96,2.13,2.13,2.13Z"/><path class="cls-12" d="M1105.96,912.25c1.18,0,2.14-.96,2.14-2.13s-.96-2.14-2.14-2.14-2.13,.96-2.13,2.14,.95,2.13,2.13,2.13Z"/><path class="cls-12" d="M1133.78,912.25c1.18,0,2.13-.96,2.13-2.13s-.95-2.14-2.13-2.14-2.13,.96-2.13,2.14,.95,2.13,2.13,2.13Z"/><path class="cls-12" d="M1161.59,912.25c1.18,0,2.14-.96,2.14-2.13s-.96-2.14-2.14-2.14-2.12,.96-2.12,2.14,.95,2.13,2.12,2.13Z"/><path class="cls-12" d="M1189.41,912.25c1.18,0,2.13-.96,2.13-2.13s-.95-2.14-2.13-2.14-2.13,.96-2.13,2.14,.96,2.13,2.13,2.13Z"/><path class="cls-12" d="M1108.1,937.69c0,.42-.13,.84-.37,1.19-.23,.35-.56,.62-.96,.78-.38,.16-.82,.21-1.22,.12-.42-.08-.8-.28-1.09-.58-.31-.3-.51-.68-.59-1.09-.08-.42-.04-.84,.12-1.24,.16-.38,.44-.72,.79-.95,.34-.24,.76-.36,1.18-.36,.57,0,1.11,.22,1.51,.62,.4,.4,.63,.95,.63,1.51Z"/><path class="cls-12" d="M1135.91,937.69c0,.42-.12,.84-.36,1.19-.23,.35-.56,.62-.96,.78-.38,.16-.82,.21-1.23,.12-.41-.08-.79-.28-1.09-.58-.3-.3-.5-.68-.58-1.09-.08-.42-.04-.84,.12-1.24,.16-.38,.44-.72,.78-.95,.35-.24,.77-.36,1.19-.36,.57,0,1.11,.22,1.51,.62,.39,.4,.62,.95,.62,1.51Z"/><path class="cls-12" d="M1163.73,937.69c0,.42-.13,.84-.36,1.19-.23,.35-.56,.62-.96,.78-.38,.16-.82,.21-1.23,.12-.42-.08-.79-.28-1.1-.58-.29-.3-.49-.68-.57-1.09-.08-.42-.04-.84,.12-1.24,.16-.38,.43-.72,.78-.95,.35-.24,.77-.36,1.18-.36,.57,0,1.11,.22,1.52,.62,.39,.4,.62,.95,.62,1.51Z"/><path class="cls-12" d="M1191.54,937.69c0,.42-.12,.84-.35,1.19-.24,.35-.57,.62-.96,.78-.4,.16-.82,.21-1.23,.12-.42-.08-.79-.28-1.1-.58-.29-.3-.49-.68-.58-1.09-.08-.42-.04-.84,.12-1.24,.16-.38,.43-.72,.79-.95,.35-.24,.77-.36,1.18-.36,.28,0,.56,.05,.82,.16,.26,.11,.49,.27,.69,.46,.2,.2,.36,.44,.46,.69,.11,.26,.16,.54,.16,.82Z"/><path class="cls-12" d="M1108.1,965.27c0,.42-.13,.83-.37,1.18-.23,.35-.56,.63-.96,.79-.38,.16-.82,.2-1.23,.12-.41-.08-.79-.29-1.08-.59-.31-.29-.51-.67-.59-1.09-.08-.41-.04-.84,.12-1.23,.16-.39,.44-.72,.79-.96,.34-.23,.76-.36,1.18-.36,.28,0,.56,.06,.81,.17,.27,.1,.5,.26,.7,.46,.19,.2,.35,.43,.47,.69,.1,.26,.16,.54,.16,.82Z"/><path class="cls-12" d="M1135.91,965.27c0,.42-.12,.83-.36,1.18-.23,.35-.56,.63-.96,.79-.38,.16-.82,.2-1.23,.12-.42-.08-.79-.29-1.09-.59-.3-.29-.5-.67-.58-1.09-.08-.41-.04-.84,.12-1.23,.16-.39,.44-.72,.78-.96,.35-.23,.77-.36,1.19-.36,.28,0,.56,.06,.81,.17,.26,.1,.5,.26,.7,.46,.19,.2,.35,.43,.45,.69,.12,.26,.17,.54,.17,.82Z"/><path class="cls-12" d="M1163.73,965.27c0,.42-.13,.83-.36,1.18-.23,.35-.56,.63-.96,.79-.38,.16-.82,.2-1.23,.12-.42-.08-.79-.29-1.1-.59-.29-.29-.49-.67-.57-1.09-.08-.41-.04-.84,.12-1.23,.16-.39,.43-.72,.78-.96,.35-.23,.77-.36,1.18-.36,.57,.01,1.11,.23,1.52,.63,.39,.4,.62,.94,.62,1.51Z"/><path class="cls-12" d="M1191.54,965.27c0,.42-.12,.83-.35,1.18-.24,.35-.58,.63-.96,.79-.4,.16-.82,.2-1.23,.12-.42-.08-.79-.29-1.1-.59-.29-.29-.49-.67-.58-1.09-.08-.41-.04-.84,.12-1.23,.16-.39,.43-.72,.79-.96,.35-.23,.77-.36,1.18-.36,.28,0,.56,.06,.82,.17,.26,.1,.49,.26,.69,.46,.2,.2,.36,.43,.46,.69,.11,.26,.16,.54,.16,.82Z"/></g><g class="cls-20"><path class="cls-12" d="M1214.17,884.67c1.17,0,2.13-.95,2.13-2.13s-.96-2.13-2.13-2.13-2.14,.95-2.14,2.13,.95,2.13,2.14,2.13Z"/><path class="cls-12" d="M1241.98,884.67c1.18,0,2.13-.95,2.13-2.13s-.95-2.13-2.13-2.13-2.13,.95-2.13,2.13,.95,2.13,2.13,2.13Z"/><path class="cls-12" d="M1269.79,884.67c1.19,0,2.14-.95,2.14-2.13s-.95-2.13-2.14-2.13-2.12,.95-2.12,2.13,.95,2.13,2.12,2.13Z"/><path class="cls-12" d="M1297.61,884.67c1.18,0,2.13-.95,2.13-2.13s-.95-2.13-2.13-2.13-2.13,.95-2.13,2.13,.96,2.13,2.13,2.13Z"/><path class="cls-12" d="M1214.16,912.25c1.18,0,2.14-.96,2.14-2.13s-.96-2.14-2.14-2.14-2.13,.96-2.13,2.14,.95,2.13,2.13,2.13Z"/><path class="cls-12" d="M1241.98,912.25c1.18,0,2.13-.96,2.13-2.13s-.95-2.14-2.13-2.14-2.13,.96-2.13,2.14,.95,2.13,2.13,2.13Z"/><path class="cls-12" d="M1269.79,912.25c1.19,0,2.14-.96,2.14-2.13s-.95-2.14-2.14-2.14-2.12,.96-2.12,2.14,.95,2.13,2.12,2.13Z"/><path class="cls-12" d="M1297.61,912.25c1.18,0,2.13-.96,2.13-2.13s-.95-2.14-2.13-2.14-2.13,.96-2.13,2.14,.96,2.13,2.13,2.13Z"/><path class="cls-12" d="M1216.3,937.69c0,.42-.13,.84-.37,1.19-.23,.35-.56,.62-.96,.78-.38,.16-.82,.21-1.22,.12-.41-.08-.8-.28-1.09-.58-.31-.3-.51-.68-.59-1.09-.08-.42-.04-.84,.12-1.24,.16-.38,.44-.72,.79-.95,.35-.24,.76-.36,1.18-.36,.57,0,1.11,.22,1.51,.62,.4,.4,.63,.95,.63,1.51Z"/><path class="cls-12" d="M1244.11,937.69c0,.42-.12,.84-.36,1.19-.23,.35-.56,.62-.96,.78-.38,.16-.82,.21-1.23,.12-.41-.08-.79-.28-1.09-.58-.3-.3-.5-.68-.58-1.09-.08-.42-.04-.84,.12-1.24,.16-.38,.44-.72,.78-.95,.35-.24,.77-.36,1.19-.36,.57,0,1.11,.22,1.51,.62,.39,.4,.62,.95,.62,1.51Z"/><path class="cls-12" d="M1271.93,937.69c0,.42-.13,.84-.36,1.19-.23,.35-.56,.62-.96,.78-.38,.16-.82,.21-1.23,.12-.42-.08-.79-.28-1.09-.58-.3-.3-.5-.68-.58-1.09-.08-.42-.04-.84,.12-1.24,.16-.38,.44-.72,.78-.95,.35-.24,.77-.36,1.18-.36,.57,0,1.11,.22,1.52,.62,.39,.4,.62,.95,.62,1.51Z"/><path class="cls-12" d="M1299.74,937.69c0,.42-.12,.84-.35,1.19-.24,.35-.57,.62-.96,.78-.39,.16-.82,.21-1.23,.12-.42-.08-.79-.28-1.1-.58-.29-.3-.49-.68-.58-1.09-.08-.42-.04-.84,.12-1.24,.16-.38,.43-.72,.79-.95,.35-.24,.77-.36,1.18-.36,.28,0,.56,.05,.82,.16,.26,.11,.5,.27,.69,.46,.2,.2,.36,.44,.46,.69,.11,.26,.16,.54,.16,.82Z"/><path class="cls-12" d="M1216.3,965.27c0,.42-.13,.83-.37,1.18-.23,.35-.56,.63-.96,.79-.38,.16-.82,.2-1.23,.12-.4-.08-.79-.29-1.08-.59-.31-.29-.51-.67-.59-1.09-.08-.41-.04-.84,.12-1.23,.16-.39,.44-.72,.79-.96,.35-.23,.76-.36,1.18-.36,.28,0,.56,.06,.81,.17,.27,.1,.5,.26,.7,.46,.19,.2,.36,.43,.47,.69,.1,.26,.16,.54,.16,.82Z"/><path class="cls-12" d="M1244.11,965.27c0,.42-.12,.83-.36,1.18-.23,.35-.56,.63-.96,.79-.38,.16-.82,.2-1.23,.12-.42-.08-.79-.29-1.09-.59-.3-.29-.5-.67-.58-1.09-.08-.41-.04-.84,.12-1.23,.16-.39,.44-.72,.78-.96,.35-.23,.77-.36,1.19-.36,.28,0,.56,.06,.81,.17,.27,.1,.5,.26,.7,.46,.19,.2,.35,.43,.46,.69,.11,.26,.16,.54,.16,.82Z"/><path class="cls-12" d="M1271.93,965.27c0,.42-.13,.83-.36,1.18-.23,.35-.56,.63-.96,.79-.38,.16-.82,.2-1.23,.12-.42-.08-.79-.29-1.09-.59-.3-.29-.5-.67-.58-1.09-.08-.41-.04-.84,.12-1.23,.16-.39,.44-.72,.78-.96,.35-.23,.77-.36,1.18-.36,.57,.01,1.11,.23,1.52,.63,.39,.4,.62,.94,.62,1.51Z"/><path class="cls-12" d="M1299.74,965.27c0,.42-.12,.83-.35,1.18-.24,.35-.58,.63-.96,.79-.39,.16-.82,.2-1.23,.12-.42-.08-.79-.29-1.1-.59-.29-.29-.49-.67-.58-1.09-.08-.41-.04-.84,.12-1.23,.16-.39,.43-.72,.79-.96,.35-.23,.77-.36,1.18-.36,.28,0,.56,.06,.82,.17,.26,.1,.5,.26,.69,.46,.2,.2,.36,.43,.46,.69,.11,.26,.16,.54,.16,.82Z"/></g><g class="cls-20"><path class="cls-12" d="M1322.37,884.67c1.17,0,2.13-.95,2.13-2.13s-.96-2.13-2.13-2.13-2.14,.95-2.14,2.13,.95,2.13,2.14,2.13Z"/><path class="cls-12" d="M1350.18,884.67c1.18,0,2.13-.95,2.13-2.13s-.95-2.13-2.13-2.13-2.13,.95-2.13,2.13,.95,2.13,2.13,2.13Z"/><path class="cls-12" d="M1377.99,884.67c1.19,0,2.14-.95,2.14-2.13s-.95-2.13-2.14-2.13-2.12,.95-2.12,2.13,.95,2.13,2.12,2.13Z"/><path class="cls-12" d="M1405.81,884.67c1.19,0,2.14-.95,2.14-2.13s-.95-2.13-2.14-2.13-2.13,.95-2.13,2.13,.96,2.13,2.13,2.13Z"/><path class="cls-12" d="M1322.37,912.25c1.17,0,2.13-.96,2.13-2.13s-.96-2.14-2.13-2.14-2.14,.96-2.14,2.14,.95,2.13,2.14,2.13Z"/><path class="cls-12" d="M1350.18,912.25c1.18,0,2.13-.96,2.13-2.13s-.95-2.14-2.13-2.14-2.13,.96-2.13,2.14,.95,2.13,2.13,2.13Z"/><path class="cls-12" d="M1377.99,912.25c1.19,0,2.14-.96,2.14-2.13s-.95-2.14-2.14-2.14-2.12,.96-2.12,2.14,.95,2.13,2.12,2.13Z"/><path class="cls-12" d="M1405.81,912.25c1.19,0,2.14-.96,2.14-2.13s-.95-2.14-2.14-2.14-2.13,.96-2.13,2.14,.96,2.13,2.13,2.13Z"/><path class="cls-12" d="M1324.5,937.69c0,.42-.13,.84-.36,1.19-.24,.35-.57,.62-.97,.78-.38,.16-.81,.21-1.22,.12-.41-.08-.8-.28-1.09-.58-.3-.3-.51-.68-.59-1.09-.08-.42-.04-.84,.12-1.24,.17-.38,.44-.72,.79-.95,.35-.24,.76-.36,1.19-.36,.56,0,1.1,.22,1.5,.62,.4,.4,.63,.95,.63,1.51Z"/><path class="cls-12" d="M1352.31,937.69c0,.42-.12,.84-.36,1.19-.23,.35-.56,.62-.96,.78-.38,.16-.82,.21-1.23,.12-.4-.08-.79-.28-1.09-.58-.3-.3-.5-.68-.58-1.09-.08-.42-.04-.84,.12-1.24,.16-.38,.44-.72,.78-.95,.36-.24,.77-.36,1.19-.36,.57,0,1.11,.22,1.51,.62,.4,.4,.62,.95,.62,1.51Z"/><path class="cls-12" d="M1380.13,937.69c0,.42-.12,.84-.36,1.19-.23,.35-.56,.62-.96,.78-.38,.16-.82,.21-1.23,.12-.42-.08-.79-.28-1.09-.58s-.5-.68-.58-1.09c-.08-.42-.04-.84,.12-1.24,.16-.38,.44-.72,.78-.95,.35-.24,.77-.36,1.18-.36,.57,0,1.12,.22,1.52,.62,.39,.4,.62,.95,.62,1.51Z"/><path class="cls-12" d="M1407.95,937.69c0,.42-.13,.84-.36,1.19-.24,.35-.56,.62-.96,.78-.39,.16-.82,.21-1.23,.12-.42-.08-.79-.28-1.09-.58-.3-.3-.5-.68-.59-1.09-.08-.42-.04-.84,.12-1.24,.16-.38,.43-.72,.79-.95,.35-.24,.77-.36,1.18-.36,.29,0,.56,.05,.82,.16,.26,.11,.5,.27,.69,.46,.2,.2,.36,.44,.46,.69,.12,.26,.17,.54,.17,.82Z"/><path class="cls-12" d="M1324.5,965.27c0,.42-.13,.83-.36,1.18-.24,.35-.57,.63-.97,.79-.38,.16-.81,.2-1.23,.12-.4-.08-.79-.29-1.08-.59-.3-.29-.51-.67-.59-1.09-.08-.41-.04-.84,.12-1.23,.17-.39,.44-.72,.79-.96,.35-.23,.76-.36,1.19-.36,.27,0,.55,.06,.8,.17,.27,.1,.5,.26,.7,.46,.19,.2,.36,.43,.47,.69,.1,.26,.16,.54,.16,.82Z"/><path class="cls-12" d="M1352.31,965.27c0,.42-.12,.83-.36,1.18-.23,.35-.56,.63-.96,.79-.38,.16-.82,.2-1.23,.12-.41-.08-.79-.29-1.09-.59-.3-.29-.5-.67-.58-1.09-.08-.41-.04-.84,.12-1.23,.16-.39,.44-.72,.78-.96,.36-.23,.77-.36,1.19-.36,.28,0,.56,.06,.81,.17,.27,.1,.5,.26,.7,.46,.19,.2,.36,.43,.46,.69,.11,.26,.16,.54,.16,.82Z"/><path class="cls-12" d="M1380.13,965.27c0,.42-.12,.83-.36,1.18-.23,.35-.56,.63-.96,.79-.38,.16-.82,.2-1.23,.12-.42-.08-.79-.29-1.09-.59-.3-.29-.5-.67-.58-1.09-.08-.41-.04-.84,.12-1.23,.16-.39,.44-.72,.78-.96,.35-.23,.77-.36,1.18-.36,.57,.01,1.12,.23,1.52,.63,.39,.4,.62,.94,.62,1.51Z"/><path class="cls-12" d="M1407.95,965.27c0,.42-.13,.83-.36,1.18-.24,.35-.57,.63-.96,.79s-.82,.2-1.23,.12c-.42-.08-.79-.29-1.09-.59-.3-.29-.5-.67-.59-1.09-.08-.41-.04-.84,.12-1.23,.16-.39,.43-.72,.79-.96,.35-.23,.77-.36,1.18-.36,.29,0,.56,.06,.82,.17,.26,.1,.5,.26,.69,.46,.2,.2,.36,.43,.46,.69,.12,.26,.17,.54,.17,.82Z"/></g><path class="cls-11" d="M1562.17,625.83c-96.36-44.93-210.9-3.24-255.84,93.11-44.93,96.36-3.25,210.9,93.11,255.84,96.36,44.93,210.9,3.24,255.84-93.12,44.93-96.36,3.24-210.9-93.11-255.83Zm-256.75,92.69c45.16-96.87,160.31-138.78,257.17-93.61,96.87,45.17,138.77,160.31,93.6,257.18-45.17,96.86-160.31,138.77-257.17,93.6-96.87-45.17-138.77-160.31-93.6-257.17Zm251.61-81.68c-90.28-42.1-197.59-3.04-239.69,87.24-42.1,90.28-3.03,197.58,87.24,239.68,90.28,42.1,197.59,3.04,239.69-87.24,42.09-90.27,3.03-197.58-87.24-239.68Zm-240.61,86.81c42.34-90.78,150.25-130.06,241.03-87.73,90.78,42.34,130.07,150.25,87.73,241.03-42.33,90.78-150.25,130.06-241.03,87.73-90.78-42.33-130.06-150.25-87.73-241.03Zm235.47-75.8c-84.19-39.26-184.27-2.83-223.54,81.36-39.25,84.2-2.83,184.28,81.37,223.54,84.19,39.26,184.27,2.83,223.54-81.36,39.25-84.2,2.83-184.28-81.37-223.54Zm-224.45,80.94c39.5-84.71,140.18-121.35,224.88-81.85,84.7,39.49,121.34,140.17,81.85,224.88-39.5,84.7-140.18,121.34-224.88,81.85-84.7-39.5-121.35-140.18-81.85-224.88Zm219.32-69.92c-78.12-36.43-170.97-2.63-207.4,75.48-36.42,78.11-2.62,170.96,75.49,207.39,78.11,36.42,170.97,2.63,207.39-75.49,36.43-78.11,2.63-170.96-75.48-207.38Zm-208.31,75.05c36.66-78.62,130.12-112.63,208.73-75.97,78.62,36.66,112.64,130.11,75.97,208.73-36.65,78.62-130.11,112.63-208.72,75.97-78.63-36.66-112.64-130.11-75.98-208.73Zm203.17-64.04c-72.03-33.59-157.65-2.43-191.24,69.6-33.59,72.03-2.43,157.66,69.61,191.24,72.03,33.59,157.65,2.43,191.24-69.6,33.58-72.03,2.42-157.65-69.61-191.24Zm-192.15,69.18c33.81-72.54,120.04-103.92,192.57-70.1,72.55,33.83,103.93,120.05,70.1,192.59-33.82,72.53-120.04,103.92-192.59,70.09-72.53-33.82-103.91-120.05-70.08-192.58Zm187.01-58.17c-65.94-30.75-144.34-2.22-175.09,63.73-30.75,65.95-2.22,144.34,63.74,175.09,65.94,30.75,144.33,2.22,175.09-63.73,30.75-65.95,2.21-144.34-63.74-175.09Zm-176,63.3c30.98-66.45,109.98-95.2,176.44-64.22,66.44,30.99,95.2,109.99,64.21,176.44-30.98,66.46-109.98,95.21-176.44,64.22-66.45-30.99-95.21-109.98-64.21-176.44Z"/></g></g></g></g></svg>