<svg width="1860" height="687" viewBox="0 0 1860 687" fill="none" xmlns="http://www.w3.org/2000/svg">
<rect width="1860" height="687" fill="#202020"/>
<path d="M1432.42 635.271H1442.25" stroke="#A2BADD" stroke-width="2" stroke-linecap="round" stroke-linejoin="round"/>
<path d="M1437.33 630.206V640.338" stroke="#A2BADD" stroke-width="2" stroke-linecap="round" stroke-linejoin="round"/>
<path d="M1432.42 613.365H1442.25" stroke="#A2BADD" stroke-width="2" stroke-linecap="round" stroke-linejoin="round"/>
<path d="M1437.33 608.298V618.43" stroke="#A2BADD" stroke-width="2" stroke-linecap="round" stroke-linejoin="round"/>
<path d="M1432.42 591.458H1442.25" stroke="#A2BADD" stroke-width="2" stroke-linecap="round" stroke-linejoin="round"/>
<path d="M1437.33 586.393V596.525" stroke="#A2BADD" stroke-width="2" stroke-linecap="round" stroke-linejoin="round"/>
<path d="M947.45 126.129V136.262" stroke="#A2BADD" stroke-width="2" stroke-linecap="round" stroke-linejoin="round"/>
<path d="M952.373 131.195H942.534" stroke="#A2BADD" stroke-width="2" stroke-linecap="round" stroke-linejoin="round"/>
<path d="M629.768 315.12V325.253" stroke="#EAF1FD" stroke-width="2" stroke-linecap="round" stroke-linejoin="round"/>
<path d="M634.688 320.186H624.849" stroke="#EAF1FD" stroke-width="2" stroke-linecap="round" stroke-linejoin="round"/>
<path d="M557.736 512.567V522.7" stroke="#F87F28" stroke-width="2" stroke-linecap="round" stroke-linejoin="round"/>
<path d="M562.656 517.634H552.817" stroke="#F87F28" stroke-width="2" stroke-linecap="round" stroke-linejoin="round"/>
<path d="M856.39 395.315V405.448" stroke="#F87F28" stroke-width="2" stroke-linecap="round" stroke-linejoin="round"/>
<path d="M861.31 400.38H851.471" stroke="#F87F28" stroke-width="2" stroke-linecap="round" stroke-linejoin="round"/>
<path d="M1054.41 273.262V283.395" stroke="#F87F28" stroke-width="2" stroke-linecap="round" stroke-linejoin="round"/>
<path d="M1059.33 278.327H1049.49" stroke="#F87F28" stroke-width="2" stroke-linecap="round" stroke-linejoin="round"/>
<path d="M1317.71 68.6597V78.7925" stroke="#F87F28" stroke-width="2" stroke-linecap="round" stroke-linejoin="round"/>
<path d="M1322.62 73.7251H1312.78" stroke="#F87F28" stroke-width="2" stroke-linecap="round" stroke-linejoin="round"/>
<path d="M471.32 246.389V256.522" stroke="#F87F28" stroke-width="2" stroke-linecap="round" stroke-linejoin="round"/>
<path d="M476.241 251.454H466.401" stroke="#F87F28" stroke-width="2" stroke-linecap="round" stroke-linejoin="round"/>
<path d="M624.849 93.9072V104.039" stroke="#BDD7FE" stroke-width="2" stroke-linecap="round" stroke-linejoin="round"/>
<path d="M629.768 98.9727H619.928" stroke="#BDD7FE" stroke-width="2" stroke-linecap="round" stroke-linejoin="round"/>
<path d="M906.584 668.422V678.555" stroke="#FAFAFA" stroke-opacity="0.28" stroke-width="2" stroke-linecap="round" stroke-linejoin="round"/>
<path d="M911.507 673.488H901.668" stroke="#FAFAFA" stroke-opacity="0.28" stroke-width="2" stroke-linecap="round" stroke-linejoin="round"/>
<path d="M927.864 668.422V678.555" stroke="#FAFAFA" stroke-opacity="0.28" stroke-width="2" stroke-linecap="round" stroke-linejoin="round"/>
<path d="M932.78 673.488H922.94" stroke="#FAFAFA" stroke-opacity="0.28" stroke-width="2" stroke-linecap="round" stroke-linejoin="round"/>
<path d="M949.136 668.422V678.555" stroke="#FAFAFA" stroke-opacity="0.28" stroke-width="2" stroke-linecap="round" stroke-linejoin="round"/>
<path d="M954.052 673.488H944.213" stroke="#FAFAFA" stroke-opacity="0.28" stroke-width="2" stroke-linecap="round" stroke-linejoin="round"/>
<path d="M332.65 213.726V223.858" stroke="#F87F28" stroke-width="2" stroke-linecap="round" stroke-linejoin="round"/>
<path d="M337.57 218.791H327.731" stroke="#F87F28" stroke-width="2" stroke-linecap="round" stroke-linejoin="round"/>
<path d="M239.89 169.59H230.051" stroke="#EAF1FD" stroke-width="2" stroke-linecap="round" stroke-linejoin="round"/>
<path d="M234.972 174.657V164.524" stroke="#EAF1FD" stroke-width="2" stroke-linecap="round" stroke-linejoin="round"/>
<path d="M239.89 191.498H230.051" stroke="#EAF1FD" stroke-width="2" stroke-linecap="round" stroke-linejoin="round"/>
<path d="M234.972 196.563V186.43" stroke="#EAF1FD" stroke-width="2" stroke-linecap="round" stroke-linejoin="round"/>
<path d="M239.89 213.403H230.051" stroke="#EAF1FD" stroke-width="2" stroke-linecap="round" stroke-linejoin="round"/>
<path d="M234.972 218.47V208.338" stroke="#EAF1FD" stroke-width="2" stroke-linecap="round" stroke-linejoin="round"/>
<path d="M461.766 394.022C461.766 394.362 461.668 394.694 461.485 394.976C461.301 395.259 461.041 395.479 460.736 395.609C460.431 395.739 460.095 395.773 459.772 395.706C459.448 395.641 459.15 395.477 458.917 395.236C458.684 394.996 458.525 394.69 458.461 394.357C458.397 394.023 458.43 393.678 458.556 393.364C458.683 393.05 458.896 392.781 459.171 392.593C459.446 392.404 459.768 392.304 460.098 392.304C460.317 392.304 460.534 392.348 460.736 392.435C460.939 392.521 461.123 392.647 461.278 392.807C461.433 392.967 461.555 393.156 461.639 393.364C461.723 393.573 461.766 393.796 461.766 394.022Z" fill="#A2BADD"/>
<path d="M473.092 394.022C473.092 394.362 472.994 394.694 472.811 394.976C472.628 395.259 472.367 395.479 472.062 395.609C471.758 395.739 471.422 395.773 471.098 395.706C470.774 395.641 470.477 395.477 470.244 395.236C470.01 394.996 469.852 394.69 469.788 394.357C469.723 394.023 469.756 393.678 469.883 393.364C470.009 393.05 470.223 392.781 470.498 392.593C470.772 392.404 471.095 392.304 471.425 392.304C471.644 392.304 471.861 392.348 472.063 392.435C472.266 392.521 472.449 392.647 472.604 392.807C472.759 392.967 472.882 393.156 472.966 393.364C473.05 393.573 473.092 393.796 473.092 394.022Z" fill="#A2BADD"/>
<path d="M484.423 394.022C484.423 394.362 484.325 394.694 484.142 394.976C483.959 395.259 483.698 395.479 483.393 395.609C483.088 395.739 482.753 395.773 482.429 395.707C482.105 395.641 481.809 395.477 481.575 395.237C481.342 394.996 481.182 394.691 481.118 394.357C481.054 394.023 481.087 393.678 481.213 393.364C481.34 393.05 481.553 392.782 481.828 392.593C482.102 392.405 482.425 392.304 482.755 392.304C482.974 392.304 483.191 392.348 483.393 392.434C483.596 392.52 483.78 392.647 483.934 392.807C484.089 392.967 484.213 393.156 484.297 393.364C484.38 393.573 484.423 393.796 484.423 394.022Z" fill="#A2BADD"/>
<path d="M461.766 405.685C461.766 406.025 461.668 406.357 461.485 406.64C461.302 406.922 461.042 407.143 460.736 407.273C460.431 407.403 460.096 407.437 459.772 407.371C459.449 407.305 459.151 407.141 458.918 406.901C458.684 406.66 458.525 406.354 458.461 406.021C458.397 405.687 458.43 405.342 458.556 405.028C458.682 404.714 458.896 404.446 459.171 404.257C459.446 404.068 459.768 403.968 460.098 403.968C460.541 403.968 460.965 404.149 461.278 404.471C461.59 404.792 461.766 405.23 461.766 405.685Z" fill="#A2BADD"/>
<path d="M473.092 405.685C473.092 406.025 472.995 406.357 472.811 406.64C472.628 406.922 472.367 407.143 472.063 407.273C471.758 407.403 471.423 407.437 471.099 407.371C470.775 407.305 470.478 407.141 470.244 406.901C470.011 406.66 469.852 406.354 469.788 406.021C469.723 405.687 469.756 405.342 469.883 405.028C470.009 404.714 470.223 404.446 470.498 404.257C470.772 404.068 471.095 403.968 471.425 403.968C471.867 403.968 472.291 404.149 472.604 404.471C472.917 404.792 473.092 405.23 473.092 405.685Z" fill="#A2BADD"/>
<path d="M484.423 405.685C484.423 406.025 484.326 406.357 484.142 406.64C483.959 406.922 483.698 407.143 483.394 407.273C483.089 407.403 482.753 407.437 482.43 407.371C482.106 407.305 481.809 407.141 481.575 406.901C481.342 406.661 481.182 406.355 481.118 406.021C481.054 405.688 481.087 405.343 481.213 405.028C481.34 404.715 481.553 404.446 481.828 404.257C482.102 404.069 482.425 403.968 482.755 403.968C482.974 403.968 483.191 404.012 483.393 404.098C483.596 404.185 483.779 404.311 483.934 404.47C484.089 404.63 484.212 404.82 484.296 405.028C484.38 405.236 484.423 405.46 484.423 405.685Z" fill="#A2BADD"/>
<path d="M461.766 417.348C461.766 417.688 461.668 418.021 461.485 418.303C461.302 418.585 461.042 418.806 460.736 418.936C460.431 419.067 460.096 419.1 459.772 419.034C459.449 418.968 459.151 418.804 458.918 418.564C458.684 418.324 458.525 418.017 458.461 417.684C458.397 417.351 458.43 417.005 458.556 416.691C458.682 416.377 458.896 416.109 459.171 415.92C459.446 415.731 459.768 415.631 460.098 415.631C460.541 415.631 460.965 415.812 461.278 416.134C461.59 416.456 461.766 416.893 461.766 417.348Z" fill="#A2BADD"/>
<path d="M473.092 417.348C473.092 417.688 472.995 418.021 472.811 418.303C472.628 418.585 472.367 418.806 472.063 418.936C471.758 419.067 471.423 419.1 471.099 419.034C470.775 418.968 470.478 418.804 470.244 418.564C470.011 418.324 469.852 418.017 469.788 417.684C469.723 417.351 469.756 417.005 469.883 416.691C470.009 416.377 470.223 416.109 470.498 415.92C470.772 415.731 471.095 415.631 471.425 415.631C471.867 415.631 472.291 415.812 472.604 416.134C472.917 416.456 473.092 416.893 473.092 417.348Z" fill="#A2BADD"/>
<path d="M484.423 417.348C484.423 417.688 484.326 418.02 484.142 418.303C483.959 418.585 483.698 418.806 483.394 418.936C483.089 419.067 482.753 419.1 482.43 419.034C482.106 418.968 481.809 418.804 481.575 418.564C481.342 418.324 481.182 418.018 481.118 417.685C481.054 417.351 481.087 417.006 481.213 416.691C481.34 416.378 481.553 416.109 481.828 415.921C482.102 415.732 482.425 415.631 482.755 415.631C482.974 415.631 483.191 415.676 483.393 415.761C483.596 415.848 483.779 415.974 483.934 416.133C484.089 416.293 484.212 416.483 484.296 416.691C484.38 416.899 484.423 417.123 484.423 417.348Z" fill="#A2BADD"/>
<path d="M238.34 32.1979C238.339 32.5347 238.242 32.8639 238.06 33.1439C237.879 33.4239 237.62 33.6421 237.318 33.7709C237.016 33.8997 236.683 33.9334 236.362 33.8676C236.042 33.8019 235.747 33.6397 235.516 33.4015C235.284 33.1634 235.127 32.8599 235.063 32.5295C234.999 32.1992 235.032 31.8568 235.157 31.5455C235.282 31.2343 235.494 30.9683 235.766 30.781C236.038 30.5938 236.357 30.4938 236.685 30.4937C236.902 30.4935 237.117 30.5375 237.318 30.6231C237.519 30.7088 237.701 30.8343 237.855 30.9926C238.009 31.1508 238.131 31.3388 238.214 31.5455C238.297 31.7524 238.34 31.9741 238.34 32.1979Z" fill="#A2BADD"/>
<path d="M247.919 33.9021C248.834 33.9021 249.575 33.1391 249.575 32.1979C249.575 31.2567 248.834 30.4937 247.919 30.4937C247.006 30.4937 246.265 31.2567 246.265 32.1979C246.265 33.1391 247.006 33.9021 247.919 33.9021Z" fill="#A2BADD"/>
<path d="M260.808 32.1979C260.808 32.535 260.711 32.8645 260.529 33.1447C260.347 33.425 260.089 33.6434 259.787 33.7724C259.484 33.9014 259.151 33.9351 258.83 33.8694C258.509 33.8036 258.214 33.6413 257.983 33.4029C257.751 33.1646 257.594 32.8609 257.53 32.5303C257.466 32.1998 257.499 31.8571 257.624 31.5457C257.75 31.2343 257.962 30.9681 258.233 30.7809C258.506 30.5936 258.826 30.4937 259.153 30.4937C259.592 30.4937 260.013 30.6732 260.323 30.9928C260.634 31.3124 260.808 31.7459 260.808 32.1979Z" fill="#A2BADD"/>
<path d="M272.045 32.1979C272.045 32.535 271.947 32.8645 271.766 33.1447C271.584 33.425 271.326 33.6434 271.023 33.7724C270.721 33.9014 270.388 33.9351 270.067 33.8694C269.746 33.8036 269.451 33.6413 269.22 33.4029C268.988 33.1646 268.831 32.8609 268.767 32.5303C268.702 32.1998 268.735 31.8571 268.861 31.5457C268.986 31.2343 269.198 30.9681 269.47 30.7809C269.743 30.5936 270.063 30.4937 270.39 30.4937C270.607 30.4937 270.823 30.5377 271.023 30.6234C271.224 30.7091 271.406 30.8346 271.56 30.9928C271.713 31.1511 271.836 31.3389 271.919 31.5457C272.002 31.7524 272.045 31.9741 272.045 32.1979Z" fill="#A2BADD"/>
<path d="M281.625 33.9021C282.539 33.9021 283.279 33.1391 283.279 32.1979C283.279 31.2567 282.539 30.4937 281.625 30.4937C280.711 30.4937 279.97 31.2567 279.97 32.1979C279.97 33.1391 280.711 33.9021 281.625 33.9021Z" fill="#A2BADD"/>
<path d="M294.514 32.1979C294.514 32.535 294.417 32.8645 294.235 33.1447C294.053 33.425 293.795 33.6434 293.493 33.7724C293.19 33.9014 292.857 33.9351 292.536 33.8694C292.215 33.8036 291.92 33.6413 291.689 33.4029C291.457 33.1646 291.3 32.8609 291.236 32.5303C291.172 32.1998 291.204 31.8571 291.33 31.5457C291.455 31.2343 291.668 30.9681 291.939 30.7809C292.212 30.5936 292.531 30.4937 292.859 30.4937C293.076 30.4935 293.292 30.5375 293.493 30.6231C293.693 30.7088 293.876 30.8343 294.03 30.9926C294.183 31.1508 294.305 31.3388 294.388 31.5455C294.471 31.7524 294.514 31.9741 294.514 32.1979Z" fill="#A2BADD"/>
<path d="M305.748 32.1979C305.748 32.535 305.651 32.8645 305.469 33.1447C305.288 33.425 305.029 33.6434 304.726 33.7724C304.424 33.9014 304.091 33.9351 303.77 33.8694C303.449 33.8036 303.155 33.6413 302.923 33.4029C302.692 33.1646 302.534 32.8609 302.47 32.5303C302.406 32.1998 302.439 31.8571 302.564 31.5457C302.69 31.2343 302.902 30.9681 303.174 30.7809C303.446 30.5936 303.766 30.4937 304.093 30.4937C304.311 30.4935 304.526 30.5375 304.726 30.6231C304.928 30.7088 305.11 30.8343 305.264 30.9926C305.417 31.1508 305.54 31.3388 305.622 31.5455C305.705 31.7524 305.748 31.9741 305.748 32.1979Z" fill="#A2BADD"/>
<path d="M238.34 43.7677C238.339 44.1046 238.242 44.4338 238.06 44.7138C237.879 44.9938 237.62 45.212 237.318 45.3408C237.016 45.4696 236.683 45.5032 236.362 45.4375C236.042 45.3718 235.747 45.2095 235.516 44.9714C235.284 44.7332 235.127 44.4297 235.063 44.0994C234.999 43.769 235.032 43.4266 235.157 43.1154C235.282 42.8042 235.494 42.5381 235.766 42.3509C236.038 42.1637 236.357 42.0637 236.685 42.0635C237.124 42.0635 237.544 42.2431 237.855 42.5627C238.165 42.8822 238.34 43.3158 238.34 43.7677Z" fill="#A2BADD"/>
<path d="M249.575 43.7677C249.575 44.1048 249.478 44.4343 249.296 44.7146C249.114 44.9948 248.856 45.2133 248.553 45.3423C248.251 45.4712 247.918 45.505 247.597 45.4392C247.276 45.3735 246.981 45.2112 246.75 44.9728C246.518 44.7345 246.361 44.4308 246.297 44.1002C246.233 43.7696 246.265 43.4269 246.39 43.1156C246.516 42.8042 246.728 42.538 247 42.3507C247.273 42.1635 247.592 42.0635 247.919 42.0635C248.358 42.0637 248.78 42.2434 249.09 42.5629C249.4 42.8825 249.574 43.3158 249.575 43.7677Z" fill="#A2BADD"/>
<path d="M260.808 43.7677C260.808 44.1048 260.711 44.4343 260.529 44.7146C260.347 44.9948 260.089 45.2133 259.787 45.3423C259.484 45.4712 259.151 45.505 258.83 45.4392C258.509 45.3735 258.214 45.2112 257.983 44.9728C257.751 44.7345 257.594 44.4308 257.53 44.1002C257.466 43.7696 257.499 43.4269 257.624 43.1156C257.75 42.8042 257.962 42.538 258.233 42.3507C258.506 42.1635 258.826 42.0635 259.153 42.0635C259.592 42.0637 260.013 42.2434 260.323 42.5629C260.633 42.8825 260.807 43.3158 260.808 43.7677Z" fill="#A2BADD"/>
<path d="M272.045 43.7677C272.045 44.1048 271.947 44.4343 271.766 44.7146C271.584 44.9948 271.326 45.2133 271.023 45.3423C270.721 45.4712 270.388 45.505 270.067 45.4392C269.746 45.3735 269.451 45.2112 269.22 44.9728C268.988 44.7345 268.831 44.4308 268.767 44.1002C268.702 43.7696 268.735 43.4269 268.861 43.1156C268.986 42.8042 269.198 42.538 269.47 42.3507C269.743 42.1635 270.063 42.0635 270.39 42.0635C270.828 42.0637 271.25 42.2434 271.56 42.5629C271.87 42.8825 272.044 43.3158 272.045 43.7677Z" fill="#A2BADD"/>
<path d="M283.279 43.7677C283.279 44.1049 283.182 44.4344 283 44.7147C282.818 44.995 282.56 45.2134 282.257 45.3423C281.955 45.4713 281.622 45.505 281.301 45.4392C280.979 45.3733 280.685 45.2109 280.454 44.9725C280.222 44.7341 280.064 44.4303 280 44.0997C279.937 43.769 279.97 43.4263 280.095 43.115C280.22 42.8036 280.433 42.5375 280.705 42.3503C280.977 42.1632 281.297 42.0633 281.625 42.0635C282.064 42.0637 282.484 42.2434 282.794 42.563C283.105 42.8825 283.279 43.3159 283.279 43.7677Z" fill="#A2BADD"/>
<path d="M294.514 43.7677C294.514 44.1048 294.417 44.4343 294.235 44.7146C294.053 44.9948 293.795 45.2133 293.493 45.3423C293.19 45.4712 292.857 45.505 292.536 45.4392C292.215 45.3735 291.92 45.2112 291.689 44.9728C291.457 44.7345 291.3 44.4308 291.236 44.1002C291.172 43.7696 291.204 43.4269 291.33 43.1156C291.455 42.8042 291.668 42.538 291.939 42.3507C292.212 42.1635 292.531 42.0635 292.859 42.0635C293.298 42.0635 293.719 42.2431 294.029 42.5627C294.34 42.8822 294.514 43.3158 294.514 43.7677Z" fill="#A2BADD"/>
<path d="M305.748 43.7677C305.748 44.1048 305.651 44.4343 305.469 44.7146C305.288 44.9948 305.029 45.2133 304.726 45.3423C304.424 45.4712 304.091 45.505 303.77 45.4392C303.449 45.3735 303.155 45.2112 302.923 44.9728C302.692 44.7345 302.534 44.4308 302.47 44.1002C302.406 43.7696 302.439 43.4269 302.564 43.1156C302.69 42.8042 302.902 42.538 303.174 42.3507C303.446 42.1635 303.766 42.0635 304.093 42.0635C304.532 42.0635 304.953 42.2431 305.264 42.5627C305.574 42.8822 305.748 43.3158 305.748 43.7677Z" fill="#A2BADD"/>
<path d="M238.34 55.337C238.339 55.6737 238.241 56.0026 238.059 56.2821C237.877 56.5617 237.618 56.7793 237.316 56.9077C237.013 57.036 236.681 57.0692 236.36 57.003C236.04 56.9369 235.746 56.7744 235.515 56.536C235.284 56.2978 235.126 55.9943 235.063 55.6641C234.999 55.3338 235.032 54.9916 235.157 54.6806C235.283 54.3695 235.494 54.1037 235.766 53.9166C236.038 53.7295 236.358 53.6296 236.685 53.6294C236.902 53.6294 237.118 53.6736 237.319 53.7595C237.52 53.8453 237.702 53.9711 237.856 54.1298C238.01 54.2884 238.132 54.4766 238.214 54.6838C238.297 54.891 238.34 55.113 238.34 55.337Z" fill="#A2BADD"/>
<path d="M249.575 55.337C249.574 55.674 249.476 56.0031 249.294 56.2829C249.112 56.5628 248.853 56.7807 248.55 56.9091C248.248 57.0376 247.916 57.0708 247.595 57.0047C247.274 56.9386 246.979 56.776 246.748 56.5375C246.517 56.299 246.36 55.9954 246.296 55.6649C246.232 55.3344 246.266 54.9919 246.391 54.6807C246.516 54.3695 246.728 54.1035 247.001 53.9164C247.273 53.7293 247.593 53.6294 247.919 53.6294C248.137 53.6295 248.353 53.6738 248.554 53.7597C248.754 53.8456 248.937 53.9714 249.091 54.13C249.245 54.2886 249.366 54.4769 249.45 54.6839C249.532 54.891 249.575 55.113 249.575 55.337Z" fill="#A2BADD"/>
<path d="M260.808 55.337C260.807 55.6741 260.71 56.0033 260.527 56.2831C260.345 56.563 260.086 56.7809 259.784 56.9093C259.481 57.0377 259.148 57.0708 258.827 57.0046C258.507 56.9384 258.212 56.7755 257.981 56.5369C257.75 56.2983 257.593 55.9944 257.53 55.6638C257.466 55.3332 257.499 54.9907 257.625 54.6795C257.75 54.3683 257.963 54.1025 258.235 53.9155C258.507 53.7286 258.827 53.6291 259.155 53.6294C259.372 53.6298 259.587 53.6741 259.788 53.7602C259.989 53.8462 260.171 53.972 260.325 54.1306C260.478 54.2892 260.6 54.4773 260.683 54.6844C260.765 54.8913 260.808 55.1131 260.808 55.337Z" fill="#A2BADD"/>
<path d="M272.045 55.337C272.044 55.674 271.947 56.0031 271.764 56.2829C271.582 56.5628 271.324 56.7807 271.021 56.9091C270.718 57.0376 270.386 57.0708 270.065 57.0047C269.744 56.9386 269.45 56.776 269.218 56.5375C268.987 56.299 268.83 55.9954 268.767 55.6649C268.703 55.3344 268.736 54.9919 268.861 54.6807C268.986 54.3695 269.198 54.1035 269.471 53.9164C269.743 53.7293 270.063 53.6294 270.39 53.6294C270.607 53.6295 270.823 53.6738 271.024 53.7597C271.225 53.8456 271.408 53.9714 271.561 54.13C271.715 54.2886 271.837 54.4769 271.92 54.6839C272.002 54.891 272.045 55.113 272.045 55.337Z" fill="#A2BADD"/>
<path d="M283.279 55.337C283.278 55.674 283.181 56.0032 282.998 56.283C282.816 56.5628 282.557 56.7807 282.255 56.9092C281.952 57.0377 281.62 57.0708 281.299 57.0046C280.978 56.9384 280.683 56.7758 280.452 56.5372C280.221 56.2987 280.064 55.9949 280 55.6643C279.937 55.3338 279.97 54.9913 280.096 54.6801C280.221 54.3689 280.433 54.103 280.705 53.916C280.977 53.729 281.297 53.6292 281.625 53.6294C281.842 53.6295 282.058 53.6738 282.259 53.7597C282.459 53.8456 282.642 53.9715 282.796 54.1301C282.949 54.2886 283.071 54.4769 283.154 54.684C283.237 54.8911 283.28 55.113 283.279 55.337Z" fill="#A2BADD"/>
<path d="M294.514 55.337C294.514 55.6741 294.417 56.0036 294.235 56.2838C294.053 56.5641 293.795 56.7825 293.493 56.9115C293.19 57.0405 292.857 57.0743 292.536 57.0085C292.215 56.9427 291.92 56.7804 291.689 56.5421C291.457 56.3038 291.3 56.0001 291.236 55.6695C291.172 55.3389 291.204 54.9963 291.33 54.6848C291.455 54.3734 291.668 54.1073 291.939 53.92C292.212 53.7327 292.531 53.6328 292.859 53.6328C293.298 53.6328 293.719 53.8123 294.029 54.132C294.34 54.4516 294.514 54.885 294.514 55.337Z" fill="#A2BADD"/>
<path d="M305.748 55.337C305.748 55.6741 305.651 56.0036 305.469 56.2838C305.288 56.5641 305.029 56.7825 304.726 56.9115C304.424 57.0405 304.091 57.0743 303.77 57.0085C303.449 56.9427 303.155 56.7804 302.923 56.5421C302.692 56.3038 302.534 56.0001 302.47 55.6695C302.406 55.3389 302.439 54.9963 302.564 54.6848C302.69 54.3734 302.902 54.1073 303.174 53.92C303.446 53.7327 303.766 53.6328 304.093 53.6328C304.532 53.6328 304.953 53.8123 305.264 54.132C305.574 54.4516 305.748 54.885 305.748 55.337Z" fill="#A2BADD"/>
<path d="M238.34 66.9064C238.339 67.2432 238.242 67.5724 238.06 67.8521C237.879 68.1326 237.62 68.3508 237.318 68.4797C237.016 68.6079 236.683 68.6416 236.362 68.5764C236.042 68.5105 235.747 68.3479 235.516 68.1099C235.284 67.8719 235.127 67.5684 235.063 67.238C234.999 66.9077 235.032 66.5653 235.157 66.254C235.282 65.9428 235.494 65.6768 235.766 65.4895C236.038 65.3023 236.357 65.2023 236.685 65.2021C236.902 65.202 237.117 65.246 237.318 65.3316C237.519 65.4173 237.701 65.5428 237.855 65.7011C238.009 65.8593 238.131 66.0473 238.214 66.254C238.297 66.4609 238.34 66.6826 238.34 66.9064Z" fill="#A2BADD"/>
<path d="M249.575 66.9064C249.575 67.2434 249.478 67.573 249.296 67.8535C249.114 68.1333 248.856 68.3516 248.553 68.4812C248.251 68.6101 247.918 68.6438 247.597 68.5779C247.276 68.512 246.981 68.3501 246.75 68.1114C246.518 67.8733 246.361 67.5694 246.297 67.2388C246.233 66.9083 246.265 66.5656 246.39 66.2542C246.516 65.9428 246.728 65.6766 247 65.4893C247.273 65.3021 247.592 65.2021 247.919 65.2021C248.358 65.2021 248.78 65.3817 249.09 65.7013C249.401 66.0209 249.575 66.4544 249.575 66.9064Z" fill="#A2BADD"/>
<path d="M260.808 66.9064C260.808 67.2434 260.711 67.573 260.529 67.8535C260.347 68.1333 260.089 68.3516 259.787 68.4812C259.484 68.6101 259.151 68.6438 258.83 68.5779C258.509 68.512 258.214 68.3501 257.983 68.1114C257.751 67.8733 257.594 67.5694 257.53 67.2388C257.466 66.9083 257.499 66.5656 257.624 66.2542C257.75 65.9428 257.962 65.6766 258.233 65.4893C258.506 65.3021 258.826 65.2021 259.153 65.2021C259.592 65.2021 260.013 65.3817 260.323 65.7013C260.634 66.0209 260.808 66.4544 260.808 66.9064Z" fill="#A2BADD"/>
<path d="M272.045 66.9064C272.045 67.2434 271.947 67.573 271.766 67.8535C271.584 68.1333 271.326 68.3516 271.023 68.4812C270.721 68.6101 270.388 68.6438 270.067 68.5779C269.746 68.512 269.451 68.3501 269.22 68.1114C268.988 67.8733 268.831 67.5694 268.767 67.2388C268.702 66.9083 268.735 66.5656 268.861 66.2542C268.986 65.9428 269.198 65.6766 269.47 65.4893C269.743 65.3021 270.063 65.2021 270.39 65.2021C270.607 65.2021 270.823 65.2462 271.023 65.3319C271.224 65.4176 271.406 65.5431 271.56 65.7013C271.713 65.8596 271.836 66.0474 271.919 66.2542C272.002 66.4609 272.045 66.6826 272.045 66.9064Z" fill="#A2BADD"/>
<path d="M283.279 66.9064C283.279 67.2434 283.182 67.573 283 67.8535C282.818 68.1333 282.56 68.3523 282.257 68.4812C281.955 68.6101 281.622 68.6438 281.301 68.5779C280.979 68.512 280.685 68.3494 280.454 68.1114C280.222 67.8726 280.064 67.569 280 67.2383C279.937 66.9077 279.97 66.565 280.095 66.2536C280.22 65.9422 280.433 65.6761 280.705 65.489C280.977 65.3018 281.297 65.202 281.625 65.2021C281.842 65.2021 282.057 65.2462 282.258 65.3319C282.459 65.4176 282.641 65.5431 282.794 65.7014C282.948 65.8596 283.07 66.0475 283.153 66.2543C283.236 66.461 283.279 66.6826 283.279 66.9064Z" fill="#A2BADD"/>
<path d="M294.514 66.9064C294.514 67.2434 294.417 67.573 294.235 67.8535C294.053 68.1333 293.795 68.3516 293.493 68.4812C293.19 68.6101 292.857 68.6438 292.536 68.5779C292.215 68.512 291.92 68.3501 291.689 68.1114C291.457 67.8733 291.3 67.5694 291.236 67.2388C291.172 66.9083 291.204 66.5656 291.33 66.2542C291.455 65.9428 291.668 65.6766 291.939 65.4893C292.212 65.3021 292.531 65.2021 292.859 65.2021C293.076 65.202 293.292 65.246 293.493 65.3316C293.693 65.4173 293.876 65.5428 294.03 65.7011C294.183 65.8593 294.305 66.0473 294.388 66.254C294.471 66.4609 294.514 66.6826 294.514 66.9064Z" fill="#A2BADD"/>
<path d="M305.748 66.9064C305.748 67.2434 305.651 67.573 305.469 67.8535C305.288 68.1333 305.029 68.3516 304.726 68.4812C304.424 68.6101 304.091 68.6438 303.77 68.5779C303.449 68.512 303.155 68.3501 302.923 68.1114C302.692 67.8733 302.534 67.5694 302.47 67.2388C302.406 66.9083 302.439 66.5656 302.564 66.2542C302.69 65.9428 302.902 65.6766 303.174 65.4893C303.446 65.3021 303.766 65.2021 304.093 65.2021C304.311 65.202 304.526 65.246 304.726 65.3316C304.928 65.4173 305.11 65.5428 305.264 65.7011C305.417 65.8593 305.54 66.0473 305.622 66.254C305.705 66.4609 305.748 66.6826 305.748 66.9064Z" fill="#A2BADD"/>
<path d="M238.34 78.4753C238.34 78.8122 238.242 79.1418 238.061 79.4216C237.879 79.7021 237.621 79.9204 237.319 80.0493C237.016 80.1782 236.684 80.2119 236.363 80.1459C236.042 80.0808 235.747 79.9182 235.516 79.6801C235.285 79.4421 235.127 79.1389 235.063 78.8086C234.999 78.4783 235.032 78.1355 235.157 77.8242C235.282 77.5129 235.494 77.2471 235.766 77.0596C236.038 76.8721 236.357 76.7725 236.685 76.7725C236.902 76.7717 237.117 76.8157 237.318 76.9014C237.519 76.9871 237.701 77.1123 237.855 77.2705C238.008 77.4287 238.13 77.6169 238.214 77.8235C238.297 78.03 238.34 78.2519 238.34 78.4753Z" fill="#A2BADD"/>
<path d="M247.919 80.1804C248.834 80.1804 249.575 79.4179 249.575 78.476C249.575 77.5349 248.834 76.7725 247.919 76.7725C247.006 76.7725 246.265 77.5349 246.265 78.476C246.265 79.4179 247.006 80.1804 247.919 80.1804Z" fill="#A2BADD"/>
<path d="M260.808 78.4753C260.808 78.813 260.711 79.1425 260.529 79.4223C260.348 79.7028 260.09 79.9218 259.787 80.0507C259.485 80.1796 259.152 80.2133 258.831 80.1481C258.509 80.0822 258.215 79.9204 257.983 79.6816C257.752 79.4436 257.594 79.1396 257.53 78.8093C257.466 78.4782 257.498 78.1355 257.624 77.8242C257.749 77.5129 257.962 77.2463 258.233 77.0596C258.506 76.8721 258.826 76.7725 259.153 76.7725C259.592 76.7725 260.013 76.9519 260.323 77.2712C260.633 77.5906 260.807 78.0234 260.808 78.4753Z" fill="#A2BADD"/>
<path d="M272.045 78.4753C272.045 78.813 271.948 79.1425 271.766 79.4223C271.585 79.7028 271.326 79.9218 271.024 80.0507C270.722 80.1796 270.389 80.2133 270.067 80.1481C269.746 80.0822 269.452 79.9204 269.22 79.6816C268.989 79.4436 268.831 79.1396 268.767 78.8093C268.703 78.4782 268.735 78.1355 268.86 77.8242C268.986 77.5129 269.198 77.2463 269.47 77.0596C269.743 76.8721 270.062 76.7725 270.39 76.7725C270.828 76.7725 271.25 76.9519 271.56 77.2712C271.87 77.5906 272.044 78.0234 272.045 78.4753Z" fill="#A2BADD"/>
<path d="M281.625 80.1804C282.539 80.1804 283.279 79.4179 283.279 78.476C283.279 77.5349 282.539 76.7725 281.625 76.7725C280.711 76.7725 279.97 77.5349 279.97 78.476C279.97 79.4179 280.711 80.1804 281.625 80.1804Z" fill="#A2BADD"/>
<path d="M294.514 78.4753C294.514 78.813 294.417 79.1426 294.235 79.4223C294.054 79.7028 293.796 79.9218 293.493 80.0507C293.191 80.1796 292.858 80.2133 292.537 80.1481C292.215 80.0822 291.921 79.9204 291.689 79.6816C291.458 79.4436 291.3 79.1396 291.236 78.8093C291.172 78.4783 291.204 78.1355 291.33 77.8242C291.455 77.5129 291.668 77.2463 291.939 77.0596C292.212 76.8721 292.531 76.7725 292.859 76.7725C293.076 76.7717 293.291 76.8157 293.493 76.9014C293.693 76.9871 293.875 77.1123 294.029 77.2705C294.183 77.4287 294.305 77.6169 294.388 77.8235C294.471 78.03 294.514 78.2519 294.514 78.4753Z" fill="#A2BADD"/>
<path d="M305.748 78.4753C305.748 78.813 305.651 79.1426 305.47 79.4223C305.288 79.7028 305.03 79.9218 304.727 80.0507C304.425 80.1796 304.092 80.2133 303.771 80.1481C303.45 80.0822 303.155 79.9204 302.924 79.6816C302.692 79.4436 302.534 79.1396 302.47 78.8093C302.406 78.4783 302.439 78.1355 302.564 77.8242C302.69 77.5129 302.902 77.2463 303.174 77.0596C303.446 76.8721 303.766 76.7725 304.093 76.7725C304.31 76.7717 304.526 76.8157 304.726 76.9014C304.927 76.9871 305.11 77.1123 305.264 77.2705C305.417 77.4287 305.539 77.6169 305.622 77.8235C305.705 78.03 305.748 78.2519 305.748 78.4753Z" fill="#A2BADD"/>
<path d="M1130.87 226.107C1130.87 226.409 1130.79 226.704 1130.62 226.954C1130.46 227.205 1130.23 227.4 1129.96 227.516C1129.69 227.631 1129.39 227.662 1129.11 227.602C1128.82 227.544 1128.55 227.399 1128.35 227.185C1128.14 226.972 1128 226.7 1127.94 226.404C1127.88 226.108 1127.91 225.802 1128.03 225.523C1128.14 225.245 1128.32 225.007 1128.57 224.839C1128.82 224.671 1129.1 224.582 1129.39 224.582C1129.78 224.582 1130.16 224.742 1130.44 225.029C1130.71 225.314 1130.87 225.703 1130.87 226.107Z" fill="#A2BADD"/>
<path d="M1139.44 227.632C1140.26 227.632 1140.92 226.949 1140.92 226.107C1140.92 225.265 1140.26 224.582 1139.44 224.582C1138.63 224.582 1137.96 225.265 1137.96 226.107C1137.96 226.949 1138.63 227.632 1139.44 227.632Z" fill="#A2BADD"/>
<path d="M1150.98 226.107C1150.98 226.409 1150.89 226.704 1150.73 226.954C1150.56 227.206 1150.34 227.4 1150.07 227.516C1149.8 227.632 1149.5 227.662 1149.21 227.602C1148.92 227.544 1148.66 227.398 1148.45 227.185C1148.24 226.972 1148.1 226.7 1148.05 226.404C1147.99 226.108 1148.02 225.801 1148.13 225.523C1148.24 225.244 1148.43 225.006 1148.68 224.838C1148.92 224.671 1149.21 224.582 1149.5 224.582C1149.7 224.582 1149.89 224.622 1150.07 224.698C1150.24 224.775 1150.41 224.887 1150.54 225.029C1150.69 225.17 1150.79 225.339 1150.87 225.523C1150.94 225.708 1150.98 225.907 1150.98 226.107Z" fill="#A2BADD"/>
<path d="M1161.03 226.107C1161.03 226.409 1160.94 226.704 1160.78 226.954C1160.62 227.205 1160.39 227.4 1160.12 227.516C1159.85 227.631 1159.55 227.662 1159.27 227.602C1158.97 227.544 1158.71 227.399 1158.5 227.185C1158.3 226.972 1158.16 226.7 1158.1 226.404C1158.04 226.108 1158.07 225.802 1158.18 225.523C1158.3 225.245 1158.48 225.007 1158.73 224.839C1158.97 224.671 1159.26 224.582 1159.55 224.582C1159.75 224.582 1159.94 224.622 1160.12 224.698C1160.3 224.775 1160.46 224.887 1160.6 225.029C1160.74 225.17 1160.84 225.339 1160.92 225.523C1160.99 225.708 1161.03 225.907 1161.03 226.107Z" fill="#A2BADD"/>
<path d="M1169.6 227.632C1170.42 227.632 1171.09 226.949 1171.09 226.107C1171.09 225.265 1170.42 224.582 1169.6 224.582C1168.78 224.582 1168.12 225.265 1168.12 226.107C1168.12 226.949 1168.78 227.632 1169.6 227.632Z" fill="#A2BADD"/>
<path d="M1181.14 226.107C1181.14 226.409 1181.05 226.704 1180.89 226.954C1180.73 227.205 1180.5 227.4 1180.23 227.516C1179.95 227.631 1179.66 227.662 1179.37 227.602C1179.08 227.544 1178.82 227.399 1178.61 227.185C1178.4 226.972 1178.26 226.7 1178.2 226.404C1178.15 226.108 1178.18 225.802 1178.29 225.523C1178.4 225.245 1178.6 225.007 1178.84 224.839C1179.08 224.671 1179.36 224.582 1179.66 224.582C1180.05 224.582 1180.43 224.742 1180.71 225.029C1180.99 225.314 1181.14 225.703 1181.14 226.107Z" fill="#A2BADD"/>
<path d="M1191.2 226.107C1191.2 226.409 1191.1 226.704 1190.95 226.954C1190.78 227.205 1190.55 227.4 1190.28 227.516C1190.01 227.631 1189.71 227.662 1189.42 227.602C1189.14 227.544 1188.87 227.399 1188.66 227.185C1188.46 226.972 1188.31 226.7 1188.26 226.404C1188.2 226.108 1188.23 225.802 1188.34 225.523C1188.46 225.245 1188.65 225.007 1188.89 224.839C1189.13 224.671 1189.42 224.582 1189.72 224.582C1190.11 224.582 1190.48 224.742 1190.76 225.029C1191.04 225.314 1191.2 225.703 1191.2 226.107Z" fill="#A2BADD"/>
<path d="M1140.92 236.46C1140.92 236.761 1140.84 237.056 1140.67 237.307C1140.51 237.558 1140.28 237.754 1140.01 237.869C1139.74 237.984 1139.44 238.014 1139.16 237.956C1138.87 237.897 1138.6 237.751 1138.4 237.538C1138.19 237.325 1138.05 237.053 1137.99 236.758C1137.94 236.462 1137.96 236.155 1138.08 235.876C1138.19 235.597 1138.38 235.359 1138.63 235.192C1138.87 235.025 1139.15 234.935 1139.44 234.935C1139.84 234.935 1140.21 235.096 1140.49 235.382C1140.77 235.668 1140.92 236.056 1140.92 236.46Z" fill="#A2BADD"/>
<path d="M1150.98 236.46C1150.98 236.762 1150.89 237.056 1150.73 237.308C1150.56 237.558 1150.34 237.754 1150.07 237.869C1149.8 237.984 1149.5 238.014 1149.21 237.956C1148.92 237.896 1148.66 237.751 1148.45 237.538C1148.24 237.324 1148.1 237.053 1148.05 236.757C1147.99 236.461 1148.02 236.155 1148.13 235.876C1148.24 235.597 1148.43 235.359 1148.68 235.192C1148.92 235.024 1149.21 234.935 1149.5 234.935C1149.9 234.935 1150.27 235.096 1150.54 235.382C1150.82 235.668 1150.98 236.056 1150.98 236.46Z" fill="#A2BADD"/>
<path d="M1161.03 236.46C1161.03 236.761 1160.94 237.056 1160.78 237.307C1160.62 237.558 1160.39 237.754 1160.12 237.869C1159.85 237.984 1159.55 238.014 1159.27 237.956C1158.97 237.897 1158.71 237.751 1158.5 237.538C1158.3 237.325 1158.16 237.053 1158.1 236.758C1158.04 236.462 1158.07 236.155 1158.18 235.876C1158.3 235.597 1158.48 235.359 1158.73 235.192C1158.97 235.025 1159.26 234.935 1159.55 234.935C1159.94 234.935 1160.32 235.096 1160.6 235.381C1160.88 235.668 1161.03 236.055 1161.03 236.46Z" fill="#A2BADD"/>
<path d="M1171.09 236.46C1171.09 236.761 1171 237.056 1170.83 237.307C1170.68 237.558 1170.44 237.754 1170.17 237.869C1169.9 237.984 1169.6 238.014 1169.32 237.956C1169.03 237.897 1168.76 237.751 1168.56 237.538C1168.35 237.325 1168.21 237.053 1168.15 236.758C1168.09 236.462 1168.12 236.155 1168.24 235.876C1168.35 235.597 1168.54 235.359 1168.78 235.192C1169.03 235.025 1169.31 234.935 1169.6 234.935C1170 234.935 1170.38 235.096 1170.66 235.381C1170.93 235.668 1171.09 236.055 1171.09 236.46Z" fill="#A2BADD"/>
<path d="M1181.14 236.46C1181.14 236.761 1181.05 237.056 1180.89 237.307C1180.73 237.558 1180.5 237.754 1180.23 237.869C1179.95 237.984 1179.66 238.014 1179.37 237.956C1179.08 237.897 1178.82 237.751 1178.61 237.538C1178.4 237.325 1178.26 237.053 1178.2 236.758C1178.15 236.462 1178.18 236.155 1178.29 235.876C1178.4 235.597 1178.6 235.359 1178.84 235.192C1179.08 235.025 1179.36 234.935 1179.66 234.935C1180.05 234.935 1180.43 235.096 1180.71 235.382C1180.99 235.668 1181.14 236.056 1181.14 236.46Z" fill="#A2BADD"/>
<path d="M1191.2 236.46C1191.2 236.761 1191.1 237.056 1190.95 237.307C1190.78 237.558 1190.55 237.754 1190.28 237.869C1190.01 237.984 1189.71 238.014 1189.42 237.956C1189.14 237.897 1188.87 237.751 1188.66 237.538C1188.46 237.325 1188.31 237.053 1188.26 236.758C1188.2 236.462 1188.23 236.155 1188.34 235.876C1188.46 235.597 1188.65 235.359 1188.89 235.192C1189.13 235.025 1189.42 234.935 1189.72 234.935C1190.11 234.935 1190.48 235.096 1190.76 235.382C1191.04 235.668 1191.2 236.056 1191.2 236.46Z" fill="#A2BADD"/>
<path d="M1201.25 236.46C1201.25 236.762 1201.16 237.056 1201 237.308C1200.84 237.558 1200.6 237.754 1200.33 237.869C1200.06 237.984 1199.76 238.014 1199.48 237.956C1199.19 237.896 1198.92 237.751 1198.72 237.538C1198.51 237.324 1198.37 237.053 1198.31 236.757C1198.25 236.461 1198.29 236.155 1198.4 235.876C1198.51 235.597 1198.7 235.359 1198.94 235.192C1199.19 235.024 1199.47 234.935 1199.77 234.935C1200.16 234.935 1200.54 235.096 1200.81 235.382C1201.09 235.668 1201.25 236.056 1201.25 236.46Z" fill="#A2BADD"/>
<path d="M1203.78 638.265C1203.78 639.108 1203.54 639.932 1203.08 640.632C1202.63 641.333 1201.98 641.88 1201.22 642.202C1200.47 642.524 1199.63 642.608 1198.83 642.444C1198.03 642.279 1197.29 641.873 1196.71 641.277C1196.13 640.68 1195.74 639.921 1195.58 639.094C1195.42 638.267 1195.5 637.41 1195.81 636.631C1196.13 635.851 1196.66 635.186 1197.34 634.718C1198.02 634.249 1198.82 633.999 1199.64 633.999C1200.18 633.999 1200.72 634.11 1201.23 634.323C1201.73 634.538 1202.18 634.852 1202.56 635.249C1202.96 635.645 1203.25 636.115 1203.47 636.632C1203.67 637.15 1203.78 637.704 1203.78 638.265Z" stroke="#DFEAFC" stroke-miterlimit="10"/>
<path d="M1231.9 638.265C1231.9 639.108 1231.66 639.932 1231.2 640.634C1230.75 641.336 1230.1 641.882 1229.34 642.205C1228.58 642.528 1227.75 642.612 1226.95 642.447C1226.14 642.283 1225.4 641.877 1224.83 641.28C1224.24 640.684 1223.85 639.923 1223.7 639.097C1223.53 638.269 1223.62 637.411 1223.93 636.632C1224.24 635.853 1224.77 635.186 1225.45 634.718C1226.14 634.25 1226.93 633.999 1227.76 633.999C1228.85 633.999 1229.91 634.449 1230.68 635.249C1231.46 636.048 1231.9 637.133 1231.9 638.265Z" stroke="#DFEAFC" stroke-miterlimit="10"/>
<path d="M1260.01 638.265C1260.01 639.108 1259.77 639.932 1259.31 640.634C1258.86 641.336 1258.21 641.882 1257.45 642.205C1256.7 642.528 1255.86 642.612 1255.06 642.447C1254.26 642.283 1253.52 641.877 1252.94 641.28C1252.36 640.684 1251.97 639.923 1251.8 639.097C1251.65 638.269 1251.73 637.411 1252.04 636.632C1252.35 635.853 1252.89 635.186 1253.57 634.718C1254.25 634.25 1255.05 633.999 1255.87 633.999C1256.42 633.999 1256.95 634.109 1257.45 634.323C1257.96 634.537 1258.41 634.852 1258.8 635.248C1259.18 635.644 1259.49 636.114 1259.69 636.632C1259.9 637.149 1260.01 637.704 1260.01 638.265Z" stroke="#DFEAFC" stroke-miterlimit="10"/>
<path d="M1203.78 667.215C1203.78 668.059 1203.54 668.883 1203.08 669.584C1202.63 670.285 1201.98 670.831 1201.22 671.153C1200.47 671.475 1199.63 671.56 1198.83 671.395C1198.03 671.23 1197.29 670.824 1196.71 670.227C1196.13 669.631 1195.74 668.872 1195.58 668.045C1195.42 667.218 1195.5 666.36 1195.81 665.582C1196.13 664.802 1196.66 664.137 1197.34 663.669C1198.02 663.2 1198.82 662.95 1199.64 662.95C1200.18 662.95 1200.72 663.06 1201.23 663.275C1201.73 663.489 1202.18 663.803 1202.56 664.2C1202.96 664.595 1203.25 665.065 1203.47 665.583C1203.67 666.1 1203.78 666.655 1203.78 667.215Z" stroke="#DFEAFC" stroke-miterlimit="10"/>
<path d="M1231.9 667.215C1231.9 668.059 1231.66 668.883 1231.2 669.585C1230.75 670.286 1230.1 670.833 1229.34 671.156C1228.58 671.478 1227.75 671.563 1226.95 671.399C1226.14 671.234 1225.4 670.828 1224.83 670.231C1224.24 669.635 1223.85 668.875 1223.7 668.047C1223.53 667.22 1223.62 666.363 1223.93 665.583C1224.24 664.804 1224.77 664.137 1225.45 663.669C1226.14 663.2 1226.93 662.95 1227.76 662.95C1228.85 662.95 1229.91 663.399 1230.68 664.199C1231.46 664.999 1231.9 666.084 1231.9 667.215Z" stroke="#DFEAFC" stroke-miterlimit="10"/>
<path d="M1260.01 667.215C1260.01 668.059 1259.77 668.883 1259.31 669.585C1258.86 670.286 1258.21 670.833 1257.45 671.156C1256.7 671.478 1255.86 671.563 1255.06 671.399C1254.26 671.234 1253.52 670.828 1252.94 670.231C1252.36 669.635 1251.97 668.875 1251.8 668.047C1251.65 667.22 1251.73 666.363 1252.04 665.583C1252.35 664.804 1252.89 664.137 1253.57 663.669C1254.25 663.2 1255.05 662.95 1255.87 662.95C1256.42 662.95 1256.95 663.06 1257.45 663.274C1257.96 663.489 1258.41 663.803 1258.8 664.199C1259.18 664.595 1259.49 665.065 1259.69 665.582C1259.9 666.1 1260.01 666.655 1260.01 667.215Z" stroke="#DFEAFC" stroke-miterlimit="10"/>
<path d="M177.326 560.672C177.892 560.672 178.351 560.199 178.351 559.616C178.351 559.033 177.892 558.561 177.326 558.561C176.76 558.561 176.302 559.033 176.302 559.616C176.302 560.199 176.76 560.672 177.326 560.672Z" fill="#4181E0"/>
<path d="M190.689 560.672C191.255 560.672 191.714 560.199 191.714 559.616C191.714 559.033 191.255 558.561 190.689 558.561C190.124 558.561 189.665 559.033 189.665 559.616C189.665 560.199 190.124 560.672 190.689 560.672Z" fill="#4181E0"/>
<path d="M177.326 574.316C177.892 574.316 178.351 573.843 178.351 573.26C178.351 572.677 177.892 572.205 177.326 572.205C176.76 572.205 176.302 572.677 176.302 573.26C176.302 573.843 176.76 574.316 177.326 574.316Z" fill="#4181E0"/>
<path d="M190.689 574.316C191.255 574.316 191.714 573.843 191.714 573.26C191.714 572.677 191.255 572.205 190.689 572.205C190.124 572.205 189.665 572.677 189.665 573.26C189.665 573.843 190.124 574.316 190.689 574.316Z" fill="#4181E0"/>
<path d="M178.351 586.904C178.351 587.113 178.29 587.317 178.178 587.49C178.065 587.664 177.905 587.8 177.718 587.879C177.531 587.959 177.325 587.98 177.126 587.939C176.927 587.898 176.745 587.798 176.602 587.651C176.458 587.503 176.361 587.315 176.321 587.11C176.282 586.905 176.302 586.694 176.379 586.5C176.457 586.308 176.588 586.143 176.757 586.027C176.925 585.911 177.123 585.849 177.326 585.849C177.598 585.849 177.858 585.96 178.05 586.158C178.243 586.356 178.351 586.625 178.351 586.904Z" fill="#4181E0"/>
<path d="M191.714 586.904C191.714 587.113 191.653 587.317 191.541 587.49C191.428 587.664 191.268 587.8 191.081 587.879C190.894 587.959 190.688 587.98 190.489 587.939C190.29 587.898 190.108 587.798 189.965 587.651C189.821 587.503 189.724 587.315 189.684 587.11C189.645 586.905 189.665 586.694 189.743 586.5C189.82 586.308 189.951 586.143 190.12 586.027C190.288 585.911 190.486 585.849 190.689 585.849C190.824 585.849 190.957 585.876 191.081 585.93C191.205 585.982 191.318 586.06 191.413 586.158C191.509 586.256 191.584 586.373 191.636 586.5C191.687 586.628 191.714 586.766 191.714 586.904Z" fill="#4181E0"/>
<path d="M178.351 600.549C178.35 600.758 178.29 600.961 178.178 601.135C178.065 601.309 177.905 601.444 177.718 601.524C177.531 601.604 177.325 601.624 177.126 601.583C176.927 601.543 176.745 601.442 176.601 601.295C176.458 601.147 176.361 600.959 176.321 600.754C176.282 600.55 176.302 600.337 176.38 600.145C176.457 599.952 176.588 599.787 176.757 599.671C176.925 599.555 177.123 599.494 177.326 599.494C177.598 599.494 177.858 599.605 178.05 599.803C178.243 600 178.351 600.269 178.351 600.549Z" fill="#4181E0"/>
<path d="M191.714 600.549C191.714 600.758 191.653 600.961 191.541 601.135C191.428 601.309 191.268 601.444 191.081 601.524C190.894 601.604 190.688 601.624 190.489 601.583C190.29 601.543 190.108 601.442 189.964 601.295C189.821 601.147 189.724 600.959 189.684 600.754C189.645 600.55 189.665 600.337 189.743 600.145C189.82 599.952 189.951 599.787 190.12 599.671C190.288 599.555 190.486 599.494 190.689 599.494C190.824 599.494 190.957 599.521 191.081 599.573C191.206 599.627 191.318 599.705 191.414 599.803C191.509 599.901 191.584 600.017 191.636 600.145C191.687 600.273 191.714 600.411 191.714 600.549Z" fill="#4181E0"/>
<path d="M202.454 560.672C203.02 560.672 203.479 560.199 203.479 559.616C203.479 559.033 203.02 558.561 202.454 558.561C201.888 558.561 201.43 559.033 201.43 559.616C201.43 560.199 201.888 560.672 202.454 560.672Z" fill="#4181E0"/>
<path d="M215.818 560.672C216.383 560.672 216.842 560.199 216.842 559.616C216.842 559.033 216.383 558.561 215.818 558.561C215.252 558.561 214.793 559.033 214.793 559.616C214.793 560.199 215.252 560.672 215.818 560.672Z" fill="#4181E0"/>
<path d="M229.181 560.672C229.747 560.672 230.205 560.199 230.205 559.616C230.205 559.033 229.747 558.561 229.181 558.561C228.615 558.561 228.156 559.033 228.156 559.616C228.156 560.199 228.615 560.672 229.181 560.672Z" fill="#4181E0"/>
<path d="M242.544 560.672C243.11 560.672 243.569 560.199 243.569 559.616C243.569 559.033 243.11 558.561 242.544 558.561C241.979 558.561 241.52 559.033 241.52 559.616C241.52 560.199 241.979 560.672 242.544 560.672Z" fill="#4181E0"/>
<path d="M202.454 574.316C203.02 574.316 203.479 573.843 203.479 573.26C203.479 572.677 203.02 572.205 202.454 572.205C201.888 572.205 201.43 572.677 201.43 573.26C201.43 573.843 201.888 574.316 202.454 574.316Z" fill="#4181E0"/>
<path d="M215.818 574.316C216.383 574.316 216.842 573.843 216.842 573.26C216.842 572.677 216.383 572.205 215.818 572.205C215.252 572.205 214.793 572.677 214.793 573.26C214.793 573.843 215.252 574.316 215.818 574.316Z" fill="#4181E0"/>
<path d="M229.181 574.316C229.747 574.316 230.205 573.843 230.205 573.26C230.205 572.677 229.747 572.205 229.181 572.205C228.615 572.205 228.156 572.677 228.156 573.26C228.156 573.843 228.615 574.316 229.181 574.316Z" fill="#4181E0"/>
<path d="M242.544 574.316C243.11 574.316 243.569 573.843 243.569 573.26C243.569 572.677 243.11 572.205 242.544 572.205C241.979 572.205 241.52 572.677 241.52 573.26C241.52 573.843 241.979 574.316 242.544 574.316Z" fill="#4181E0"/>
<path d="M203.479 586.904C203.479 587.113 203.419 587.317 203.306 587.49C203.193 587.664 203.033 587.8 202.846 587.879C202.659 587.959 202.453 587.98 202.254 587.939C202.056 587.898 201.873 587.798 201.73 587.651C201.586 587.503 201.489 587.315 201.449 587.11C201.41 586.905 201.43 586.694 201.508 586.5C201.585 586.308 201.716 586.143 201.885 586.027C202.053 585.911 202.252 585.849 202.454 585.849C202.726 585.849 202.987 585.96 203.179 586.158C203.371 586.356 203.479 586.625 203.479 586.904Z" fill="#4181E0"/>
<path d="M216.842 586.904C216.842 587.113 216.782 587.317 216.669 587.49C216.557 587.664 216.397 587.8 216.21 587.879C216.022 587.959 215.816 587.98 215.618 587.939C215.419 587.898 215.236 587.798 215.093 587.651C214.95 587.503 214.852 587.315 214.813 587.11C214.773 586.905 214.793 586.694 214.871 586.5C214.949 586.308 215.08 586.143 215.248 586.027C215.417 585.911 215.615 585.849 215.817 585.849C216.089 585.849 216.35 585.96 216.542 586.158C216.734 586.356 216.842 586.625 216.842 586.904Z" fill="#4181E0"/>
<path d="M230.205 586.904C230.205 587.113 230.145 587.317 230.033 587.49C229.92 587.664 229.76 587.8 229.573 587.879C229.386 587.959 229.18 587.98 228.981 587.939C228.782 587.898 228.6 587.798 228.456 587.651C228.313 587.503 228.215 587.315 228.176 587.11C228.136 586.905 228.157 586.694 228.234 586.5C228.312 586.308 228.443 586.143 228.612 586.027C228.78 585.911 228.978 585.849 229.181 585.849C229.452 585.849 229.713 585.96 229.905 586.158C230.097 586.356 230.205 586.625 230.205 586.904Z" fill="#4181E0"/>
<path d="M243.568 586.904C243.568 587.113 243.508 587.317 243.396 587.49C243.283 587.664 243.123 587.8 242.936 587.879C242.748 587.959 242.543 587.98 242.344 587.939C242.145 587.898 241.963 587.798 241.819 587.651C241.676 587.503 241.578 587.315 241.539 587.11C241.499 586.905 241.52 586.694 241.597 586.5C241.675 586.308 241.806 586.143 241.975 586.027C242.143 585.911 242.341 585.849 242.544 585.849C242.678 585.849 242.812 585.876 242.936 585.93C243.06 585.982 243.173 586.06 243.269 586.158C243.363 586.256 243.439 586.373 243.491 586.5C243.542 586.628 243.568 586.766 243.568 586.904Z" fill="#4181E0"/>
<path d="M203.479 600.549C203.479 600.758 203.418 600.961 203.306 601.135C203.193 601.309 203.033 601.444 202.846 601.524C202.659 601.604 202.453 601.624 202.254 601.583C202.055 601.543 201.873 601.442 201.73 601.295C201.586 601.147 201.489 600.959 201.449 600.754C201.41 600.55 201.43 600.337 201.508 600.145C201.585 599.952 201.717 599.787 201.885 599.671C202.054 599.555 202.252 599.494 202.454 599.494C202.589 599.494 202.722 599.521 202.846 599.573C202.971 599.627 203.084 599.705 203.179 599.803C203.274 599.901 203.349 600.017 203.401 600.145C203.452 600.273 203.479 600.411 203.479 600.549Z" fill="#4181E0"/>
<path d="M216.842 600.549C216.842 600.758 216.782 600.961 216.669 601.135C216.556 601.309 216.396 601.444 216.209 601.524C216.022 601.604 215.816 601.624 215.617 601.583C215.419 601.543 215.236 601.442 215.093 601.295C214.95 601.147 214.852 600.959 214.813 600.754C214.773 600.55 214.793 600.337 214.871 600.145C214.949 599.952 215.08 599.787 215.248 599.671C215.417 599.555 215.615 599.494 215.817 599.494C215.952 599.494 216.085 599.521 216.21 599.573C216.334 599.627 216.447 599.705 216.542 599.803C216.637 599.901 216.713 600.017 216.764 600.145C216.816 600.273 216.842 600.411 216.842 600.549Z" fill="#4181E0"/>
<path d="M230.205 600.549C230.205 600.758 230.145 600.961 230.032 601.135C229.92 601.309 229.76 601.444 229.572 601.524C229.385 601.604 229.179 601.624 228.981 601.583C228.782 601.543 228.599 601.442 228.456 601.295C228.313 601.147 228.215 600.959 228.176 600.754C228.136 600.55 228.157 600.337 228.234 600.145C228.312 599.952 228.443 599.787 228.612 599.671C228.78 599.555 228.978 599.494 229.181 599.494C229.453 599.494 229.713 599.605 229.905 599.803C230.097 600 230.205 600.269 230.205 600.549Z" fill="#4181E0"/>
<path d="M243.568 600.549C243.568 600.758 243.508 600.961 243.395 601.135C243.283 601.309 243.123 601.444 242.936 601.524C242.748 601.604 242.542 601.624 242.344 601.583C242.145 601.543 241.962 601.442 241.819 601.295C241.676 601.147 241.578 600.959 241.539 600.754C241.499 600.55 241.52 600.337 241.597 600.145C241.675 599.952 241.806 599.787 241.975 599.671C242.143 599.555 242.342 599.494 242.544 599.494C242.678 599.494 242.812 599.521 242.936 599.573C243.06 599.627 243.173 599.705 243.269 599.803C243.364 599.901 243.439 600.017 243.491 600.145C243.542 600.273 243.568 600.411 243.568 600.549Z" fill="#4181E0"/>
<path d="M202.454 614.222C203.02 614.222 203.479 613.749 203.479 613.166C203.479 612.583 203.02 612.111 202.454 612.111C201.888 612.111 201.43 612.583 201.43 613.166C201.43 613.749 201.888 614.222 202.454 614.222Z" fill="#4181E0"/>
<path d="M215.818 614.222C216.383 614.222 216.842 613.749 216.842 613.166C216.842 612.583 216.383 612.111 215.818 612.111C215.252 612.111 214.793 612.583 214.793 613.166C214.793 613.749 215.252 614.222 215.818 614.222Z" fill="#4181E0"/>
<path d="M229.181 614.222C229.747 614.222 230.205 613.749 230.205 613.166C230.205 612.583 229.747 612.111 229.181 612.111C228.615 612.111 228.156 612.583 228.156 613.166C228.156 613.749 228.615 614.222 229.181 614.222Z" fill="#4181E0"/>
<path d="M242.544 614.222C243.11 614.222 243.569 613.749 243.569 613.166C243.569 612.583 243.11 612.111 242.544 612.111C241.979 612.111 241.52 612.583 241.52 613.166C241.52 613.749 241.979 614.222 242.544 614.222Z" fill="#4181E0"/>
<path d="M202.454 627.866C203.02 627.866 203.479 627.393 203.479 626.81C203.479 626.227 203.02 625.755 202.454 625.755C201.888 625.755 201.43 626.227 201.43 626.81C201.43 627.393 201.888 627.866 202.454 627.866Z" fill="#4181E0"/>
<path d="M215.818 627.866C216.383 627.866 216.842 627.393 216.842 626.81C216.842 626.227 216.383 625.755 215.818 625.755C215.252 625.755 214.793 626.227 214.793 626.81C214.793 627.393 215.252 627.866 215.818 627.866Z" fill="#4181E0"/>
<path d="M229.181 627.866C229.747 627.866 230.205 627.393 230.205 626.81C230.205 626.227 229.747 625.755 229.181 625.755C228.615 625.755 228.156 626.227 228.156 626.81C228.156 627.393 228.615 627.866 229.181 627.866Z" fill="#4181E0"/>
<path d="M242.544 627.866C243.11 627.866 243.569 627.393 243.569 626.81C243.569 626.227 243.11 625.755 242.544 625.755C241.979 625.755 241.52 626.227 241.52 626.81C241.52 627.393 241.979 627.866 242.544 627.866Z" fill="#4181E0"/>
<path d="M203.479 640.454C203.479 640.663 203.419 640.867 203.306 641.041C203.194 641.215 203.034 641.349 202.846 641.429C202.659 641.509 202.453 641.53 202.254 641.489C202.056 641.449 201.873 641.348 201.73 641.201C201.586 641.053 201.489 640.865 201.449 640.66C201.41 640.456 201.43 640.243 201.508 640.051C201.585 639.858 201.717 639.693 201.885 639.577C202.053 639.461 202.252 639.399 202.454 639.399C202.726 639.399 202.987 639.51 203.179 639.708C203.371 639.906 203.479 640.175 203.479 640.454Z" fill="#4181E0"/>
<path d="M216.842 640.454C216.842 640.663 216.782 640.867 216.669 641.041C216.557 641.215 216.397 641.349 216.21 641.429C216.022 641.509 215.816 641.53 215.618 641.489C215.419 641.449 215.236 641.348 215.093 641.201C214.95 641.053 214.852 640.865 214.813 640.66C214.773 640.456 214.793 640.243 214.871 640.051C214.948 639.858 215.08 639.693 215.248 639.577C215.417 639.461 215.615 639.399 215.818 639.399C216.089 639.399 216.35 639.51 216.542 639.708C216.734 639.906 216.842 640.175 216.842 640.454Z" fill="#4181E0"/>
<path d="M230.205 640.454C230.205 640.663 230.145 640.867 230.033 641.041C229.92 641.215 229.76 641.349 229.573 641.429C229.386 641.509 229.18 641.53 228.981 641.489C228.782 641.449 228.6 641.348 228.456 641.201C228.313 641.053 228.215 640.865 228.176 640.66C228.136 640.456 228.157 640.243 228.234 640.051C228.312 639.858 228.443 639.693 228.612 639.577C228.78 639.461 228.978 639.399 229.181 639.399C229.452 639.399 229.713 639.51 229.905 639.708C230.097 639.906 230.205 640.175 230.205 640.454Z" fill="#4181E0"/>
<path d="M243.568 640.454C243.568 640.663 243.508 640.867 243.396 641.041C243.283 641.215 243.123 641.349 242.936 641.429C242.748 641.509 242.543 641.53 242.344 641.489C242.145 641.449 241.963 641.348 241.819 641.201C241.676 641.053 241.579 640.865 241.539 640.66C241.499 640.456 241.52 640.243 241.597 640.051C241.675 639.858 241.806 639.693 241.975 639.577C242.143 639.461 242.341 639.399 242.544 639.399C242.678 639.399 242.812 639.427 242.936 639.479C243.06 639.532 243.173 639.611 243.269 639.708C243.363 639.806 243.439 639.923 243.491 640.051C243.542 640.179 243.568 640.316 243.568 640.454Z" fill="#4181E0"/>
<path d="M203.479 654.099C203.479 654.308 203.418 654.512 203.306 654.686C203.193 654.86 203.033 654.994 202.846 655.074C202.659 655.154 202.453 655.175 202.254 655.134C202.055 655.093 201.873 654.993 201.73 654.845C201.586 654.698 201.489 654.51 201.449 654.305C201.41 654.1 201.43 653.888 201.508 653.695C201.585 653.502 201.717 653.338 201.885 653.222C202.054 653.106 202.252 653.044 202.454 653.044C202.589 653.044 202.722 653.071 202.846 653.125C202.971 653.177 203.084 653.255 203.179 653.353C203.274 653.451 203.349 653.568 203.401 653.696C203.452 653.824 203.479 653.961 203.479 654.099Z" fill="#4181E0"/>
<path d="M216.842 654.099C216.842 654.308 216.782 654.512 216.669 654.686C216.556 654.86 216.396 654.994 216.209 655.074C216.022 655.154 215.816 655.175 215.617 655.134C215.419 655.093 215.236 654.993 215.093 654.845C214.95 654.698 214.852 654.51 214.813 654.305C214.773 654.1 214.793 653.888 214.871 653.695C214.949 653.502 215.08 653.338 215.248 653.222C215.417 653.106 215.615 653.044 215.818 653.044C215.952 653.044 216.085 653.071 216.21 653.125C216.334 653.177 216.447 653.255 216.542 653.353C216.637 653.451 216.713 653.568 216.764 653.696C216.816 653.824 216.842 653.961 216.842 654.099Z" fill="#4181E0"/>
<path d="M230.205 654.099C230.205 654.308 230.145 654.512 230.032 654.686C229.92 654.86 229.76 654.994 229.573 655.074C229.385 655.154 229.179 655.175 228.981 655.134C228.782 655.093 228.599 654.993 228.456 654.845C228.313 654.698 228.215 654.51 228.176 654.305C228.136 654.1 228.157 653.888 228.234 653.695C228.312 653.502 228.443 653.338 228.612 653.222C228.78 653.106 228.978 653.044 229.181 653.044C229.453 653.044 229.713 653.155 229.905 653.353C230.097 653.552 230.205 653.82 230.205 654.099Z" fill="#4181E0"/>
<path d="M243.568 654.099C243.568 654.308 243.508 654.512 243.395 654.686C243.283 654.86 243.123 654.994 242.936 655.074C242.748 655.154 242.542 655.175 242.344 655.134C242.145 655.093 241.962 654.993 241.819 654.845C241.676 654.698 241.578 654.51 241.539 654.305C241.499 654.1 241.52 653.888 241.597 653.695C241.675 653.502 241.806 653.338 241.975 653.222C242.143 653.106 242.342 653.044 242.544 653.044C242.678 653.044 242.812 653.071 242.936 653.125C243.06 653.177 243.173 653.255 243.269 653.353C243.364 653.451 243.439 653.568 243.491 653.696C243.542 653.824 243.568 653.961 243.568 654.099Z" fill="#4181E0"/>
<path d="M177.326 614.222C177.892 614.222 178.351 613.749 178.351 613.166C178.351 612.583 177.892 612.111 177.326 612.111C176.76 612.111 176.302 612.583 176.302 613.166C176.302 613.749 176.76 614.222 177.326 614.222Z" fill="#4181E0"/>
<path d="M190.689 614.222C191.255 614.222 191.714 613.749 191.714 613.166C191.714 612.583 191.255 612.111 190.689 612.111C190.124 612.111 189.665 612.583 189.665 613.166C189.665 613.749 190.124 614.222 190.689 614.222Z" fill="#4181E0"/>
<path d="M177.326 627.866C177.892 627.866 178.351 627.393 178.351 626.81C178.351 626.227 177.892 625.755 177.326 625.755C176.76 625.755 176.302 626.227 176.302 626.81C176.302 627.393 176.76 627.866 177.326 627.866Z" fill="#4181E0"/>
<path d="M190.689 627.866C191.255 627.866 191.714 627.393 191.714 626.81C191.714 626.227 191.255 625.755 190.689 625.755C190.124 625.755 189.665 626.227 189.665 626.81C189.665 627.393 190.124 627.866 190.689 627.866Z" fill="#4181E0"/>
<path d="M178.351 640.454C178.351 640.663 178.29 640.867 178.178 641.041C178.065 641.215 177.905 641.349 177.718 641.429C177.531 641.509 177.325 641.53 177.126 641.489C176.927 641.449 176.745 641.348 176.602 641.201C176.458 641.053 176.361 640.865 176.321 640.66C176.282 640.456 176.302 640.243 176.379 640.051C176.457 639.858 176.588 639.693 176.757 639.577C176.925 639.461 177.123 639.399 177.326 639.399C177.598 639.399 177.858 639.51 178.05 639.708C178.243 639.906 178.351 640.175 178.351 640.454Z" fill="#4181E0"/>
<path d="M191.714 640.454C191.714 640.663 191.653 640.867 191.541 641.041C191.428 641.215 191.268 641.349 191.081 641.429C190.894 641.509 190.688 641.53 190.489 641.489C190.29 641.449 190.108 641.348 189.965 641.201C189.821 641.053 189.724 640.865 189.684 640.66C189.645 640.456 189.665 640.243 189.743 640.051C189.82 639.858 189.951 639.693 190.12 639.577C190.288 639.461 190.486 639.399 190.689 639.399C190.824 639.399 190.957 639.427 191.081 639.479C191.205 639.532 191.318 639.611 191.413 639.708C191.509 639.806 191.584 639.923 191.636 640.051C191.687 640.179 191.714 640.316 191.714 640.454Z" fill="#4181E0"/>
<path d="M178.351 654.099C178.35 654.308 178.29 654.512 178.178 654.686C178.065 654.86 177.905 654.994 177.718 655.074C177.531 655.154 177.325 655.175 177.126 655.134C176.927 655.093 176.745 654.993 176.601 654.845C176.458 654.698 176.361 654.51 176.321 654.305C176.282 654.1 176.302 653.888 176.38 653.695C176.457 653.502 176.588 653.338 176.757 653.222C176.925 653.106 177.123 653.044 177.326 653.044C177.598 653.044 177.858 653.155 178.05 653.353C178.243 653.552 178.351 653.82 178.351 654.099Z" fill="#4181E0"/>
<path d="M191.714 654.099C191.714 654.308 191.653 654.512 191.541 654.686C191.428 654.86 191.268 654.994 191.081 655.074C190.894 655.154 190.688 655.175 190.489 655.134C190.29 655.093 190.108 654.993 189.964 654.845C189.821 654.698 189.724 654.51 189.684 654.305C189.645 654.1 189.665 653.888 189.743 653.695C189.82 653.502 189.951 653.338 190.12 653.222C190.288 653.106 190.486 653.044 190.689 653.044C190.824 653.044 190.957 653.071 191.081 653.125C191.206 653.177 191.318 653.255 191.414 653.353C191.509 653.451 191.584 653.568 191.636 653.696C191.687 653.824 191.714 653.961 191.714 654.099Z" fill="#4181E0"/>
<path d="M177.326 667.772C177.892 667.772 178.351 667.299 178.351 666.717C178.351 666.134 177.892 665.662 177.326 665.662C176.76 665.662 176.302 666.134 176.302 666.717C176.302 667.299 176.76 667.772 177.326 667.772Z" fill="#4181E0"/>
<path d="M190.689 667.772C191.255 667.772 191.714 667.299 191.714 666.717C191.714 666.134 191.255 665.662 190.689 665.662C190.124 665.662 189.665 666.134 189.665 666.717C189.665 667.299 190.124 667.772 190.689 667.772Z" fill="#4181E0"/>
<path d="M177.326 681.416C177.892 681.416 178.351 680.943 178.351 680.361C178.351 679.778 177.892 679.306 177.326 679.306C176.76 679.306 176.302 679.778 176.302 680.361C176.302 680.943 176.76 681.416 177.326 681.416Z" fill="#4181E0"/>
<path d="M190.689 681.416C191.255 681.416 191.714 680.943 191.714 680.361C191.714 679.778 191.255 679.306 190.689 679.306C190.124 679.306 189.665 679.778 189.665 680.361C189.665 680.943 190.124 681.416 190.689 681.416Z" fill="#4181E0"/>
<path d="M202.454 667.772C203.02 667.772 203.479 667.299 203.479 666.717C203.479 666.134 203.02 665.662 202.454 665.662C201.888 665.662 201.43 666.134 201.43 666.717C201.43 667.299 201.888 667.772 202.454 667.772Z" fill="#4181E0"/>
<path d="M215.818 667.772C216.383 667.772 216.842 667.299 216.842 666.717C216.842 666.134 216.383 665.662 215.818 665.662C215.252 665.662 214.793 666.134 214.793 666.717C214.793 667.299 215.252 667.772 215.818 667.772Z" fill="#4181E0"/>
<path d="M229.181 667.772C229.747 667.772 230.205 667.299 230.205 666.717C230.205 666.134 229.747 665.662 229.181 665.662C228.615 665.662 228.156 666.134 228.156 666.717C228.156 667.299 228.615 667.772 229.181 667.772Z" fill="#4181E0"/>
<path d="M242.544 667.772C243.11 667.772 243.569 667.299 243.569 666.717C243.569 666.134 243.11 665.662 242.544 665.662C241.979 665.662 241.52 666.134 241.52 666.717C241.52 667.299 241.979 667.772 242.544 667.772Z" fill="#4181E0"/>
<path d="M202.454 681.416C203.02 681.416 203.479 680.943 203.479 680.361C203.479 679.778 203.02 679.306 202.454 679.306C201.888 679.306 201.43 679.778 201.43 680.361C201.43 680.943 201.888 681.416 202.454 681.416Z" fill="#4181E0"/>
<path d="M215.818 681.416C216.383 681.416 216.842 680.943 216.842 680.361C216.842 679.778 216.383 679.306 215.818 679.306C215.252 679.306 214.793 679.778 214.793 680.361C214.793 680.943 215.252 681.416 215.818 681.416Z" fill="#4181E0"/>
<path d="M229.181 681.416C229.747 681.416 230.205 680.943 230.205 680.361C230.205 679.778 229.747 679.306 229.181 679.306C228.615 679.306 228.156 679.778 228.156 680.361C228.156 680.943 228.615 681.416 229.181 681.416Z" fill="#4181E0"/>
<path d="M242.544 681.416C243.11 681.416 243.569 680.943 243.569 680.361C243.569 679.778 243.11 679.306 242.544 679.306C241.979 679.306 241.52 679.778 241.52 680.361C241.52 680.943 241.979 681.416 242.544 681.416Z" fill="#4181E0"/>
<path d="M1484.96 227.671C1485.79 227.671 1486.46 226.98 1486.46 226.127C1486.46 225.273 1485.79 224.582 1484.96 224.582C1484.13 224.582 1483.46 225.273 1483.46 226.127C1483.46 226.98 1484.13 227.671 1484.96 227.671Z" fill="#4181E0" fill-opacity="0.34"/>
<path d="M1504.53 227.671C1505.36 227.671 1506.03 226.98 1506.03 226.127C1506.03 225.273 1505.36 224.582 1504.53 224.582C1503.7 224.582 1503.03 225.273 1503.03 226.127C1503.03 226.98 1503.7 227.671 1504.53 227.671Z" fill="#4181E0" fill-opacity="0.34"/>
<path d="M1524.1 227.671C1524.93 227.671 1525.6 226.98 1525.6 226.127C1525.6 225.273 1524.93 224.582 1524.1 224.582C1523.28 224.582 1522.6 225.273 1522.6 226.127C1522.6 226.98 1523.28 227.671 1524.1 227.671Z" fill="#4181E0" fill-opacity="0.34"/>
<path d="M1484.96 247.643C1485.79 247.643 1486.46 246.952 1486.46 246.099C1486.46 245.246 1485.79 244.554 1484.96 244.554C1484.13 244.554 1483.46 245.246 1483.46 246.099C1483.46 246.952 1484.13 247.643 1484.96 247.643Z" fill="#4181E0" fill-opacity="0.34"/>
<path d="M1504.53 247.643C1505.36 247.643 1506.03 246.952 1506.03 246.099C1506.03 245.246 1505.36 244.554 1504.53 244.554C1503.7 244.554 1503.03 245.246 1503.03 246.099C1503.03 246.952 1503.7 247.643 1504.53 247.643Z" fill="#4181E0" fill-opacity="0.34"/>
<path d="M1524.1 247.643C1524.93 247.643 1525.6 246.952 1525.6 246.099C1525.6 245.246 1524.93 244.554 1524.1 244.554C1523.28 244.554 1522.6 245.246 1522.6 246.099C1522.6 246.952 1523.28 247.643 1524.1 247.643Z" fill="#4181E0" fill-opacity="0.34"/>
<path d="M1486.46 266.071C1486.46 266.376 1486.37 266.675 1486.21 266.929C1486.05 267.184 1485.81 267.381 1485.53 267.498C1485.26 267.615 1484.96 267.646 1484.66 267.586C1484.37 267.526 1484.11 267.379 1483.9 267.163C1483.69 266.947 1483.55 266.672 1483.49 266.372C1483.43 266.073 1483.46 265.762 1483.58 265.48C1483.69 265.198 1483.88 264.956 1484.12 264.786C1484.37 264.617 1484.66 264.526 1484.96 264.526C1485.36 264.526 1485.74 264.689 1486.02 264.979C1486.3 265.268 1486.46 265.662 1486.46 266.071Z" fill="#4181E0" fill-opacity="0.34"/>
<path d="M1506.03 266.071C1506.03 266.376 1505.94 266.675 1505.78 266.929C1505.61 267.184 1505.38 267.381 1505.11 267.498C1504.83 267.615 1504.53 267.646 1504.24 267.586C1503.95 267.526 1503.68 267.379 1503.47 267.163C1503.26 266.947 1503.12 266.672 1503.06 266.372C1503 266.073 1503.03 265.762 1503.14 265.48C1503.26 265.198 1503.45 264.956 1503.7 264.786C1503.95 264.617 1504.24 264.526 1504.53 264.526C1504.93 264.526 1505.31 264.689 1505.59 264.979C1505.87 265.268 1506.03 265.662 1506.03 266.071Z" fill="#4181E0" fill-opacity="0.34"/>
<path d="M1525.6 266.071C1525.6 266.376 1525.52 266.675 1525.35 266.929C1525.18 267.184 1524.95 267.381 1524.68 267.498C1524.4 267.615 1524.1 267.646 1523.81 267.586C1523.52 267.526 1523.25 267.379 1523.04 267.163C1522.83 266.947 1522.69 266.672 1522.63 266.372C1522.57 266.073 1522.6 265.762 1522.71 265.48C1522.83 265.198 1523.02 264.956 1523.27 264.786C1523.52 264.617 1523.8 264.526 1524.1 264.526C1524.5 264.526 1524.88 264.689 1525.16 264.979C1525.45 265.268 1525.6 265.662 1525.6 266.071Z" fill="#4181E0" fill-opacity="0.34"/>
<path d="M1486.46 286.044C1486.46 286.35 1486.37 286.649 1486.21 286.902C1486.05 287.156 1485.81 287.354 1485.53 287.471C1485.26 287.588 1484.96 287.618 1484.66 287.558C1484.37 287.499 1484.11 287.352 1483.9 287.136C1483.69 286.92 1483.55 286.644 1483.49 286.345C1483.43 286.045 1483.46 285.735 1483.58 285.453C1483.69 285.17 1483.88 284.929 1484.12 284.759C1484.37 284.59 1484.66 284.499 1484.96 284.499C1485.16 284.499 1485.36 284.539 1485.53 284.617C1485.72 284.695 1485.88 284.808 1486.02 284.952C1486.16 285.095 1486.27 285.266 1486.34 285.453C1486.42 285.641 1486.46 285.842 1486.46 286.044Z" fill="#4181E0" fill-opacity="0.34"/>
<path d="M1506.03 286.044C1506.03 286.35 1505.94 286.649 1505.78 286.902C1505.61 287.156 1505.38 287.354 1505.11 287.471C1504.83 287.588 1504.53 287.618 1504.24 287.558C1503.95 287.499 1503.68 287.352 1503.47 287.136C1503.26 286.92 1503.12 286.644 1503.06 286.345C1503 286.045 1503.03 285.735 1503.14 285.453C1503.26 285.17 1503.45 284.929 1503.7 284.759C1503.95 284.59 1504.24 284.499 1504.53 284.499C1504.73 284.499 1504.92 284.539 1505.11 284.617C1505.29 284.695 1505.45 284.808 1505.59 284.952C1505.73 285.095 1505.85 285.266 1505.92 285.453C1505.99 285.641 1506.03 285.842 1506.03 286.044Z" fill="#4181E0" fill-opacity="0.34"/>
<path d="M1525.6 286.044C1525.6 286.35 1525.52 286.649 1525.35 286.902C1525.18 287.156 1524.95 287.354 1524.68 287.471C1524.4 287.588 1524.1 287.618 1523.81 287.558C1523.52 287.499 1523.25 287.352 1523.04 287.136C1522.83 286.92 1522.69 286.644 1522.63 286.345C1522.57 286.045 1522.6 285.735 1522.71 285.453C1522.83 285.17 1523.02 284.929 1523.27 284.759C1523.52 284.59 1523.8 284.499 1524.1 284.499C1524.5 284.499 1524.88 284.662 1525.16 284.952C1525.45 285.242 1525.6 285.635 1525.6 286.044Z" fill="#4181E0" fill-opacity="0.34"/>
<path d="M1409.02 227.671C1409.84 227.671 1410.52 226.98 1410.52 226.127C1410.52 225.273 1409.84 224.582 1409.02 224.582C1408.18 224.582 1407.51 225.273 1407.51 226.127C1407.51 226.98 1408.18 227.671 1409.02 227.671Z" fill="#4181E0" fill-opacity="0.34"/>
<path d="M1428.59 227.671C1429.41 227.671 1430.09 226.98 1430.09 226.127C1430.09 225.273 1429.41 224.582 1428.59 224.582C1427.76 224.582 1427.09 225.273 1427.09 226.127C1427.09 226.98 1427.76 227.671 1428.59 227.671Z" fill="#4181E0" fill-opacity="0.34"/>
<path d="M1448.16 227.671C1448.99 227.671 1449.66 226.98 1449.66 226.127C1449.66 225.273 1448.99 224.582 1448.16 224.582C1447.33 224.582 1446.66 225.273 1446.66 226.127C1446.66 226.98 1447.33 227.671 1448.16 227.671Z" fill="#4181E0" fill-opacity="0.34"/>
<path d="M1467.73 227.671C1468.56 227.671 1469.23 226.98 1469.23 226.127C1469.23 225.273 1468.56 224.582 1467.73 224.582C1466.9 224.582 1466.23 225.273 1466.23 226.127C1466.23 226.98 1466.9 227.671 1467.73 227.671Z" fill="#4181E0" fill-opacity="0.34"/>
<path d="M1409.02 247.643C1409.84 247.643 1410.52 246.952 1410.52 246.099C1410.52 245.246 1409.84 244.554 1409.02 244.554C1408.18 244.554 1407.51 245.246 1407.51 246.099C1407.51 246.952 1408.18 247.643 1409.02 247.643Z" fill="#4181E0" fill-opacity="0.34"/>
<path d="M1428.59 247.643C1429.41 247.643 1430.09 246.952 1430.09 246.099C1430.09 245.246 1429.41 244.554 1428.59 244.554C1427.76 244.554 1427.09 245.246 1427.09 246.099C1427.09 246.952 1427.76 247.643 1428.59 247.643Z" fill="#4181E0" fill-opacity="0.34"/>
<path d="M1448.16 247.643C1448.99 247.643 1449.66 246.952 1449.66 246.099C1449.66 245.246 1448.99 244.554 1448.16 244.554C1447.33 244.554 1446.66 245.246 1446.66 246.099C1446.66 246.952 1447.33 247.643 1448.16 247.643Z" fill="#4181E0" fill-opacity="0.34"/>
<path d="M1467.73 247.643C1468.56 247.643 1469.23 246.952 1469.23 246.099C1469.23 245.246 1468.56 244.554 1467.73 244.554C1466.9 244.554 1466.23 245.246 1466.23 246.099C1466.23 246.952 1466.9 247.643 1467.73 247.643Z" fill="#4181E0" fill-opacity="0.34"/>
<path d="M1410.52 266.071C1410.52 266.376 1410.42 266.675 1410.26 266.929C1410.1 267.184 1409.86 267.381 1409.59 267.498C1409.31 267.615 1409.02 267.646 1408.72 267.586C1408.43 267.526 1408.16 267.379 1407.96 267.163C1407.74 266.947 1407.6 266.672 1407.54 266.372C1407.49 266.073 1407.51 265.762 1407.63 265.48C1407.74 265.198 1407.93 264.956 1408.18 264.786C1408.43 264.617 1408.72 264.526 1409.02 264.526C1409.41 264.526 1409.79 264.689 1410.08 264.979C1410.36 265.268 1410.52 265.662 1410.52 266.071Z" fill="#4181E0" fill-opacity="0.34"/>
<path d="M1430.09 266.071C1430.09 266.376 1430 266.675 1429.83 266.929C1429.67 267.184 1429.43 267.381 1429.16 267.498C1428.89 267.615 1428.59 267.646 1428.3 267.586C1428 267.526 1427.73 267.379 1427.53 267.163C1427.31 266.947 1427.17 266.672 1427.12 266.372C1427.06 266.073 1427.09 265.762 1427.2 265.48C1427.31 265.198 1427.51 264.956 1427.76 264.786C1428 264.617 1428.29 264.526 1428.59 264.526C1428.99 264.526 1429.36 264.689 1429.65 264.979C1429.93 265.268 1430.09 265.662 1430.09 266.071Z" fill="#4181E0" fill-opacity="0.34"/>
<path d="M1449.66 266.071C1449.66 266.376 1449.57 266.675 1449.41 266.929C1449.24 267.184 1449.01 267.381 1448.73 267.498C1448.46 267.615 1448.15 267.646 1447.87 267.586C1447.58 267.526 1447.31 267.379 1447.1 267.163C1446.89 266.947 1446.74 266.672 1446.69 266.372C1446.63 266.073 1446.66 265.762 1446.77 265.48C1446.89 265.198 1447.08 264.956 1447.33 264.786C1447.57 264.617 1447.86 264.526 1448.16 264.526C1448.56 264.526 1448.94 264.689 1449.22 264.979C1449.5 265.268 1449.66 265.662 1449.66 266.071Z" fill="#4181E0" fill-opacity="0.34"/>
<path d="M1469.23 266.071C1469.23 266.376 1469.14 266.675 1468.98 266.929C1468.81 267.184 1468.58 267.381 1468.3 267.498C1468.03 267.615 1467.73 267.646 1467.43 267.586C1467.14 267.526 1466.88 267.379 1466.67 267.163C1466.46 266.947 1466.32 266.672 1466.26 266.372C1466.2 266.073 1466.23 265.762 1466.35 265.48C1466.46 265.198 1466.65 264.956 1466.89 264.786C1467.14 264.617 1467.43 264.526 1467.73 264.526C1467.92 264.526 1468.12 264.567 1468.3 264.644C1468.49 264.722 1468.65 264.835 1468.79 264.979C1468.93 265.123 1469.04 265.292 1469.11 265.48C1469.19 265.667 1469.23 265.868 1469.23 266.071Z" fill="#4181E0" fill-opacity="0.34"/>
<path d="M1410.52 286.044C1410.52 286.35 1410.42 286.649 1410.26 286.902C1410.1 287.156 1409.86 287.354 1409.59 287.471C1409.31 287.588 1409.02 287.618 1408.72 287.558C1408.43 287.499 1408.16 287.352 1407.96 287.136C1407.74 286.92 1407.6 286.644 1407.54 286.345C1407.49 286.045 1407.51 285.735 1407.63 285.453C1407.74 285.17 1407.93 284.929 1408.18 284.759C1408.43 284.59 1408.72 284.499 1409.02 284.499C1409.21 284.499 1409.41 284.539 1409.59 284.617C1409.77 284.695 1409.93 284.808 1410.08 284.952C1410.22 285.095 1410.32 285.266 1410.4 285.453C1410.47 285.641 1410.52 285.842 1410.52 286.044Z" fill="#4181E0" fill-opacity="0.34"/>
<path d="M1430.09 286.044C1430.09 286.35 1430 286.649 1429.83 286.902C1429.67 287.156 1429.43 287.354 1429.16 287.471C1428.89 287.588 1428.58 287.618 1428.3 287.558C1428 287.499 1427.73 287.352 1427.53 287.136C1427.31 286.92 1427.17 286.644 1427.12 286.345C1427.06 286.045 1427.09 285.735 1427.2 285.453C1427.31 285.17 1427.51 284.929 1427.76 284.759C1428 284.59 1428.29 284.499 1428.59 284.499C1428.79 284.499 1428.98 284.539 1429.16 284.617C1429.34 284.695 1429.51 284.808 1429.65 284.952C1429.79 285.095 1429.9 285.266 1429.98 285.453C1430.05 285.641 1430.09 285.842 1430.09 286.044Z" fill="#4181E0" fill-opacity="0.34"/>
<path d="M1449.66 286.044C1449.66 286.35 1449.57 286.649 1449.41 286.902C1449.24 287.156 1449.01 287.354 1448.73 287.471C1448.46 287.588 1448.15 287.618 1447.86 287.558C1447.58 287.499 1447.31 287.352 1447.1 287.136C1446.89 286.92 1446.74 286.644 1446.69 286.345C1446.63 286.045 1446.66 285.735 1446.77 285.453C1446.89 285.17 1447.08 284.929 1447.33 284.759C1447.57 284.59 1447.86 284.499 1448.16 284.499C1448.56 284.499 1448.94 284.662 1449.22 284.952C1449.5 285.242 1449.66 285.635 1449.66 286.044Z" fill="#4181E0" fill-opacity="0.34"/>
<path d="M1469.23 286.044C1469.23 286.35 1469.14 286.649 1468.98 286.902C1468.81 287.156 1468.58 287.354 1468.3 287.471C1468.03 287.588 1467.73 287.618 1467.43 287.558C1467.14 287.499 1466.88 287.352 1466.67 287.136C1466.46 286.92 1466.32 286.644 1466.26 286.345C1466.2 286.045 1466.23 285.735 1466.35 285.453C1466.46 285.17 1466.65 284.929 1466.89 284.759C1467.14 284.59 1467.43 284.499 1467.73 284.499C1467.92 284.499 1468.12 284.539 1468.3 284.617C1468.49 284.695 1468.65 284.808 1468.79 284.952C1468.93 285.095 1469.04 285.266 1469.11 285.453C1469.19 285.641 1469.23 285.842 1469.23 286.044Z" fill="#4181E0" fill-opacity="0.34"/>
<path d="M1409.02 306.059C1409.84 306.059 1410.52 305.367 1410.52 304.514C1410.52 303.661 1409.84 302.969 1409.02 302.969C1408.18 302.969 1407.51 303.661 1407.51 304.514C1407.51 305.367 1408.18 306.059 1409.02 306.059Z" fill="#4181E0" fill-opacity="0.34"/>
<path d="M1428.59 306.059C1429.41 306.059 1430.09 305.367 1430.09 304.514C1430.09 303.661 1429.41 302.969 1428.59 302.969C1427.76 302.969 1427.09 303.661 1427.09 304.514C1427.09 305.367 1427.76 306.059 1428.59 306.059Z" fill="#4181E0" fill-opacity="0.34"/>
<path d="M1448.16 306.059C1448.99 306.059 1449.66 305.367 1449.66 304.514C1449.66 303.661 1448.99 302.969 1448.16 302.969C1447.33 302.969 1446.66 303.661 1446.66 304.514C1446.66 305.367 1447.33 306.059 1448.16 306.059Z" fill="#4181E0" fill-opacity="0.34"/>
<path d="M1467.73 306.059C1468.56 306.059 1469.23 305.367 1469.23 304.514C1469.23 303.661 1468.56 302.969 1467.73 302.969C1466.9 302.969 1466.23 303.661 1466.23 304.514C1466.23 305.367 1466.9 306.059 1467.73 306.059Z" fill="#4181E0" fill-opacity="0.34"/>
<path d="M1409.02 326.03C1409.84 326.03 1410.52 325.339 1410.52 324.486C1410.52 323.632 1409.84 322.941 1409.02 322.941C1408.18 322.941 1407.51 323.632 1407.51 324.486C1407.51 325.339 1408.18 326.03 1409.02 326.03Z" fill="#4181E0" fill-opacity="0.34"/>
<path d="M1428.59 326.03C1429.41 326.03 1430.09 325.339 1430.09 324.486C1430.09 323.632 1429.41 322.941 1428.59 322.941C1427.76 322.941 1427.09 323.632 1427.09 324.486C1427.09 325.339 1427.76 326.03 1428.59 326.03Z" fill="#4181E0" fill-opacity="0.34"/>
<path d="M1448.16 326.03C1448.99 326.03 1449.66 325.339 1449.66 324.486C1449.66 323.632 1448.99 322.941 1448.16 322.941C1447.33 322.941 1446.66 323.632 1446.66 324.486C1446.66 325.339 1447.33 326.03 1448.16 326.03Z" fill="#4181E0" fill-opacity="0.34"/>
<path d="M1467.73 326.03C1468.56 326.03 1469.23 325.339 1469.23 324.486C1469.23 323.632 1468.56 322.941 1467.73 322.941C1466.9 322.941 1466.23 323.632 1466.23 324.486C1466.23 325.339 1466.9 326.03 1467.73 326.03Z" fill="#4181E0" fill-opacity="0.34"/>
<path d="M1410.52 344.458C1410.52 344.763 1410.42 345.062 1410.26 345.316C1410.1 345.57 1409.86 345.768 1409.59 345.884C1409.31 346.002 1409.02 346.032 1408.72 345.972C1408.43 345.913 1408.16 345.766 1407.96 345.55C1407.74 345.334 1407.6 345.059 1407.54 344.759C1407.49 344.459 1407.51 344.149 1407.63 343.867C1407.74 343.585 1407.93 343.343 1408.18 343.173C1408.43 343.004 1408.72 342.913 1409.02 342.913C1409.41 342.913 1409.79 343.076 1410.08 343.366C1410.36 343.655 1410.52 344.048 1410.52 344.458Z" fill="#4181E0" fill-opacity="0.34"/>
<path d="M1430.09 344.458C1430.09 344.763 1430 345.062 1429.83 345.316C1429.67 345.57 1429.43 345.768 1429.16 345.884C1428.89 346.002 1428.59 346.032 1428.3 345.972C1428 345.913 1427.73 345.766 1427.53 345.55C1427.31 345.334 1427.17 345.059 1427.12 344.759C1427.06 344.459 1427.09 344.149 1427.2 343.867C1427.31 343.585 1427.51 343.343 1427.76 343.173C1428 343.004 1428.29 342.913 1428.59 342.913C1428.99 342.913 1429.36 343.076 1429.65 343.366C1429.93 343.655 1430.09 344.048 1430.09 344.458Z" fill="#4181E0" fill-opacity="0.34"/>
<path d="M1449.66 344.458C1449.66 344.763 1449.57 345.062 1449.41 345.316C1449.24 345.57 1449.01 345.768 1448.73 345.884C1448.46 346.002 1448.15 346.032 1447.87 345.972C1447.58 345.913 1447.31 345.766 1447.1 345.55C1446.89 345.334 1446.74 345.059 1446.69 344.759C1446.63 344.459 1446.66 344.149 1446.77 343.867C1446.89 343.585 1447.08 343.343 1447.33 343.173C1447.57 343.004 1447.86 342.913 1448.16 342.913C1448.56 342.913 1448.94 343.076 1449.22 343.366C1449.5 343.655 1449.66 344.048 1449.66 344.458Z" fill="#4181E0" fill-opacity="0.34"/>
<path d="M1469.23 344.458C1469.23 344.763 1469.14 345.062 1468.98 345.316C1468.81 345.57 1468.58 345.768 1468.3 345.884C1468.03 346.002 1467.73 346.032 1467.43 345.972C1467.14 345.913 1466.88 345.766 1466.67 345.55C1466.46 345.334 1466.32 345.059 1466.26 344.759C1466.2 344.459 1466.23 344.149 1466.35 343.867C1466.46 343.585 1466.65 343.343 1466.89 343.173C1467.14 343.004 1467.43 342.913 1467.73 342.913C1467.92 342.913 1468.12 342.953 1468.3 343.031C1468.49 343.109 1468.65 343.222 1468.79 343.366C1468.93 343.509 1469.04 343.679 1469.11 343.867C1469.19 344.054 1469.23 344.255 1469.23 344.458Z" fill="#4181E0" fill-opacity="0.34"/>
<path d="M1410.52 364.431C1410.52 364.737 1410.42 365.035 1410.26 365.289C1410.1 365.543 1409.86 365.741 1409.59 365.858C1409.31 365.974 1409.02 366.005 1408.72 365.945C1408.43 365.886 1408.16 365.738 1407.96 365.522C1407.74 365.306 1407.6 365.031 1407.54 364.731C1407.49 364.432 1407.51 364.121 1407.63 363.839C1407.74 363.557 1407.93 363.316 1408.18 363.146C1408.43 362.977 1408.72 362.886 1409.02 362.886C1409.21 362.886 1409.41 362.926 1409.59 363.004C1409.77 363.081 1409.93 363.195 1410.08 363.338C1410.22 363.482 1410.32 363.653 1410.4 363.84C1410.47 364.028 1410.52 364.228 1410.52 364.431Z" fill="#4181E0" fill-opacity="0.34"/>
<path d="M1430.09 364.431C1430.09 364.737 1430 365.035 1429.83 365.289C1429.67 365.543 1429.43 365.741 1429.16 365.858C1428.89 365.974 1428.58 366.005 1428.3 365.945C1428 365.886 1427.73 365.738 1427.53 365.522C1427.31 365.306 1427.17 365.031 1427.12 364.731C1427.06 364.432 1427.09 364.121 1427.2 363.839C1427.31 363.557 1427.51 363.316 1427.76 363.146C1428 362.977 1428.29 362.886 1428.59 362.886C1428.79 362.886 1428.98 362.926 1429.16 363.004C1429.34 363.081 1429.51 363.195 1429.65 363.338C1429.79 363.482 1429.9 363.653 1429.98 363.84C1430.05 364.028 1430.09 364.228 1430.09 364.431Z" fill="#4181E0" fill-opacity="0.34"/>
<path d="M1449.66 364.431C1449.66 364.737 1449.57 365.035 1449.41 365.289C1449.24 365.543 1449.01 365.741 1448.73 365.858C1448.46 365.974 1448.15 366.005 1447.86 365.945C1447.58 365.886 1447.31 365.738 1447.1 365.522C1446.89 365.306 1446.74 365.031 1446.69 364.731C1446.63 364.432 1446.66 364.121 1446.77 363.839C1446.89 363.557 1447.08 363.316 1447.33 363.146C1447.57 362.977 1447.86 362.886 1448.16 362.886C1448.56 362.886 1448.94 363.049 1449.22 363.338C1449.5 363.628 1449.66 364.022 1449.66 364.431Z" fill="#4181E0" fill-opacity="0.34"/>
<path d="M1469.23 364.431C1469.23 364.737 1469.14 365.035 1468.98 365.289C1468.81 365.543 1468.58 365.741 1468.3 365.858C1468.03 365.974 1467.73 366.005 1467.43 365.945C1467.14 365.886 1466.88 365.738 1466.67 365.522C1466.46 365.306 1466.32 365.031 1466.26 364.731C1466.2 364.432 1466.23 364.121 1466.35 363.839C1466.46 363.557 1466.65 363.316 1466.89 363.146C1467.14 362.977 1467.43 362.886 1467.73 362.886C1467.92 362.886 1468.12 362.926 1468.3 363.004C1468.49 363.081 1468.65 363.195 1468.79 363.338C1468.93 363.482 1469.04 363.653 1469.11 363.84C1469.19 364.028 1469.23 364.228 1469.23 364.431Z" fill="#4181E0" fill-opacity="0.34"/>
<path d="M1484.96 306.059C1485.79 306.059 1486.46 305.367 1486.46 304.514C1486.46 303.661 1485.79 302.969 1484.96 302.969C1484.13 302.969 1483.46 303.661 1483.46 304.514C1483.46 305.367 1484.13 306.059 1484.96 306.059Z" fill="#4181E0" fill-opacity="0.34"/>
<path d="M1504.53 306.059C1505.36 306.059 1506.03 305.367 1506.03 304.514C1506.03 303.661 1505.36 302.969 1504.53 302.969C1503.7 302.969 1503.03 303.661 1503.03 304.514C1503.03 305.367 1503.7 306.059 1504.53 306.059Z" fill="#4181E0" fill-opacity="0.34"/>
<path d="M1524.1 306.059C1524.93 306.059 1525.6 305.367 1525.6 304.514C1525.6 303.661 1524.93 302.969 1524.1 302.969C1523.28 302.969 1522.6 303.661 1522.6 304.514C1522.6 305.367 1523.28 306.059 1524.1 306.059Z" fill="#4181E0" fill-opacity="0.34"/>
<path d="M1484.96 326.03C1485.79 326.03 1486.46 325.339 1486.46 324.486C1486.46 323.632 1485.79 322.941 1484.96 322.941C1484.13 322.941 1483.46 323.632 1483.46 324.486C1483.46 325.339 1484.13 326.03 1484.96 326.03Z" fill="#4181E0" fill-opacity="0.34"/>
<path d="M1504.53 326.03C1505.36 326.03 1506.03 325.339 1506.03 324.486C1506.03 323.632 1505.36 322.941 1504.53 322.941C1503.7 322.941 1503.03 323.632 1503.03 324.486C1503.03 325.339 1503.7 326.03 1504.53 326.03Z" fill="#4181E0" fill-opacity="0.34"/>
<path d="M1524.1 326.03C1524.93 326.03 1525.6 325.339 1525.6 324.486C1525.6 323.632 1524.93 322.941 1524.1 322.941C1523.28 322.941 1522.6 323.632 1522.6 324.486C1522.6 325.339 1523.28 326.03 1524.1 326.03Z" fill="#4181E0" fill-opacity="0.34"/>
<path d="M1486.46 344.458C1486.46 344.763 1486.37 345.062 1486.21 345.316C1486.05 345.57 1485.81 345.768 1485.53 345.884C1485.26 346.002 1484.96 346.032 1484.66 345.972C1484.37 345.913 1484.11 345.766 1483.9 345.55C1483.69 345.334 1483.55 345.059 1483.49 344.759C1483.43 344.459 1483.46 344.149 1483.58 343.867C1483.69 343.585 1483.88 343.343 1484.12 343.173C1484.37 343.004 1484.66 342.913 1484.96 342.913C1485.36 342.913 1485.74 343.076 1486.02 343.366C1486.3 343.655 1486.46 344.048 1486.46 344.458Z" fill="#4181E0" fill-opacity="0.34"/>
<path d="M1506.03 344.458C1506.03 344.763 1505.94 345.062 1505.78 345.316C1505.61 345.57 1505.38 345.768 1505.11 345.884C1504.83 346.002 1504.53 346.032 1504.24 345.972C1503.95 345.913 1503.68 345.766 1503.47 345.55C1503.26 345.334 1503.12 345.059 1503.06 344.759C1503 344.459 1503.03 344.149 1503.14 343.867C1503.26 343.585 1503.45 343.343 1503.7 343.173C1503.95 343.004 1504.24 342.913 1504.53 342.913C1504.93 342.913 1505.31 343.076 1505.59 343.366C1505.87 343.655 1506.03 344.048 1506.03 344.458Z" fill="#4181E0" fill-opacity="0.34"/>
<path d="M1525.6 344.458C1525.6 344.763 1525.52 345.062 1525.35 345.316C1525.18 345.57 1524.95 345.768 1524.68 345.884C1524.4 346.002 1524.1 346.032 1523.81 345.972C1523.52 345.913 1523.25 345.766 1523.04 345.55C1522.83 345.334 1522.69 345.059 1522.63 344.759C1522.57 344.459 1522.6 344.149 1522.71 343.867C1522.83 343.585 1523.02 343.343 1523.27 343.173C1523.52 343.004 1523.8 342.913 1524.1 342.913C1524.5 342.913 1524.88 343.076 1525.16 343.366C1525.45 343.655 1525.6 344.048 1525.6 344.458Z" fill="#4181E0" fill-opacity="0.34"/>
<path d="M1486.46 364.431C1486.46 364.737 1486.37 365.035 1486.21 365.289C1486.05 365.543 1485.81 365.741 1485.53 365.858C1485.26 365.974 1484.96 366.005 1484.66 365.945C1484.37 365.886 1484.11 365.738 1483.9 365.522C1483.69 365.306 1483.55 365.031 1483.49 364.731C1483.43 364.432 1483.46 364.121 1483.58 363.839C1483.69 363.557 1483.88 363.316 1484.12 363.146C1484.37 362.977 1484.66 362.886 1484.96 362.886C1485.16 362.886 1485.36 362.926 1485.53 363.004C1485.72 363.081 1485.88 363.195 1486.02 363.338C1486.16 363.482 1486.27 363.653 1486.34 363.84C1486.42 364.028 1486.46 364.228 1486.46 364.431Z" fill="#4181E0" fill-opacity="0.34"/>
<path d="M1506.03 364.431C1506.03 364.737 1505.94 365.035 1505.78 365.289C1505.61 365.543 1505.38 365.741 1505.11 365.858C1504.83 365.974 1504.53 366.005 1504.24 365.945C1503.95 365.886 1503.68 365.738 1503.47 365.522C1503.26 365.306 1503.12 365.031 1503.06 364.731C1503 364.432 1503.03 364.121 1503.14 363.839C1503.26 363.557 1503.45 363.316 1503.7 363.146C1503.95 362.977 1504.24 362.886 1504.53 362.886C1504.73 362.886 1504.92 362.926 1505.11 363.004C1505.29 363.081 1505.45 363.195 1505.59 363.338C1505.73 363.482 1505.85 363.653 1505.92 363.84C1505.99 364.028 1506.03 364.228 1506.03 364.431Z" fill="#4181E0" fill-opacity="0.34"/>
<path d="M1525.6 364.431C1525.6 364.737 1525.52 365.035 1525.35 365.289C1525.18 365.543 1524.95 365.741 1524.68 365.858C1524.4 365.974 1524.1 366.005 1523.81 365.945C1523.52 365.886 1523.25 365.738 1523.04 365.522C1522.83 365.306 1522.69 365.031 1522.63 364.731C1522.57 364.432 1522.6 364.121 1522.71 363.839C1522.83 363.557 1523.02 363.316 1523.27 363.146C1523.52 362.977 1523.8 362.886 1524.1 362.886C1524.5 362.886 1524.88 363.049 1525.16 363.338C1525.45 363.628 1525.6 364.022 1525.6 364.431Z" fill="#4181E0" fill-opacity="0.34"/>
<path d="M1409.02 384.445C1409.84 384.445 1410.52 383.754 1410.52 382.901C1410.52 382.047 1409.84 381.356 1409.02 381.356C1408.18 381.356 1407.51 382.047 1407.51 382.901C1407.51 383.754 1408.18 384.445 1409.02 384.445Z" fill="#4181E0" fill-opacity="0.34"/>
<path d="M1428.59 384.445C1429.41 384.445 1430.09 383.754 1430.09 382.901C1430.09 382.047 1429.41 381.356 1428.59 381.356C1427.76 381.356 1427.09 382.047 1427.09 382.901C1427.09 383.754 1427.76 384.445 1428.59 384.445Z" fill="#4181E0" fill-opacity="0.34"/>
<path d="M1448.16 384.445C1448.99 384.445 1449.66 383.754 1449.66 382.901C1449.66 382.047 1448.99 381.356 1448.16 381.356C1447.33 381.356 1446.66 382.047 1446.66 382.901C1446.66 383.754 1447.33 384.445 1448.16 384.445Z" fill="#4181E0" fill-opacity="0.34"/>
<path d="M1467.73 384.445C1468.56 384.445 1469.23 383.754 1469.23 382.901C1469.23 382.047 1468.56 381.356 1467.73 381.356C1466.9 381.356 1466.23 382.047 1466.23 382.901C1466.23 383.754 1466.9 384.445 1467.73 384.445Z" fill="#4181E0" fill-opacity="0.34"/>
<path d="M1409.02 404.417C1409.84 404.417 1410.52 403.726 1410.52 402.873C1410.52 402.02 1409.84 401.328 1409.02 401.328C1408.18 401.328 1407.51 402.02 1407.51 402.873C1407.51 403.726 1408.18 404.417 1409.02 404.417Z" fill="#4181E0" fill-opacity="0.34"/>
<path d="M1428.59 404.417C1429.41 404.417 1430.09 403.726 1430.09 402.873C1430.09 402.02 1429.41 401.328 1428.59 401.328C1427.76 401.328 1427.09 402.02 1427.09 402.873C1427.09 403.726 1427.76 404.417 1428.59 404.417Z" fill="#4181E0" fill-opacity="0.34"/>
<path d="M1448.16 404.417C1448.99 404.417 1449.66 403.726 1449.66 402.873C1449.66 402.02 1448.99 401.328 1448.16 401.328C1447.33 401.328 1446.66 402.02 1446.66 402.873C1446.66 403.726 1447.33 404.417 1448.16 404.417Z" fill="#4181E0" fill-opacity="0.34"/>
<path d="M1467.73 404.417C1468.56 404.417 1469.23 403.726 1469.23 402.873C1469.23 402.02 1468.56 401.328 1467.73 401.328C1466.9 401.328 1466.23 402.02 1466.23 402.873C1466.23 403.726 1466.9 404.417 1467.73 404.417Z" fill="#4181E0" fill-opacity="0.34"/>
<path d="M1410.52 422.844C1410.52 423.15 1410.42 423.449 1410.26 423.703C1410.1 423.957 1409.86 424.155 1409.59 424.271C1409.31 424.388 1409.02 424.419 1408.72 424.359C1408.43 424.3 1408.16 424.153 1407.96 423.936C1407.74 423.72 1407.6 423.446 1407.54 423.145C1407.49 422.846 1407.51 422.535 1407.63 422.253C1407.74 421.971 1407.93 421.73 1408.18 421.56C1408.43 421.391 1408.72 421.3 1409.02 421.3C1409.41 421.3 1409.79 421.462 1410.08 421.752C1410.36 422.042 1410.52 422.435 1410.52 422.844Z" fill="#4181E0" fill-opacity="0.34"/>
<path d="M1430.09 422.844C1430.09 423.15 1430 423.449 1429.83 423.703C1429.67 423.957 1429.43 424.155 1429.16 424.271C1428.89 424.388 1428.59 424.419 1428.3 424.359C1428 424.3 1427.73 424.153 1427.53 423.936C1427.31 423.72 1427.17 423.446 1427.12 423.145C1427.06 422.846 1427.09 422.535 1427.2 422.253C1427.31 421.971 1427.51 421.73 1427.76 421.56C1428 421.391 1428.29 421.3 1428.59 421.3C1428.99 421.3 1429.36 421.462 1429.65 421.752C1429.93 422.042 1430.09 422.435 1430.09 422.844Z" fill="#4181E0" fill-opacity="0.34"/>
<path d="M1449.66 422.844C1449.66 423.15 1449.57 423.449 1449.41 423.703C1449.24 423.957 1449.01 424.155 1448.73 424.271C1448.46 424.388 1448.15 424.419 1447.87 424.359C1447.58 424.3 1447.31 424.153 1447.1 423.936C1446.89 423.72 1446.74 423.446 1446.69 423.145C1446.63 422.846 1446.66 422.535 1446.77 422.253C1446.89 421.971 1447.08 421.73 1447.33 421.56C1447.57 421.391 1447.86 421.3 1448.16 421.3C1448.56 421.3 1448.94 421.462 1449.22 421.752C1449.5 422.042 1449.66 422.435 1449.66 422.844Z" fill="#4181E0" fill-opacity="0.34"/>
<path d="M1469.23 422.844C1469.23 423.15 1469.14 423.449 1468.98 423.703C1468.81 423.957 1468.58 424.155 1468.3 424.271C1468.03 424.388 1467.73 424.419 1467.43 424.359C1467.14 424.3 1466.88 424.153 1466.67 423.936C1466.46 423.72 1466.32 423.446 1466.26 423.145C1466.2 422.846 1466.23 422.535 1466.35 422.253C1466.46 421.971 1466.65 421.73 1466.89 421.56C1467.14 421.391 1467.43 421.3 1467.73 421.3C1467.92 421.3 1468.12 421.34 1468.3 421.418C1468.49 421.495 1468.65 421.609 1468.79 421.752C1468.93 421.896 1469.04 422.066 1469.11 422.253C1469.19 422.441 1469.23 422.642 1469.23 422.844Z" fill="#4181E0" fill-opacity="0.34"/>
<path d="M1410.52 442.818C1410.52 443.124 1410.42 443.423 1410.26 443.676C1410.1 443.93 1409.86 444.128 1409.59 444.245C1409.31 444.362 1409.02 444.392 1408.72 444.332C1408.43 444.273 1408.16 444.126 1407.96 443.91C1407.74 443.694 1407.6 443.418 1407.54 443.119C1407.49 442.819 1407.51 442.509 1407.63 442.227C1407.74 441.944 1407.93 441.703 1408.18 441.533C1408.43 441.364 1408.72 441.273 1409.02 441.273C1409.21 441.273 1409.41 441.313 1409.59 441.391C1409.77 441.469 1409.93 441.582 1410.08 441.726C1410.22 441.869 1410.32 442.04 1410.4 442.227C1410.47 442.415 1410.52 442.615 1410.52 442.818Z" fill="#4181E0" fill-opacity="0.34"/>
<path d="M1430.09 442.818C1430.09 443.124 1430 443.423 1429.83 443.676C1429.67 443.93 1429.43 444.128 1429.16 444.245C1428.89 444.362 1428.58 444.392 1428.3 444.332C1428 444.273 1427.73 444.126 1427.53 443.91C1427.31 443.694 1427.17 443.418 1427.12 443.119C1427.06 442.819 1427.09 442.509 1427.2 442.227C1427.31 441.944 1427.51 441.703 1427.76 441.533C1428 441.364 1428.29 441.273 1428.59 441.273C1428.79 441.273 1428.98 441.313 1429.16 441.391C1429.34 441.469 1429.51 441.582 1429.65 441.726C1429.79 441.869 1429.9 442.04 1429.98 442.227C1430.05 442.415 1430.09 442.615 1430.09 442.818Z" fill="#4181E0" fill-opacity="0.34"/>
<path d="M1449.66 442.818C1449.66 443.124 1449.57 443.423 1449.41 443.676C1449.24 443.93 1449.01 444.128 1448.73 444.245C1448.46 444.362 1448.15 444.392 1447.86 444.332C1447.58 444.273 1447.31 444.126 1447.1 443.91C1446.89 443.694 1446.74 443.418 1446.69 443.119C1446.63 442.819 1446.66 442.509 1446.77 442.227C1446.89 441.944 1447.08 441.703 1447.33 441.533C1447.57 441.364 1447.86 441.273 1448.16 441.273C1448.56 441.273 1448.94 441.436 1449.22 441.726C1449.5 442.016 1449.66 442.409 1449.66 442.818Z" fill="#4181E0" fill-opacity="0.34"/>
<path d="M1469.23 442.818C1469.23 443.124 1469.14 443.423 1468.98 443.676C1468.81 443.93 1468.58 444.128 1468.3 444.245C1468.03 444.362 1467.73 444.392 1467.43 444.332C1467.14 444.273 1466.88 444.126 1466.67 443.91C1466.46 443.694 1466.32 443.418 1466.26 443.119C1466.2 442.819 1466.23 442.509 1466.35 442.227C1466.46 441.944 1466.65 441.703 1466.89 441.533C1467.14 441.364 1467.43 441.273 1467.73 441.273C1467.92 441.273 1468.12 441.313 1468.3 441.391C1468.49 441.469 1468.65 441.582 1468.79 441.726C1468.93 441.869 1469.04 442.04 1469.11 442.227C1469.19 442.415 1469.23 442.615 1469.23 442.818Z" fill="#4181E0" fill-opacity="0.34"/>
<path d="M1484.96 384.445C1485.79 384.445 1486.46 383.754 1486.46 382.901C1486.46 382.047 1485.79 381.356 1484.96 381.356C1484.13 381.356 1483.46 382.047 1483.46 382.901C1483.46 383.754 1484.13 384.445 1484.96 384.445Z" fill="#4181E0" fill-opacity="0.34"/>
<path d="M1504.53 384.445C1505.36 384.445 1506.03 383.754 1506.03 382.901C1506.03 382.047 1505.36 381.356 1504.53 381.356C1503.7 381.356 1503.03 382.047 1503.03 382.901C1503.03 383.754 1503.7 384.445 1504.53 384.445Z" fill="#4181E0" fill-opacity="0.34"/>
<path d="M1524.1 384.445C1524.93 384.445 1525.6 383.754 1525.6 382.901C1525.6 382.047 1524.93 381.356 1524.1 381.356C1523.28 381.356 1522.6 382.047 1522.6 382.901C1522.6 383.754 1523.28 384.445 1524.1 384.445Z" fill="#4181E0" fill-opacity="0.34"/>
<path d="M1484.96 404.417C1485.79 404.417 1486.46 403.726 1486.46 402.873C1486.46 402.02 1485.79 401.328 1484.96 401.328C1484.13 401.328 1483.46 402.02 1483.46 402.873C1483.46 403.726 1484.13 404.417 1484.96 404.417Z" fill="#4181E0" fill-opacity="0.34"/>
<path d="M1504.53 404.417C1505.36 404.417 1506.03 403.726 1506.03 402.873C1506.03 402.02 1505.36 401.328 1504.53 401.328C1503.7 401.328 1503.03 402.02 1503.03 402.873C1503.03 403.726 1503.7 404.417 1504.53 404.417Z" fill="#4181E0" fill-opacity="0.34"/>
<path d="M1524.1 404.417C1524.93 404.417 1525.6 403.726 1525.6 402.873C1525.6 402.02 1524.93 401.328 1524.1 401.328C1523.28 401.328 1522.6 402.02 1522.6 402.873C1522.6 403.726 1523.28 404.417 1524.1 404.417Z" fill="#4181E0" fill-opacity="0.34"/>
<path d="M1486.46 422.844C1486.46 423.15 1486.37 423.449 1486.21 423.703C1486.05 423.957 1485.81 424.155 1485.53 424.271C1485.26 424.388 1484.96 424.419 1484.66 424.359C1484.37 424.3 1484.11 424.153 1483.9 423.936C1483.69 423.72 1483.55 423.446 1483.49 423.145C1483.43 422.846 1483.46 422.535 1483.58 422.253C1483.69 421.971 1483.88 421.73 1484.12 421.56C1484.37 421.391 1484.66 421.3 1484.96 421.3C1485.36 421.3 1485.74 421.462 1486.02 421.752C1486.3 422.042 1486.46 422.435 1486.46 422.844Z" fill="#4181E0" fill-opacity="0.34"/>
<path d="M1506.03 422.844C1506.03 423.15 1505.94 423.449 1505.78 423.703C1505.61 423.957 1505.38 424.155 1505.11 424.271C1504.83 424.388 1504.53 424.419 1504.24 424.359C1503.95 424.3 1503.68 424.153 1503.47 423.936C1503.26 423.72 1503.12 423.446 1503.06 423.145C1503 422.846 1503.03 422.535 1503.14 422.253C1503.26 421.971 1503.45 421.73 1503.7 421.56C1503.95 421.391 1504.24 421.3 1504.53 421.3C1504.93 421.3 1505.31 421.462 1505.59 421.752C1505.87 422.042 1506.03 422.435 1506.03 422.844Z" fill="#4181E0" fill-opacity="0.34"/>
<path d="M1525.6 422.844C1525.6 423.15 1525.52 423.449 1525.35 423.703C1525.18 423.957 1524.95 424.155 1524.68 424.271C1524.4 424.388 1524.1 424.419 1523.81 424.359C1523.52 424.3 1523.25 424.153 1523.04 423.936C1522.83 423.72 1522.69 423.446 1522.63 423.145C1522.57 422.846 1522.6 422.535 1522.71 422.253C1522.83 421.971 1523.02 421.73 1523.27 421.56C1523.52 421.391 1523.8 421.3 1524.1 421.3C1524.5 421.3 1524.88 421.462 1525.16 421.752C1525.45 422.042 1525.6 422.435 1525.6 422.844Z" fill="#4181E0" fill-opacity="0.34"/>
<path d="M1486.46 442.818C1486.46 443.124 1486.37 443.423 1486.21 443.676C1486.05 443.93 1485.81 444.128 1485.53 444.245C1485.26 444.362 1484.96 444.392 1484.66 444.332C1484.37 444.273 1484.11 444.126 1483.9 443.91C1483.69 443.694 1483.55 443.418 1483.49 443.119C1483.43 442.819 1483.46 442.509 1483.58 442.227C1483.69 441.944 1483.88 441.703 1484.12 441.533C1484.37 441.364 1484.66 441.273 1484.96 441.273C1485.16 441.273 1485.36 441.313 1485.53 441.391C1485.72 441.469 1485.88 441.582 1486.02 441.726C1486.16 441.869 1486.27 442.04 1486.34 442.227C1486.42 442.415 1486.46 442.615 1486.46 442.818Z" fill="#4181E0" fill-opacity="0.34"/>
<path d="M1506.03 442.818C1506.03 443.124 1505.94 443.423 1505.78 443.676C1505.61 443.93 1505.38 444.128 1505.11 444.245C1504.83 444.362 1504.53 444.392 1504.24 444.332C1503.95 444.273 1503.68 444.126 1503.47 443.91C1503.26 443.694 1503.12 443.418 1503.06 443.119C1503 442.819 1503.03 442.509 1503.14 442.227C1503.26 441.944 1503.45 441.703 1503.7 441.533C1503.95 441.364 1504.24 441.273 1504.53 441.273C1504.73 441.273 1504.92 441.313 1505.11 441.391C1505.29 441.469 1505.45 441.582 1505.59 441.726C1505.73 441.869 1505.85 442.04 1505.92 442.227C1505.99 442.415 1506.03 442.615 1506.03 442.818Z" fill="#4181E0" fill-opacity="0.34"/>
<path d="M1525.6 442.818C1525.6 443.124 1525.52 443.423 1525.35 443.676C1525.18 443.93 1524.95 444.128 1524.68 444.245C1524.4 444.362 1524.1 444.392 1523.81 444.332C1523.52 444.273 1523.25 444.126 1523.04 443.91C1522.83 443.694 1522.69 443.418 1522.63 443.119C1522.57 442.819 1522.6 442.509 1522.71 442.227C1522.83 441.944 1523.02 441.703 1523.27 441.533C1523.52 441.364 1523.8 441.273 1524.1 441.273C1524.5 441.273 1524.88 441.436 1525.16 441.726C1525.45 442.016 1525.6 442.409 1525.6 442.818Z" fill="#4181E0" fill-opacity="0.34"/>
<line x1="894" y1="220.5" x2="967" y2="220.5" stroke="#F87F28" stroke-width="3"/>
<line x1="672" y1="422.5" x2="710" y2="422.5" stroke="#F87F28" stroke-width="3"/>
</svg>
