<svg width="1350" height="658" viewBox="0 0 1350 658" fill="none" xmlns="http://www.w3.org/2000/svg">
<path d="M1256.11 640.87H1265.95" stroke="#A2BADD" stroke-width="2" stroke-linecap="round" stroke-linejoin="round"/>
<path d="M1261.03 635.503V646.24" stroke="#A2BADD" stroke-width="2" stroke-linecap="round" stroke-linejoin="round"/>
<path d="M1256.11 617.657H1265.95" stroke="#A2BADD" stroke-width="2" stroke-linecap="round" stroke-linejoin="round"/>
<path d="M1261.03 612.288V623.024" stroke="#A2BADD" stroke-width="2" stroke-linecap="round" stroke-linejoin="round"/>
<path d="M1256.11 594.442H1265.95" stroke="#A2BADD" stroke-width="2" stroke-linecap="round" stroke-linejoin="round"/>
<path d="M1261.03 589.075V599.812" stroke="#A2BADD" stroke-width="2" stroke-linecap="round" stroke-linejoin="round"/>
<path d="M680.088 386.594V397.331" stroke="#F87F28" stroke-width="2" stroke-linecap="round" stroke-linejoin="round"/>
<path d="M685.009 391.961H675.169" stroke="#F87F28" stroke-width="2" stroke-linecap="round" stroke-linejoin="round"/>
<path d="M878.109 257.256V267.994" stroke="#F87F28" stroke-width="2" stroke-linecap="round" stroke-linejoin="round"/>
<path d="M883.033 262.624H873.193" stroke="#F87F28" stroke-width="2" stroke-linecap="round" stroke-linejoin="round"/>
<path d="M1141.41 40.4438V51.1814" stroke="#F87F28" stroke-width="2" stroke-linecap="round" stroke-linejoin="round"/>
<path d="M1146.32 45.811H1136.48" stroke="#F87F28" stroke-width="2" stroke-linecap="round" stroke-linejoin="round"/>
<path d="M295.019 228.78V239.517" stroke="#F87F28" stroke-width="2" stroke-linecap="round" stroke-linejoin="round"/>
<path d="M299.939 234.147H290.1" stroke="#F87F28" stroke-width="2" stroke-linecap="round" stroke-linejoin="round"/>
<path d="M156.348 194.167V204.904" stroke="#F87F28" stroke-width="2" stroke-linecap="round" stroke-linejoin="round"/>
<path d="M161.269 199.535H151.429" stroke="#F87F28" stroke-width="2" stroke-linecap="round" stroke-linejoin="round"/>
<path d="M63.5889 147.397H53.7495" stroke="#EAF1FD" stroke-width="2" stroke-linecap="round" stroke-linejoin="round"/>
<path d="M58.6702 152.767V142.03" stroke="#EAF1FD" stroke-width="2" stroke-linecap="round" stroke-linejoin="round"/>
<path d="M63.5889 170.613H53.7495" stroke="#EAF1FD" stroke-width="2" stroke-linecap="round" stroke-linejoin="round"/>
<path d="M58.6702 175.98V165.243" stroke="#EAF1FD" stroke-width="2" stroke-linecap="round" stroke-linejoin="round"/>
<path d="M63.5889 193.826H53.7495" stroke="#EAF1FD" stroke-width="2" stroke-linecap="round" stroke-linejoin="round"/>
<path d="M58.6702 199.195V188.458" stroke="#EAF1FD" stroke-width="2" stroke-linecap="round" stroke-linejoin="round"/>
<path d="M285.465 385.224C285.465 385.584 285.367 385.935 285.184 386.235C285 386.534 284.74 386.768 284.434 386.905C284.13 387.044 283.794 387.079 283.47 387.009C283.147 386.939 282.849 386.765 282.616 386.51C282.383 386.256 282.224 385.931 282.16 385.578C282.096 385.225 282.128 384.859 282.255 384.526C282.382 384.194 282.595 383.909 282.87 383.709C283.144 383.509 283.467 383.403 283.797 383.403C284.016 383.403 284.233 383.45 284.435 383.542C284.638 383.633 284.821 383.767 284.976 383.936C285.132 384.105 285.254 384.306 285.338 384.527C285.422 384.748 285.465 384.985 285.465 385.224Z" fill="#A2BADD"/>
<path d="M296.791 385.224C296.791 385.584 296.693 385.935 296.51 386.235C296.326 386.534 296.066 386.768 295.761 386.905C295.456 387.044 295.12 387.079 294.797 387.009C294.473 386.939 294.175 386.765 293.942 386.51C293.709 386.256 293.55 385.931 293.486 385.578C293.421 385.225 293.455 384.859 293.581 384.526C293.707 384.194 293.921 383.909 294.196 383.709C294.471 383.509 294.793 383.403 295.123 383.403C295.342 383.403 295.559 383.45 295.761 383.542C295.964 383.633 296.148 383.767 296.303 383.936C296.458 384.105 296.58 384.306 296.664 384.527C296.748 384.748 296.791 384.985 296.791 385.224Z" fill="#A2BADD"/>
<path d="M308.122 385.224C308.122 385.584 308.023 385.935 307.841 386.235C307.657 386.534 307.397 386.768 307.091 386.905C306.787 387.044 306.451 387.079 306.127 387.009C305.804 386.939 305.507 386.766 305.274 386.511C305.04 386.256 304.881 385.932 304.817 385.578C304.752 385.225 304.786 384.86 304.912 384.527C305.038 384.194 305.252 383.91 305.526 383.709C305.801 383.51 306.123 383.403 306.453 383.403C306.672 383.403 306.889 383.449 307.091 383.541C307.294 383.633 307.478 383.767 307.633 383.936C307.788 384.105 307.911 384.305 307.995 384.527C308.078 384.748 308.122 384.985 308.122 385.224Z" fill="#A2BADD"/>
<path d="M285.465 397.583C285.465 397.943 285.367 398.294 285.184 398.594C285.001 398.894 284.74 399.127 284.435 399.265C284.13 399.403 283.795 399.439 283.471 399.369C283.147 399.299 282.85 399.126 282.617 398.871C282.383 398.616 282.224 398.291 282.16 397.938C282.096 397.585 282.128 397.219 282.255 396.887C282.381 396.554 282.595 396.27 282.87 396.069C283.144 395.869 283.467 395.763 283.797 395.763C284.239 395.763 284.663 395.954 284.976 396.296C285.289 396.637 285.465 397.1 285.465 397.583Z" fill="#A2BADD"/>
<path d="M296.791 397.583C296.791 397.943 296.693 398.294 296.51 398.594C296.327 398.894 296.066 399.127 295.761 399.265C295.456 399.403 295.121 399.439 294.797 399.369C294.474 399.299 294.176 399.126 293.943 398.871C293.709 398.616 293.55 398.291 293.486 397.938C293.421 397.585 293.455 397.219 293.581 396.887C293.707 396.554 293.921 396.27 294.196 396.069C294.471 395.869 294.793 395.763 295.123 395.763C295.566 395.763 295.99 395.954 296.303 396.296C296.615 396.637 296.791 397.1 296.791 397.583Z" fill="#A2BADD"/>
<path d="M308.122 397.583C308.122 397.943 308.024 398.294 307.841 398.594C307.658 398.894 307.397 399.127 307.092 399.265C306.788 399.403 306.452 399.439 306.128 399.369C305.804 399.299 305.507 399.126 305.274 398.871C305.04 398.617 304.881 398.292 304.817 397.939C304.752 397.586 304.786 397.219 304.912 396.887C305.038 396.554 305.252 396.27 305.526 396.069C305.8 395.87 306.123 395.763 306.453 395.763C306.672 395.763 306.889 395.809 307.091 395.901C307.294 395.992 307.478 396.127 307.633 396.295C307.788 396.464 307.91 396.665 307.994 396.886C308.078 397.107 308.122 397.344 308.122 397.583Z" fill="#A2BADD"/>
<path d="M285.465 409.943C285.465 410.303 285.367 410.655 285.184 410.954C285.001 411.253 284.74 411.487 284.435 411.625C284.13 411.763 283.795 411.799 283.471 411.729C283.147 411.659 282.85 411.486 282.617 411.231C282.383 410.976 282.224 410.651 282.16 410.298C282.096 409.945 282.128 409.579 282.255 409.246C282.381 408.913 282.595 408.629 282.87 408.429C283.144 408.229 283.467 408.123 283.797 408.123C284.239 408.123 284.663 408.314 284.976 408.656C285.289 408.997 285.465 409.46 285.465 409.943Z" fill="#A2BADD"/>
<path d="M296.791 409.943C296.791 410.303 296.693 410.655 296.51 410.954C296.327 411.253 296.066 411.487 295.761 411.625C295.456 411.763 295.121 411.799 294.797 411.729C294.474 411.659 294.176 411.486 293.943 411.231C293.709 410.976 293.55 410.651 293.486 410.298C293.421 409.945 293.455 409.579 293.581 409.246C293.707 408.913 293.921 408.629 294.196 408.429C294.471 408.229 294.793 408.123 295.123 408.123C295.566 408.123 295.99 408.314 296.303 408.656C296.615 408.997 296.791 409.46 296.791 409.943Z" fill="#A2BADD"/>
<path d="M308.122 409.943C308.122 410.303 308.024 410.654 307.841 410.954C307.658 411.253 307.397 411.487 307.092 411.625C306.788 411.763 306.452 411.799 306.128 411.729C305.804 411.659 305.507 411.486 305.274 411.231C305.04 410.976 304.881 410.652 304.817 410.299C304.752 409.946 304.786 409.579 304.912 409.246C305.038 408.914 305.252 408.629 305.526 408.43C305.8 408.23 306.123 408.123 306.453 408.123C306.672 408.123 306.889 408.17 307.091 408.261C307.294 408.352 307.478 408.487 307.633 408.655C307.788 408.824 307.91 409.025 307.994 409.246C308.078 409.467 308.122 409.704 308.122 409.943Z" fill="#A2BADD"/>
<path d="M62.038 1.80595C62.0378 2.16289 61.9407 2.51176 61.7589 2.80847C61.5771 3.1051 61.3187 3.33638 61.0165 3.47283C60.7143 3.60935 60.3817 3.64505 60.0609 3.57535C59.7402 3.50566 59.4455 3.33382 59.2142 3.08143C58.9829 2.82903 58.8254 2.50749 58.7615 2.15738C58.6977 1.80735 58.7304 1.44451 58.8555 1.11466C58.9806 0.78489 59.1925 0.503003 59.4644 0.304549C59.7362 0.106173 60.056 0.00015561 60.383 3.86143e-07C60.6004 -0.000154838 60.8157 0.0464898 61.0165 0.137218C61.2174 0.227947 61.3998 0.360972 61.5535 0.528692C61.7072 0.696411 61.8291 0.895564 61.9122 1.11466C61.9954 1.33384 62.0381 1.56877 62.038 1.80595Z" fill="#A2BADD"/>
<path d="M71.6177 3.6119C72.532 3.6119 73.2733 2.80334 73.2733 1.80595C73.2733 0.808561 72.532 0 71.6177 0C70.7042 0 69.9629 0.808561 69.9629 1.80595C69.9629 2.80334 70.7042 3.6119 71.6177 3.6119Z" fill="#A2BADD"/>
<path d="M84.5067 1.80595C84.5067 2.16312 84.4092 2.5123 84.2278 2.80924C84.0457 3.10626 83.7874 3.3377 83.485 3.47438C83.1827 3.61113 82.8497 3.64683 82.5288 3.57721C82.208 3.50752 81.9127 3.33553 81.6815 3.0829C81.4496 2.83035 81.2923 2.50857 81.2283 2.15823C81.1643 1.80797 81.1977 1.44482 81.3229 1.11482C81.4481 0.784813 81.6601 0.50277 81.9319 0.304394C82.2044 0.105941 82.5246 0 82.8518 0C83.2908 0 83.7113 0.190304 84.0215 0.528925C84.3324 0.867623 84.5067 1.32701 84.5067 1.80595Z" fill="#A2BADD"/>
<path d="M95.7434 1.80595C95.7434 2.16312 95.6459 2.5123 95.4645 2.80924C95.2824 3.10626 95.0241 3.3377 94.7218 3.47438C94.4194 3.61113 94.0864 3.64683 93.7656 3.57721C93.4447 3.50752 93.1494 3.33553 92.9182 3.0829C92.6863 2.83035 92.529 2.50857 92.465 2.15823C92.401 1.80797 92.4337 1.44482 92.5596 1.11482C92.6849 0.784813 92.8969 0.50277 93.1686 0.304394C93.4411 0.105941 93.7613 0 94.0886 0C94.3056 0 94.5211 0.0467233 94.7218 0.137452C94.9224 0.228258 95.1045 0.361283 95.2582 0.528925C95.4119 0.696644 95.5343 0.89572 95.6175 1.11482C95.7007 1.33392 95.7434 1.56877 95.7434 1.80595Z" fill="#A2BADD"/>
<path d="M105.323 3.6119C106.238 3.6119 106.978 2.80334 106.978 1.80595C106.978 0.808561 106.238 0 105.323 0C104.41 0 103.668 0.808561 103.668 1.80595C103.668 2.80334 104.41 3.6119 105.323 3.6119Z" fill="#A2BADD"/>
<path d="M118.213 1.80595C118.213 2.16312 118.115 2.5123 117.934 2.80924C117.752 3.10626 117.493 3.3377 117.191 3.47438C116.889 3.61113 116.556 3.64683 116.235 3.57721C115.913 3.50752 115.619 3.33553 115.387 3.0829C115.156 2.83035 114.998 2.50857 114.934 2.15823C114.87 1.80797 114.903 1.44482 115.028 1.11482C115.153 0.784813 115.366 0.502771 115.638 0.304395C115.91 0.105941 116.23 3.86143e-07 116.557 3.86143e-07C116.775 -0.000154838 116.99 0.0464897 117.191 0.137218C117.392 0.227946 117.574 0.360972 117.728 0.528691C117.882 0.696411 118.003 0.895564 118.087 1.11466C118.17 1.33384 118.213 1.56877 118.213 1.80595Z" fill="#A2BADD"/>
<path d="M129.447 1.80595C129.447 2.16312 129.35 2.5123 129.168 2.80924C128.986 3.10626 128.727 3.3377 128.425 3.47438C128.123 3.61113 127.79 3.64683 127.469 3.57721C127.148 3.50752 126.853 3.33553 126.621 3.0829C126.39 2.83035 126.232 2.50857 126.169 2.15823C126.105 1.80797 126.138 1.44482 126.263 1.11482C126.388 0.784813 126.6 0.502771 126.873 0.304395C127.144 0.105941 127.464 3.86143e-07 127.792 3.86143e-07C128.009 -0.000154838 128.224 0.0464897 128.425 0.137218C128.626 0.227946 128.808 0.360972 128.962 0.528691C129.116 0.696411 129.238 0.895564 129.321 1.11466C129.404 1.33384 129.447 1.56877 129.447 1.80595Z" fill="#A2BADD"/>
<path d="M62.038 14.0662C62.0378 14.4231 61.9407 14.772 61.7589 15.0687C61.5771 15.3654 61.3187 15.5966 61.0165 15.7332C60.7143 15.8697 60.3817 15.9053 60.0609 15.8356C59.7402 15.766 59.4455 15.5941 59.2142 15.3417C58.9829 15.0893 58.8254 14.7677 58.7615 14.4177C58.6977 14.0676 58.7304 13.7048 58.8555 13.375C58.9806 13.0452 59.1925 12.7633 59.4644 12.5649C59.7362 12.3664 60.056 12.2605 60.383 12.2603C60.822 12.2603 61.2429 12.4506 61.5533 12.7893C61.8636 13.1279 62.038 13.5873 62.038 14.0662Z" fill="#A2BADD"/>
<path d="M73.2735 14.0662C73.2735 14.4234 73.176 14.7726 72.9946 15.0696C72.8124 15.3665 72.5542 15.598 72.2518 15.7347C71.9494 15.8714 71.6165 15.9072 71.2956 15.8375C70.974 15.7678 70.6795 15.5958 70.4483 15.3432C70.2163 15.0907 70.0591 14.7688 69.9951 14.4186C69.931 14.0682 69.9638 13.7051 70.089 13.3752C70.2142 13.0451 70.4269 12.7631 70.6987 12.5646C70.9712 12.3662 71.2906 12.2603 71.6179 12.2603C72.0569 12.2605 72.4781 12.4509 72.7883 12.7895C73.0984 13.1281 73.2728 13.5873 73.2735 14.0662Z" fill="#A2BADD"/>
<path d="M84.5067 14.0662C84.5067 14.4234 84.4092 14.7726 84.2278 15.0696C84.0457 15.3665 83.7874 15.598 83.485 15.7347C83.1827 15.8714 82.8497 15.9072 82.5288 15.8375C82.208 15.7678 81.9127 15.5958 81.6815 15.3432C81.4496 15.0907 81.2923 14.7688 81.2283 14.4186C81.1643 14.0682 81.1977 13.7051 81.3229 13.3752C81.4481 13.0451 81.6601 12.7631 81.9319 12.5646C82.2044 12.3662 82.5246 12.2603 82.8518 12.2603C83.2901 12.2605 83.7113 12.4509 84.0215 12.7895C84.3317 13.1281 84.506 13.5873 84.5067 14.0662Z" fill="#A2BADD"/>
<path d="M95.7434 14.0662C95.7434 14.4234 95.6459 14.7726 95.4645 15.0696C95.2824 15.3665 95.0241 15.598 94.7218 15.7347C94.4194 15.8714 94.0864 15.9072 93.7656 15.8375C93.4447 15.7678 93.1494 15.5958 92.9182 15.3432C92.6863 15.0907 92.529 14.7688 92.465 14.4186C92.401 14.0682 92.4337 13.7051 92.5596 13.3752C92.6849 13.0451 92.8969 12.7631 93.1686 12.5646C93.4411 12.3662 93.7613 12.2603 94.0886 12.2603C94.5268 12.2605 94.948 12.4509 95.2582 12.7895C95.5684 13.1281 95.7427 13.5873 95.7434 14.0662Z" fill="#A2BADD"/>
<path d="M106.977 14.0662C106.977 14.4235 106.881 14.7726 106.698 15.0697C106.516 15.3667 106.258 15.5981 105.956 15.7348C105.653 15.8715 105.32 15.9072 104.999 15.8374C104.678 15.7676 104.383 15.5956 104.152 15.3429C103.92 15.0902 103.763 14.7684 103.699 14.418C103.636 14.0676 103.668 13.7045 103.794 13.3745C103.919 13.0445 104.131 12.7626 104.403 12.5642C104.676 12.3659 104.996 12.2601 105.323 12.2603C105.762 12.2605 106.183 12.4509 106.493 12.7896C106.803 13.1282 106.977 13.5874 106.977 14.0662Z" fill="#A2BADD"/>
<path d="M118.213 14.0662C118.213 14.4234 118.115 14.7726 117.934 15.0696C117.752 15.3665 117.493 15.598 117.191 15.7347C116.889 15.8714 116.556 15.9072 116.235 15.8375C115.913 15.7678 115.619 15.5958 115.387 15.3432C115.156 15.0907 114.998 14.7688 114.934 14.4186C114.87 14.0682 114.903 13.7051 115.028 13.3752C115.153 13.0451 115.366 12.7631 115.638 12.5646C115.91 12.3662 116.23 12.2603 116.557 12.2603C116.996 12.2603 117.417 12.4506 117.727 12.7893C118.038 13.1279 118.213 13.5873 118.213 14.0662Z" fill="#A2BADD"/>
<path d="M129.447 14.0662C129.447 14.4234 129.35 14.7726 129.168 15.0696C128.986 15.3665 128.727 15.598 128.425 15.7347C128.123 15.8714 127.79 15.9072 127.469 15.8375C127.148 15.7678 126.853 15.5958 126.621 15.3432C126.39 15.0907 126.232 14.7688 126.169 14.4186C126.105 14.0682 126.138 13.7051 126.263 13.3752C126.388 13.0451 126.6 12.7631 126.873 12.5646C127.144 12.3662 127.464 12.2603 127.792 12.2603C128.231 12.2603 128.652 12.4506 128.962 12.7893C129.272 13.1279 129.447 13.5873 129.447 14.0662Z" fill="#A2BADD"/>
<path d="M62.038 26.3261C62.0372 26.6829 61.9395 27.0315 61.7573 27.3276C61.5751 27.6239 61.3165 27.8545 61.0142 27.9905C60.7119 28.1265 60.3795 28.1616 60.059 28.0916C59.7384 28.0215 59.444 27.8493 59.213 27.5967C58.9821 27.3442 58.8249 27.0227 58.7613 26.6727C58.6977 26.3227 58.7306 25.9601 58.8558 25.6305C58.981 25.3009 59.1929 25.0192 59.4647 24.8209C59.7365 24.6227 60.0561 24.5168 60.383 24.5166C60.6007 24.5166 60.8161 24.5635 61.0172 24.6544C61.2181 24.7454 61.4007 24.8787 61.5544 25.0468C61.7082 25.215 61.83 25.4144 61.9129 25.634C61.996 25.8535 62.0384 26.0887 62.038 26.3261Z" fill="#A2BADD"/>
<path d="M73.2735 26.3261C73.2728 26.6832 73.1746 27.032 72.9925 27.3285C72.8104 27.625 72.5521 27.8559 72.249 27.9921C71.9467 28.1282 71.6144 28.1634 71.2935 28.0933C70.9727 28.0233 70.6781 27.851 70.4469 27.5983C70.2157 27.3456 70.0585 27.0238 69.9951 26.6736C69.9311 26.3233 69.9645 25.9604 70.0898 25.6306C70.215 25.3009 70.427 25.019 70.6995 24.8208C70.9712 24.6225 71.2914 24.5166 71.618 24.5166C71.8357 24.5168 72.0512 24.5636 72.2526 24.6547C72.4532 24.7457 72.6361 24.8791 72.7897 25.0471C72.9434 25.2152 73.0651 25.4146 73.1483 25.6341C73.2308 25.8535 73.2735 26.0887 73.2735 26.3261Z" fill="#A2BADD"/>
<path d="M84.5067 26.3261C84.5059 26.6833 84.4085 27.0322 84.2256 27.3287C84.0435 27.6253 83.7845 27.8562 83.4822 27.9922C83.1798 28.1284 82.8468 28.1634 82.526 28.0932C82.2051 28.023 81.9106 27.8505 81.6793 27.5976C81.4488 27.3448 81.2916 27.0228 81.2283 26.6724C81.1642 26.3221 81.1977 25.9591 81.3236 25.6294C81.4488 25.2996 81.6615 25.0179 81.9333 24.8198C82.2058 24.6218 82.526 24.5163 82.8532 24.5166C83.0709 24.517 83.2858 24.564 83.4864 24.6552C83.6871 24.7463 83.8699 24.8797 84.0236 25.0477C84.1765 25.2158 84.2982 25.4151 84.3814 25.6345C84.464 25.8539 84.5067 26.0889 84.5067 26.3261Z" fill="#A2BADD"/>
<path d="M95.7435 26.3261C95.7428 26.6832 95.6453 27.032 95.4625 27.3285C95.2803 27.625 95.0221 27.8559 94.7197 27.9921C94.4166 28.1282 94.0844 28.1634 93.7635 28.0933C93.4426 28.0233 93.1481 27.851 92.9169 27.5983C92.6857 27.3456 92.5284 27.0238 92.4651 26.6736C92.4011 26.3233 92.4345 25.9604 92.5597 25.6306C92.6849 25.3009 92.897 25.019 93.1694 24.8208C93.4412 24.6225 93.7614 24.5166 94.0887 24.5166C94.3056 24.5168 94.5212 24.5636 94.7226 24.6547C94.9232 24.7457 95.106 24.8791 95.2597 25.0471C95.4134 25.2152 95.535 25.4146 95.6183 25.6341C95.7008 25.8535 95.7435 26.0887 95.7435 26.3261Z" fill="#A2BADD"/>
<path d="M106.977 26.3261C106.977 26.6832 106.879 27.0321 106.697 27.3286C106.514 27.6251 106.256 27.856 105.953 27.9921C105.65 28.1283 105.318 28.1634 104.997 28.0933C104.676 28.0231 104.382 27.8507 104.151 27.598C103.919 27.3452 103.762 27.0233 103.699 26.673C103.636 26.3227 103.668 25.9598 103.794 25.63C103.919 25.3003 104.131 25.0184 104.404 24.8203C104.676 24.6222 104.996 24.5164 105.323 24.5166C105.541 24.5168 105.756 24.5636 105.957 24.6547C106.158 24.7457 106.341 24.8791 106.494 25.0472C106.648 25.2152 106.77 25.4147 106.852 25.6341C106.935 25.8536 106.978 26.0888 106.977 26.3261Z" fill="#A2BADD"/>
<path d="M118.213 26.3259C118.213 26.6831 118.115 27.0322 117.934 27.3293C117.752 27.6262 117.493 27.8577 117.191 27.9944C116.889 28.1311 116.556 28.1669 116.235 28.0972C115.913 28.0275 115.619 27.8555 115.387 27.6029C115.156 27.3504 114.998 27.0286 114.934 26.6783C114.87 26.3279 114.903 25.9648 115.028 25.6348C115.153 25.3048 115.366 25.0228 115.638 24.8243C115.91 24.6259 116.23 24.52 116.557 24.52C116.996 24.52 117.417 24.7102 117.727 25.0489C118.038 25.3876 118.213 25.8469 118.213 26.3259Z" fill="#A2BADD"/>
<path d="M129.447 26.3259C129.447 26.6831 129.35 27.0322 129.168 27.3293C128.986 27.6262 128.727 27.8577 128.425 27.9944C128.123 28.1311 127.79 28.1669 127.469 28.0972C127.148 28.0275 126.853 27.8555 126.621 27.6029C126.39 27.3504 126.232 27.0286 126.169 26.6783C126.105 26.3279 126.138 25.9648 126.263 25.6348C126.388 25.3048 126.6 25.0228 126.873 24.8243C127.144 24.6259 127.464 24.52 127.792 24.52C128.231 24.52 128.652 24.7102 128.962 25.0489C129.272 25.3876 129.447 25.8469 129.447 26.3259Z" fill="#A2BADD"/>
<path d="M62.038 38.5862C62.0378 38.9432 61.9407 39.292 61.7589 39.5883C61.5771 39.8856 61.3187 40.1169 61.0165 40.2535C60.7143 40.3893 60.3817 40.425 60.0609 40.3559C59.7402 40.2861 59.4455 40.1138 59.2142 39.8615C58.9829 39.6093 58.8254 39.2878 58.7615 38.9377C58.6977 38.5876 58.7304 38.2248 58.8555 37.8949C58.9806 37.5652 59.1925 37.2833 59.4644 37.0848C59.7362 36.8864 60.056 36.7804 60.383 36.7803C60.6004 36.7801 60.8157 36.8268 61.0165 36.9175C61.2174 37.0082 61.3998 37.1412 61.5535 37.309C61.7072 37.4767 61.8291 37.6758 61.9122 37.8949C61.9954 38.1141 62.0381 38.349 62.038 38.5862Z" fill="#A2BADD"/>
<path d="M73.2735 38.5862C73.2735 38.9434 73.176 39.2926 72.9946 39.5899C72.8124 39.8864 72.5542 40.1177 72.2518 40.255C71.9494 40.3916 71.6165 40.4273 71.2956 40.3575C70.974 40.2876 70.6795 40.1161 70.4483 39.8631C70.2163 39.6109 70.0591 39.2888 69.9951 38.9385C69.931 38.5882 69.9638 38.2251 70.089 37.8951C70.2142 37.5651 70.4269 37.283 70.6987 37.0846C70.9712 36.8862 71.2906 36.7803 71.6179 36.7803C72.0569 36.7803 72.4781 36.9705 72.7883 37.3092C73.0992 37.6479 73.2735 38.1073 73.2735 38.5862Z" fill="#A2BADD"/>
<path d="M84.5067 38.5862C84.5067 38.9434 84.4092 39.2926 84.2278 39.5899C84.0457 39.8864 83.7874 40.1177 83.485 40.255C83.1827 40.3916 82.8497 40.4273 82.5288 40.3575C82.208 40.2876 81.9127 40.1161 81.6815 39.8631C81.4496 39.6109 81.2923 39.2888 81.2283 38.9385C81.1643 38.5882 81.1977 38.2251 81.3229 37.8951C81.4481 37.5651 81.6601 37.283 81.9319 37.0846C82.2044 36.8862 82.5246 36.7803 82.8518 36.7803C83.2908 36.7803 83.7113 36.9705 84.0215 37.3092C84.3324 37.6479 84.5067 38.1073 84.5067 38.5862Z" fill="#A2BADD"/>
<path d="M95.7434 38.5862C95.7434 38.9434 95.6459 39.2926 95.4645 39.5899C95.2824 39.8864 95.0241 40.1177 94.7218 40.255C94.4194 40.3916 94.0864 40.4273 93.7656 40.3575C93.4447 40.2876 93.1494 40.1161 92.9182 39.8631C92.6863 39.6109 92.529 39.2888 92.465 38.9385C92.401 38.5882 92.4337 38.2251 92.5596 37.8951C92.6849 37.5651 92.8969 37.283 93.1686 37.0846C93.4411 36.8862 93.7613 36.7803 94.0886 36.7803C94.3056 36.7803 94.5211 36.827 94.7218 36.9177C94.9224 37.0085 95.1045 37.1416 95.2582 37.3092C95.4119 37.4769 95.5343 37.676 95.6175 37.8951C95.7007 38.1142 95.7434 38.349 95.7434 38.5862Z" fill="#A2BADD"/>
<path d="M106.977 38.5862C106.977 38.9434 106.881 39.2927 106.698 39.5899C106.516 39.8864 106.258 40.1184 105.956 40.255C105.653 40.3916 105.32 40.4273 104.999 40.3575C104.678 40.2876 104.383 40.1153 104.152 39.8631C103.92 39.6101 103.763 39.2884 103.699 38.938C103.636 38.5876 103.668 38.2245 103.794 37.8945C103.919 37.5645 104.131 37.2825 104.403 37.0842C104.676 36.8858 104.996 36.7801 105.323 36.7803C105.54 36.7803 105.756 36.827 105.956 36.9177C106.157 37.0085 106.34 37.1416 106.493 37.3093C106.646 37.477 106.769 37.6761 106.851 37.8952C106.935 38.1143 106.977 38.3491 106.977 38.5862Z" fill="#A2BADD"/>
<path d="M118.213 38.5862C118.213 38.9434 118.115 39.2926 117.934 39.5899C117.752 39.8864 117.493 40.1177 117.191 40.255C116.889 40.3916 116.556 40.4273 116.235 40.3575C115.913 40.2876 115.619 40.1161 115.387 39.8631C115.156 39.6109 114.998 39.2888 114.934 38.9385C114.87 38.5882 114.903 38.2251 115.028 37.8951C115.153 37.5651 115.366 37.283 115.638 37.0846C115.91 36.8862 116.23 36.7803 116.557 36.7803C116.775 36.7801 116.99 36.8268 117.191 36.9175C117.392 37.0082 117.574 37.1412 117.728 37.309C117.882 37.4767 118.003 37.6758 118.087 37.8949C118.17 38.1141 118.213 38.349 118.213 38.5862Z" fill="#A2BADD"/>
<path d="M129.447 38.5862C129.447 38.9434 129.35 39.2926 129.168 39.5899C128.986 39.8864 128.727 40.1177 128.425 40.255C128.123 40.3916 127.79 40.4273 127.469 40.3575C127.148 40.2876 126.853 40.1161 126.621 39.8631C126.39 39.6109 126.232 39.2888 126.169 38.9385C126.105 38.5882 126.138 38.2251 126.263 37.8951C126.388 37.5651 126.6 37.283 126.873 37.0846C127.144 36.8862 127.464 36.7803 127.792 36.7803C128.009 36.7801 128.224 36.8268 128.425 36.9175C128.626 37.0082 128.808 37.1412 128.962 37.309C129.116 37.4767 129.238 37.6758 129.321 37.8949C129.404 38.1141 129.447 38.349 129.447 38.5862Z" fill="#A2BADD"/>
<path d="M62.038 50.845C62.038 51.202 61.941 51.5513 61.7593 51.8478C61.5776 52.145 61.3193 52.3763 61.0171 52.5129C60.7148 52.6495 60.3823 52.6852 60.0614 52.6153C59.7406 52.5463 59.4459 52.374 59.2145 52.1217C58.9831 51.8695 58.8256 51.5482 58.7616 51.1982C58.6977 50.8481 58.7304 50.4849 58.8554 50.155C58.9804 49.8252 59.1924 49.5435 59.4642 49.3448C59.7362 49.1461 60.0559 49.0405 60.383 49.0405C60.6003 49.0398 60.8155 49.0863 61.0163 49.1771C61.2171 49.2679 61.3995 49.4007 61.5532 49.5683C61.7069 49.7359 61.8288 49.9354 61.912 50.1543C61.9952 50.3731 62.038 50.6083 62.038 50.845Z" fill="#A2BADD"/>
<path d="M71.6177 52.6518C72.532 52.6518 73.2733 51.8439 73.2733 50.8458C73.2733 49.8485 72.532 49.0405 71.6177 49.0405C70.7042 49.0405 69.9629 49.8485 69.9629 50.8458C69.9629 51.8439 70.7042 52.6518 71.6177 52.6518Z" fill="#A2BADD"/>
<path d="M84.5066 50.845C84.5066 51.2028 84.4099 51.5521 84.2277 51.8485C84.0463 52.1458 83.788 52.3778 83.4857 52.5144C83.1833 52.651 82.8504 52.6867 82.5295 52.6177C82.2079 52.5478 81.9134 52.3763 81.6814 52.1233C81.4502 51.871 81.2923 51.549 81.2282 51.1989C81.1642 50.8481 81.1969 50.4849 81.3221 50.155C81.4474 49.8252 81.6601 49.5427 81.9319 49.3448C82.2043 49.1461 82.5245 49.0405 82.8518 49.0405C83.29 49.0405 83.7112 49.2307 84.0214 49.5691C84.3316 49.9075 84.5059 50.3661 84.5066 50.845Z" fill="#A2BADD"/>
<path d="M95.7434 50.845C95.7434 51.2028 95.6467 51.5521 95.4645 51.8485C95.2831 52.1458 95.0249 52.3778 94.7225 52.5144C94.4201 52.651 94.0872 52.6867 93.7656 52.6177C93.4447 52.5478 93.1502 52.3763 92.9182 52.1233C92.687 51.871 92.5291 51.549 92.465 51.1989C92.401 50.8481 92.4337 50.4849 92.5589 50.155C92.6842 49.8252 92.8969 49.5427 93.1687 49.3448C93.4412 49.1461 93.7606 49.0405 94.0886 49.0405C94.5269 49.0405 94.948 49.2307 95.2582 49.5691C95.5684 49.9075 95.7427 50.3661 95.7434 50.845Z" fill="#A2BADD"/>
<path d="M105.323 52.6518C106.238 52.6518 106.978 51.8439 106.978 50.8458C106.978 49.8485 106.238 49.0405 105.323 49.0405C104.41 49.0405 103.668 49.8485 103.668 50.8458C103.668 51.8439 104.41 52.6518 105.323 52.6518Z" fill="#A2BADD"/>
<path d="M118.213 50.845C118.213 51.2028 118.116 51.5521 117.934 51.8485C117.752 52.1458 117.494 52.3779 117.192 52.5145C116.889 52.6511 116.556 52.6867 116.236 52.6177C115.914 52.5478 115.619 52.3763 115.387 52.1233C115.156 51.871 114.998 51.549 114.934 51.1989C114.87 50.8481 114.903 50.4849 115.028 50.155C115.153 49.8252 115.366 49.5427 115.638 49.3448C115.91 49.1461 116.23 49.0405 116.558 49.0405C116.775 49.0398 116.99 49.0863 117.191 49.1771C117.392 49.2679 117.574 49.4007 117.727 49.5683C117.881 49.7359 118.003 49.9354 118.087 50.1543C118.17 50.3731 118.213 50.6083 118.213 50.845Z" fill="#A2BADD"/>
<path d="M129.447 50.845C129.447 51.2028 129.35 51.5521 129.168 51.8485C128.986 52.1458 128.728 52.3779 128.426 52.5145C128.123 52.6511 127.79 52.6867 127.469 52.6177C127.149 52.5478 126.853 52.3763 126.622 52.1233C126.39 51.871 126.233 51.549 126.169 51.1989C126.105 50.8481 126.138 50.4849 126.263 50.155C126.388 49.8252 126.6 49.5427 126.873 49.3448C127.144 49.1461 127.464 49.0405 127.792 49.0405C128.009 49.0398 128.224 49.0863 128.425 49.1771C128.626 49.2679 128.808 49.4007 128.962 49.5683C129.116 49.7359 129.237 49.9354 129.321 50.1543C129.404 50.3731 129.447 50.6083 129.447 50.845Z" fill="#A2BADD"/>
<path d="M954.57 207.288C954.57 207.608 954.484 207.92 954.321 208.186C954.157 208.451 953.929 208.658 953.659 208.781C953.388 208.903 953.09 208.935 952.805 208.873C952.513 208.811 952.25 208.657 952.044 208.43C951.837 208.204 951.695 207.916 951.638 207.603C951.581 207.289 951.61 206.965 951.724 206.669C951.838 206.374 952.023 206.122 952.272 205.944C952.513 205.767 952.798 205.672 953.09 205.672C953.481 205.672 953.858 205.842 954.136 206.145C954.413 206.448 954.57 206.859 954.57 207.288Z" fill="#A2BADD"/>
<path d="M963.143 208.904C963.961 208.904 964.623 208.18 964.623 207.288C964.623 206.395 963.961 205.672 963.143 205.672C962.324 205.672 961.663 206.395 961.663 207.288C961.663 208.18 962.324 208.904 963.143 208.904Z" fill="#A2BADD"/>
<path d="M974.675 207.288C974.675 207.608 974.59 207.92 974.426 208.186C974.263 208.452 974.035 208.658 973.765 208.781C973.494 208.904 973.196 208.935 972.911 208.873C972.619 208.811 972.356 208.656 972.15 208.43C971.943 208.204 971.801 207.916 971.744 207.603C971.687 207.289 971.716 206.964 971.83 206.669C971.943 206.373 972.128 206.121 972.377 205.944C972.619 205.767 972.904 205.672 973.196 205.672C973.395 205.672 973.587 205.714 973.765 205.795C973.943 205.876 974.106 205.996 974.241 206.145C974.384 206.295 974.49 206.474 974.569 206.669C974.64 206.866 974.675 207.076 974.675 207.288Z" fill="#A2BADD"/>
<path d="M984.728 207.288C984.728 207.608 984.643 207.92 984.479 208.186C984.316 208.451 984.088 208.658 983.818 208.781C983.547 208.903 983.249 208.935 982.964 208.873C982.672 208.811 982.409 208.657 982.203 208.43C981.996 208.204 981.854 207.916 981.797 207.603C981.74 207.289 981.769 206.965 981.883 206.669C981.996 206.374 982.181 206.122 982.43 205.944C982.672 205.767 982.957 205.672 983.249 205.672C983.448 205.672 983.64 205.714 983.818 205.794C983.996 205.876 984.159 205.995 984.302 206.145C984.437 206.295 984.543 206.474 984.622 206.669C984.693 206.866 984.728 207.076 984.728 207.288Z" fill="#A2BADD"/>
<path d="M993.302 208.904C994.12 208.904 994.788 208.18 994.788 207.288C994.788 206.395 994.12 205.672 993.302 205.672C992.483 205.672 991.822 206.395 991.822 207.288C991.822 208.18 992.483 208.904 993.302 208.904Z" fill="#A2BADD"/>
<path d="M1004.84 207.288C1004.84 207.608 1004.75 207.92 1004.59 208.186C1004.43 208.451 1004.19 208.658 1003.92 208.781C1003.65 208.903 1003.35 208.935 1003.07 208.873C1002.78 208.811 1002.51 208.657 1002.31 208.43C1002.1 208.204 1001.96 207.916 1001.9 207.603C1001.85 207.289 1001.87 206.965 1001.99 206.669C1002.1 206.374 1002.29 206.122 1002.54 205.944C1002.78 205.767 1003.06 205.672 1003.35 205.672C1003.75 205.672 1004.13 205.842 1004.41 206.145C1004.68 206.448 1004.84 206.859 1004.84 207.288Z" fill="#A2BADD"/>
<path d="M1014.89 207.288C1014.89 207.608 1014.8 207.92 1014.65 208.186C1014.48 208.451 1014.25 208.658 1013.98 208.781C1013.71 208.903 1013.41 208.935 1013.12 208.873C1012.84 208.811 1012.57 208.657 1012.36 208.43C1012.15 208.204 1012.01 207.916 1011.96 207.603C1011.9 207.289 1011.93 206.965 1012.04 206.669C1012.15 206.374 1012.35 206.122 1012.59 205.944C1012.83 205.767 1013.12 205.672 1013.41 205.672C1013.81 205.672 1014.18 205.842 1014.46 206.145C1014.74 206.448 1014.89 206.859 1014.89 207.288Z" fill="#A2BADD"/>
<path d="M964.622 218.259C964.622 218.578 964.537 218.891 964.373 219.156C964.21 219.422 963.982 219.629 963.712 219.751C963.441 219.874 963.143 219.906 962.858 219.844C962.566 219.782 962.303 219.627 962.097 219.401C961.89 219.175 961.748 218.887 961.691 218.574C961.634 218.26 961.663 217.935 961.777 217.64C961.891 217.344 962.075 217.092 962.325 216.914C962.566 216.738 962.851 216.642 963.143 216.642C963.534 216.643 963.911 216.813 964.189 217.116C964.466 217.419 964.622 217.83 964.622 218.259Z" fill="#A2BADD"/>
<path d="M974.675 218.259C974.675 218.579 974.59 218.891 974.426 219.157C974.263 219.422 974.035 219.629 973.765 219.751C973.494 219.874 973.196 219.906 972.911 219.844C972.619 219.781 972.356 219.627 972.15 219.401C971.943 219.175 971.801 218.887 971.744 218.573C971.687 218.26 971.716 217.935 971.83 217.639C971.943 217.344 972.128 217.092 972.377 216.914C972.619 216.737 972.904 216.642 973.196 216.642C973.594 216.643 973.964 216.813 974.241 217.116C974.519 217.419 974.675 217.83 974.675 218.259Z" fill="#A2BADD"/>
<path d="M984.728 218.259C984.728 218.578 984.643 218.891 984.479 219.156C984.316 219.422 984.088 219.629 983.818 219.751C983.547 219.874 983.249 219.906 982.964 219.844C982.672 219.782 982.409 219.627 982.203 219.401C981.996 219.175 981.854 218.887 981.797 218.574C981.74 218.26 981.769 217.935 981.883 217.64C981.996 217.344 982.181 217.092 982.43 216.914C982.672 216.738 982.957 216.642 983.249 216.642C983.64 216.642 984.017 216.813 984.294 217.116C984.579 217.419 984.728 217.83 984.728 218.259Z" fill="#A2BADD"/>
<path d="M994.788 218.259C994.788 218.578 994.696 218.891 994.532 219.156C994.376 219.422 994.141 219.629 993.871 219.751C993.6 219.874 993.301 219.906 993.017 219.844C992.725 219.782 992.462 219.627 992.256 219.401C992.049 219.175 991.907 218.887 991.85 218.574C991.793 218.26 991.822 217.935 991.936 217.64C992.049 217.344 992.241 217.092 992.483 216.914C992.725 216.738 993.01 216.642 993.302 216.642C993.7 216.642 994.077 216.813 994.354 217.116C994.632 217.419 994.788 217.83 994.788 218.259Z" fill="#A2BADD"/>
<path d="M1004.84 218.259C1004.84 218.578 1004.75 218.891 1004.59 219.156C1004.43 219.422 1004.19 219.629 1003.92 219.751C1003.65 219.874 1003.35 219.906 1003.07 219.844C1002.78 219.782 1002.51 219.627 1002.31 219.401C1002.1 219.175 1001.96 218.887 1001.9 218.574C1001.85 218.26 1001.87 217.935 1001.99 217.64C1002.1 217.344 1002.29 217.092 1002.54 216.914C1002.78 216.738 1003.06 216.642 1003.35 216.642C1003.75 216.643 1004.13 216.813 1004.41 217.116C1004.68 217.419 1004.84 217.83 1004.84 218.259Z" fill="#A2BADD"/>
<path d="M1014.89 218.259C1014.89 218.578 1014.8 218.891 1014.65 219.156C1014.48 219.422 1014.25 219.629 1013.98 219.751C1013.71 219.874 1013.41 219.906 1013.12 219.844C1012.84 219.782 1012.57 219.627 1012.36 219.401C1012.15 219.175 1012.01 218.887 1011.96 218.574C1011.9 218.26 1011.93 217.935 1012.04 217.64C1012.15 217.344 1012.35 217.092 1012.59 216.914C1012.83 216.738 1013.12 216.642 1013.41 216.642C1013.81 216.643 1014.18 216.813 1014.46 217.116C1014.74 217.419 1014.89 217.83 1014.89 218.259Z" fill="#A2BADD"/>
<path d="M1024.95 218.259C1024.95 218.579 1024.85 218.891 1024.7 219.157C1024.53 219.422 1024.3 219.629 1024.03 219.751C1023.76 219.874 1023.46 219.906 1023.18 219.844C1022.89 219.781 1022.62 219.627 1022.41 219.401C1022.21 219.175 1022.07 218.887 1022.01 218.573C1021.95 218.26 1021.99 217.935 1022.09 217.639C1022.21 217.344 1022.4 217.092 1022.64 216.914C1022.88 216.737 1023.17 216.642 1023.47 216.642C1023.86 216.643 1024.24 216.813 1024.51 217.116C1024.79 217.419 1024.95 217.83 1024.95 218.259Z" fill="#A2BADD"/>
<path d="M1.02451 561.819C1.59034 561.819 2.04904 561.317 2.04904 560.7C2.04904 560.083 1.59034 559.582 1.02451 559.582C0.458691 559.582 0 560.083 0 560.7C0 561.317 0.458691 561.819 1.02451 561.819Z" fill="#4181E0"/>
<path d="M14.3879 561.819C14.9537 561.819 15.4124 561.317 15.4124 560.7C15.4124 560.083 14.9537 559.582 14.3879 559.582C13.822 559.582 13.3633 560.083 13.3633 560.7C13.3633 561.317 13.822 561.819 14.3879 561.819Z" fill="#4181E0"/>
<path d="M1.02451 576.277C1.59034 576.277 2.04904 575.776 2.04904 575.159C2.04904 574.541 1.59034 574.041 1.02451 574.041C0.458691 574.041 0 574.541 0 575.159C0 575.776 0.458691 576.277 1.02451 576.277Z" fill="#4181E0"/>
<path d="M14.3879 576.277C14.9537 576.277 15.4124 575.776 15.4124 575.159C15.4124 574.541 14.9537 574.041 14.3879 574.041C13.822 574.041 13.3633 574.541 13.3633 575.159C13.3633 575.776 13.822 576.277 14.3879 576.277Z" fill="#4181E0"/>
<path d="M2.04905 589.617C2.04905 589.839 1.98893 590.054 1.87637 590.238C1.7638 590.422 1.60379 590.566 1.41659 590.65C1.22938 590.735 1.02338 590.757 0.82464 590.714C0.625908 590.671 0.443363 590.564 0.300075 590.408C0.156794 590.251 0.0592176 590.052 0.019689 589.835C-0.0198468 589.618 0.000444147 589.394 0.077986 589.189C0.155528 588.985 0.286842 588.81 0.455322 588.688C0.623803 588.564 0.821887 588.499 1.02452 588.499C1.29624 588.499 1.55683 588.617 1.74896 588.827C1.94112 589.036 2.04905 589.321 2.04905 589.617Z" fill="#4181E0"/>
<path d="M15.4121 589.617C15.4121 589.839 15.3519 590.054 15.2394 590.238C15.1268 590.422 14.9668 590.566 14.7796 590.65C14.5924 590.735 14.3864 590.757 14.1876 590.714C13.9889 590.671 13.8064 590.564 13.6631 590.408C13.5198 590.251 13.4223 590.052 13.3827 589.835C13.3432 589.618 13.3635 589.394 13.441 589.189C13.5186 588.985 13.6498 588.81 13.8183 588.688C13.9869 588.564 14.1849 588.499 14.3876 588.499C14.5221 588.499 14.6553 588.528 14.7796 588.584C14.9039 588.64 15.0168 588.723 15.112 588.827C15.2071 588.931 15.2826 589.054 15.3341 589.189C15.3856 589.325 15.4121 589.471 15.4121 589.617Z" fill="#4181E0"/>
<path d="M2.04904 604.076C2.0489 604.298 1.98878 604.513 1.87616 604.697C1.7635 604.881 1.60346 605.025 1.41624 605.109C1.22903 605.194 1.02305 605.216 0.824346 605.172C0.625636 605.13 0.443139 605.022 0.299902 604.866C0.156671 604.71 0.059137 604.511 0.0196511 604.294C-0.019842 604.077 0.000477494 603.852 0.0780336 603.648C0.15559 603.444 0.286904 603.269 0.455377 603.146C0.623843 603.023 0.821905 602.958 1.02451 602.958C1.29628 602.958 1.55687 603.076 1.74899 603.286C1.94111 603.495 2.04904 603.78 2.04904 604.076Z" fill="#4181E0"/>
<path d="M15.4121 604.076C15.412 604.298 15.3518 604.513 15.2392 604.697C15.1265 604.881 14.9665 605.025 14.7793 605.109C14.592 605.194 14.3861 605.216 14.1874 605.172C13.9886 605.13 13.8062 605.022 13.6629 604.866C13.5197 604.71 13.4222 604.511 13.3827 604.294C13.3432 604.077 13.3635 603.852 13.441 603.648C13.5186 603.444 13.6499 603.269 13.8184 603.146C13.9869 603.023 14.1849 602.958 14.3876 602.958C14.5221 602.958 14.6554 602.987 14.7797 603.043C14.9041 603.099 15.017 603.182 15.1122 603.286C15.2073 603.39 15.2828 603.513 15.3342 603.648C15.3857 603.784 15.4121 603.93 15.4121 604.076Z" fill="#4181E0"/>
<path d="M26.1525 561.819C26.7183 561.819 27.177 561.317 27.177 560.7C27.177 560.083 26.7183 559.582 26.1525 559.582C25.5867 559.582 25.1279 560.083 25.1279 560.7C25.1279 561.317 25.5867 561.819 26.1525 561.819Z" fill="#4181E0"/>
<path d="M39.516 561.819C40.0819 561.819 40.5405 561.317 40.5405 560.7C40.5405 560.083 40.0819 559.582 39.516 559.582C38.9502 559.582 38.4915 560.083 38.4915 560.7C38.4915 561.317 38.9502 561.819 39.516 561.819Z" fill="#4181E0"/>
<path d="M52.8793 561.819C53.4451 561.819 53.9038 561.317 53.9038 560.7C53.9038 560.083 53.4451 559.582 52.8793 559.582C52.3135 559.582 51.8547 560.083 51.8547 560.7C51.8547 561.317 52.3135 561.819 52.8793 561.819Z" fill="#4181E0"/>
<path d="M66.2428 561.819C66.8084 561.819 67.2673 561.317 67.2673 560.7C67.2673 560.083 66.8084 559.582 66.2428 559.582C65.677 559.582 65.2183 560.083 65.2183 560.7C65.2183 561.317 65.677 561.819 66.2428 561.819Z" fill="#4181E0"/>
<path d="M26.1525 576.277C26.7183 576.277 27.177 575.776 27.177 575.159C27.177 574.541 26.7183 574.041 26.1525 574.041C25.5867 574.041 25.1279 574.541 25.1279 575.159C25.1279 575.776 25.5867 576.277 26.1525 576.277Z" fill="#4181E0"/>
<path d="M39.516 576.277C40.0819 576.277 40.5405 575.776 40.5405 575.159C40.5405 574.541 40.0819 574.041 39.516 574.041C38.9502 574.041 38.4915 574.541 38.4915 575.159C38.4915 575.776 38.9502 576.277 39.516 576.277Z" fill="#4181E0"/>
<path d="M52.8793 576.277C53.4451 576.277 53.9038 575.776 53.9038 575.159C53.9038 574.541 53.4451 574.041 52.8793 574.041C52.3135 574.041 51.8547 574.541 51.8547 575.159C51.8547 575.776 52.3135 576.277 52.8793 576.277Z" fill="#4181E0"/>
<path d="M66.2428 576.277C66.8084 576.277 67.2673 575.776 67.2673 575.159C67.2673 574.541 66.8084 574.041 66.2428 574.041C65.677 574.041 65.2183 574.541 65.2183 575.159C65.2183 575.776 65.677 576.277 66.2428 576.277Z" fill="#4181E0"/>
<path d="M27.1772 589.617C27.1772 589.839 27.1171 590.054 27.0045 590.238C26.892 590.422 26.732 590.566 26.5447 590.65C26.3575 590.735 26.1516 590.757 25.9528 590.714C25.7541 590.671 25.5715 590.564 25.4282 590.408C25.2849 590.251 25.1874 590.052 25.1478 589.835C25.1083 589.618 25.1286 589.394 25.2062 589.189C25.2837 588.985 25.415 588.81 25.5835 588.688C25.7519 588.564 25.9501 588.499 26.1527 588.499C26.4244 588.499 26.685 588.617 26.8771 588.827C27.0693 589.036 27.1772 589.321 27.1772 589.617Z" fill="#4181E0"/>
<path d="M40.5405 589.617C40.5405 589.839 40.4804 590.054 40.3678 590.238C40.2553 590.422 40.0952 590.566 39.908 590.65C39.7208 590.735 39.5148 590.757 39.3161 590.714C39.1173 590.671 38.9348 590.564 38.7915 590.408C38.6482 590.251 38.5507 590.052 38.5111 589.835C38.4716 589.618 38.4919 589.394 38.5695 589.189C38.647 588.985 38.7783 588.81 38.9467 588.688C39.1152 588.564 39.3134 588.499 39.516 588.499C39.7877 588.499 40.0483 588.617 40.2404 588.827C40.4326 589.036 40.5405 589.321 40.5405 589.617Z" fill="#4181E0"/>
<path d="M53.904 589.617C53.904 589.839 53.8439 590.054 53.7313 590.238C53.6188 590.422 53.4588 590.566 53.2716 590.65C53.0843 590.735 52.8784 590.757 52.6796 590.714C52.4809 590.671 52.2983 590.564 52.155 590.408C52.0117 590.251 51.9142 590.052 51.8746 589.835C51.8352 589.618 51.8554 589.394 51.933 589.189C52.0105 588.985 52.1418 588.81 52.3103 588.688C52.4788 588.564 52.6769 588.499 52.8795 588.499C53.1512 588.499 53.4118 588.617 53.6039 588.827C53.7961 589.036 53.904 589.321 53.904 589.617Z" fill="#4181E0"/>
<path d="M67.2666 589.617C67.2666 589.839 67.2068 590.054 67.0944 590.238C66.9813 590.422 66.8219 590.566 66.6341 590.65C66.447 590.735 66.2413 590.757 66.0421 590.714C65.8436 590.671 65.6611 590.564 65.5178 590.408C65.3746 590.251 65.277 590.052 65.2375 589.835C65.1979 589.618 65.2182 589.394 65.2957 589.189C65.3733 588.985 65.5046 588.81 65.6731 588.688C65.8416 588.564 66.0393 588.499 66.2421 588.499C66.3765 588.499 66.5103 588.528 66.6341 588.584C66.7586 588.64 66.8717 588.723 66.967 588.827C67.0617 588.931 67.1371 589.054 67.189 589.189C67.2402 589.325 67.2666 589.471 67.2666 589.617Z" fill="#4181E0"/>
<path d="M27.1772 604.076C27.1771 604.298 27.1169 604.513 27.0043 604.697C26.8917 604.881 26.7316 605.025 26.5444 605.109C26.3572 605.194 26.1512 605.216 25.9525 605.172C25.7538 605.13 25.5713 605.022 25.4281 604.866C25.2849 604.71 25.1873 604.511 25.1478 604.294C25.1083 604.077 25.1286 603.852 25.2062 603.648C25.2837 603.444 25.4151 603.269 25.5835 603.146C25.752 603.023 25.9501 602.958 26.1527 602.958C26.2872 602.958 26.4205 602.987 26.5449 603.043C26.6692 603.099 26.7821 603.182 26.8773 603.286C26.9724 603.39 27.0479 603.513 27.0994 603.648C27.1508 603.784 27.1773 603.93 27.1772 604.076Z" fill="#4181E0"/>
<path d="M40.5405 604.076C40.5404 604.298 40.4802 604.513 40.3676 604.697C40.255 604.881 40.0949 605.025 39.9077 605.109C39.7205 605.194 39.5145 605.216 39.3158 605.172C39.1171 605.13 38.9346 605.022 38.7914 604.866C38.6481 604.71 38.5506 604.511 38.5111 604.294C38.4716 604.077 38.4919 603.852 38.5695 603.648C38.647 603.444 38.7783 603.269 38.9468 603.146C39.1153 603.023 39.3134 602.958 39.516 602.958C39.6505 602.958 39.7838 602.987 39.9081 603.043C40.0325 603.099 40.1454 603.182 40.2406 603.286C40.3357 603.39 40.4111 603.513 40.4626 603.648C40.5141 603.784 40.5405 603.93 40.5405 604.076Z" fill="#4181E0"/>
<path d="M53.904 604.076C53.9039 604.298 53.8437 604.513 53.7311 604.697C53.6185 604.881 53.4584 605.025 53.2712 605.109C53.084 605.194 52.878 605.216 52.6793 605.172C52.4806 605.13 52.2981 605.022 52.1549 604.866C52.0117 604.71 51.9141 604.511 51.8746 604.294C51.8352 604.077 51.8554 603.852 51.933 603.648C52.0105 603.444 52.1419 603.269 52.3103 603.146C52.4788 603.023 52.6769 602.958 52.8795 602.958C53.1513 602.958 53.4118 603.076 53.604 603.286C53.7961 603.495 53.904 603.78 53.904 604.076Z" fill="#4181E0"/>
<path d="M67.2666 604.076C67.2666 604.298 67.2068 604.513 67.0937 604.697C66.9813 604.881 66.8212 605.025 66.6341 605.109C66.447 605.194 66.2407 605.216 66.0422 605.172C65.8434 605.13 65.6609 605.022 65.5177 604.866C65.3745 604.71 65.2769 604.511 65.2374 604.294C65.1979 604.077 65.2182 603.852 65.2958 603.648C65.3734 603.444 65.5047 603.269 65.6731 603.146C65.8416 603.023 66.04 602.958 66.2421 602.958C66.3765 602.958 66.5103 602.987 66.6348 603.043C66.7586 603.099 66.8717 603.182 66.9671 603.286C67.0624 603.39 67.1378 603.513 67.189 603.648C67.2403 603.784 67.2666 603.93 67.2666 604.076Z" fill="#4181E0"/>
<path d="M26.1525 618.565C26.7183 618.565 27.177 618.064 27.177 617.447C27.177 616.829 26.7183 616.328 26.1525 616.328C25.5867 616.328 25.1279 616.829 25.1279 617.447C25.1279 618.064 25.5867 618.565 26.1525 618.565Z" fill="#4181E0"/>
<path d="M39.516 618.565C40.0819 618.565 40.5405 618.064 40.5405 617.447C40.5405 616.829 40.0819 616.328 39.516 616.328C38.9502 616.328 38.4915 616.829 38.4915 617.447C38.4915 618.064 38.9502 618.565 39.516 618.565Z" fill="#4181E0"/>
<path d="M52.8793 618.565C53.4451 618.565 53.9038 618.064 53.9038 617.447C53.9038 616.829 53.4451 616.328 52.8793 616.328C52.3135 616.328 51.8547 616.829 51.8547 617.447C51.8547 618.064 52.3135 618.565 52.8793 618.565Z" fill="#4181E0"/>
<path d="M66.2428 618.565C66.8084 618.565 67.2673 618.064 67.2673 617.447C67.2673 616.829 66.8084 616.328 66.2428 616.328C65.677 616.328 65.2183 616.829 65.2183 617.447C65.2183 618.064 65.677 618.565 66.2428 618.565Z" fill="#4181E0"/>
<path d="M26.1525 633.023C26.7183 633.023 27.177 632.523 27.177 631.905C27.177 631.287 26.7183 630.787 26.1525 630.787C25.5867 630.787 25.1279 631.287 25.1279 631.905C25.1279 632.523 25.5867 633.023 26.1525 633.023Z" fill="#4181E0"/>
<path d="M39.516 633.023C40.0819 633.023 40.5405 632.523 40.5405 631.905C40.5405 631.287 40.0819 630.787 39.516 630.787C38.9502 630.787 38.4915 631.287 38.4915 631.905C38.4915 632.523 38.9502 633.023 39.516 633.023Z" fill="#4181E0"/>
<path d="M52.8793 633.023C53.4451 633.023 53.9038 632.523 53.9038 631.905C53.9038 631.287 53.4451 630.787 52.8793 630.787C52.3135 630.787 51.8547 631.287 51.8547 631.905C51.8547 632.523 52.3135 633.023 52.8793 633.023Z" fill="#4181E0"/>
<path d="M66.2428 633.023C66.8084 633.023 67.2673 632.523 67.2673 631.905C67.2673 631.287 66.8084 630.787 66.2428 630.787C65.677 630.787 65.2183 631.287 65.2183 631.905C65.2183 632.523 65.677 633.023 66.2428 633.023Z" fill="#4181E0"/>
<path d="M27.1772 646.363C27.1772 646.584 27.1171 646.801 27.0046 646.985C26.892 647.169 26.732 647.311 26.5447 647.396C26.3576 647.481 26.1516 647.503 25.9528 647.46C25.7541 647.417 25.5715 647.31 25.4283 647.154C25.285 646.997 25.1874 646.798 25.1479 646.581C25.1083 646.365 25.1287 646.139 25.2061 645.935C25.2837 645.731 25.415 645.557 25.5835 645.433C25.752 645.311 25.9501 645.245 26.1527 645.245C26.4244 645.245 26.685 645.363 26.8771 645.572C27.0693 645.782 27.1772 646.067 27.1772 646.363Z" fill="#4181E0"/>
<path d="M40.5405 646.363C40.5405 646.584 40.4804 646.801 40.3678 646.985C40.2553 647.169 40.0953 647.311 39.908 647.396C39.7208 647.481 39.5149 647.503 39.3161 647.46C39.1174 647.417 38.9348 647.31 38.7915 647.154C38.6482 646.997 38.5507 646.798 38.5111 646.581C38.4716 646.365 38.4919 646.139 38.5695 645.935C38.647 645.731 38.7783 645.557 38.9468 645.433C39.1152 645.311 39.3133 645.245 39.516 645.245C39.7877 645.245 40.0483 645.363 40.2404 645.572C40.4326 645.782 40.5405 646.067 40.5405 646.363Z" fill="#4181E0"/>
<path d="M53.904 646.363C53.904 646.584 53.8439 646.801 53.7313 646.985C53.6188 647.169 53.4588 647.311 53.2715 647.396C53.0843 647.481 52.8784 647.503 52.6796 647.46C52.4809 647.417 52.2983 647.31 52.155 647.154C52.0117 646.997 51.9142 646.798 51.8746 646.581C51.8352 646.365 51.8554 646.139 51.9329 645.935C52.0105 645.731 52.1418 645.557 52.3103 645.433C52.4787 645.311 52.6769 645.245 52.8795 645.245C53.1512 645.245 53.4118 645.363 53.6039 645.572C53.7961 645.782 53.904 646.067 53.904 646.363Z" fill="#4181E0"/>
<path d="M67.2666 646.363C67.2666 646.584 67.2068 646.801 67.0944 646.985C66.9813 647.169 66.8212 647.311 66.6341 647.396C66.447 647.481 66.2414 647.503 66.0422 647.46C65.8437 647.417 65.6611 647.31 65.5178 647.154C65.3745 646.997 65.277 646.798 65.2374 646.581C65.1979 646.365 65.2182 646.139 65.2958 645.935C65.3733 645.731 65.5046 645.557 65.6731 645.433C65.8416 645.311 66.0393 645.245 66.2421 645.245C66.3765 645.245 66.5103 645.274 66.6341 645.33C66.7586 645.386 66.8717 645.469 66.9671 645.572C67.0617 645.676 67.1371 645.8 67.189 645.935C67.2403 646.071 67.2666 646.216 67.2666 646.363Z" fill="#4181E0"/>
<path d="M1.02451 618.565C1.59034 618.565 2.04904 618.064 2.04904 617.447C2.04904 616.829 1.59034 616.328 1.02451 616.328C0.458691 616.328 0 616.829 0 617.447C0 618.064 0.458691 618.565 1.02451 618.565Z" fill="#4181E0"/>
<path d="M14.3879 618.565C14.9537 618.565 15.4124 618.064 15.4124 617.447C15.4124 616.829 14.9537 616.328 14.3879 616.328C13.822 616.328 13.3633 616.829 13.3633 617.447C13.3633 618.064 13.822 618.565 14.3879 618.565Z" fill="#4181E0"/>
<path d="M1.02451 633.023C1.59034 633.023 2.04904 632.523 2.04904 631.905C2.04904 631.287 1.59034 630.787 1.02451 630.787C0.458691 630.787 0 631.287 0 631.905C0 632.523 0.458691 633.023 1.02451 633.023Z" fill="#4181E0"/>
<path d="M14.3879 633.023C14.9537 633.023 15.4124 632.523 15.4124 631.905C15.4124 631.287 14.9537 630.787 14.3879 630.787C13.822 630.787 13.3633 631.287 13.3633 631.905C13.3633 632.523 13.822 633.023 14.3879 633.023Z" fill="#4181E0"/>
<path d="M2.04905 646.363C2.04905 646.584 1.98893 646.801 1.87637 646.985C1.7638 647.169 1.60379 647.311 1.41659 647.396C1.22938 647.481 1.02338 647.503 0.82464 647.46C0.625908 647.417 0.443363 647.31 0.300075 647.154C0.156794 646.997 0.0592176 646.798 0.019689 646.581C-0.0198468 646.365 0.000444147 646.139 0.077986 645.935C0.155528 645.731 0.286842 645.557 0.455322 645.433C0.623803 645.311 0.821887 645.245 1.02452 645.245C1.29624 645.245 1.55683 645.363 1.74896 645.572C1.94112 645.782 2.04905 646.067 2.04905 646.363Z" fill="#4181E0"/>
<path d="M15.4121 646.363C15.4121 646.584 15.3519 646.801 15.2394 646.985C15.1268 647.169 14.9668 647.311 14.7796 647.396C14.5924 647.481 14.3864 647.503 14.1876 647.46C13.9889 647.417 13.8064 647.31 13.6631 647.154C13.5198 646.997 13.4223 646.798 13.3827 646.581C13.3432 646.365 13.3635 646.139 13.441 645.935C13.5186 645.731 13.6498 645.557 13.8183 645.433C13.9869 645.311 14.1849 645.245 14.3876 645.245C14.5221 645.245 14.6553 645.274 14.7796 645.33C14.9039 645.386 15.0168 645.469 15.112 645.572C15.2071 645.676 15.2826 645.8 15.3341 645.935C15.3856 646.071 15.4121 646.216 15.4121 646.363Z" fill="#4181E0"/>
<path d="M1308.66 208.946C1309.49 208.946 1310.16 208.213 1310.16 207.309C1310.16 206.405 1309.49 205.672 1308.66 205.672C1307.83 205.672 1307.16 206.405 1307.16 207.309C1307.16 208.213 1307.83 208.946 1308.66 208.946Z" fill="#4181E0" fill-opacity="0.34"/>
<path d="M1328.23 208.946C1329.06 208.946 1329.73 208.213 1329.73 207.309C1329.73 206.405 1329.06 205.672 1328.23 205.672C1327.4 205.672 1326.73 206.405 1326.73 207.309C1326.73 208.213 1327.4 208.946 1328.23 208.946Z" fill="#4181E0" fill-opacity="0.34"/>
<path d="M1347.8 208.946C1348.63 208.946 1349.3 208.213 1349.3 207.309C1349.3 206.405 1348.63 205.672 1347.8 205.672C1346.97 205.672 1346.3 206.405 1346.3 207.309C1346.3 208.213 1346.97 208.946 1347.8 208.946Z" fill="#4181E0" fill-opacity="0.34"/>
<path d="M1308.66 230.109C1309.49 230.109 1310.16 229.376 1310.16 228.472C1310.16 227.568 1309.49 226.835 1308.66 226.835C1307.83 226.835 1307.16 227.568 1307.16 228.472C1307.16 229.376 1307.83 230.109 1308.66 230.109Z" fill="#4181E0" fill-opacity="0.34"/>
<path d="M1328.23 230.109C1329.06 230.109 1329.73 229.376 1329.73 228.472C1329.73 227.568 1329.06 226.835 1328.23 226.835C1327.4 226.835 1326.73 227.568 1326.73 228.472C1326.73 229.376 1327.4 230.109 1328.23 230.109Z" fill="#4181E0" fill-opacity="0.34"/>
<path d="M1347.8 230.109C1348.63 230.109 1349.3 229.376 1349.3 228.472C1349.3 227.568 1348.63 226.835 1347.8 226.835C1346.97 226.835 1346.3 227.568 1346.3 228.472C1346.3 229.376 1346.97 230.109 1347.8 230.109Z" fill="#4181E0" fill-opacity="0.34"/>
<path d="M1310.16 249.636C1310.16 249.96 1310.07 250.277 1309.91 250.546C1309.74 250.815 1309.51 251.025 1309.23 251.148C1308.96 251.272 1308.66 251.305 1308.36 251.241C1308.07 251.179 1307.81 251.023 1307.6 250.794C1307.39 250.565 1307.25 250.274 1307.19 249.955C1307.13 249.638 1307.16 249.309 1307.28 249.01C1307.39 248.711 1307.58 248.455 1307.82 248.275C1308.07 248.096 1308.36 248 1308.66 248C1309.05 248 1309.44 248.172 1309.72 248.479C1310 248.786 1310.16 249.203 1310.16 249.636Z" fill="#4181E0" fill-opacity="0.34"/>
<path d="M1329.73 249.636C1329.73 249.96 1329.64 250.277 1329.48 250.546C1329.31 250.815 1329.08 251.025 1328.8 251.148C1328.53 251.272 1328.23 251.305 1327.94 251.241C1327.64 251.179 1327.38 251.023 1327.17 250.794C1326.96 250.565 1326.82 250.274 1326.75 249.955C1326.7 249.638 1326.73 249.309 1326.84 249.01C1326.95 248.711 1327.15 248.455 1327.4 248.275C1327.64 248.096 1327.94 248 1328.23 248C1328.63 248 1329.01 248.172 1329.29 248.479C1329.57 248.786 1329.73 249.203 1329.73 249.636Z" fill="#4181E0" fill-opacity="0.34"/>
<path d="M1349.3 249.636C1349.3 249.96 1349.22 250.277 1349.05 250.546C1348.88 250.815 1348.65 251.025 1348.38 251.148C1348.1 251.272 1347.8 251.305 1347.51 251.241C1347.22 251.179 1346.95 251.023 1346.74 250.794C1346.53 250.565 1346.38 250.274 1346.33 249.955C1346.27 249.638 1346.3 249.309 1346.41 249.01C1346.53 248.711 1346.72 248.455 1346.97 248.275C1347.22 248.096 1347.5 248 1347.8 248C1348.2 248 1348.58 248.172 1348.86 248.479C1349.14 248.786 1349.3 249.203 1349.3 249.636Z" fill="#4181E0" fill-opacity="0.34"/>
<path d="M1310.16 270.802C1310.16 271.126 1310.07 271.442 1309.91 271.711C1309.74 271.98 1309.51 272.19 1309.23 272.314C1308.96 272.437 1308.66 272.47 1308.36 272.406C1308.07 272.343 1307.81 272.187 1307.6 271.959C1307.39 271.73 1307.25 271.438 1307.19 271.12C1307.13 270.803 1307.16 270.474 1307.28 270.175C1307.39 269.875 1307.58 269.62 1307.82 269.44C1308.07 269.261 1308.36 269.165 1308.66 269.165C1308.85 269.165 1309.05 269.207 1309.23 269.289C1309.42 269.372 1309.58 269.492 1309.72 269.644C1309.86 269.796 1309.97 269.977 1310.04 270.176C1310.12 270.374 1310.16 270.587 1310.16 270.802Z" fill="#4181E0" fill-opacity="0.34"/>
<path d="M1329.73 270.802C1329.73 271.126 1329.64 271.442 1329.48 271.711C1329.31 271.98 1329.07 272.19 1328.8 272.314C1328.53 272.437 1328.23 272.47 1327.94 272.406C1327.64 272.343 1327.38 272.187 1327.17 271.959C1326.96 271.73 1326.82 271.438 1326.75 271.12C1326.7 270.803 1326.73 270.474 1326.84 270.175C1326.95 269.875 1327.15 269.62 1327.4 269.44C1327.64 269.261 1327.94 269.165 1328.23 269.165C1328.43 269.165 1328.62 269.207 1328.8 269.289C1328.99 269.372 1329.15 269.492 1329.29 269.644C1329.43 269.796 1329.54 269.977 1329.61 270.176C1329.69 270.374 1329.73 270.587 1329.73 270.802Z" fill="#4181E0" fill-opacity="0.34"/>
<path d="M1349.3 270.802C1349.3 271.126 1349.22 271.442 1349.05 271.711C1348.88 271.98 1348.65 272.19 1348.38 272.314C1348.1 272.437 1347.8 272.47 1347.51 272.406C1347.22 272.343 1346.95 272.187 1346.74 271.959C1346.53 271.73 1346.38 271.438 1346.33 271.12C1346.27 270.803 1346.3 270.474 1346.41 270.175C1346.53 269.875 1346.72 269.62 1346.97 269.44C1347.22 269.261 1347.5 269.165 1347.8 269.165C1348.2 269.165 1348.58 269.338 1348.86 269.644C1349.14 269.952 1349.3 270.368 1349.3 270.802Z" fill="#4181E0" fill-opacity="0.34"/>
<path d="M1232.71 208.946C1233.54 208.946 1234.22 208.213 1234.22 207.309C1234.22 206.405 1233.54 205.672 1232.71 205.672C1231.88 205.672 1231.21 206.405 1231.21 207.309C1231.21 208.213 1231.88 208.946 1232.71 208.946Z" fill="#4181E0" fill-opacity="0.34"/>
<path d="M1252.29 208.946C1253.11 208.946 1253.79 208.213 1253.79 207.309C1253.79 206.405 1253.11 205.672 1252.29 205.672C1251.45 205.672 1250.79 206.405 1250.79 207.309C1250.79 208.213 1251.45 208.946 1252.29 208.946Z" fill="#4181E0" fill-opacity="0.34"/>
<path d="M1271.86 208.946C1272.68 208.946 1273.36 208.213 1273.36 207.309C1273.36 206.405 1272.68 205.672 1271.86 205.672C1271.03 205.672 1270.36 206.405 1270.36 207.309C1270.36 208.213 1271.03 208.946 1271.86 208.946Z" fill="#4181E0" fill-opacity="0.34"/>
<path d="M1291.43 208.946C1292.26 208.946 1292.93 208.213 1292.93 207.309C1292.93 206.405 1292.26 205.672 1291.43 205.672C1290.6 205.672 1289.93 206.405 1289.93 207.309C1289.93 208.213 1290.6 208.946 1291.43 208.946Z" fill="#4181E0" fill-opacity="0.34"/>
<path d="M1232.71 230.109C1233.54 230.109 1234.22 229.376 1234.22 228.472C1234.22 227.568 1233.54 226.835 1232.71 226.835C1231.88 226.835 1231.21 227.568 1231.21 228.472C1231.21 229.376 1231.88 230.109 1232.71 230.109Z" fill="#4181E0" fill-opacity="0.34"/>
<path d="M1252.29 230.109C1253.11 230.109 1253.79 229.376 1253.79 228.472C1253.79 227.568 1253.11 226.835 1252.29 226.835C1251.45 226.835 1250.79 227.568 1250.79 228.472C1250.79 229.376 1251.45 230.109 1252.29 230.109Z" fill="#4181E0" fill-opacity="0.34"/>
<path d="M1271.86 230.109C1272.68 230.109 1273.36 229.376 1273.36 228.472C1273.36 227.568 1272.68 226.835 1271.86 226.835C1271.03 226.835 1270.36 227.568 1270.36 228.472C1270.36 229.376 1271.03 230.109 1271.86 230.109Z" fill="#4181E0" fill-opacity="0.34"/>
<path d="M1291.43 230.109C1292.26 230.109 1292.93 229.376 1292.93 228.472C1292.93 227.568 1292.26 226.835 1291.43 226.835C1290.6 226.835 1289.93 227.568 1289.93 228.472C1289.93 229.376 1290.6 230.109 1291.43 230.109Z" fill="#4181E0" fill-opacity="0.34"/>
<path d="M1234.22 249.636C1234.22 249.96 1234.12 250.277 1233.96 250.546C1233.8 250.815 1233.56 251.025 1233.29 251.148C1233.01 251.272 1232.71 251.305 1232.42 251.241C1232.13 251.179 1231.86 251.023 1231.65 250.794C1231.44 250.565 1231.3 250.274 1231.24 249.955C1231.18 249.638 1231.21 249.309 1231.33 249.01C1231.44 248.711 1231.63 248.455 1231.88 248.275C1232.12 248.096 1232.42 248 1232.71 248C1233.11 248 1233.49 248.172 1233.77 248.479C1234.06 248.786 1234.22 249.203 1234.22 249.636Z" fill="#4181E0" fill-opacity="0.34"/>
<path d="M1253.79 249.636C1253.79 249.96 1253.69 250.277 1253.53 250.546C1253.37 250.815 1253.13 251.025 1252.86 251.148C1252.59 251.272 1252.29 251.305 1251.99 251.241C1251.7 251.179 1251.43 251.023 1251.23 250.794C1251.01 250.565 1250.87 250.274 1250.81 249.955C1250.76 249.638 1250.79 249.309 1250.9 249.01C1251.01 248.711 1251.2 248.455 1251.45 248.275C1251.7 248.096 1251.99 248 1252.29 248C1252.68 248 1253.06 248.172 1253.35 248.479C1253.62 248.786 1253.79 249.203 1253.79 249.636Z" fill="#4181E0" fill-opacity="0.34"/>
<path d="M1273.36 249.636C1273.36 249.96 1273.27 250.277 1273.1 250.546C1272.94 250.815 1272.71 251.025 1272.43 251.148C1272.16 251.272 1271.85 251.305 1271.57 251.241C1271.28 251.179 1271 251.023 1270.8 250.794C1270.59 250.565 1270.44 250.274 1270.39 249.955C1270.33 249.638 1270.36 249.309 1270.47 249.01C1270.59 248.711 1270.78 248.455 1271.03 248.275C1271.27 248.096 1271.56 248 1271.86 248C1272.26 248 1272.63 248.172 1272.92 248.479C1273.2 248.786 1273.36 249.203 1273.36 249.636Z" fill="#4181E0" fill-opacity="0.34"/>
<path d="M1292.92 249.636C1292.92 249.96 1292.84 250.277 1292.68 250.546C1292.51 250.815 1292.28 251.025 1292 251.148C1291.73 251.272 1291.42 251.305 1291.13 251.241C1290.84 251.179 1290.58 251.023 1290.36 250.794C1290.16 250.565 1290.02 250.274 1289.96 249.955C1289.9 249.638 1289.93 249.309 1290.04 249.01C1290.16 248.711 1290.35 248.455 1290.59 248.275C1290.84 248.096 1291.13 248 1291.42 248C1291.62 248 1291.82 248.042 1292 248.124C1292.18 248.207 1292.35 248.327 1292.49 248.479C1292.63 248.631 1292.74 248.811 1292.81 249.01C1292.89 249.209 1292.92 249.421 1292.92 249.636Z" fill="#4181E0" fill-opacity="0.34"/>
<path d="M1234.22 270.802C1234.22 271.126 1234.12 271.442 1233.96 271.711C1233.8 271.98 1233.56 272.19 1233.29 272.314C1233.01 272.437 1232.71 272.47 1232.42 272.406C1232.13 272.343 1231.86 272.187 1231.65 271.959C1231.44 271.73 1231.3 271.438 1231.24 271.12C1231.18 270.803 1231.21 270.474 1231.33 270.175C1231.44 269.875 1231.63 269.62 1231.88 269.44C1232.12 269.261 1232.42 269.165 1232.71 269.165C1232.91 269.165 1233.11 269.207 1233.29 269.289C1233.47 269.372 1233.63 269.492 1233.77 269.644C1233.92 269.796 1234.02 269.977 1234.1 270.176C1234.17 270.374 1234.22 270.587 1234.22 270.802Z" fill="#4181E0" fill-opacity="0.34"/>
<path d="M1253.79 270.802C1253.79 271.126 1253.69 271.442 1253.53 271.711C1253.37 271.98 1253.13 272.19 1252.86 272.314C1252.59 272.437 1252.28 272.47 1251.99 272.406C1251.7 272.343 1251.43 272.187 1251.23 271.959C1251.01 271.73 1250.87 271.438 1250.81 271.12C1250.76 270.803 1250.79 270.474 1250.9 270.175C1251.01 269.875 1251.2 269.62 1251.45 269.44C1251.7 269.261 1251.99 269.165 1252.29 269.165C1252.49 269.165 1252.68 269.207 1252.86 269.289C1253.04 269.372 1253.2 269.492 1253.35 269.644C1253.49 269.796 1253.6 269.977 1253.67 270.176C1253.74 270.374 1253.79 270.587 1253.79 270.802Z" fill="#4181E0" fill-opacity="0.34"/>
<path d="M1273.36 270.802C1273.36 271.126 1273.27 271.442 1273.1 271.711C1272.94 271.98 1272.71 272.19 1272.43 272.314C1272.16 272.437 1271.85 272.47 1271.56 272.406C1271.28 272.343 1271 272.187 1270.8 271.959C1270.59 271.73 1270.44 271.438 1270.39 271.12C1270.33 270.803 1270.36 270.474 1270.47 270.175C1270.59 269.875 1270.78 269.62 1271.03 269.44C1271.27 269.261 1271.56 269.165 1271.86 269.165C1272.26 269.165 1272.63 269.338 1272.92 269.644C1273.2 269.952 1273.36 270.368 1273.36 270.802Z" fill="#4181E0" fill-opacity="0.34"/>
<path d="M1292.92 270.802C1292.92 271.126 1292.84 271.442 1292.68 271.711C1292.51 271.98 1292.28 272.19 1292 272.314C1291.73 272.437 1291.42 272.47 1291.13 272.406C1290.84 272.343 1290.58 272.187 1290.36 271.959C1290.16 271.73 1290.02 271.438 1289.96 271.12C1289.9 270.803 1289.93 270.474 1290.04 270.175C1290.16 269.875 1290.35 269.62 1290.59 269.44C1290.84 269.261 1291.13 269.165 1291.43 269.165C1291.62 269.165 1291.82 269.207 1292 269.289C1292.18 269.372 1292.35 269.492 1292.49 269.644C1292.63 269.796 1292.74 269.977 1292.81 270.176C1292.89 270.374 1292.92 270.587 1292.92 270.802Z" fill="#4181E0" fill-opacity="0.34"/>
<path d="M1232.71 292.01C1233.54 292.01 1234.22 291.278 1234.22 290.374C1234.22 289.469 1233.54 288.737 1232.71 288.737C1231.88 288.737 1231.21 289.469 1231.21 290.374C1231.21 291.278 1231.88 292.01 1232.71 292.01Z" fill="#4181E0" fill-opacity="0.34"/>
<path d="M1252.29 292.01C1253.11 292.01 1253.79 291.278 1253.79 290.374C1253.79 289.469 1253.11 288.737 1252.29 288.737C1251.45 288.737 1250.79 289.469 1250.79 290.374C1250.79 291.278 1251.45 292.01 1252.29 292.01Z" fill="#4181E0" fill-opacity="0.34"/>
<path d="M1271.86 292.01C1272.68 292.01 1273.36 291.278 1273.36 290.374C1273.36 289.469 1272.68 288.737 1271.86 288.737C1271.03 288.737 1270.36 289.469 1270.36 290.374C1270.36 291.278 1271.03 292.01 1271.86 292.01Z" fill="#4181E0" fill-opacity="0.34"/>
<path d="M1291.43 292.01C1292.26 292.01 1292.93 291.278 1292.93 290.374C1292.93 289.469 1292.26 288.737 1291.43 288.737C1290.6 288.737 1289.93 289.469 1289.93 290.374C1289.93 291.278 1290.6 292.01 1291.43 292.01Z" fill="#4181E0" fill-opacity="0.34"/>
<path d="M1232.71 313.174C1233.54 313.174 1234.22 312.441 1234.22 311.537C1234.22 310.633 1233.54 309.9 1232.71 309.9C1231.88 309.9 1231.21 310.633 1231.21 311.537C1231.21 312.441 1231.88 313.174 1232.71 313.174Z" fill="#4181E0" fill-opacity="0.34"/>
<path d="M1252.29 313.174C1253.11 313.174 1253.79 312.441 1253.79 311.537C1253.79 310.633 1253.11 309.9 1252.29 309.9C1251.45 309.9 1250.79 310.633 1250.79 311.537C1250.79 312.441 1251.45 313.174 1252.29 313.174Z" fill="#4181E0" fill-opacity="0.34"/>
<path d="M1271.86 313.174C1272.68 313.174 1273.36 312.441 1273.36 311.537C1273.36 310.633 1272.68 309.9 1271.86 309.9C1271.03 309.9 1270.36 310.633 1270.36 311.537C1270.36 312.441 1271.03 313.174 1271.86 313.174Z" fill="#4181E0" fill-opacity="0.34"/>
<path d="M1291.43 313.174C1292.26 313.174 1292.93 312.441 1292.93 311.537C1292.93 310.633 1292.26 309.9 1291.43 309.9C1290.6 309.9 1289.93 310.633 1289.93 311.537C1289.93 312.441 1290.6 313.174 1291.43 313.174Z" fill="#4181E0" fill-opacity="0.34"/>
<path d="M1234.22 332.701C1234.22 333.025 1234.12 333.342 1233.96 333.611C1233.8 333.88 1233.56 334.09 1233.29 334.213C1233.01 334.337 1232.71 334.37 1232.42 334.306C1232.13 334.243 1231.86 334.087 1231.65 333.859C1231.44 333.63 1231.3 333.339 1231.24 333.02C1231.18 332.703 1231.21 332.374 1231.33 332.075C1231.44 331.776 1231.63 331.52 1231.88 331.34C1232.12 331.161 1232.42 331.064 1232.71 331.064C1233.11 331.064 1233.49 331.237 1233.77 331.544C1234.06 331.851 1234.22 332.267 1234.22 332.701Z" fill="#4181E0" fill-opacity="0.34"/>
<path d="M1253.79 332.701C1253.79 333.025 1253.69 333.342 1253.53 333.611C1253.37 333.88 1253.13 334.09 1252.86 334.213C1252.59 334.337 1252.29 334.37 1251.99 334.306C1251.7 334.243 1251.43 334.087 1251.23 333.859C1251.01 333.63 1250.87 333.339 1250.81 333.02C1250.76 332.703 1250.79 332.374 1250.9 332.075C1251.01 331.776 1251.2 331.52 1251.45 331.34C1251.7 331.161 1251.99 331.064 1252.29 331.064C1252.68 331.064 1253.06 331.237 1253.35 331.544C1253.62 331.851 1253.79 332.267 1253.79 332.701Z" fill="#4181E0" fill-opacity="0.34"/>
<path d="M1273.36 332.701C1273.36 333.025 1273.27 333.342 1273.1 333.611C1272.94 333.88 1272.71 334.09 1272.43 334.213C1272.16 334.337 1271.85 334.37 1271.57 334.306C1271.28 334.243 1271 334.087 1270.8 333.859C1270.59 333.63 1270.44 333.339 1270.39 333.02C1270.33 332.703 1270.36 332.374 1270.47 332.075C1270.59 331.776 1270.78 331.52 1271.03 331.34C1271.27 331.161 1271.56 331.064 1271.86 331.064C1272.26 331.064 1272.63 331.237 1272.92 331.544C1273.2 331.851 1273.36 332.267 1273.36 332.701Z" fill="#4181E0" fill-opacity="0.34"/>
<path d="M1292.92 332.701C1292.92 333.025 1292.84 333.342 1292.68 333.611C1292.51 333.88 1292.28 334.09 1292 334.213C1291.73 334.337 1291.42 334.37 1291.13 334.306C1290.84 334.243 1290.58 334.087 1290.36 333.859C1290.16 333.63 1290.02 333.339 1289.96 333.02C1289.9 332.703 1289.93 332.374 1290.04 332.075C1290.16 331.776 1290.35 331.52 1290.59 331.34C1290.84 331.161 1291.13 331.064 1291.42 331.064C1291.62 331.064 1291.82 331.107 1292 331.189C1292.18 331.272 1292.35 331.392 1292.49 331.544C1292.63 331.696 1292.74 331.876 1292.81 332.075C1292.89 332.274 1292.92 332.486 1292.92 332.701Z" fill="#4181E0" fill-opacity="0.34"/>
<path d="M1234.22 353.867C1234.22 354.191 1234.12 354.507 1233.96 354.776C1233.8 355.045 1233.56 355.255 1233.29 355.379C1233.01 355.502 1232.71 355.535 1232.42 355.471C1232.13 355.408 1231.86 355.252 1231.65 355.023C1231.44 354.795 1231.3 354.503 1231.24 354.185C1231.18 353.868 1231.21 353.539 1231.33 353.24C1231.44 352.94 1231.63 352.685 1231.88 352.505C1232.12 352.326 1232.42 352.229 1232.71 352.229C1232.91 352.229 1233.11 352.272 1233.29 352.354C1233.47 352.437 1233.63 352.557 1233.77 352.709C1233.92 352.861 1234.02 353.042 1234.1 353.241C1234.17 353.439 1234.22 353.652 1234.22 353.867Z" fill="#4181E0" fill-opacity="0.34"/>
<path d="M1253.79 353.867C1253.79 354.191 1253.69 354.507 1253.53 354.776C1253.37 355.045 1253.13 355.255 1252.86 355.379C1252.59 355.502 1252.28 355.535 1251.99 355.471C1251.7 355.408 1251.43 355.252 1251.23 355.023C1251.01 354.795 1250.87 354.503 1250.81 354.185C1250.76 353.868 1250.79 353.539 1250.9 353.24C1251.01 352.94 1251.2 352.685 1251.45 352.505C1251.7 352.326 1251.99 352.229 1252.29 352.229C1252.49 352.229 1252.68 352.272 1252.86 352.354C1253.04 352.437 1253.2 352.557 1253.35 352.709C1253.49 352.861 1253.6 353.042 1253.67 353.241C1253.74 353.439 1253.79 353.652 1253.79 353.867Z" fill="#4181E0" fill-opacity="0.34"/>
<path d="M1273.36 353.867C1273.36 354.191 1273.27 354.507 1273.1 354.776C1272.94 355.045 1272.71 355.255 1272.43 355.379C1272.16 355.502 1271.85 355.535 1271.56 355.471C1271.28 355.408 1271 355.252 1270.8 355.023C1270.59 354.795 1270.44 354.503 1270.39 354.185C1270.33 353.868 1270.36 353.539 1270.47 353.24C1270.59 352.94 1270.78 352.685 1271.03 352.505C1271.27 352.326 1271.56 352.229 1271.86 352.229C1272.26 352.229 1272.63 352.403 1272.92 352.709C1273.2 353.016 1273.36 353.433 1273.36 353.867Z" fill="#4181E0" fill-opacity="0.34"/>
<path d="M1292.92 353.867C1292.92 354.191 1292.84 354.507 1292.68 354.776C1292.51 355.045 1292.28 355.255 1292 355.379C1291.73 355.502 1291.42 355.535 1291.13 355.471C1290.84 355.408 1290.58 355.252 1290.36 355.023C1290.16 354.795 1290.02 354.503 1289.96 354.185C1289.9 353.868 1289.93 353.539 1290.04 353.24C1290.16 352.94 1290.35 352.685 1290.59 352.505C1290.84 352.326 1291.13 352.229 1291.43 352.229C1291.62 352.229 1291.82 352.272 1292 352.354C1292.18 352.437 1292.35 352.557 1292.49 352.709C1292.63 352.861 1292.74 353.042 1292.81 353.241C1292.89 353.439 1292.92 353.652 1292.92 353.867Z" fill="#4181E0" fill-opacity="0.34"/>
<path d="M1308.66 292.01C1309.49 292.01 1310.16 291.278 1310.16 290.374C1310.16 289.469 1309.49 288.737 1308.66 288.737C1307.83 288.737 1307.16 289.469 1307.16 290.374C1307.16 291.278 1307.83 292.01 1308.66 292.01Z" fill="#4181E0" fill-opacity="0.34"/>
<path d="M1328.23 292.01C1329.06 292.01 1329.73 291.278 1329.73 290.374C1329.73 289.469 1329.06 288.737 1328.23 288.737C1327.4 288.737 1326.73 289.469 1326.73 290.374C1326.73 291.278 1327.4 292.01 1328.23 292.01Z" fill="#4181E0" fill-opacity="0.34"/>
<path d="M1347.8 292.01C1348.63 292.01 1349.3 291.278 1349.3 290.374C1349.3 289.469 1348.63 288.737 1347.8 288.737C1346.97 288.737 1346.3 289.469 1346.3 290.374C1346.3 291.278 1346.97 292.01 1347.8 292.01Z" fill="#4181E0" fill-opacity="0.34"/>
<path d="M1308.66 313.174C1309.49 313.174 1310.16 312.441 1310.16 311.537C1310.16 310.633 1309.49 309.9 1308.66 309.9C1307.83 309.9 1307.16 310.633 1307.16 311.537C1307.16 312.441 1307.83 313.174 1308.66 313.174Z" fill="#4181E0" fill-opacity="0.34"/>
<path d="M1328.23 313.174C1329.06 313.174 1329.73 312.441 1329.73 311.537C1329.73 310.633 1329.06 309.9 1328.23 309.9C1327.4 309.9 1326.73 310.633 1326.73 311.537C1326.73 312.441 1327.4 313.174 1328.23 313.174Z" fill="#4181E0" fill-opacity="0.34"/>
<path d="M1347.8 313.174C1348.63 313.174 1349.3 312.441 1349.3 311.537C1349.3 310.633 1348.63 309.9 1347.8 309.9C1346.97 309.9 1346.3 310.633 1346.3 311.537C1346.3 312.441 1346.97 313.174 1347.8 313.174Z" fill="#4181E0" fill-opacity="0.34"/>
<path d="M1310.16 332.701C1310.16 333.025 1310.07 333.342 1309.91 333.611C1309.74 333.88 1309.51 334.09 1309.23 334.213C1308.96 334.337 1308.66 334.37 1308.36 334.306C1308.07 334.243 1307.81 334.087 1307.6 333.859C1307.39 333.63 1307.25 333.339 1307.19 333.02C1307.13 332.703 1307.16 332.374 1307.28 332.075C1307.39 331.776 1307.58 331.52 1307.82 331.34C1308.07 331.161 1308.36 331.064 1308.66 331.064C1309.05 331.064 1309.44 331.237 1309.72 331.544C1310 331.851 1310.16 332.267 1310.16 332.701Z" fill="#4181E0" fill-opacity="0.34"/>
<path d="M1329.73 332.701C1329.73 333.025 1329.64 333.342 1329.48 333.611C1329.31 333.88 1329.08 334.09 1328.8 334.213C1328.53 334.337 1328.23 334.37 1327.94 334.306C1327.64 334.243 1327.38 334.087 1327.17 333.859C1326.96 333.63 1326.82 333.339 1326.75 333.02C1326.7 332.703 1326.73 332.374 1326.84 332.075C1326.95 331.776 1327.15 331.52 1327.4 331.34C1327.64 331.161 1327.94 331.064 1328.23 331.064C1328.63 331.064 1329.01 331.237 1329.29 331.544C1329.57 331.851 1329.73 332.267 1329.73 332.701Z" fill="#4181E0" fill-opacity="0.34"/>
<path d="M1349.3 332.701C1349.3 333.025 1349.22 333.342 1349.05 333.611C1348.88 333.88 1348.65 334.09 1348.38 334.213C1348.1 334.337 1347.8 334.37 1347.51 334.306C1347.22 334.243 1346.95 334.087 1346.74 333.859C1346.53 333.63 1346.38 333.339 1346.33 333.02C1346.27 332.703 1346.3 332.374 1346.41 332.075C1346.53 331.776 1346.72 331.52 1346.97 331.34C1347.22 331.161 1347.5 331.064 1347.8 331.064C1348.2 331.064 1348.58 331.237 1348.86 331.544C1349.14 331.851 1349.3 332.267 1349.3 332.701Z" fill="#4181E0" fill-opacity="0.34"/>
<path d="M1310.16 353.867C1310.16 354.191 1310.07 354.507 1309.91 354.776C1309.74 355.045 1309.51 355.255 1309.23 355.379C1308.96 355.502 1308.66 355.535 1308.36 355.471C1308.07 355.408 1307.81 355.252 1307.6 355.023C1307.39 354.795 1307.25 354.503 1307.19 354.185C1307.13 353.868 1307.16 353.539 1307.28 353.24C1307.39 352.94 1307.58 352.685 1307.82 352.505C1308.07 352.326 1308.36 352.229 1308.66 352.229C1308.85 352.229 1309.05 352.272 1309.23 352.354C1309.42 352.437 1309.58 352.557 1309.72 352.709C1309.86 352.861 1309.97 353.042 1310.04 353.241C1310.12 353.439 1310.16 353.652 1310.16 353.867Z" fill="#4181E0" fill-opacity="0.34"/>
<path d="M1329.73 353.867C1329.73 354.191 1329.64 354.507 1329.48 354.776C1329.31 355.045 1329.07 355.255 1328.8 355.379C1328.53 355.502 1328.23 355.535 1327.94 355.471C1327.64 355.408 1327.38 355.252 1327.17 355.023C1326.96 354.795 1326.82 354.503 1326.75 354.185C1326.7 353.868 1326.73 353.539 1326.84 353.24C1326.95 352.94 1327.15 352.685 1327.4 352.505C1327.64 352.326 1327.94 352.229 1328.23 352.229C1328.43 352.229 1328.62 352.272 1328.8 352.354C1328.99 352.437 1329.15 352.557 1329.29 352.709C1329.43 352.861 1329.54 353.042 1329.61 353.241C1329.69 353.439 1329.73 353.652 1329.73 353.867Z" fill="#4181E0" fill-opacity="0.34"/>
<path d="M1349.3 353.867C1349.3 354.191 1349.22 354.507 1349.05 354.776C1348.88 355.045 1348.65 355.255 1348.38 355.379C1348.1 355.502 1347.8 355.535 1347.51 355.471C1347.22 355.408 1346.95 355.252 1346.74 355.023C1346.53 354.795 1346.38 354.503 1346.33 354.185C1346.27 353.868 1346.3 353.539 1346.41 353.24C1346.53 352.94 1346.72 352.685 1346.97 352.505C1347.22 352.326 1347.5 352.229 1347.8 352.229C1348.2 352.229 1348.58 352.403 1348.86 352.709C1349.14 353.016 1349.3 353.433 1349.3 353.867Z" fill="#4181E0" fill-opacity="0.34"/>
<path d="M1232.71 375.075C1233.54 375.075 1234.22 374.343 1234.22 373.439C1234.22 372.534 1233.54 371.802 1232.71 371.802C1231.88 371.802 1231.21 372.534 1231.21 373.439C1231.21 374.343 1231.88 375.075 1232.71 375.075Z" fill="#4181E0" fill-opacity="0.34"/>
<path d="M1252.29 375.075C1253.11 375.075 1253.79 374.343 1253.79 373.439C1253.79 372.534 1253.11 371.802 1252.29 371.802C1251.45 371.802 1250.79 372.534 1250.79 373.439C1250.79 374.343 1251.45 375.075 1252.29 375.075Z" fill="#4181E0" fill-opacity="0.34"/>
<path d="M1271.86 375.075C1272.68 375.075 1273.36 374.343 1273.36 373.439C1273.36 372.534 1272.68 371.802 1271.86 371.802C1271.03 371.802 1270.36 372.534 1270.36 373.439C1270.36 374.343 1271.03 375.075 1271.86 375.075Z" fill="#4181E0" fill-opacity="0.34"/>
<path d="M1291.43 375.075C1292.26 375.075 1292.93 374.343 1292.93 373.439C1292.93 372.534 1292.26 371.802 1291.43 371.802C1290.6 371.802 1289.93 372.534 1289.93 373.439C1289.93 374.343 1290.6 375.075 1291.43 375.075Z" fill="#4181E0" fill-opacity="0.34"/>
<path d="M1232.71 396.24C1233.54 396.24 1234.22 395.507 1234.22 394.603C1234.22 393.698 1233.54 392.966 1232.71 392.966C1231.88 392.966 1231.21 393.698 1231.21 394.603C1231.21 395.507 1231.88 396.24 1232.71 396.24Z" fill="#4181E0" fill-opacity="0.34"/>
<path d="M1252.29 396.24C1253.11 396.24 1253.79 395.507 1253.79 394.603C1253.79 393.698 1253.11 392.966 1252.29 392.966C1251.45 392.966 1250.79 393.698 1250.79 394.603C1250.79 395.507 1251.45 396.24 1252.29 396.24Z" fill="#4181E0" fill-opacity="0.34"/>
<path d="M1271.86 396.24C1272.68 396.24 1273.36 395.507 1273.36 394.603C1273.36 393.698 1272.68 392.966 1271.86 392.966C1271.03 392.966 1270.36 393.698 1270.36 394.603C1270.36 395.507 1271.03 396.24 1271.86 396.24Z" fill="#4181E0" fill-opacity="0.34"/>
<path d="M1291.43 396.24C1292.26 396.24 1292.93 395.507 1292.93 394.603C1292.93 393.698 1292.26 392.966 1291.43 392.966C1290.6 392.966 1289.93 393.698 1289.93 394.603C1289.93 395.507 1290.6 396.24 1291.43 396.24Z" fill="#4181E0" fill-opacity="0.34"/>
<path d="M1234.22 415.766C1234.22 416.09 1234.12 416.406 1233.96 416.676C1233.8 416.945 1233.56 417.155 1233.29 417.278C1233.01 417.402 1232.71 417.435 1232.42 417.371C1232.13 417.308 1231.86 417.152 1231.65 416.923C1231.44 416.694 1231.3 416.403 1231.24 416.085C1231.18 415.768 1231.21 415.439 1231.33 415.14C1231.44 414.841 1231.63 414.585 1231.88 414.405C1232.12 414.226 1232.42 414.129 1232.71 414.129C1233.11 414.129 1233.49 414.302 1233.77 414.609C1234.06 414.916 1234.22 415.332 1234.22 415.766Z" fill="#4181E0" fill-opacity="0.34"/>
<path d="M1253.79 415.766C1253.79 416.09 1253.69 416.406 1253.53 416.676C1253.37 416.945 1253.13 417.155 1252.86 417.278C1252.59 417.402 1252.29 417.435 1251.99 417.371C1251.7 417.308 1251.43 417.152 1251.23 416.923C1251.01 416.694 1250.87 416.403 1250.81 416.085C1250.76 415.768 1250.79 415.439 1250.9 415.14C1251.01 414.841 1251.2 414.585 1251.45 414.405C1251.7 414.226 1251.99 414.129 1252.29 414.129C1252.68 414.129 1253.06 414.302 1253.35 414.609C1253.62 414.916 1253.79 415.332 1253.79 415.766Z" fill="#4181E0" fill-opacity="0.34"/>
<path d="M1273.36 415.766C1273.36 416.09 1273.27 416.406 1273.1 416.676C1272.94 416.945 1272.71 417.155 1272.43 417.278C1272.16 417.402 1271.85 417.435 1271.57 417.371C1271.28 417.308 1271 417.152 1270.8 416.923C1270.59 416.694 1270.44 416.403 1270.39 416.085C1270.33 415.768 1270.36 415.439 1270.47 415.14C1270.59 414.841 1270.78 414.585 1271.03 414.405C1271.27 414.226 1271.56 414.129 1271.86 414.129C1272.26 414.129 1272.63 414.302 1272.92 414.609C1273.2 414.916 1273.36 415.332 1273.36 415.766Z" fill="#4181E0" fill-opacity="0.34"/>
<path d="M1292.92 415.766C1292.92 416.09 1292.84 416.406 1292.68 416.676C1292.51 416.945 1292.28 417.155 1292 417.278C1291.73 417.402 1291.42 417.435 1291.13 417.371C1290.84 417.308 1290.58 417.152 1290.36 416.923C1290.16 416.694 1290.02 416.403 1289.96 416.085C1289.9 415.768 1289.93 415.439 1290.04 415.14C1290.16 414.841 1290.35 414.585 1290.59 414.405C1290.84 414.226 1291.13 414.129 1291.42 414.129C1291.62 414.129 1291.82 414.172 1292 414.254C1292.18 414.337 1292.35 414.457 1292.49 414.609C1292.63 414.761 1292.74 414.941 1292.81 415.14C1292.89 415.339 1292.92 415.551 1292.92 415.766Z" fill="#4181E0" fill-opacity="0.34"/>
<path d="M1234.22 436.932C1234.22 437.256 1234.12 437.572 1233.96 437.841C1233.8 438.11 1233.56 438.32 1233.29 438.444C1233.01 438.567 1232.71 438.6 1232.42 438.536C1232.13 438.473 1231.86 438.317 1231.65 438.088C1231.44 437.86 1231.3 437.568 1231.24 437.25C1231.18 436.933 1231.21 436.604 1231.33 436.305C1231.44 436.005 1231.63 435.75 1231.88 435.57C1232.12 435.391 1232.42 435.294 1232.71 435.294C1232.91 435.294 1233.11 435.337 1233.29 435.419C1233.47 435.502 1233.63 435.622 1233.77 435.774C1233.92 435.926 1234.02 436.107 1234.1 436.306C1234.17 436.504 1234.22 436.717 1234.22 436.932Z" fill="#4181E0" fill-opacity="0.34"/>
<path d="M1253.79 436.932C1253.79 437.256 1253.69 437.572 1253.53 437.841C1253.37 438.11 1253.13 438.32 1252.86 438.444C1252.59 438.567 1252.28 438.6 1251.99 438.536C1251.7 438.473 1251.43 438.317 1251.23 438.088C1251.01 437.86 1250.87 437.568 1250.81 437.25C1250.76 436.933 1250.79 436.604 1250.9 436.305C1251.01 436.005 1251.2 435.75 1251.45 435.57C1251.7 435.391 1251.99 435.294 1252.29 435.294C1252.49 435.294 1252.68 435.337 1252.86 435.419C1253.04 435.502 1253.2 435.622 1253.35 435.774C1253.49 435.926 1253.6 436.107 1253.67 436.306C1253.74 436.504 1253.79 436.717 1253.79 436.932Z" fill="#4181E0" fill-opacity="0.34"/>
<path d="M1273.36 436.932C1273.36 437.256 1273.27 437.572 1273.1 437.841C1272.94 438.11 1272.71 438.32 1272.43 438.444C1272.16 438.567 1271.85 438.6 1271.56 438.536C1271.28 438.473 1271 438.317 1270.8 438.088C1270.59 437.86 1270.44 437.568 1270.39 437.25C1270.33 436.933 1270.36 436.604 1270.47 436.305C1270.59 436.005 1270.78 435.75 1271.03 435.57C1271.27 435.391 1271.56 435.294 1271.86 435.294C1272.26 435.294 1272.63 435.468 1272.92 435.774C1273.2 436.081 1273.36 436.498 1273.36 436.932Z" fill="#4181E0" fill-opacity="0.34"/>
<path d="M1292.92 436.932C1292.92 437.256 1292.84 437.572 1292.68 437.841C1292.51 438.11 1292.28 438.32 1292 438.444C1291.73 438.567 1291.42 438.6 1291.13 438.536C1290.84 438.473 1290.58 438.317 1290.36 438.088C1290.16 437.86 1290.02 437.568 1289.96 437.25C1289.9 436.933 1289.93 436.604 1290.04 436.305C1290.16 436.005 1290.35 435.75 1290.59 435.57C1290.84 435.391 1291.13 435.294 1291.43 435.294C1291.62 435.294 1291.82 435.337 1292 435.419C1292.18 435.502 1292.35 435.622 1292.49 435.774C1292.63 435.926 1292.74 436.107 1292.81 436.306C1292.89 436.504 1292.92 436.717 1292.92 436.932Z" fill="#4181E0" fill-opacity="0.34"/>
<path d="M1308.66 375.075C1309.49 375.075 1310.16 374.343 1310.16 373.439C1310.16 372.534 1309.49 371.802 1308.66 371.802C1307.83 371.802 1307.16 372.534 1307.16 373.439C1307.16 374.343 1307.83 375.075 1308.66 375.075Z" fill="#4181E0" fill-opacity="0.34"/>
<path d="M1328.23 375.075C1329.06 375.075 1329.73 374.343 1329.73 373.439C1329.73 372.534 1329.06 371.802 1328.23 371.802C1327.4 371.802 1326.73 372.534 1326.73 373.439C1326.73 374.343 1327.4 375.075 1328.23 375.075Z" fill="#4181E0" fill-opacity="0.34"/>
<path d="M1347.8 375.075C1348.63 375.075 1349.3 374.343 1349.3 373.439C1349.3 372.534 1348.63 371.802 1347.8 371.802C1346.97 371.802 1346.3 372.534 1346.3 373.439C1346.3 374.343 1346.97 375.075 1347.8 375.075Z" fill="#4181E0" fill-opacity="0.34"/>
<path d="M1308.66 396.24C1309.49 396.24 1310.16 395.507 1310.16 394.603C1310.16 393.698 1309.49 392.966 1308.66 392.966C1307.83 392.966 1307.16 393.698 1307.16 394.603C1307.16 395.507 1307.83 396.24 1308.66 396.24Z" fill="#4181E0" fill-opacity="0.34"/>
<path d="M1328.23 396.24C1329.06 396.24 1329.73 395.507 1329.73 394.603C1329.73 393.698 1329.06 392.966 1328.23 392.966C1327.4 392.966 1326.73 393.698 1326.73 394.603C1326.73 395.507 1327.4 396.24 1328.23 396.24Z" fill="#4181E0" fill-opacity="0.34"/>
<path d="M1347.8 396.24C1348.63 396.24 1349.3 395.507 1349.3 394.603C1349.3 393.698 1348.63 392.966 1347.8 392.966C1346.97 392.966 1346.3 393.698 1346.3 394.603C1346.3 395.507 1346.97 396.24 1347.8 396.24Z" fill="#4181E0" fill-opacity="0.34"/>
<path d="M1310.16 415.766C1310.16 416.09 1310.07 416.406 1309.91 416.676C1309.74 416.945 1309.51 417.155 1309.23 417.278C1308.96 417.402 1308.66 417.435 1308.36 417.371C1308.07 417.308 1307.81 417.152 1307.6 416.923C1307.39 416.694 1307.25 416.403 1307.19 416.085C1307.13 415.768 1307.16 415.439 1307.28 415.14C1307.39 414.841 1307.58 414.585 1307.82 414.405C1308.07 414.226 1308.36 414.129 1308.66 414.129C1309.05 414.129 1309.44 414.302 1309.72 414.609C1310 414.916 1310.16 415.332 1310.16 415.766Z" fill="#4181E0" fill-opacity="0.34"/>
<path d="M1329.73 415.766C1329.73 416.09 1329.64 416.406 1329.48 416.676C1329.31 416.945 1329.08 417.155 1328.8 417.278C1328.53 417.402 1328.23 417.435 1327.94 417.371C1327.64 417.308 1327.38 417.152 1327.17 416.923C1326.96 416.694 1326.82 416.403 1326.75 416.085C1326.7 415.768 1326.73 415.439 1326.84 415.14C1326.95 414.841 1327.15 414.585 1327.4 414.405C1327.64 414.226 1327.94 414.129 1328.23 414.129C1328.63 414.129 1329.01 414.302 1329.29 414.609C1329.57 414.916 1329.73 415.332 1329.73 415.766Z" fill="#4181E0" fill-opacity="0.34"/>
<path d="M1349.3 415.766C1349.3 416.09 1349.22 416.406 1349.05 416.676C1348.88 416.945 1348.65 417.155 1348.38 417.278C1348.1 417.402 1347.8 417.435 1347.51 417.371C1347.22 417.308 1346.95 417.152 1346.74 416.923C1346.53 416.694 1346.38 416.403 1346.33 416.085C1346.27 415.768 1346.3 415.439 1346.41 415.14C1346.53 414.841 1346.72 414.585 1346.97 414.405C1347.22 414.226 1347.5 414.129 1347.8 414.129C1348.2 414.129 1348.58 414.302 1348.86 414.609C1349.14 414.916 1349.3 415.332 1349.3 415.766Z" fill="#4181E0" fill-opacity="0.34"/>
<path d="M1310.16 436.932C1310.16 437.256 1310.07 437.572 1309.91 437.841C1309.74 438.11 1309.51 438.32 1309.23 438.444C1308.96 438.567 1308.66 438.6 1308.36 438.536C1308.07 438.473 1307.81 438.317 1307.6 438.088C1307.39 437.86 1307.25 437.568 1307.19 437.25C1307.13 436.933 1307.16 436.604 1307.28 436.305C1307.39 436.005 1307.58 435.75 1307.82 435.57C1308.07 435.391 1308.36 435.294 1308.66 435.294C1308.85 435.294 1309.05 435.337 1309.23 435.419C1309.42 435.502 1309.58 435.622 1309.72 435.774C1309.86 435.926 1309.97 436.107 1310.04 436.306C1310.12 436.504 1310.16 436.717 1310.16 436.932Z" fill="#4181E0" fill-opacity="0.34"/>
<path d="M1329.73 436.932C1329.73 437.256 1329.64 437.572 1329.48 437.841C1329.31 438.11 1329.07 438.32 1328.8 438.444C1328.53 438.567 1328.23 438.6 1327.94 438.536C1327.64 438.473 1327.38 438.317 1327.17 438.088C1326.96 437.86 1326.82 437.568 1326.75 437.25C1326.7 436.933 1326.73 436.604 1326.84 436.305C1326.95 436.005 1327.15 435.75 1327.4 435.57C1327.64 435.391 1327.94 435.294 1328.23 435.294C1328.43 435.294 1328.62 435.337 1328.8 435.419C1328.99 435.502 1329.15 435.622 1329.29 435.774C1329.43 435.926 1329.54 436.107 1329.61 436.306C1329.69 436.504 1329.73 436.717 1329.73 436.932Z" fill="#4181E0" fill-opacity="0.34"/>
<path d="M1349.3 436.932C1349.3 437.256 1349.22 437.572 1349.05 437.841C1348.88 438.11 1348.65 438.32 1348.38 438.444C1348.1 438.567 1347.8 438.6 1347.51 438.536C1347.22 438.473 1346.95 438.317 1346.74 438.088C1346.53 437.86 1346.38 437.568 1346.33 437.25C1346.27 436.933 1346.3 436.604 1346.41 436.305C1346.53 436.005 1346.72 435.75 1346.97 435.57C1347.22 435.391 1347.5 435.294 1347.8 435.294C1348.2 435.294 1348.58 435.468 1348.86 435.774C1349.14 436.081 1349.3 436.498 1349.3 436.932Z" fill="#4181E0" fill-opacity="0.34"/>
<line x1="118.698" y1="152.297" x2="191.698" y2="152.297" stroke="#F87F28" stroke-width="3"/>
</svg>
