<svg width="19" height="24" viewBox="0 0 19 24" fill="none" xmlns="http://www.w3.org/2000/svg">
<path d="M6.82684 18.2854H11.4602C11.6111 16.9117 12.3117 15.7779 13.4489 14.5401C13.578 14.4007 14.3998 13.5492 14.4969 13.4281C15.3041 12.4196 15.8101 11.2036 15.9566 9.92021C16.103 8.63679 15.884 7.3381 15.3247 6.17371C14.7654 5.00931 13.8886 4.02657 12.7953 3.33864C11.7019 2.65072 10.4365 2.2856 9.14476 2.28532C7.85301 2.28505 6.58745 2.64963 5.49382 3.33709C4.40019 4.02454 3.52298 5.00691 2.96319 6.17107C2.4034 7.33523 2.18381 8.63382 2.32971 9.9173C2.4756 11.2008 2.98105 12.417 3.78784 13.4258C3.88613 13.5481 4.71017 14.4007 4.83704 14.539C5.97538 15.7779 6.67598 16.9117 6.82684 18.2854ZM11.4293 20.5713H6.8577V21.7142H11.4293V20.5713ZM2.0049 14.8567C0.928496 13.5118 0.2539 11.8902 0.0588238 10.1787C-0.136252 8.46722 0.156127 6.73541 0.90228 5.18281C1.64843 3.6302 2.81801 2.31996 4.27627 1.40302C5.73454 0.486071 7.42217 -0.000275718 9.14476 1.17267e-07C10.8674 0.000275953 12.5548 0.487164 14.0128 1.40458C15.4708 2.32199 16.6399 3.63261 17.3856 5.18545C18.1312 6.73829 18.4231 8.47019 18.2274 10.1816C18.0318 11.8931 17.3567 13.5145 16.2799 14.859C15.5713 15.7413 13.7152 17.1425 13.7152 18.8569V21.7142C13.7152 22.3204 13.4743 22.9018 13.0457 23.3305C12.617 23.7592 12.0356 24 11.4293 24H6.8577C6.25147 24 5.67006 23.7592 5.24138 23.3305C4.81271 22.9018 4.57188 22.3204 4.57188 21.7142V18.8569C4.57188 17.1425 2.71465 15.7413 2.0049 14.8567ZM10.2864 9.14672H13.1437L8.00062 16.0042V11.4325H5.14334L10.2864 4.5705V9.14786V9.14672Z" fill="#767E90"/>
</svg>
