<?xml version="1.0" encoding="UTF-8"?><svg id="svg2" xmlns="http://www.w3.org/2000/svg" viewBox="0 0 5554.23 988.12"><defs><style>.cls-1{fill:#0c4da2;}.cls-2{fill:#ffcb08;}</style></defs><g id="layer1"><path id="path3840" class="cls-1" d="M3747.88,3.25c-166.68,0-315.31,71.99-411.94,184.41-28.53-36.64-63.4-75.13-101.5-102.22-79.96-59.69-183.64-77.86-294.44-80.84-187.57-5.05-337.6,96.28-406.69,210.22-58.36-116.44-110.72-177.24-313.78-187.34h-492.08l.11,205.09s23.4,7.47,31.31,16.16c6.6,7.24,11,27.25,11,27.25l-1.16,456.5s-12.87-9.33-18-15.31c-9.55-11.13-23.09-37.44-23.09-37.44L1475.5,27.25l-319.69,.22-277.78,726.19v-155.44h-199.91c-15.74,43.4-59.94,72.72-113.25,72.72-28.09,0-58.13-6.63-82.47-21.25-31.72-19.06-55.42-41.69-74.94-81.91-15.36-37.21-27.11-82.78-28.47-123.09,4.68-79.73,28.9-108.15,73.25-141.03,9.83-7.29,37.3-13.12,45.22-13.16,17.42-.08,31.94,10.49,39.81,26.06,11.45,22.66-5.31,50.1-21.88,69.62l161.62,111.34,249.62-261.19C839.57,97.55,680.44,4.62,498.56,4.62,223.21,4.62,0,217.61,0,480.34s216.07,461.42,498.56,482.84l35.72,1.44h380v-.19h884.72v-.06l332.62-.47v-.53h52.03v-195.44s-27.87-5.81-39.34-13.62c-12.05-8.2-13.19-21.12-13.19-21.12-.22-4.98,.79-8.8,3.41-12.06,2.57-3.2,8.57-5.37,10.84-5.84,34.35-7.19,69.38-17.02,104.44-29.62,93.55-33.65,172.27-81.51,228.16-134.41,37.4,220.95,231.57,382.17,466.31,409.09,15.33,1.76,28.54,3.09,42.88,3.59,3.81,.13,11.44-.16,11.44-.16h332l-1.01-163.38c86.34,95.85,254.56,187.72,424.35,187.72,138.74,0,263.18-60.75,350.89-135.87l-.71,112.99h419.23l2.14-172.87,109.29,1.43v-1.91l146.66,1.28v171.44h447.12v-227.16s-19.09-1.22-26.56-6.44c-10.1-7.05-20.56-30.72-20.56-30.72l-62.84-417.34s1.88-27.92,10-38.34c6.68-8.58,28.56-15.72,28.56-15.72V27.47h-445.72v5.72l-31.44,105.72-45.22-106.41v-5.03h-2.12l-1.22-2.84-.09,2.84h-430.09V238.91l-29.38-40C4091.19,81.28,3949.57,3.25,3788.28,3.25c-6.58,0-13.12,.12-19.62,.38-6.9-.25-13.82-.38-20.78-.38ZM872.5,794.97l-.03,2.06h-1.88c.64-.68,1.27-1.38,1.91-2.06h0Z"/><path id="path3950" class="cls-2" d="M498.23,94.01c-226.98,1.43-412.37,166.77-412.37,383.05s204.65,402.07,452.37,396.48l240.71,.68v-189.51h-45.46c-14.28,35.73-81,70.68-129.37,70.68-25.49,0-89.66-3.47-113.4-11.78-41.91-14.68-101.71-35.75-153.71-123.14-13.93-30.64-53.17-105.29-44.4-214.19,4.25-65.63,45.94-147.57,120.75-184.67,32.62-16.18,65.46-18.83,123.12-13.6,41.4,3.76,82.53,32.86,96.89,67.8,11.11,27.02,7.92,59.94-5.16,78.7-.93,1.34-.95,2.52-.76,3.8,.15,.97,1.41,2.59,1.41,2.59l22.78,17.8s6.49,4.51,14.06,4.31c4.4-.12,12.27-4.89,12.27-4.89l130.12-136.55c-80.45-108.55-223.41-147.54-309.86-147.54h0Z"/><path id="path3990" class="cls-2" d="M3750,90.34c-240.64,0-435.72,181-435.72,404.28s195.08,404.28,435.72,404.28,435.72-181,435.72-404.28-195.08-404.28-435.72-404.28Zm2.84,125.69c123.87,0,190.26,88.64,217.17,194.3,7.7,30.24,4.58,130.81-.01,164.29-13.99,102.11-97.46,201.62-218.57,198.56-118.02-2.99-196.96-57.93-221.42-205.7-7.16-43.23-7.28-95.15-1.45-138.58,16.9-125.91,100.41-212.88,224.28-212.88h0Z"/><path id="path4001" class="cls-2" d="M1215.62,115.44s-191.34,517.75-225.62,612.03c-34.29,94.29-72.84,91.44-72.84,91.44l2.84,57.12,231.25-.06,.19-54.88s-14.84-.76-25.72-10.75c-21.1-19.37-7.75-58.34-7.75-58.34l53.47-136.78,237.47,.5s46.29,115.57,57.62,153.72c14.79,49.77-31.41,50.66-31.41,50.66v55.78l292.44-.16-.19-55.16s-17.42-2.66-35.94-18.81c-21.01-18.33-35.31-56.12-35.31-56.12L1416.62,115.97l-201-.53Zm68.66,159.19l79.28,220.72-153.56,.69,74.28-221.41Z"/><path id="rect3593" class="cls-2" d="M1821,114.62l-1.12,63.47s18.59,5.33,36.38,25.06c9.43,10.46,3.59,143.28,3.59,143.28l-.31,425.16s6.06,16.76-14.28,33.59c-7.68,6.36-14.48,13.09-26.34,14.12l-1.41,56.56,271.03,.66,.66-57.53s-9.59-3.78-24.62-17.34c-8.49-7.66-13.72-18.67-13.59-29.66,.23-38.41,1.13-75.31,.94-112.81,94.94-22.87,176.9-61.64,208.84-73.41,120.09-47.92,213.27-124,207.81-259.72-1.03-96.16-49.8-174.97-154.28-192.78-47.63-13.76-69.49-16.17-88.28-17.22l-405-1.44Zm309.97,107.79c29.23-.56,63.67,6.14,90.18,19.49,33.04,21.93,53.14,44.65,53.14,92.72,1.36,22.6-5.13,42.03-16,61.78-11.32,18.89-45.55,55.16-67.17,75.9-63.2,45.18-85.82,58.43-136.02,81.54l-.8-322.1c26.76-5.05,50.76-9.16,76.69-9.33Z"/><path id="path3622" class="cls-2" d="M2966.75,94.51c-226.98,1.43-412.37,166.77-412.37,383.05s204.65,402.07,452.37,396.48l240.71,.68v-189.51h-45.46c-14.28,35.73-81,70.68-129.37,70.68-25.49,0-89.66-3.47-113.4-11.78-41.91-14.68-101.71-35.75-153.71-123.14-13.93-30.64-53.17-105.29-44.4-214.19,4.25-65.63,45.94-147.57,120.75-184.67,32.62-16.18,65.46-18.83,123.12-13.6,41.4,3.76,82.53,32.86,96.89,67.8,11.11,27.02,7.92,59.94-5.16,78.7-.93,1.34-.95,2.52-.76,3.8,.15,.97,1.41,2.59,1.41,2.59l22.78,17.8s6.49,4.51,14.06,4.31c4.4-.12,12.27-4.89,12.27-4.89l130.12-136.55c-80.45-108.55-223.41-147.54-309.86-147.54Z"/><path id="path3624" class="cls-2" d="M4294.62,116.12l.25,54.53s23.84,6.42,33.31,13.91c10.82,8.56,8.09,23.75,8.09,23.75,0,0-86.5,537.52-88.38,547.5-2.02,10.73-4.88,35.81-19.97,49.75-15,13.86-32.31,16.66-32.31,16.66l-.25,53.78h242.19v-50.25s-19.71-1.52-32.84-14.66-9.34-49.22-9.34-49.22l59.59-406.09,121.22,349.5,147.66,2.03,119.94-376.38,66.94,432.94s8.07,32.55-9.34,49.25c-13.4,12.85-32.81,14.66-32.81,14.66v50.25h280.56l-.25-53.78s-6.28,2.15-22.22-10.62c-9.37-7.51-13.89-41.02-15.91-51.75-1.88-9.98-77.47-550.84-77.47-550.84,0,0-1.31-22.33,10.94-33.75,8.83-8.23,26.91-16.03,26.91-16.03l-.44-44.53-291.28-.34-106.59,307.03-101.66-307.03-276.53-.25Z"/><path id="path3629" class="cls-1" d="M5414.72,0c-77.05,0-139.51,62.46-139.51,139.51s62.46,139.51,139.51,139.51,139.51-62.46,139.51-139.51S5491.77,0,5414.72,0Zm0,18.76c66.69,0,120.75,54.06,120.75,120.75s-54.06,120.75-120.75,120.75-120.75-54.06-120.75-120.75,54.06-120.75,120.75-120.75Z"/><path id="rect3634" class="cls-1" d="M5342.91,55.25V220.41h34.84v-57.25h46.28l38.31,57.97,39.12-.25-46.75-61.44c19.2-7.84,32.78-27.17,32.78-49.81,0-29.2-22.58-52.94-50.66-53.56v-.69h-59.09v-.12h-34.84Zm34.84,33.34l57.97,.31c11.78,2,19.59,3.21,19.28,20.9-.34,18.93-14.92,21.46-19.28,21.6l-57.97,.69v-43.5Z"/></g></svg>