<?xml version="1.0" encoding="UTF-8"?><svg id="Calque_1" xmlns="http://www.w3.org/2000/svg" viewBox="0 0 2498.4 367"><defs><style>.cls-1{fill:#ff4747;fill-rule:evenodd;}</style></defs><path class="cls-1" d="M2402.11,182.31c0-9.56,10.21-14.65,21.36-14.65,18.82,0,32.84,10.83,35.39,27.39h36.99c-3.5-34.09-32.52-57.97-71.74-57.97-34.75,0-61.54,18.16-61.54,48.73,0,34.09,32.53,43,59.63,50.01,19.45,5.09,36.03,9.24,36.03,20.7,0,9.24-10.53,15.61-25.19,15.61-19.77,0-34.75-11.15-36.99-27.71h-36.98c3.51,34.08,33.48,58.29,73.97,58.29,36.67,0,65.36-19.43,65.36-50.01,0-33.13-32.52-42.05-59.62-49.05-19.76-5.1-36.67-9.56-36.67-21.34h0Zm-201.46-41.73h-40.49v158.95h40.49v-84.09c0-21.66,19.13-44.28,51.66-39.18v-38.55c-24.56-2.87-42.09,10.83-51.66,31.53v-28.66Zm-135.62,77.41l-30.93-64.98-29.97,64.98h60.9Zm-29.33-150.99l114.79,232.53h-46.55l-22.65-47.46h-93.1l-22,47.46h-45.27l114.78-232.53Zm-221.58,136.01h41.13c-7.65-38.54-40.81-65.62-80.35-65.62-45.91,0-83.22,34.72-83.22,82.82s37.31,82.5,83.22,82.5c39.54,0,72.7-25.8,80.35-64.34h-41.13c-6.38,17.2-21.36,28.03-39.22,28.03-23.91,0-43.04-18.79-43.04-45.55s19.13-45.87,43.04-45.87c17.86,0,32.84,10.83,39.22,28.03h0Zm-180.87,96.52h40.49V140.58h-40.49v158.95Zm-5.74-204.82c0,14.34,11.8,26.12,25.83,26.12s26.15-11.78,26.15-26.12-11.8-26.12-26.15-26.12-25.83,11.79-25.83,26.12h0Zm-123.61,65.62v-19.75h-40.49v158.95h40.49v-96.2c0-18.47,14.35-33.13,33.16-33.13s33.16,14.02,33.16,34.72v94.61h40.5v-97.79c0-37.27-21.37-64.66-59.31-64.66-20.41,0-37.95,8.91-47.51,23.25h0Zm-142.78,14.34c-24.55,0-44,18.47-44,45.87s19.45,45.55,44,45.55,44-18.8,44-45.55-19.44-45.87-44-45.87Zm0,128.05c-46.56,0-84.18-34.72-84.18-82.5s37.62-82.82,84.18-82.82,84.18,34.72,84.18,82.82-37.63,82.5-84.18,82.5Zm-137.23-162.13h-40.5v158.95h40.5v-84.09c0-21.66,19.13-44.28,51.65-39.18v-38.55c-24.55-2.87-42.09,10.83-51.65,31.53v-28.66Zm1082.13-46.5l-39.85,12.74v151.62c0,24.52,17.22,41.09,46.55,41.09h39.54v-36h-28.06c-12.44,0-18.18-5.73-18.18-16.25v-72.3h46.24v-34.4h-46.24v-46.5Zm-1184.31,0l-39.85,12.74v151.62c0,24.52,17.21,41.09,46.55,41.09h39.54v-36h-28.06c-12.43,0-18.18-5.73-18.18-16.25v-72.3h46.24v-34.4h-46.24v-46.5Zm-93.97,108.94h41.13c-7.65-38.54-40.81-65.62-80.35-65.62-45.91,0-83.22,34.72-83.22,82.82s37.31,82.5,83.22,82.5c39.54,0,72.7-25.8,80.35-64.34h-41.13c-6.38,17.2-21.36,28.03-39.22,28.03-23.91,0-43.04-18.79-43.04-45.55s19.13-45.87,43.04-45.87c17.86,0,32.84,10.83,39.22,28.03h0Zm-180.07,1.28c-3.51-18.79-20.09-31.85-38.91-31.85s-34.43,12.42-39.85,31.85h78.76Zm43.68,28.98h-122.76c5.42,20.07,23.27,33.45,44.95,33.45,12.44,0,23.91-4.78,30.62-14.65h44.96c-12.11,30.58-40.81,50.65-76.21,50.65-47.83,0-86.72-35.04-86.72-82.82s36.98-82.82,82.58-82.82c39.54,0,82.9,28.98,82.9,90.14,0,1.91-.32,3.82-.32,6.05h0Zm-223.59,66.26h40.5V63.81l-40.5,12.74v222.97ZM487.36,76.56h161.98v39.18h-117.34v52.24h95.02v38.54h-95.01v54.47h117.34v38.55h-161.98V76.56Z"/><path class="cls-1" d="M183.5,367C82.31,367,0,284.68,0,183.5S82.32,0,183.5,0s183.5,82.32,183.5,183.5-82.32,183.5-183.5,183.5Zm31.06-254.48H110.85l-15.73,25.29h103.58l15.85-25.29Zm21.19,.24l-63.4,100.95H102.03l16.22-25.31h42.15l16.1-25.29H79.07l-16.1,25.29h23.08l-32.03,50.53H187.68l49.37-77.86,18,27.33h-16.23l-15.37,25.31h48.06l16.69,25.22h30.66l-83.11-126.17Z"/></svg>