<svg width="20" height="20" viewBox="0 0 20 20" fill="none" xmlns="http://www.w3.org/2000/svg">
<path d="M7.879 10.0001L5.562 7.68308C4.70737 8.04548 3.7533 8.09936 2.86331 7.83546C1.97331 7.57157 1.20281 7.00635 0.683856 6.23666C0.164901 5.46698 -0.0701937 4.54076 0.0188632 3.61675C0.10792 2.69274 0.515584 1.82847 1.17199 1.17207C1.82839 0.515665 2.69266 0.108001 3.61667 0.0189446C4.54068 -0.0701123 5.4669 0.164983 6.23658 0.683938C7.00627 1.20289 7.57149 1.97339 7.83538 2.86339C8.09927 3.75338 8.0454 4.70745 7.683 5.56208L10 7.88008L16.374 1.50508C16.5597 1.31928 16.7802 1.17189 17.0229 1.07133C17.2656 0.970767 17.5258 0.919008 17.7885 0.919008C18.0512 0.919008 18.3113 0.970767 18.5541 1.07133C18.7968 1.17189 19.0173 1.31928 19.203 1.50508L19.91 2.21208L7.683 14.4381C8.0454 15.2927 8.09927 16.2468 7.83538 17.1368C7.57149 18.0268 7.00627 18.7973 6.23658 19.3162C5.4669 19.8352 4.54068 20.0703 3.61667 19.9812C2.69266 19.8922 1.82839 19.4845 1.17199 18.8281C0.515584 18.1717 0.10792 17.3074 0.0188632 16.3834C-0.0701937 15.4594 0.164901 14.5332 0.683856 13.7635C1.20281 12.9938 1.97331 12.4286 2.86331 12.1647C3.7533 11.9008 4.70737 11.9547 5.562 12.3171L7.88 10.0001H7.879ZM4 6.00008C4.53043 6.00008 5.03914 5.78937 5.41421 5.4143C5.78929 5.03922 6 4.53051 6 4.00008C6 3.46965 5.78929 2.96094 5.41421 2.58587C5.03914 2.21079 4.53043 2.00008 4 2.00008C3.46957 2.00008 2.96086 2.21079 2.58579 2.58587C2.21071 2.96094 2 3.46965 2 4.00008C2 4.53051 2.21071 5.03922 2.58579 5.4143C2.96086 5.78937 3.46957 6.00008 4 6.00008ZM4 18.0001C4.53043 18.0001 5.03914 17.7894 5.41421 17.4143C5.78929 17.0392 6 16.5305 6 16.0001C6 15.4696 5.78929 14.9609 5.41421 14.5859C5.03914 14.2108 4.53043 14.0001 4 14.0001C3.46957 14.0001 2.96086 14.2108 2.58579 14.5859C2.21071 14.9609 2 15.4696 2 16.0001C2 16.5305 2.21071 17.0392 2.58579 17.4143C2.96086 17.7894 3.46957 18.0001 4 18.0001ZM13.535 11.4131L19.91 17.7891L19.203 18.4961C19.0173 18.6819 18.7968 18.8293 18.5541 18.9298C18.3113 19.0304 18.0512 19.0822 17.7885 19.0822C17.5258 19.0822 17.2656 19.0304 17.0229 18.9298C16.7802 18.8293 16.5597 18.6819 16.374 18.4961L11.414 13.5351L13.534 11.4131H13.535ZM14 9.00008H16V11.0001H14V9.00008ZM18 9.00008H20V11.0001H18V9.00008ZM4 9.00008H6V11.0001H4V9.00008ZM0 9.00008H2V11.0001H0V9.00008Z" fill="#767E90"/>
</svg>
