<svg width="1860" height="903" viewBox="0 0 1860 903" fill="none" xmlns="http://www.w3.org/2000/svg">
<path d="M0 0H1860V819H0V0Z" fill="#202020"/>
<line x1="894" y1="219.5" x2="967" y2="219.5" stroke="#F87F28" stroke-width="3"/>
<path d="M1717.59 841.541H1730.99" stroke="#A2BADD" stroke-width="2" stroke-linecap="round" stroke-linejoin="round"/>
<path d="M1724.29 834.843V848.244" stroke="#A2BADD" stroke-width="2" stroke-linecap="round" stroke-linejoin="round"/>
<path d="M1717.59 812.569H1730.99" stroke="#A2BADD" stroke-width="2" stroke-linecap="round" stroke-linejoin="round"/>
<path d="M1724.29 805.867V819.268" stroke="#A2BADD" stroke-width="2" stroke-linecap="round" stroke-linejoin="round"/>
<path d="M1717.59 783.594H1730.99" stroke="#A2BADD" stroke-width="2" stroke-linecap="round" stroke-linejoin="round"/>
<path d="M1724.29 776.894V790.295" stroke="#A2BADD" stroke-width="2" stroke-linecap="round" stroke-linejoin="round"/>
<path d="M1079.07 168.143V181.544" stroke="#A2BADD" stroke-width="2" stroke-linecap="round" stroke-linejoin="round"/>
<path d="M1085.77 174.843H1072.38" stroke="#A2BADD" stroke-width="2" stroke-linecap="round" stroke-linejoin="round"/>
<path d="M624.676 418.106V431.508" stroke="#EAF1FD" stroke-width="2" stroke-linecap="round" stroke-linejoin="round"/>
<path d="M631.376 424.805H617.978" stroke="#EAF1FD" stroke-width="2" stroke-linecap="round" stroke-linejoin="round"/>
<path d="M526.595 679.252V692.654" stroke="#F87F28" stroke-width="2" stroke-linecap="round" stroke-linejoin="round"/>
<path d="M533.295 685.953H519.897" stroke="#F87F28" stroke-width="2" stroke-linecap="round" stroke-linejoin="round"/>
<path d="M933.254 524.172V537.574" stroke="#F87F28" stroke-width="2" stroke-linecap="round" stroke-linejoin="round"/>
<path d="M939.954 530.872H926.556" stroke="#F87F28" stroke-width="2" stroke-linecap="round" stroke-linejoin="round"/>
<path d="M1202.89 362.743V376.145" stroke="#F87F28" stroke-width="2" stroke-linecap="round" stroke-linejoin="round"/>
<path d="M1209.59 369.442H1196.19" stroke="#F87F28" stroke-width="2" stroke-linecap="round" stroke-linejoin="round"/>
<path d="M1561.4 92.1328V105.535" stroke="#F87F28" stroke-width="2" stroke-linecap="round" stroke-linejoin="round"/>
<path d="M1568.1 98.8322H1554.7" stroke="#F87F28" stroke-width="2" stroke-linecap="round" stroke-linejoin="round"/>
<path d="M408.928 327.2V340.602" stroke="#F87F28" stroke-width="2" stroke-linecap="round" stroke-linejoin="round"/>
<path d="M415.628 333.9H402.23" stroke="#F87F28" stroke-width="2" stroke-linecap="round" stroke-linejoin="round"/>
<path d="M617.978 125.526V138.926" stroke="#BDD7FE" stroke-width="2" stroke-linecap="round" stroke-linejoin="round"/>
<path d="M624.676 132.225H611.278" stroke="#BDD7FE" stroke-width="2" stroke-linecap="round" stroke-linejoin="round"/>
<path d="M1001.6 885.388V898.789" stroke="#FAFAFA" stroke-opacity="0.28" stroke-width="2" stroke-linecap="round" stroke-linejoin="round"/>
<path d="M1008.3 892.088H994.906" stroke="#FAFAFA" stroke-opacity="0.28" stroke-width="2" stroke-linecap="round" stroke-linejoin="round"/>
<path d="M1030.58 885.388V898.789" stroke="#FAFAFA" stroke-opacity="0.28" stroke-width="2" stroke-linecap="round" stroke-linejoin="round"/>
<path d="M1037.27 892.088H1023.87" stroke="#FAFAFA" stroke-opacity="0.28" stroke-width="2" stroke-linecap="round" stroke-linejoin="round"/>
<path d="M1059.54 885.388V898.789" stroke="#FAFAFA" stroke-opacity="0.28" stroke-width="2" stroke-linecap="round" stroke-linejoin="round"/>
<path d="M1066.24 892.088H1052.84" stroke="#FAFAFA" stroke-opacity="0.28" stroke-width="2" stroke-linecap="round" stroke-linejoin="round"/>
<path d="M220.109 284V297.4" stroke="#F87F28" stroke-width="2" stroke-linecap="round" stroke-linejoin="round"/>
<path d="M226.808 290.699H213.411" stroke="#F87F28" stroke-width="2" stroke-linecap="round" stroke-linejoin="round"/>
<path d="M93.804 225.625H80.4062" stroke="#EAF1FD" stroke-width="2" stroke-linecap="round" stroke-linejoin="round"/>
<path d="M87.1062 232.326V218.925" stroke="#EAF1FD" stroke-width="2" stroke-linecap="round" stroke-linejoin="round"/>
<path d="M93.804 254.6H80.4062" stroke="#EAF1FD" stroke-width="2" stroke-linecap="round" stroke-linejoin="round"/>
<path d="M87.1062 261.3V247.898" stroke="#EAF1FD" stroke-width="2" stroke-linecap="round" stroke-linejoin="round"/>
<path d="M93.804 283.573H80.4062" stroke="#EAF1FD" stroke-width="2" stroke-linecap="round" stroke-linejoin="round"/>
<path d="M87.1062 290.275V276.874" stroke="#EAF1FD" stroke-width="2" stroke-linecap="round" stroke-linejoin="round"/>
<path d="M395.918 522.462C395.918 522.912 395.786 523.351 395.536 523.725C395.286 524.099 394.931 524.39 394.516 524.562C394.101 524.734 393.644 524.779 393.203 524.69C392.762 524.603 392.357 524.386 392.039 524.069C391.723 523.751 391.506 523.346 391.418 522.905C391.331 522.464 391.376 522.007 391.548 521.592C391.721 521.177 392.011 520.821 392.385 520.572C392.759 520.323 393.198 520.19 393.648 520.19C393.946 520.19 394.241 520.249 394.516 520.363C394.793 520.477 395.043 520.644 395.254 520.855C395.465 521.067 395.632 521.317 395.746 521.593C395.86 521.869 395.918 522.164 395.918 522.462Z" fill="#A2BADD"/>
<path d="M411.341 522.462C411.341 522.912 411.207 523.351 410.958 523.725C410.708 524.099 410.354 524.39 409.938 524.562C409.523 524.734 409.066 524.779 408.625 524.69C408.185 524.603 407.78 524.386 407.462 524.069C407.144 523.751 406.928 523.346 406.841 522.905C406.753 522.464 406.798 522.007 406.971 521.592C407.142 521.177 407.434 520.821 407.808 520.572C408.182 520.323 408.621 520.19 409.07 520.19C409.368 520.19 409.664 520.249 409.939 520.363C410.215 520.477 410.465 520.644 410.676 520.855C410.887 521.067 411.054 521.317 411.168 521.593C411.283 521.869 411.341 522.164 411.341 522.462Z" fill="#A2BADD"/>
<path d="M426.769 522.462C426.769 522.912 426.636 523.351 426.387 523.725C426.137 524.099 425.782 524.39 425.367 524.562C424.952 524.734 424.495 524.779 424.054 524.691C423.613 524.603 423.209 524.387 422.891 524.07C422.574 523.751 422.357 523.347 422.269 522.905C422.181 522.464 422.227 522.008 422.398 521.593C422.571 521.177 422.861 520.822 423.235 520.572C423.609 520.324 424.048 520.19 424.498 520.19C424.796 520.19 425.091 520.248 425.367 520.362C425.643 520.477 425.894 520.644 426.104 520.855C426.315 521.067 426.483 521.316 426.597 521.593C426.71 521.869 426.769 522.164 426.769 522.462Z" fill="#A2BADD"/>
<path d="M395.918 537.888C395.918 538.337 395.786 538.776 395.536 539.15C395.287 539.524 394.932 539.816 394.516 539.988C394.101 540.161 393.645 540.205 393.204 540.118C392.763 540.03 392.358 539.814 392.04 539.496C391.723 539.177 391.506 538.772 391.418 538.332C391.331 537.891 391.376 537.434 391.548 537.019C391.72 536.603 392.011 536.249 392.385 535.999C392.759 535.749 393.198 535.616 393.648 535.616C394.25 535.616 394.827 535.856 395.254 536.282C395.679 536.707 395.918 537.285 395.918 537.888Z" fill="#A2BADD"/>
<path d="M411.341 537.888C411.341 538.337 411.208 538.776 410.958 539.15C410.709 539.524 410.354 539.816 409.939 539.988C409.523 540.161 409.067 540.205 408.626 540.118C408.186 540.03 407.781 539.814 407.463 539.496C407.145 539.177 406.928 538.772 406.841 538.332C406.753 537.891 406.798 537.434 406.971 537.019C407.142 536.603 407.434 536.249 407.808 535.999C408.182 535.749 408.621 535.616 409.07 535.616C409.673 535.616 410.25 535.856 410.676 536.282C411.102 536.707 411.341 537.285 411.341 537.888Z" fill="#A2BADD"/>
<path d="M426.769 537.888C426.769 538.337 426.637 538.776 426.387 539.15C426.138 539.524 425.782 539.816 425.368 539.988C424.953 540.161 424.496 540.205 424.055 540.118C423.614 540.03 423.209 539.814 422.891 539.496C422.574 539.178 422.357 538.773 422.269 538.333C422.181 537.892 422.227 537.435 422.398 537.019C422.571 536.604 422.861 536.249 423.235 535.999C423.608 535.75 424.048 535.616 424.498 535.616C424.796 535.616 425.091 535.674 425.367 535.789C425.643 535.903 425.893 536.071 426.104 536.281C426.315 536.492 426.482 536.743 426.596 537.018C426.71 537.294 426.769 537.59 426.769 537.888Z" fill="#A2BADD"/>
<path d="M395.918 553.314C395.918 553.764 395.786 554.204 395.536 554.577C395.287 554.95 394.932 555.242 394.516 555.414C394.101 555.587 393.645 555.631 393.204 555.544C392.763 555.456 392.358 555.24 392.04 554.922C391.723 554.605 391.506 554.199 391.418 553.758C391.331 553.317 391.376 552.86 391.548 552.445C391.72 552.03 392.011 551.675 392.385 551.425C392.759 551.175 393.198 551.043 393.648 551.043C394.25 551.043 394.827 551.282 395.254 551.708C395.679 552.134 395.918 552.712 395.918 553.314Z" fill="#A2BADD"/>
<path d="M411.341 553.314C411.341 553.764 411.208 554.204 410.958 554.577C410.709 554.95 410.354 555.242 409.939 555.414C409.523 555.587 409.067 555.631 408.626 555.544C408.186 555.456 407.781 555.24 407.463 554.922C407.145 554.605 406.928 554.199 406.841 553.758C406.753 553.317 406.798 552.86 406.971 552.445C407.142 552.03 407.434 551.675 407.808 551.425C408.182 551.175 408.621 551.043 409.07 551.043C409.673 551.043 410.25 551.282 410.676 551.708C411.102 552.134 411.341 552.712 411.341 553.314Z" fill="#A2BADD"/>
<path d="M426.769 553.314C426.769 553.764 426.637 554.203 426.387 554.577C426.138 554.95 425.782 555.242 425.368 555.414C424.953 555.587 424.496 555.631 424.055 555.544C423.614 555.456 423.209 555.24 422.891 554.922C422.574 554.605 422.357 554.2 422.269 553.759C422.181 553.318 422.227 552.861 422.398 552.445C422.571 552.031 422.861 551.675 423.235 551.426C423.608 551.176 424.048 551.043 424.498 551.043C424.796 551.043 425.091 551.102 425.367 551.215C425.643 551.329 425.893 551.497 426.104 551.707C426.315 551.918 426.482 552.169 426.596 552.444C426.71 552.721 426.769 553.016 426.769 553.314Z" fill="#A2BADD"/>
<path d="M91.6922 43.908C91.6919 44.3535 91.5597 44.7889 91.3122 45.1593C91.0645 45.5295 90.7128 45.8182 90.3013 45.9885C89.8897 46.1589 89.4369 46.2034 89.0001 46.1164C88.5633 46.0294 88.1622 45.815 87.8472 45.4999C87.5323 45.1849 87.3178 44.7836 87.2308 44.3466C87.1439 43.9097 87.1884 43.4569 87.3588 43.0452C87.5291 42.6336 87.8176 42.2817 88.1878 42.034C88.558 41.7864 88.9934 41.6541 89.4387 41.6539C89.7346 41.6537 90.0278 41.712 90.3013 41.8252C90.5747 41.9384 90.8232 42.1045 91.0325 42.3138C91.2417 42.5231 91.4078 42.7717 91.5209 43.0452C91.6342 43.3187 91.6923 43.612 91.6922 43.908Z" fill="#A2BADD"/>
<path d="M104.736 46.162C105.981 46.162 106.991 45.1529 106.991 43.908C106.991 42.6631 105.981 41.6539 104.736 41.6539C103.492 41.6539 102.483 42.6631 102.483 43.908C102.483 45.1529 103.492 46.162 104.736 46.162Z" fill="#A2BADD"/>
<path d="M122.286 43.908C122.286 44.3538 122.154 44.7896 121.907 45.1602C121.659 45.5309 121.307 45.8198 120.895 45.9904C120.483 46.1611 120.03 46.2056 119.593 46.1187C119.156 46.0318 118.754 45.8171 118.439 45.5018C118.124 45.1866 117.909 44.7849 117.822 44.3477C117.735 43.9105 117.781 43.4573 117.951 43.0454C118.122 42.6335 118.41 42.2815 118.78 42.0339C119.151 41.7862 119.587 41.6539 120.033 41.6539C120.631 41.6539 121.203 41.8915 121.626 42.3141C122.049 42.7368 122.286 43.3102 122.286 43.908Z" fill="#A2BADD"/>
<path d="M137.587 43.908C137.587 44.3538 137.454 44.7896 137.207 45.1602C136.959 45.5309 136.607 45.8198 136.196 45.9904C135.784 46.1611 135.33 46.2056 134.894 46.1187C134.457 46.0318 134.055 45.8171 133.74 45.5018C133.424 45.1866 133.21 44.7849 133.123 44.3477C133.035 43.9105 133.08 43.4573 133.252 43.0454C133.422 42.6335 133.711 42.2815 134.081 42.0339C134.452 41.7862 134.888 41.6539 135.333 41.6539C135.629 41.6539 135.922 41.7122 136.196 41.8255C136.469 41.9388 136.717 42.1049 136.926 42.3141C137.135 42.5234 137.302 42.7719 137.415 43.0454C137.529 43.3188 137.587 43.612 137.587 43.908Z" fill="#A2BADD"/>
<path d="M150.631 46.162C151.876 46.162 152.884 45.1529 152.884 43.908C152.884 42.6631 151.876 41.6539 150.631 41.6539C149.387 41.6539 148.378 42.6631 148.378 43.908C148.378 45.1529 149.387 46.162 150.631 46.162Z" fill="#A2BADD"/>
<path d="M168.182 43.908C168.182 44.3538 168.049 44.7896 167.802 45.1602C167.554 45.5309 167.202 45.8198 166.791 45.9904C166.379 46.1611 165.926 46.2056 165.489 46.1187C165.051 46.0318 164.65 45.8171 164.335 45.5018C164.019 45.1866 163.805 44.7849 163.718 44.3477C163.631 43.9105 163.675 43.4573 163.846 43.0454C164.016 42.6335 164.306 42.2815 164.676 42.0339C165.047 41.7862 165.482 41.6539 165.928 41.6539C166.224 41.6537 166.517 41.712 166.791 41.8252C167.064 41.9384 167.313 42.1045 167.522 42.3138C167.731 42.5231 167.897 42.7717 168.01 43.0452C168.124 43.3187 168.182 43.612 168.182 43.908Z" fill="#A2BADD"/>
<path d="M183.478 43.908C183.478 44.3538 183.346 44.7896 183.098 45.1602C182.851 45.5309 182.499 45.8198 182.087 45.9904C181.675 46.1611 181.222 46.2056 180.785 46.1187C180.348 46.0318 179.947 45.8171 179.631 45.5018C179.316 45.1866 179.101 44.7849 179.015 44.3477C178.928 43.9105 178.973 43.4573 179.143 43.0454C179.314 42.6335 179.602 42.2815 179.973 42.0339C180.343 41.7862 180.779 41.6539 181.225 41.6539C181.521 41.6537 181.814 41.712 182.087 41.8252C182.361 41.9384 182.609 42.1045 182.819 42.3138C183.028 42.5231 183.194 42.7717 183.307 43.0452C183.42 43.3187 183.478 43.612 183.478 43.908Z" fill="#A2BADD"/>
<path d="M91.6922 59.2101C91.6919 59.6556 91.5597 60.0911 91.3122 60.4614C91.0645 60.8317 90.7128 61.1203 90.3013 61.2907C89.8897 61.4611 89.4369 61.5055 89.0001 61.4186C88.5633 61.3317 88.1622 61.1171 87.8472 60.8021C87.5323 60.4871 87.3178 60.0857 87.2308 59.6488C87.1439 59.2119 87.1884 58.759 87.3588 58.3474C87.5291 57.9358 87.8176 57.5839 88.1878 57.3363C88.558 57.0886 88.9934 56.9563 89.4387 56.9561C90.0364 56.9561 90.6095 57.1936 91.0322 57.6163C91.4548 58.039 91.6922 58.6123 91.6922 59.2101Z" fill="#A2BADD"/>
<path d="M106.991 59.2101C106.991 59.6559 106.858 60.0917 106.611 60.4624C106.363 60.8331 106.011 61.122 105.6 61.2926C105.188 61.4632 104.734 61.5079 104.298 61.4209C103.86 61.3339 103.459 61.1192 103.144 60.804C102.828 60.4888 102.614 60.0871 102.527 59.6499C102.439 59.2126 102.484 58.7594 102.655 58.3476C102.825 57.9357 103.115 57.5837 103.485 57.336C103.856 57.0883 104.291 56.9561 104.736 56.9561C105.334 56.9563 105.908 57.194 106.33 57.6166C106.752 58.0393 106.99 58.6124 106.991 59.2101Z" fill="#A2BADD"/>
<path d="M122.286 59.2101C122.286 59.6559 122.154 60.0917 121.907 60.4624C121.659 60.8331 121.307 61.122 120.895 61.2926C120.483 61.4632 120.03 61.5079 119.593 61.4209C119.156 61.3339 118.754 61.1192 118.439 60.804C118.124 60.4888 117.909 60.0871 117.822 59.6499C117.735 59.2126 117.781 58.7594 117.951 58.3476C118.122 57.9357 118.41 57.5837 118.78 57.336C119.151 57.0883 119.587 56.9561 120.033 56.9561C120.63 56.9563 121.203 57.194 121.626 57.6166C122.048 58.0393 122.285 58.6124 122.286 59.2101Z" fill="#A2BADD"/>
<path d="M137.587 59.2101C137.587 59.6559 137.454 60.0917 137.207 60.4624C136.959 60.8331 136.607 61.122 136.196 61.2926C135.784 61.4632 135.33 61.5079 134.894 61.4209C134.457 61.3339 134.055 61.1192 133.74 60.804C133.424 60.4888 133.21 60.0871 133.123 59.6499C133.035 59.2126 133.08 58.7594 133.252 58.3476C133.422 57.9357 133.711 57.5837 134.081 57.336C134.452 57.0883 134.888 56.9561 135.333 56.9561C135.93 56.9563 136.504 57.194 136.926 57.6166C137.348 58.0393 137.586 58.6124 137.587 59.2101Z" fill="#A2BADD"/>
<path d="M152.883 59.2101C152.883 59.656 152.752 60.0918 152.504 60.4625C152.256 60.8333 151.904 61.1221 151.492 61.2927C151.08 61.4633 150.627 61.5079 150.19 61.4208C149.752 61.3337 149.351 61.1189 149.036 60.8036C148.721 60.4882 148.506 60.0865 148.419 59.6492C148.333 59.2119 148.378 58.7586 148.548 58.3468C148.719 57.9349 149.008 57.583 149.378 57.3354C149.749 57.0879 150.185 56.9559 150.631 56.9561C151.229 56.9563 151.801 57.194 152.224 57.6167C152.646 58.0393 152.883 58.6125 152.883 59.2101Z" fill="#A2BADD"/>
<path d="M168.182 59.2101C168.182 59.6559 168.049 60.0917 167.802 60.4624C167.554 60.8331 167.202 61.122 166.791 61.2926C166.379 61.4632 165.926 61.5079 165.489 61.4209C165.051 61.3339 164.65 61.1192 164.335 60.804C164.019 60.4888 163.805 60.0871 163.718 59.6499C163.631 59.2126 163.675 58.7594 163.846 58.3476C164.016 57.9357 164.306 57.5837 164.676 57.336C165.047 57.0883 165.482 56.9561 165.928 56.9561C166.525 56.9561 167.099 57.1936 167.521 57.6163C167.944 58.039 168.182 58.6123 168.182 59.2101Z" fill="#A2BADD"/>
<path d="M183.478 59.2101C183.478 59.6559 183.346 60.0917 183.098 60.4624C182.851 60.8331 182.499 61.122 182.087 61.2926C181.675 61.4632 181.222 61.5079 180.785 61.4209C180.348 61.3339 179.947 61.1192 179.631 60.804C179.316 60.4888 179.101 60.0871 179.015 59.6499C178.928 59.2126 178.973 58.7594 179.143 58.3476C179.314 57.9357 179.602 57.5837 179.973 57.336C180.343 57.0883 180.779 56.9561 181.225 56.9561C181.823 56.9561 182.396 57.1936 182.819 57.6163C183.241 58.039 183.478 58.6123 183.478 59.2101Z" fill="#A2BADD"/>
<path d="M91.6922 74.5122C91.691 74.9575 91.558 75.3925 91.3099 75.7622C91.0618 76.1319 90.7097 76.4198 90.2982 76.5895C89.8865 76.7593 89.4339 76.8031 88.9974 76.7157C88.5609 76.6282 88.1601 76.4132 87.8456 76.098C87.5311 75.7829 87.3171 75.3816 87.2305 74.9448C87.1439 74.5079 87.1887 74.0553 87.3592 73.6439C87.5297 73.2325 87.8182 72.881 88.1882 72.6335C88.5584 72.3861 88.9935 72.254 89.4387 72.2537C89.735 72.2537 90.0284 72.3122 90.3021 72.4257C90.5758 72.5392 90.8244 72.7057 91.0337 72.9155C91.2431 73.1253 91.4089 73.3742 91.5219 73.6483C91.6349 73.9222 91.6928 74.2159 91.6922 74.5122Z" fill="#A2BADD"/>
<path d="M106.991 74.5122C106.99 74.9579 106.856 75.3932 106.608 75.7633C106.36 76.1334 106.008 76.4216 105.596 76.5915C105.184 76.7614 104.731 76.8054 104.295 76.7179C103.858 76.6304 103.457 76.4154 103.142 76.1C102.827 75.7846 102.613 75.3829 102.527 74.9459C102.439 74.5087 102.485 74.0557 102.655 73.6441C102.826 73.2325 103.115 72.8807 103.486 72.6333C103.856 72.3858 104.292 72.2537 104.736 72.2537C105.033 72.2539 105.326 72.3124 105.6 72.426C105.874 72.5396 106.123 72.706 106.332 72.9158C106.541 73.1256 106.707 73.3745 106.82 73.6484C106.932 73.9223 106.991 74.2159 106.991 74.5122Z" fill="#A2BADD"/>
<path d="M122.286 74.5122C122.285 74.958 122.153 75.3934 121.904 75.7635C121.656 76.1337 121.303 76.4219 120.891 76.5917C120.48 76.7616 120.026 76.8054 119.589 76.7177C119.152 76.6301 118.751 76.4148 118.436 76.0992C118.123 75.7836 117.908 75.3817 117.822 74.9444C117.735 74.5071 117.781 74.0541 117.952 73.6426C118.123 73.231 118.412 72.8793 118.782 72.6321C119.153 72.3849 119.589 72.2533 120.035 72.2537C120.331 72.2541 120.624 72.3128 120.897 72.4267C121.17 72.5404 121.419 72.7068 121.628 72.9165C121.837 73.1264 122.002 73.3751 122.116 73.649C122.228 73.9227 122.286 74.216 122.286 74.5122Z" fill="#A2BADD"/>
<path d="M137.587 74.5122C137.586 74.9579 137.453 75.3932 137.204 75.7633C136.956 76.1334 136.604 76.4216 136.193 76.5915C135.78 76.7614 135.328 76.8054 134.891 76.7179C134.454 76.6304 134.053 76.4154 133.738 76.1C133.423 75.7846 133.209 75.3829 133.123 74.9459C133.036 74.5087 133.081 74.0557 133.252 73.6441C133.422 73.2325 133.711 72.8807 134.082 72.6333C134.452 72.3858 134.888 72.2537 135.333 72.2537C135.629 72.2539 135.922 72.3124 136.197 72.426C136.47 72.5396 136.719 72.706 136.928 72.9158C137.137 73.1256 137.303 73.3745 137.416 73.6484C137.529 73.9223 137.587 74.2159 137.587 74.5122Z" fill="#A2BADD"/>
<path d="M152.883 74.5122C152.882 74.9579 152.75 75.3933 152.502 75.7633C152.253 76.1335 151.901 76.4217 151.489 76.5916C151.077 76.7615 150.624 76.8054 150.187 76.7178C149.75 76.6302 149.349 76.4151 149.034 76.0996C148.72 75.7841 148.505 75.3823 148.419 74.9451C148.333 74.5079 148.378 74.055 148.549 73.6434C148.72 73.2318 149.008 72.88 149.379 72.6327C149.749 72.3854 150.185 72.2535 150.631 72.2537C150.927 72.2539 151.221 72.3124 151.494 72.426C151.767 72.5396 152.016 72.7061 152.225 72.9159C152.435 73.1256 152.6 73.3746 152.713 73.6485C152.826 73.9224 152.884 74.2159 152.883 74.5122Z" fill="#A2BADD"/>
<path d="M168.182 74.5123C168.182 74.9582 168.049 75.3939 167.802 75.7646C167.554 76.1352 167.202 76.4242 166.791 76.5948C166.379 76.7654 165.926 76.81 165.489 76.723C165.051 76.6361 164.65 76.4214 164.335 76.1062C164.019 75.791 163.805 75.3893 163.718 74.9521C163.631 74.5148 163.675 74.0616 163.846 73.6497C164.016 73.2379 164.306 72.8858 164.676 72.6381C165.047 72.3904 165.482 72.2583 165.928 72.2583C166.525 72.2583 167.099 72.4957 167.521 72.9185C167.944 73.3412 168.182 73.9145 168.182 74.5123Z" fill="#A2BADD"/>
<path d="M183.478 74.5123C183.478 74.9582 183.346 75.3939 183.098 75.7646C182.851 76.1352 182.499 76.4242 182.087 76.5948C181.675 76.7654 181.222 76.81 180.785 76.723C180.348 76.6361 179.947 76.4214 179.631 76.1062C179.316 75.791 179.101 75.3893 179.015 74.9521C178.928 74.5148 178.973 74.0616 179.143 73.6497C179.314 73.2379 179.602 72.8858 179.973 72.6381C180.343 72.3904 180.779 72.2583 181.225 72.2583C181.823 72.2583 182.396 72.4957 182.819 72.9185C183.241 73.3412 183.478 73.9145 183.478 74.5123Z" fill="#A2BADD"/>
<path d="M91.6922 89.8143C91.6919 90.2598 91.5597 90.6953 91.3122 91.0651C91.0645 91.4361 90.7128 91.7248 90.3013 91.8953C89.8897 92.0648 89.4369 92.1094 89.0001 92.0232C88.5633 91.936 88.1622 91.7209 87.8472 91.4061C87.5323 91.0913 87.3178 90.6899 87.2308 90.253C87.1439 89.8161 87.1884 89.3632 87.3588 88.9515C87.5291 88.5399 87.8176 88.1881 88.1878 87.9404C88.558 87.6928 88.9934 87.5605 89.4387 87.5603C89.7346 87.5601 90.0278 87.6183 90.3013 87.7316C90.5747 87.8448 90.8232 88.0108 91.0325 88.2202C91.2417 88.4295 91.4078 88.6781 91.5209 88.9515C91.6342 89.2251 91.6923 89.5183 91.6922 89.8143Z" fill="#A2BADD"/>
<path d="M106.991 89.8144C106.991 90.2602 106.858 90.696 106.611 91.0671C106.363 91.4371 106.011 91.7258 105.6 91.8973C105.188 92.0677 104.734 92.1123 104.298 92.0251C103.86 91.9379 103.459 91.7239 103.144 91.4081C102.828 91.0932 102.614 90.6913 102.527 90.2541C102.439 89.8169 102.484 89.3636 102.655 88.9517C102.825 88.5399 103.115 88.1878 103.485 87.9401C103.856 87.6925 104.291 87.5603 104.736 87.5603C105.334 87.5603 105.908 87.7977 106.33 88.2205C106.753 88.6432 106.991 89.2166 106.991 89.8144Z" fill="#A2BADD"/>
<path d="M122.286 89.8144C122.286 90.2602 122.154 90.696 121.907 91.0671C121.659 91.4371 121.307 91.7258 120.895 91.8973C120.483 92.0677 120.03 92.1123 119.593 92.0251C119.156 91.9379 118.754 91.7239 118.439 91.4081C118.124 91.0932 117.909 90.6913 117.822 90.2541C117.735 89.8169 117.781 89.3636 117.951 88.9517C118.122 88.5399 118.41 88.1878 118.78 87.9401C119.151 87.6925 119.587 87.5603 120.033 87.5603C120.631 87.5603 121.203 87.7977 121.626 88.2205C122.049 88.6432 122.286 89.2166 122.286 89.8144Z" fill="#A2BADD"/>
<path d="M137.587 89.8144C137.587 90.2602 137.454 90.696 137.207 91.0671C136.959 91.4371 136.607 91.7258 136.196 91.8973C135.784 92.0677 135.33 92.1123 134.894 92.0251C134.457 91.9379 134.055 91.7239 133.74 91.4081C133.424 91.0932 133.21 90.6913 133.123 90.2541C133.035 89.8169 133.08 89.3636 133.252 88.9517C133.422 88.5399 133.711 88.1878 134.081 87.9401C134.452 87.6925 134.888 87.5603 135.333 87.5603C135.629 87.5603 135.922 87.6186 136.196 87.7319C136.469 87.8452 136.717 88.0112 136.926 88.2205C137.135 88.4298 137.302 88.6783 137.415 88.9517C137.529 89.2252 137.587 89.5183 137.587 89.8144Z" fill="#A2BADD"/>
<path d="M152.883 89.8144C152.883 90.2602 152.752 90.6961 152.504 91.0671C152.256 91.4371 151.904 91.7268 151.492 91.8973C151.08 92.0677 150.627 92.1123 150.19 92.0251C149.752 91.9379 149.351 91.7229 149.036 91.4081C148.721 91.0923 148.506 90.6907 148.419 90.2534C148.333 89.8161 148.378 89.3629 148.548 88.951C148.719 88.5391 149.008 88.1871 149.378 87.9396C149.749 87.692 150.185 87.5601 150.631 87.5603C150.926 87.5603 151.22 87.6186 151.493 87.7319C151.766 87.8452 152.015 88.0112 152.224 88.2206C152.433 88.4299 152.599 88.6784 152.712 88.9518C152.825 89.2253 152.883 89.5184 152.883 89.8144Z" fill="#A2BADD"/>
<path d="M168.182 89.8144C168.182 90.2602 168.049 90.696 167.802 91.0671C167.554 91.4371 167.202 91.7258 166.791 91.8973C166.379 92.0677 165.926 92.1123 165.489 92.0251C165.051 91.9379 164.65 91.7239 164.335 91.4081C164.019 91.0932 163.805 90.6913 163.718 90.2541C163.631 89.8169 163.675 89.3636 163.846 88.9517C164.016 88.5399 164.306 88.1878 164.676 87.9401C165.047 87.6925 165.482 87.5603 165.928 87.5603C166.224 87.5601 166.517 87.6183 166.791 87.7316C167.064 87.8448 167.313 88.0108 167.522 88.2202C167.731 88.4295 167.897 88.6781 168.01 88.9515C168.124 89.2251 168.182 89.5183 168.182 89.8144Z" fill="#A2BADD"/>
<path d="M183.478 89.8144C183.478 90.2602 183.346 90.696 183.098 91.0671C182.851 91.4371 182.499 91.7258 182.087 91.8973C181.675 92.0677 181.222 92.1123 180.785 92.0251C180.348 91.9379 179.947 91.7239 179.631 91.4081C179.316 91.0932 179.101 90.6913 179.015 90.2541C178.928 89.8169 178.973 89.3636 179.143 88.9517C179.314 88.5399 179.602 88.1878 179.973 87.9401C180.343 87.6925 180.779 87.5603 181.225 87.5603C181.521 87.5601 181.814 87.6183 182.087 87.7316C182.361 87.8448 182.609 88.0108 182.819 88.2202C183.028 88.4295 183.194 88.6781 183.307 88.9515C183.42 89.2251 183.478 89.5183 183.478 89.8144Z" fill="#A2BADD"/>
<path d="M91.6922 105.115C91.6922 105.561 91.56 105.997 91.3126 106.367C91.0652 106.738 90.7135 107.026 90.302 107.197C89.8905 107.367 89.4377 107.412 89.0008 107.325C88.564 107.239 88.1626 107.023 87.8476 106.709C87.5326 106.394 87.318 105.993 87.2309 105.556C87.1439 105.119 87.1884 104.666 87.3586 104.254C87.5289 103.842 87.8175 103.491 88.1876 103.243C88.5579 102.995 88.9932 102.863 89.4387 102.863C89.7345 102.862 90.0276 102.92 90.301 103.033C90.5743 103.147 90.8228 103.312 91.0321 103.522C91.2413 103.731 91.4074 103.98 91.5206 104.253C91.6339 104.526 91.6922 104.82 91.6922 105.115Z" fill="#A2BADD"/>
<path d="M104.736 107.37C105.981 107.37 106.991 106.362 106.991 105.116C106.991 103.871 105.981 102.863 104.736 102.863C103.492 102.863 102.483 103.871 102.483 105.116C102.483 106.362 103.492 107.37 104.736 107.37Z" fill="#A2BADD"/>
<path d="M122.286 105.115C122.286 105.562 122.154 105.998 121.906 106.368C121.659 106.739 121.308 107.028 120.896 107.199C120.484 107.369 120.031 107.414 119.594 107.328C119.156 107.24 118.755 107.026 118.439 106.711C118.124 106.396 117.909 105.994 117.822 105.557C117.735 105.119 117.78 104.666 117.95 104.254C118.121 103.842 118.41 103.49 118.78 103.243C119.151 102.995 119.587 102.863 120.033 102.863C120.63 102.863 121.203 103.1 121.626 103.523C122.048 103.945 122.285 104.517 122.286 105.115Z" fill="#A2BADD"/>
<path d="M137.587 105.115C137.587 105.562 137.455 105.998 137.207 106.368C136.96 106.739 136.608 107.028 136.197 107.199C135.785 107.369 135.331 107.414 134.894 107.328C134.457 107.24 134.056 107.026 133.74 106.711C133.425 106.396 133.21 105.994 133.123 105.557C133.036 105.119 133.08 104.666 133.251 104.254C133.421 103.842 133.711 103.49 134.081 103.243C134.452 102.995 134.887 102.863 135.333 102.863C135.93 102.863 136.504 103.1 136.926 103.523C137.348 103.945 137.586 104.517 137.587 105.115Z" fill="#A2BADD"/>
<path d="M150.631 107.37C151.876 107.37 152.884 106.362 152.884 105.116C152.884 103.871 151.876 102.863 150.631 102.863C149.387 102.863 148.378 103.871 148.378 105.116C148.378 106.362 149.387 107.37 150.631 107.37Z" fill="#A2BADD"/>
<path d="M168.182 105.115C168.182 105.562 168.05 105.998 167.802 106.368C167.555 106.739 167.203 107.028 166.792 107.199C166.38 107.369 165.927 107.414 165.49 107.328C165.052 107.24 164.651 107.026 164.335 106.711C164.02 106.396 163.805 105.994 163.718 105.557C163.631 105.119 163.675 104.666 163.846 104.254C164.016 103.842 164.306 103.49 164.676 103.243C165.047 102.995 165.482 102.863 165.928 102.863C166.224 102.862 166.517 102.92 166.791 103.033C167.064 103.147 167.312 103.312 167.521 103.522C167.73 103.731 167.897 103.98 168.01 104.253C168.124 104.526 168.182 104.82 168.182 105.115Z" fill="#A2BADD"/>
<path d="M183.478 105.115C183.478 105.562 183.346 105.998 183.099 106.368C182.851 106.739 182.5 107.028 182.088 107.199C181.676 107.369 181.223 107.414 180.786 107.328C180.349 107.24 179.947 107.026 179.632 106.711C179.316 106.396 179.102 105.994 179.015 105.557C178.928 105.119 178.973 104.666 179.143 104.254C179.314 103.842 179.602 103.49 179.973 103.243C180.343 102.995 180.779 102.863 181.225 102.863C181.52 102.862 181.814 102.92 182.087 103.033C182.36 103.147 182.609 103.312 182.819 103.522C183.028 103.731 183.193 103.98 183.307 104.253C183.42 104.526 183.478 104.82 183.478 105.115Z" fill="#A2BADD"/>
<path d="M1307 300.375C1307 300.774 1306.88 301.165 1306.66 301.496C1306.44 301.827 1306.13 302.086 1305.76 302.239C1305.39 302.391 1304.98 302.432 1304.6 302.353C1304.2 302.276 1303.84 302.084 1303.56 301.801C1303.28 301.519 1303.08 301.16 1303.01 300.769C1302.93 300.377 1302.97 299.972 1303.12 299.603C1303.28 299.235 1303.53 298.92 1303.87 298.698C1304.2 298.477 1304.59 298.358 1304.98 298.358C1305.52 298.358 1306.03 298.571 1306.41 298.949C1306.79 299.327 1307 299.84 1307 300.375Z" fill="#A2BADD"/>
<path d="M1318.67 302.392C1319.79 302.392 1320.69 301.489 1320.69 300.375C1320.69 299.261 1319.79 298.358 1318.67 298.358C1317.56 298.358 1316.66 299.261 1316.66 300.375C1316.66 301.489 1317.56 302.392 1318.67 302.392Z" fill="#A2BADD"/>
<path d="M1334.38 300.375C1334.38 300.774 1334.26 301.165 1334.04 301.496C1333.81 301.828 1333.5 302.086 1333.14 302.239C1332.77 302.392 1332.36 302.432 1331.97 302.353C1331.58 302.276 1331.22 302.083 1330.94 301.801C1330.66 301.519 1330.46 301.16 1330.38 300.769C1330.31 300.377 1330.35 299.971 1330.5 299.603C1330.66 299.234 1330.91 298.919 1331.25 298.697C1331.58 298.477 1331.96 298.358 1332.36 298.358C1332.63 298.358 1332.89 298.411 1333.14 298.512C1333.38 298.613 1333.6 298.762 1333.78 298.949C1333.98 299.136 1334.12 299.359 1334.23 299.603C1334.33 299.848 1334.38 300.111 1334.38 300.375Z" fill="#A2BADD"/>
<path d="M1348.06 300.375C1348.06 300.774 1347.95 301.165 1347.72 301.496C1347.5 301.827 1347.19 302.086 1346.82 302.239C1346.46 302.391 1346.05 302.432 1345.66 302.353C1345.26 302.276 1344.91 302.084 1344.63 301.801C1344.34 301.519 1344.15 301.16 1344.07 300.769C1344 300.377 1344.03 299.972 1344.19 299.603C1344.34 299.235 1344.6 298.92 1344.93 298.698C1345.26 298.477 1345.65 298.358 1346.05 298.358C1346.32 298.358 1346.58 298.411 1346.82 298.511C1347.07 298.613 1347.29 298.761 1347.48 298.949C1347.67 299.136 1347.81 299.359 1347.92 299.603C1348.02 299.848 1348.06 300.111 1348.06 300.375Z" fill="#A2BADD"/>
<path d="M1359.74 302.392C1360.85 302.392 1361.76 301.489 1361.76 300.375C1361.76 299.261 1360.85 298.358 1359.74 298.358C1358.62 298.358 1357.72 299.261 1357.72 300.375C1357.72 301.489 1358.62 302.392 1359.74 302.392Z" fill="#A2BADD"/>
<path d="M1375.45 300.375C1375.45 300.774 1375.32 301.165 1375.11 301.496C1374.89 301.827 1374.57 302.086 1374.2 302.239C1373.83 302.391 1373.43 302.432 1373.04 302.353C1372.64 302.276 1372.28 302.084 1372 301.801C1371.72 301.519 1371.53 301.16 1371.45 300.769C1371.37 300.377 1371.41 299.972 1371.57 299.603C1371.72 299.235 1371.98 298.92 1372.31 298.698C1372.64 298.477 1373.03 298.358 1373.43 298.358C1373.97 298.358 1374.48 298.571 1374.86 298.949C1375.24 299.327 1375.45 299.84 1375.45 300.375Z" fill="#A2BADD"/>
<path d="M1389.14 300.375C1389.14 300.774 1389.01 301.165 1388.8 301.496C1388.58 301.827 1388.26 302.086 1387.89 302.239C1387.52 302.391 1387.11 302.432 1386.73 302.353C1386.34 302.276 1385.97 302.084 1385.69 301.801C1385.41 301.519 1385.22 301.16 1385.14 300.769C1385.06 300.377 1385.1 299.972 1385.25 299.603C1385.41 299.235 1385.67 298.92 1386 298.698C1386.33 298.477 1386.72 298.358 1387.12 298.358C1387.66 298.358 1388.17 298.571 1388.55 298.949C1388.93 299.327 1389.14 299.84 1389.14 300.375Z" fill="#A2BADD"/>
<path d="M1320.69 314.069C1320.69 314.467 1320.57 314.857 1320.35 315.189C1320.13 315.521 1319.82 315.78 1319.45 315.932C1319.08 316.085 1318.67 316.124 1318.28 316.047C1317.89 315.969 1317.53 315.777 1317.25 315.495C1316.97 315.213 1316.77 314.853 1316.7 314.462C1316.62 314.071 1316.66 313.665 1316.81 313.297C1316.97 312.928 1317.22 312.613 1317.56 312.391C1317.89 312.17 1318.27 312.051 1318.67 312.051C1319.2 312.052 1319.72 312.264 1320.1 312.643C1320.47 313.021 1320.69 313.534 1320.69 314.069Z" fill="#A2BADD"/>
<path d="M1334.38 314.069C1334.38 314.468 1334.26 314.857 1334.04 315.19C1333.81 315.521 1333.5 315.78 1333.14 315.932C1332.77 316.085 1332.36 316.124 1331.97 316.047C1331.58 315.968 1331.22 315.777 1330.94 315.495C1330.66 315.212 1330.46 314.852 1330.38 314.461C1330.31 314.07 1330.35 313.665 1330.5 313.296C1330.66 312.928 1330.91 312.613 1331.25 312.391C1331.58 312.169 1331.96 312.051 1332.36 312.051C1332.9 312.052 1333.41 312.264 1333.78 312.643C1334.16 313.021 1334.38 313.534 1334.38 314.069Z" fill="#A2BADD"/>
<path d="M1348.06 314.069C1348.06 314.467 1347.95 314.857 1347.72 315.189C1347.5 315.521 1347.19 315.78 1346.82 315.932C1346.46 316.085 1346.05 316.124 1345.66 316.047C1345.26 315.969 1344.91 315.777 1344.63 315.495C1344.34 315.213 1344.15 314.853 1344.07 314.462C1344 314.071 1344.03 313.665 1344.19 313.297C1344.34 312.928 1344.6 312.613 1344.93 312.391C1345.26 312.17 1345.65 312.051 1346.05 312.051C1346.58 312.051 1347.1 312.264 1347.47 312.642C1347.86 313.021 1348.06 313.533 1348.06 314.069Z" fill="#A2BADD"/>
<path d="M1361.76 314.069C1361.76 314.467 1361.64 314.857 1361.41 315.189C1361.2 315.521 1360.88 315.78 1360.51 315.932C1360.14 316.085 1359.74 316.124 1359.35 316.047C1358.95 315.969 1358.59 315.777 1358.31 315.495C1358.03 315.213 1357.84 314.853 1357.76 314.462C1357.68 314.071 1357.72 313.665 1357.88 313.297C1358.03 312.928 1358.29 312.613 1358.62 312.391C1358.95 312.17 1359.34 312.051 1359.74 312.051C1360.28 312.051 1360.79 312.264 1361.17 312.642C1361.55 313.021 1361.76 313.533 1361.76 314.069Z" fill="#A2BADD"/>
<path d="M1375.45 314.069C1375.45 314.467 1375.32 314.857 1375.11 315.189C1374.89 315.521 1374.57 315.78 1374.2 315.932C1373.83 316.085 1373.43 316.124 1373.04 316.047C1372.64 315.969 1372.28 315.777 1372 315.495C1371.72 315.213 1371.53 314.853 1371.45 314.462C1371.37 314.071 1371.41 313.665 1371.57 313.297C1371.72 312.928 1371.98 312.613 1372.31 312.391C1372.64 312.17 1373.03 312.051 1373.43 312.051C1373.97 312.052 1374.48 312.264 1374.86 312.643C1375.24 313.021 1375.45 313.534 1375.45 314.069Z" fill="#A2BADD"/>
<path d="M1389.14 314.069C1389.14 314.467 1389.01 314.857 1388.8 315.189C1388.58 315.521 1388.26 315.78 1387.89 315.932C1387.52 316.085 1387.11 316.124 1386.73 316.047C1386.34 315.969 1385.97 315.777 1385.69 315.495C1385.41 315.213 1385.22 314.853 1385.14 314.462C1385.06 314.071 1385.1 313.665 1385.25 313.297C1385.41 312.928 1385.67 312.613 1386 312.391C1386.33 312.17 1386.72 312.051 1387.12 312.051C1387.66 312.052 1388.17 312.264 1388.55 312.643C1388.93 313.021 1389.14 313.534 1389.14 314.069Z" fill="#A2BADD"/>
<path d="M1402.83 314.069C1402.83 314.468 1402.7 314.857 1402.49 315.19C1402.27 315.521 1401.95 315.78 1401.58 315.932C1401.21 316.085 1400.8 316.124 1400.42 316.047C1400.03 315.968 1399.66 315.777 1399.38 315.495C1399.1 315.212 1398.9 314.852 1398.83 314.461C1398.75 314.07 1398.8 313.665 1398.94 313.296C1399.1 312.928 1399.36 312.613 1399.69 312.391C1400.02 312.169 1400.41 312.051 1400.81 312.051C1401.35 312.052 1401.86 312.264 1402.24 312.643C1402.61 313.021 1402.83 313.534 1402.83 314.069Z" fill="#A2BADD"/>
<path d="M1406.28 845.501C1406.28 846.616 1405.95 847.706 1405.33 848.633C1404.71 849.56 1403.83 850.283 1402.79 850.709C1401.76 851.135 1400.63 851.247 1399.53 851.029C1398.44 850.811 1397.44 850.274 1396.65 849.486C1395.86 848.696 1395.33 847.692 1395.11 846.598C1394.89 845.504 1395 844.371 1395.43 843.34C1395.85 842.31 1396.58 841.429 1397.51 840.81C1398.43 840.19 1399.52 839.86 1400.64 839.86C1401.37 839.86 1402.11 840.006 1402.8 840.289C1403.48 840.573 1404.1 840.988 1404.62 841.512C1405.15 842.036 1405.56 842.658 1405.85 843.342C1406.13 844.027 1406.28 844.76 1406.28 845.501Z" stroke="#DFEAFC" stroke-miterlimit="10"/>
<path d="M1444.56 845.501C1444.56 846.616 1444.23 847.707 1443.61 848.635C1442.99 849.563 1442.11 850.286 1441.07 850.713C1440.05 851.14 1438.91 851.251 1437.82 851.034C1436.72 850.816 1435.72 850.279 1434.93 849.489C1434.14 848.701 1433.6 847.695 1433.39 846.602C1433.17 845.507 1433.28 844.373 1433.71 843.342C1434.14 842.311 1434.85 841.43 1435.78 840.81C1436.71 840.191 1437.8 839.86 1438.92 839.86C1440.41 839.86 1441.85 840.455 1442.9 841.512C1443.96 842.57 1444.56 844.005 1444.56 845.501Z" stroke="#DFEAFC" stroke-miterlimit="10"/>
<path d="M1482.84 845.501C1482.84 846.616 1482.51 847.707 1481.89 848.635C1481.27 849.563 1480.39 850.286 1479.36 850.713C1478.33 851.14 1477.19 851.251 1476.1 851.034C1475.01 850.816 1474 850.279 1473.21 849.489C1472.42 848.701 1471.89 847.695 1471.67 846.602C1471.45 845.507 1471.56 844.373 1471.99 843.342C1472.41 842.311 1473.14 841.43 1474.07 840.81C1474.99 840.191 1476.08 839.86 1477.2 839.86C1477.94 839.86 1478.67 840.005 1479.36 840.289C1480.05 840.572 1480.67 840.987 1481.19 841.511C1481.71 842.035 1482.13 842.657 1482.41 843.342C1482.69 844.026 1482.84 844.76 1482.84 845.501Z" stroke="#DFEAFC" stroke-miterlimit="10"/>
<path d="M1406.28 883.792C1406.28 884.908 1405.95 885.998 1405.33 886.925C1404.71 887.852 1403.83 888.575 1402.79 889.001C1401.76 889.427 1400.63 889.538 1399.53 889.32C1398.44 889.102 1397.44 888.566 1396.65 887.776C1395.86 886.988 1395.33 885.983 1395.11 884.89C1394.89 883.796 1395 882.662 1395.43 881.632C1395.85 880.601 1396.58 879.721 1397.51 879.102C1398.43 878.482 1399.52 878.151 1400.64 878.151C1401.37 878.151 1402.11 878.297 1402.8 878.58C1403.48 878.864 1404.1 879.28 1404.62 879.804C1405.15 880.327 1405.56 880.949 1405.85 881.634C1406.13 882.318 1406.28 883.052 1406.28 883.792Z" stroke="#DFEAFC" stroke-miterlimit="10"/>
<path d="M1444.56 883.792C1444.56 884.908 1444.23 885.999 1443.61 886.927C1442.99 887.854 1442.11 888.577 1441.07 889.005C1440.05 889.431 1438.91 889.543 1437.82 889.325C1436.72 889.107 1435.72 888.571 1434.93 887.781C1434.14 886.993 1433.6 885.987 1433.39 884.892C1433.17 883.799 1433.28 882.664 1433.71 881.634C1434.14 880.603 1434.85 879.722 1435.78 879.102C1436.71 878.482 1437.8 878.151 1438.92 878.151C1440.41 878.151 1441.85 878.745 1442.9 879.803C1443.96 880.862 1444.56 882.296 1444.56 883.792Z" stroke="#DFEAFC" stroke-miterlimit="10"/>
<path d="M1482.84 883.792C1482.84 884.908 1482.51 885.999 1481.89 886.927C1481.27 887.854 1480.39 888.577 1479.36 889.005C1478.33 889.431 1477.19 889.543 1476.1 889.325C1475.01 889.107 1474 888.571 1473.21 887.781C1472.42 886.993 1471.89 885.987 1471.67 884.892C1471.45 883.799 1471.56 882.664 1471.99 881.634C1472.41 880.603 1473.14 879.722 1474.07 879.102C1474.99 878.482 1476.08 878.151 1477.2 878.151C1477.94 878.151 1478.67 878.297 1479.36 878.579C1480.05 878.863 1480.67 879.279 1481.19 879.803C1481.71 880.327 1482.13 880.949 1482.41 881.633C1482.69 882.318 1482.84 883.051 1482.84 883.792Z" stroke="#DFEAFC" stroke-miterlimit="10"/>
<path d="M8.61365 742.876C9.3841 742.876 10.0087 742.25 10.0087 741.48C10.0087 740.709 9.3841 740.084 8.61365 740.084C7.8432 740.084 7.21863 740.709 7.21863 741.48C7.21863 742.25 7.8432 742.876 8.61365 742.876Z" fill="#F87F28"/>
<path d="M26.8098 742.876C27.5802 742.876 28.2048 742.25 28.2048 741.48C28.2048 740.709 27.5802 740.084 26.8098 740.084C26.0393 740.084 25.4147 740.709 25.4147 741.48C25.4147 742.25 26.0393 742.876 26.8098 742.876Z" fill="#F87F28"/>
<path d="M8.61365 760.921C9.3841 760.921 10.0087 760.296 10.0087 759.526C10.0087 758.755 9.3841 758.13 8.61365 758.13C7.8432 758.13 7.21863 758.755 7.21863 759.526C7.21863 760.296 7.8432 760.921 8.61365 760.921Z" fill="#F87F28"/>
<path d="M26.8098 760.921C27.5802 760.921 28.2048 760.296 28.2048 759.526C28.2048 758.755 27.5802 758.13 26.8098 758.13C26.0393 758.13 25.4147 758.755 25.4147 759.526C25.4147 760.296 26.0393 760.921 26.8098 760.921Z" fill="#F87F28"/>
<path d="M10.0087 777.571C10.0087 777.847 9.92683 778.117 9.77357 778.346C9.62029 778.576 9.40242 778.755 9.14751 778.861C8.8926 778.966 8.6121 778.993 8.34149 778.94C8.07089 778.886 7.82233 778.753 7.62722 778.559C7.43213 778.363 7.29926 778.114 7.24544 777.844C7.1916 777.572 7.21923 777.292 7.32482 777.037C7.4304 776.782 7.6092 776.564 7.83861 776.411C8.06802 776.257 8.33774 776.176 8.61365 776.176C8.98364 776.176 9.33847 776.323 9.60008 776.584C9.86173 776.846 10.0087 777.201 10.0087 777.571Z" fill="#F87F28"/>
<path d="M28.2041 777.571C28.2041 777.847 28.1222 778.117 27.969 778.346C27.8157 778.576 27.5978 778.755 27.3429 778.861C27.088 778.966 26.8075 778.993 26.5369 778.94C26.2663 778.886 26.0177 778.753 25.8226 778.559C25.6275 778.363 25.4947 778.114 25.4408 777.844C25.3871 777.572 25.4147 777.292 25.5203 777.037C25.6259 776.782 25.8046 776.564 26.034 776.411C26.2635 776.257 26.5332 776.176 26.8091 776.176C26.9923 776.176 27.1736 776.211 27.3429 776.282C27.5122 776.352 27.6659 776.455 27.7955 776.584C27.925 776.714 28.0278 776.868 28.0979 777.037C28.168 777.206 28.2041 777.388 28.2041 777.571Z" fill="#F87F28"/>
<path d="M10.0087 795.618C10.0085 795.894 9.92663 796.164 9.77328 796.393C9.61988 796.623 9.40196 796.802 9.14704 796.908C8.89212 797.013 8.61165 797.04 8.34109 796.986C8.07052 796.933 7.82202 796.799 7.62699 796.604C7.43196 796.409 7.29915 796.161 7.24539 795.89C7.19161 795.619 7.21928 795.338 7.32488 795.084C7.43048 794.829 7.60929 794.611 7.83869 794.457C8.06808 794.304 8.33777 794.222 8.61365 794.222C8.98369 794.222 9.33852 794.37 9.60012 794.631C9.86173 794.893 10.0087 795.248 10.0087 795.618Z" fill="#F87F28"/>
<path d="M28.2041 795.618C28.204 795.894 28.122 796.164 27.9687 796.393C27.8153 796.623 27.5974 796.802 27.3425 796.908C27.0875 797.013 26.8071 797.04 26.5365 796.986C26.2659 796.933 26.0174 796.799 25.8224 796.604C25.6274 796.409 25.4946 796.161 25.4408 795.89C25.3871 795.619 25.4147 795.338 25.5203 795.084C25.6259 794.829 25.8047 794.611 26.0341 794.457C26.2635 794.304 26.5332 794.222 26.8091 794.222C26.9923 794.222 27.1737 794.258 27.3431 794.328C27.5124 794.399 27.6661 794.501 27.7958 794.631C27.9253 794.761 28.0281 794.915 28.0981 795.084C28.1681 795.253 28.2042 795.435 28.2041 795.618Z" fill="#F87F28"/>
<path d="M42.8291 742.876C43.5995 742.876 44.2241 742.25 44.2241 741.48C44.2241 740.709 43.5995 740.084 42.8291 740.084C42.0586 740.084 41.434 740.709 41.434 741.48C41.434 742.25 42.0586 742.876 42.8291 742.876Z" fill="#F87F28"/>
<path d="M61.0252 742.876C61.7957 742.876 62.4202 742.25 62.4202 741.48C62.4202 740.709 61.7957 740.084 61.0252 740.084C60.2548 740.084 59.6301 740.709 59.6301 741.48C59.6301 742.25 60.2548 742.876 61.0252 742.876Z" fill="#F87F28"/>
<path d="M79.2213 742.876C79.9917 742.876 80.6162 742.25 80.6162 741.48C80.6162 740.709 79.9917 740.084 79.2213 740.084C78.4508 740.084 77.8262 740.709 77.8262 741.48C77.8262 742.25 78.4508 742.876 79.2213 742.876Z" fill="#F87F28"/>
<path d="M97.4174 742.876C98.1876 742.876 98.8124 742.25 98.8124 741.48C98.8124 740.709 98.1876 740.084 97.4174 740.084C96.647 740.084 96.0223 740.709 96.0223 741.48C96.0223 742.25 96.647 742.876 97.4174 742.876Z" fill="#F87F28"/>
<path d="M42.8291 760.921C43.5995 760.921 44.2241 760.296 44.2241 759.526C44.2241 758.755 43.5995 758.13 42.8291 758.13C42.0586 758.13 41.434 758.755 41.434 759.526C41.434 760.296 42.0586 760.921 42.8291 760.921Z" fill="#F87F28"/>
<path d="M61.0252 760.921C61.7957 760.921 62.4202 760.296 62.4202 759.526C62.4202 758.755 61.7957 758.13 61.0252 758.13C60.2548 758.13 59.6301 758.755 59.6301 759.526C59.6301 760.296 60.2548 760.921 61.0252 760.921Z" fill="#F87F28"/>
<path d="M79.2213 760.921C79.9917 760.921 80.6162 760.296 80.6162 759.526C80.6162 758.755 79.9917 758.13 79.2213 758.13C78.4508 758.13 77.8262 758.755 77.8262 759.526C77.8262 760.296 78.4508 760.921 79.2213 760.921Z" fill="#F87F28"/>
<path d="M97.4174 760.921C98.1876 760.921 98.8124 760.296 98.8124 759.526C98.8124 758.755 98.1876 758.13 97.4174 758.13C96.647 758.13 96.0223 758.755 96.0223 759.526C96.0223 760.296 96.647 760.921 97.4174 760.921Z" fill="#F87F28"/>
<path d="M44.2241 777.571C44.2241 777.847 44.1423 778.117 43.989 778.346C43.8357 778.576 43.6179 778.755 43.3629 778.861C43.108 778.966 42.8276 778.993 42.5569 778.94C42.2863 778.886 42.0377 778.753 41.8426 778.559C41.6475 778.363 41.5147 778.114 41.4608 777.844C41.4071 777.572 41.4347 777.292 41.5403 777.037C41.6459 776.782 41.8246 776.564 42.054 776.411C42.2834 776.257 42.5532 776.176 42.8291 776.176C43.1991 776.176 43.5539 776.323 43.8155 776.584C44.0772 776.846 44.2241 777.201 44.2241 777.571Z" fill="#F87F28"/>
<path d="M62.4202 777.571C62.4202 777.847 62.3383 778.117 62.185 778.346C62.0318 778.576 61.8139 778.755 61.5589 778.861C61.3041 778.966 61.0236 778.993 60.7529 778.94C60.4824 778.886 60.2338 778.753 60.0387 778.559C59.8436 778.363 59.7108 778.114 59.6569 777.844C59.6031 777.572 59.6307 777.292 59.7363 777.037C59.8419 776.782 60.0207 776.564 60.2501 776.411C60.4795 776.257 60.7493 776.176 61.0252 776.176C61.3951 776.176 61.75 776.323 62.0115 776.584C62.2732 776.846 62.4202 777.201 62.4202 777.571Z" fill="#F87F28"/>
<path d="M80.6163 777.571C80.6163 777.847 80.5345 778.117 80.3812 778.346C80.2279 778.576 80.0101 778.755 79.7552 778.861C79.5002 778.966 79.2198 778.993 78.9491 778.94C78.6785 778.886 78.4299 778.753 78.2348 778.559C78.0397 778.363 77.9069 778.114 77.8531 777.844C77.7993 777.572 77.8269 777.292 77.9325 777.037C78.0381 776.782 78.2168 776.564 78.4462 776.411C78.6757 776.257 78.9454 776.176 79.2213 776.176C79.5913 776.176 79.9461 776.323 80.2077 776.584C80.4694 776.846 80.6163 777.201 80.6163 777.571Z" fill="#F87F28"/>
<path d="M98.8114 777.571C98.8114 777.847 98.7301 778.117 98.577 778.346C98.423 778.576 98.206 778.755 97.9502 778.861C97.6954 778.966 97.4155 778.993 97.1442 778.94C96.8739 778.886 96.6254 778.753 96.4302 778.559C96.2352 778.363 96.1023 778.114 96.0486 777.844C95.9947 777.572 96.0223 777.292 96.1279 777.037C96.2335 776.782 96.4122 776.564 96.6417 776.411C96.8711 776.257 97.1403 776.176 97.4164 776.176C97.5995 776.176 97.7816 776.211 97.9502 776.282C98.1197 776.352 98.2738 776.455 98.4036 776.584C98.5324 776.714 98.6351 776.868 98.7058 777.037C98.7756 777.206 98.8114 777.388 98.8114 777.571Z" fill="#F87F28"/>
<path d="M44.2241 795.618C44.224 795.894 44.1421 796.164 43.9887 796.393C43.8354 796.623 43.6174 796.802 43.3625 796.908C43.1075 797.013 42.8271 797.04 42.5565 796.986C42.2859 796.933 42.0374 796.799 41.8424 796.604C41.6474 796.409 41.5146 796.161 41.4608 795.89C41.4071 795.619 41.4347 795.338 41.5403 795.084C41.6459 794.829 41.8247 794.611 42.0541 794.457C42.2835 794.304 42.5532 794.222 42.8291 794.222C43.0123 794.222 43.1938 794.258 43.3631 794.328C43.5324 794.399 43.6862 794.501 43.8158 794.631C43.9453 794.761 44.048 794.915 44.1181 795.084C44.1882 795.253 44.2242 795.435 44.2241 795.618Z" fill="#F87F28"/>
<path d="M62.4202 795.618C62.4201 795.894 62.3381 796.164 62.1847 796.393C62.0314 796.623 61.8134 796.802 61.5585 796.908C61.3036 797.013 61.0231 797.04 60.7525 796.986C60.482 796.933 60.2335 796.799 60.0385 796.604C59.8435 796.409 59.7107 796.161 59.6569 795.89C59.6031 795.619 59.6307 795.338 59.7363 795.084C59.8419 794.829 60.0208 794.611 60.2502 794.457C60.4796 794.304 60.7493 794.222 61.0252 794.222C61.2083 794.222 61.3898 794.258 61.5591 794.328C61.7285 794.399 61.8822 794.501 62.0118 794.631C62.1413 794.761 62.244 794.915 62.3142 795.084C62.3842 795.253 62.4203 795.435 62.4202 795.618Z" fill="#F87F28"/>
<path d="M80.6163 795.618C80.6162 795.894 80.5343 796.164 80.3809 796.393C80.2276 796.623 80.0096 796.802 79.7547 796.908C79.4997 797.013 79.2193 797.04 78.9487 796.986C78.6781 796.933 78.4297 796.799 78.2346 796.604C78.0396 796.409 77.9068 796.161 77.8531 795.89C77.7993 795.619 77.8269 795.338 77.9325 795.084C78.0381 794.829 78.2169 794.611 78.4463 794.457C78.6757 794.304 78.9454 794.222 79.2213 794.222C79.5914 794.222 79.9461 794.37 80.2078 794.631C80.4694 794.893 80.6163 795.248 80.6163 795.618Z" fill="#F87F28"/>
<path d="M98.8115 795.618C98.8115 795.894 98.7301 796.164 98.5761 796.393C98.423 796.623 98.205 796.802 97.9503 796.908C97.6955 797.013 97.4145 797.04 97.1443 796.986C96.8736 796.933 96.6251 796.799 96.4301 796.604C96.2351 796.409 96.1023 796.161 96.0485 795.89C95.9947 795.619 96.0223 795.338 96.1279 795.084C96.2336 794.829 96.4124 794.611 96.6418 794.457C96.8712 794.304 97.1413 794.222 97.4165 794.222C97.5996 794.222 97.7817 794.258 97.9512 794.328C98.1198 794.399 98.2738 794.501 98.4036 794.631C98.5334 794.761 98.6361 794.915 98.7059 795.084C98.7756 795.253 98.8115 795.435 98.8115 795.618Z" fill="#F87F28"/>
<path d="M42.8291 813.702C43.5995 813.702 44.2241 813.077 44.2241 812.306C44.2241 811.535 43.5995 810.91 42.8291 810.91C42.0586 810.91 41.434 811.535 41.434 812.306C41.434 813.077 42.0586 813.702 42.8291 813.702Z" fill="#F87F28"/>
<path d="M61.0252 813.702C61.7957 813.702 62.4202 813.077 62.4202 812.306C62.4202 811.535 61.7957 810.91 61.0252 810.91C60.2548 810.91 59.6301 811.535 59.6301 812.306C59.6301 813.077 60.2548 813.702 61.0252 813.702Z" fill="#F87F28"/>
<path d="M79.2213 813.702C79.9917 813.702 80.6162 813.077 80.6162 812.306C80.6162 811.535 79.9917 810.91 79.2213 810.91C78.4508 810.91 77.8262 811.535 77.8262 812.306C77.8262 813.077 78.4508 813.702 79.2213 813.702Z" fill="#F87F28"/>
<path d="M97.4174 813.702C98.1876 813.702 98.8124 813.077 98.8124 812.306C98.8124 811.535 98.1876 810.91 97.4174 810.91C96.647 810.91 96.0223 811.535 96.0223 812.306C96.0223 813.077 96.647 813.702 97.4174 813.702Z" fill="#F87F28"/>
<path d="M42.8291 831.748C43.5995 831.748 44.2241 831.123 44.2241 830.352C44.2241 829.581 43.5995 828.956 42.8291 828.956C42.0586 828.956 41.434 829.581 41.434 830.352C41.434 831.123 42.0586 831.748 42.8291 831.748Z" fill="#F87F28"/>
<path d="M61.0252 831.748C61.7957 831.748 62.4202 831.123 62.4202 830.352C62.4202 829.581 61.7957 828.956 61.0252 828.956C60.2548 828.956 59.6301 829.581 59.6301 830.352C59.6301 831.123 60.2548 831.748 61.0252 831.748Z" fill="#F87F28"/>
<path d="M79.2213 831.748C79.9917 831.748 80.6162 831.123 80.6162 830.352C80.6162 829.581 79.9917 828.956 79.2213 828.956C78.4508 828.956 77.8262 829.581 77.8262 830.352C77.8262 831.123 78.4508 831.748 79.2213 831.748Z" fill="#F87F28"/>
<path d="M97.4174 831.748C98.1876 831.748 98.8124 831.123 98.8124 830.352C98.8124 829.581 98.1876 828.956 97.4174 828.956C96.647 828.956 96.0223 829.581 96.0223 830.352C96.0223 831.123 96.647 831.748 97.4174 831.748Z" fill="#F87F28"/>
<path d="M44.224 848.398C44.224 848.674 44.1422 848.944 43.9889 849.174C43.8357 849.403 43.6178 849.581 43.3628 849.687C43.1079 849.793 42.8275 849.821 42.5568 849.766C42.2862 849.713 42.0377 849.579 41.8426 849.385C41.6475 849.189 41.5146 848.941 41.4608 848.67C41.4069 848.4 41.4346 848.119 41.5401 847.864C41.6457 847.609 41.8245 847.391 42.0539 847.237C42.2833 847.084 42.5531 847.002 42.829 847.002C43.199 847.002 43.5539 847.149 43.8154 847.411C44.0771 847.673 44.224 848.028 44.224 848.398Z" fill="#F87F28"/>
<path d="M62.4202 848.398C62.4202 848.674 62.3383 848.944 62.1851 849.174C62.0318 849.403 61.8139 849.581 61.559 849.687C61.3041 849.793 61.0236 849.821 60.753 849.766C60.4824 849.713 60.2338 849.579 60.0387 849.385C59.8436 849.189 59.7108 848.941 59.6569 848.67C59.6031 848.4 59.6308 848.119 59.7364 847.864C59.8419 847.609 60.0207 847.391 60.2501 847.237C60.4795 847.084 60.7492 847.002 61.0252 847.002C61.3952 847.002 61.7499 847.149 62.0116 847.411C62.2732 847.673 62.4202 848.028 62.4202 848.398Z" fill="#F87F28"/>
<path d="M80.6163 848.398C80.6163 848.674 80.5345 848.944 80.3812 849.174C80.228 849.403 80.0101 849.581 79.7551 849.687C79.5002 849.793 79.2198 849.821 78.9491 849.766C78.6785 849.713 78.43 849.579 78.2348 849.385C78.0397 849.189 77.9069 848.941 77.8531 848.67C77.7993 848.4 77.8269 848.119 77.9324 847.864C78.038 847.609 78.2168 847.391 78.4462 847.237C78.6756 847.084 78.9454 847.002 79.2213 847.002C79.5913 847.002 79.9462 847.149 80.2077 847.411C80.4694 847.673 80.6163 848.028 80.6163 848.398Z" fill="#F87F28"/>
<path d="M98.8115 848.398C98.8115 848.674 98.7301 848.944 98.577 849.174C98.423 849.403 98.205 849.581 97.9503 849.687C97.6955 849.793 97.4155 849.821 97.1443 849.766C96.874 849.713 96.6254 849.579 96.4303 849.385C96.2352 849.189 96.1024 848.941 96.0485 848.67C95.9947 848.4 96.0223 848.119 96.1279 847.864C96.2335 847.609 96.4123 847.391 96.6418 847.237C96.8712 847.084 97.1404 847.002 97.4165 847.002C97.5996 847.002 97.7817 847.039 97.9503 847.108C98.1198 847.178 98.2738 847.282 98.4036 847.411C98.5325 847.54 98.6352 847.694 98.7059 847.864C98.7756 848.033 98.8115 848.215 98.8115 848.398Z" fill="#F87F28"/>
<path d="M44.224 866.445C44.2238 866.721 44.142 866.991 43.9886 867.22C43.8352 867.45 43.6173 867.628 43.3624 867.734C43.1074 867.84 42.827 867.867 42.5564 867.813C42.2858 867.759 42.0374 867.626 41.8424 867.431C41.6473 867.236 41.5145 866.987 41.4608 866.717C41.4069 866.445 41.4346 866.166 41.5402 865.91C41.6458 865.655 41.8246 865.437 42.054 865.284C42.2834 865.131 42.5531 865.049 42.829 865.049C43.0122 865.049 43.1937 865.084 43.363 865.155C43.5322 865.225 43.6861 865.328 43.8156 865.457C43.9452 865.587 44.0479 865.741 44.118 865.911C44.1881 866.08 44.2241 866.261 44.224 866.445Z" fill="#F87F28"/>
<path d="M62.4202 866.445C62.42 866.721 62.3381 866.991 62.1848 867.22C62.0313 867.45 61.8135 867.628 61.5586 867.734C61.3036 867.84 61.0232 867.867 60.7526 867.813C60.482 867.759 60.2335 867.626 60.0385 867.431C59.8434 867.236 59.7107 866.987 59.6569 866.717C59.6031 866.445 59.6308 866.166 59.7364 865.91C59.842 865.655 60.0208 865.437 60.2502 865.284C60.4796 865.131 60.7493 865.049 61.0252 865.049C61.2084 865.049 61.3898 865.084 61.5592 865.155C61.7284 865.225 61.8822 865.328 62.0119 865.457C62.1414 865.587 62.2441 865.741 62.3142 865.911C62.3842 866.08 62.4203 866.261 62.4202 866.445Z" fill="#F87F28"/>
<path d="M80.6164 866.445C80.6162 866.721 80.5343 866.991 80.381 867.22C80.2276 867.45 80.0096 867.628 79.7548 867.734C79.4998 867.84 79.2193 867.867 78.9488 867.813C78.6782 867.759 78.4297 867.626 78.2347 867.431C78.0397 867.236 77.9069 866.987 77.8531 866.717C77.7992 866.445 77.8269 866.166 77.9325 865.91C78.0381 865.655 78.217 865.437 78.4464 865.284C78.6758 865.131 78.9455 865.049 79.2214 865.049C79.5914 865.049 79.9462 865.196 80.2077 865.457C80.4694 865.72 80.6164 866.074 80.6164 866.445Z" fill="#F87F28"/>
<path d="M98.8115 866.445C98.8115 866.721 98.7301 866.991 98.5761 867.22C98.423 867.45 98.205 867.628 97.9503 867.734C97.6955 867.84 97.4145 867.867 97.1443 867.813C96.8736 867.759 96.6251 867.626 96.4301 867.431C96.2351 867.236 96.1023 866.987 96.0485 866.717C95.9947 866.445 96.0223 866.166 96.1279 865.91C96.2336 865.655 96.4124 865.437 96.6418 865.284C96.8712 865.131 97.1413 865.049 97.4165 865.049C97.5996 865.049 97.7817 865.084 97.9512 865.155C98.1198 865.225 98.2738 865.328 98.4036 865.457C98.5334 865.587 98.6361 865.741 98.7059 865.911C98.7756 866.08 98.8115 866.261 98.8115 866.445Z" fill="#F87F28"/>
<path d="M8.61365 813.702C9.3841 813.702 10.0087 813.077 10.0087 812.306C10.0087 811.535 9.3841 810.91 8.61365 810.91C7.8432 810.91 7.21863 811.535 7.21863 812.306C7.21863 813.077 7.8432 813.702 8.61365 813.702Z" fill="#F87F28"/>
<path d="M26.8098 813.702C27.5802 813.702 28.2048 813.077 28.2048 812.306C28.2048 811.535 27.5802 810.91 26.8098 810.91C26.0393 810.91 25.4147 811.535 25.4147 812.306C25.4147 813.077 26.0393 813.702 26.8098 813.702Z" fill="#F87F28"/>
<path d="M8.61365 831.748C9.3841 831.748 10.0087 831.123 10.0087 830.352C10.0087 829.581 9.3841 828.956 8.61365 828.956C7.8432 828.956 7.21863 829.581 7.21863 830.352C7.21863 831.123 7.8432 831.748 8.61365 831.748Z" fill="#F87F28"/>
<path d="M26.8098 831.748C27.5802 831.748 28.2048 831.123 28.2048 830.352C28.2048 829.581 27.5802 828.956 26.8098 828.956C26.0393 828.956 25.4147 829.581 25.4147 830.352C25.4147 831.123 26.0393 831.748 26.8098 831.748Z" fill="#F87F28"/>
<path d="M10.0087 848.398C10.0087 848.674 9.92683 848.944 9.77357 849.174C9.62029 849.403 9.40242 849.581 9.14751 849.687C8.8926 849.793 8.6121 849.821 8.34149 849.766C8.07089 849.713 7.82233 849.579 7.62722 849.385C7.43213 849.189 7.29926 848.941 7.24544 848.67C7.1916 848.4 7.21923 848.119 7.32482 847.864C7.4304 847.609 7.6092 847.391 7.83861 847.237C8.06802 847.084 8.33774 847.002 8.61365 847.002C8.98364 847.002 9.33847 847.149 9.60008 847.411C9.86173 847.673 10.0087 848.028 10.0087 848.398Z" fill="#F87F28"/>
<path d="M28.2041 848.398C28.2041 848.674 28.1222 848.944 27.969 849.174C27.8157 849.403 27.5978 849.581 27.3429 849.687C27.088 849.793 26.8075 849.821 26.5369 849.766C26.2663 849.713 26.0177 849.579 25.8226 849.385C25.6275 849.189 25.4947 848.941 25.4408 848.67C25.3871 848.4 25.4147 848.119 25.5203 847.864C25.6259 847.609 25.8046 847.391 26.034 847.237C26.2635 847.084 26.5332 847.002 26.8091 847.002C26.9923 847.002 27.1736 847.039 27.3429 847.108C27.5122 847.178 27.6659 847.282 27.7955 847.411C27.925 847.54 28.0278 847.694 28.0979 847.864C28.168 848.033 28.2041 848.215 28.2041 848.398Z" fill="#F87F28"/>
<path d="M10.0087 866.445C10.0085 866.721 9.92663 866.991 9.77328 867.22C9.61988 867.45 9.40196 867.628 9.14704 867.734C8.89212 867.84 8.61165 867.867 8.34109 867.813C8.07052 867.759 7.82202 867.626 7.62699 867.431C7.43196 867.236 7.29915 866.987 7.24539 866.717C7.19161 866.445 7.21928 866.166 7.32488 865.91C7.43048 865.655 7.60929 865.437 7.83869 865.284C8.06808 865.131 8.33777 865.049 8.61365 865.049C8.98369 865.049 9.33852 865.196 9.60012 865.457C9.86173 865.72 10.0087 866.074 10.0087 866.445Z" fill="#F87F28"/>
<path d="M28.2041 866.445C28.204 866.721 28.122 866.991 27.9687 867.22C27.8153 867.45 27.5974 867.628 27.3425 867.734C27.0875 867.84 26.8071 867.867 26.5365 867.813C26.2659 867.759 26.0174 867.626 25.8224 867.431C25.6274 867.236 25.4946 866.987 25.4408 866.717C25.3871 866.445 25.4147 866.166 25.5203 865.91C25.6259 865.655 25.8047 865.437 26.0341 865.284C26.2635 865.131 26.5332 865.049 26.8091 865.049C26.9923 865.049 27.1737 865.084 27.3431 865.155C27.5124 865.225 27.6661 865.328 27.7958 865.457C27.9253 865.587 28.0281 865.741 28.0981 865.911C28.1681 866.08 28.2042 866.261 28.2041 866.445Z" fill="#F87F28"/>
<path d="M8.61365 884.528C9.3841 884.528 10.0087 883.903 10.0087 883.133C10.0087 882.362 9.3841 881.737 8.61365 881.737C7.8432 881.737 7.21863 882.362 7.21863 883.133C7.21863 883.903 7.8432 884.528 8.61365 884.528Z" fill="#F87F28"/>
<path d="M26.8098 884.528C27.5802 884.528 28.2048 883.903 28.2048 883.133C28.2048 882.362 27.5802 881.737 26.8098 881.737C26.0393 881.737 25.4147 882.362 25.4147 883.133C25.4147 883.903 26.0393 884.528 26.8098 884.528Z" fill="#F87F28"/>
<path d="M8.61365 902.574C9.3841 902.574 10.0087 901.949 10.0087 901.179C10.0087 900.408 9.3841 899.783 8.61365 899.783C7.8432 899.783 7.21863 900.408 7.21863 901.179C7.21863 901.949 7.8432 902.574 8.61365 902.574Z" fill="#F87F28"/>
<path d="M26.8098 902.574C27.5802 902.574 28.2048 901.949 28.2048 901.179C28.2048 900.408 27.5802 899.783 26.8098 899.783C26.0393 899.783 25.4147 900.408 25.4147 901.179C25.4147 901.949 26.0393 902.574 26.8098 902.574Z" fill="#F87F28"/>
<path d="M42.8291 884.528C43.5995 884.528 44.2241 883.903 44.2241 883.133C44.2241 882.362 43.5995 881.737 42.8291 881.737C42.0586 881.737 41.434 882.362 41.434 883.133C41.434 883.903 42.0586 884.528 42.8291 884.528Z" fill="#F87F28"/>
<path d="M61.0252 884.528C61.7957 884.528 62.4202 883.903 62.4202 883.133C62.4202 882.362 61.7957 881.737 61.0252 881.737C60.2548 881.737 59.6301 882.362 59.6301 883.133C59.6301 883.903 60.2548 884.528 61.0252 884.528Z" fill="#F87F28"/>
<path d="M79.2213 884.528C79.9917 884.528 80.6162 883.903 80.6162 883.133C80.6162 882.362 79.9917 881.737 79.2213 881.737C78.4508 881.737 77.8262 882.362 77.8262 883.133C77.8262 883.903 78.4508 884.528 79.2213 884.528Z" fill="#F87F28"/>
<path d="M97.4174 884.528C98.1876 884.528 98.8124 883.903 98.8124 883.133C98.8124 882.362 98.1876 881.737 97.4174 881.737C96.647 881.737 96.0223 882.362 96.0223 883.133C96.0223 883.903 96.647 884.528 97.4174 884.528Z" fill="#F87F28"/>
<path d="M42.8291 902.574C43.5995 902.574 44.2241 901.949 44.2241 901.179C44.2241 900.408 43.5995 899.783 42.8291 899.783C42.0586 899.783 41.434 900.408 41.434 901.179C41.434 901.949 42.0586 902.574 42.8291 902.574Z" fill="#F87F28"/>
<path d="M61.0252 902.574C61.7957 902.574 62.4202 901.949 62.4202 901.179C62.4202 900.408 61.7957 899.783 61.0252 899.783C60.2548 899.783 59.6301 900.408 59.6301 901.179C59.6301 901.949 60.2548 902.574 61.0252 902.574Z" fill="#F87F28"/>
<path d="M79.2213 902.574C79.9917 902.574 80.6162 901.949 80.6162 901.179C80.6162 900.408 79.9917 899.783 79.2213 899.783C78.4508 899.783 77.8262 900.408 77.8262 901.179C77.8262 901.949 78.4508 902.574 79.2213 902.574Z" fill="#F87F28"/>
<path d="M97.4174 902.574C98.1876 902.574 98.8124 901.949 98.8124 901.179C98.8124 900.408 98.1876 899.783 97.4174 899.783C96.647 899.783 96.0223 900.408 96.0223 901.179C96.0223 901.949 96.647 902.574 97.4174 902.574Z" fill="#F87F28"/>
<path d="M1789.14 302.444C1790.27 302.444 1791.18 301.53 1791.18 300.401C1791.18 299.273 1790.27 298.358 1789.14 298.358C1788.01 298.358 1787.1 299.273 1787.1 300.401C1787.1 301.53 1788.01 302.444 1789.14 302.444Z" fill="#4181E0" fill-opacity="0.34"/>
<path d="M1815.79 302.444C1816.92 302.444 1817.83 301.53 1817.83 300.401C1817.83 299.273 1816.92 298.358 1815.79 298.358C1814.66 298.358 1813.74 299.273 1813.74 300.401C1813.74 301.53 1814.66 302.444 1815.79 302.444Z" fill="#4181E0" fill-opacity="0.34"/>
<path d="M1842.44 302.444C1843.57 302.444 1844.48 301.53 1844.48 300.401C1844.48 299.273 1843.57 298.358 1842.44 298.358C1841.31 298.358 1840.39 299.273 1840.39 300.401C1840.39 301.53 1841.31 302.444 1842.44 302.444Z" fill="#4181E0" fill-opacity="0.34"/>
<path d="M1789.14 328.86C1790.27 328.86 1791.18 327.945 1791.18 326.817C1791.18 325.688 1790.27 324.774 1789.14 324.774C1788.01 324.774 1787.1 325.688 1787.1 326.817C1787.1 327.945 1788.01 328.86 1789.14 328.86Z" fill="#4181E0" fill-opacity="0.34"/>
<path d="M1815.79 328.86C1816.92 328.86 1817.83 327.945 1817.83 326.817C1817.83 325.688 1816.92 324.774 1815.79 324.774C1814.66 324.774 1813.74 325.688 1813.74 326.817C1813.74 327.945 1814.66 328.86 1815.79 328.86Z" fill="#4181E0" fill-opacity="0.34"/>
<path d="M1842.44 328.86C1843.57 328.86 1844.48 327.945 1844.48 326.817C1844.48 325.688 1843.57 324.774 1842.44 324.774C1841.31 324.774 1840.39 325.688 1840.39 326.817C1840.39 327.945 1841.31 328.86 1842.44 328.86Z" fill="#4181E0" fill-opacity="0.34"/>
<path d="M1791.18 353.232C1791.18 353.636 1791.06 354.031 1790.84 354.367C1790.62 354.704 1790.3 354.965 1789.92 355.119C1789.55 355.274 1789.14 355.315 1788.74 355.235C1788.34 355.157 1787.98 354.962 1787.69 354.677C1787.41 354.391 1787.22 354.028 1787.14 353.63C1787.05 353.234 1787.1 352.823 1787.26 352.45C1787.41 352.078 1787.67 351.758 1788 351.533C1788.34 351.309 1788.74 351.189 1789.14 351.189C1789.68 351.189 1790.2 351.404 1790.59 351.788C1790.97 352.171 1791.18 352.691 1791.18 353.232Z" fill="#4181E0" fill-opacity="0.34"/>
<path d="M1817.83 353.232C1817.83 353.636 1817.71 354.031 1817.49 354.367C1817.26 354.704 1816.95 354.965 1816.57 355.119C1816.19 355.274 1815.79 355.315 1815.39 355.235C1814.99 355.157 1814.63 354.962 1814.34 354.677C1814.06 354.391 1813.87 354.028 1813.78 353.63C1813.7 353.234 1813.74 352.823 1813.9 352.45C1814.05 352.078 1814.31 351.758 1814.65 351.533C1814.99 351.309 1815.39 351.189 1815.79 351.189C1816.33 351.189 1816.85 351.404 1817.23 351.788C1817.62 352.171 1817.83 352.691 1817.83 353.232Z" fill="#4181E0" fill-opacity="0.34"/>
<path d="M1844.48 353.232C1844.48 353.636 1844.36 354.031 1844.14 354.367C1843.91 354.704 1843.59 354.965 1843.22 355.119C1842.84 355.274 1842.44 355.315 1842.04 355.235C1841.64 355.157 1841.28 354.962 1840.99 354.677C1840.71 354.391 1840.51 354.028 1840.43 353.63C1840.35 353.234 1840.39 352.823 1840.55 352.45C1840.7 352.078 1840.96 351.758 1841.3 351.533C1841.64 351.309 1842.03 351.189 1842.44 351.189C1842.98 351.189 1843.5 351.404 1843.88 351.788C1844.27 352.171 1844.48 352.691 1844.48 353.232Z" fill="#4181E0" fill-opacity="0.34"/>
<path d="M1791.18 379.65C1791.18 380.053 1791.06 380.449 1790.84 380.784C1790.62 381.12 1790.3 381.382 1789.92 381.536C1789.55 381.691 1789.14 381.731 1788.74 381.652C1788.34 381.573 1787.98 381.379 1787.69 381.093C1787.41 380.807 1787.22 380.443 1787.14 380.047C1787.05 379.65 1787.1 379.24 1787.26 378.867C1787.41 378.493 1787.67 378.174 1788 377.949C1788.34 377.726 1788.74 377.606 1789.14 377.606C1789.41 377.606 1789.68 377.659 1789.92 377.762C1790.17 377.864 1790.4 378.014 1790.59 378.204C1790.77 378.394 1790.93 378.62 1791.03 378.868C1791.13 379.116 1791.18 379.381 1791.18 379.65Z" fill="#4181E0" fill-opacity="0.34"/>
<path d="M1817.83 379.65C1817.83 380.053 1817.71 380.449 1817.49 380.784C1817.26 381.12 1816.94 381.382 1816.57 381.536C1816.19 381.691 1815.79 381.731 1815.39 381.652C1814.99 381.573 1814.63 381.379 1814.34 381.093C1814.06 380.807 1813.87 380.443 1813.78 380.047C1813.7 379.65 1813.74 379.24 1813.9 378.867C1814.05 378.493 1814.31 378.174 1814.65 377.949C1814.99 377.726 1815.39 377.606 1815.79 377.606C1816.06 377.606 1816.32 377.659 1816.57 377.762C1816.82 377.864 1817.05 378.014 1817.23 378.204C1817.42 378.394 1817.58 378.62 1817.68 378.868C1817.78 379.116 1817.83 379.381 1817.83 379.65Z" fill="#4181E0" fill-opacity="0.34"/>
<path d="M1844.48 379.65C1844.48 380.053 1844.36 380.449 1844.14 380.784C1843.91 381.12 1843.59 381.382 1843.22 381.536C1842.84 381.691 1842.44 381.731 1842.04 381.652C1841.64 381.573 1841.28 381.379 1840.99 381.093C1840.71 380.807 1840.51 380.443 1840.43 380.047C1840.35 379.65 1840.39 379.24 1840.55 378.867C1840.7 378.493 1840.96 378.174 1841.3 377.949C1841.64 377.726 1842.03 377.606 1842.44 377.606C1842.98 377.606 1843.5 377.822 1843.88 378.204C1844.27 378.588 1844.48 379.108 1844.48 379.65Z" fill="#4181E0" fill-opacity="0.34"/>
<path d="M1685.73 302.444C1686.86 302.444 1687.78 301.53 1687.78 300.401C1687.78 299.273 1686.86 298.358 1685.73 298.358C1684.6 298.358 1683.69 299.273 1683.69 300.401C1683.69 301.53 1684.6 302.444 1685.73 302.444Z" fill="#4181E0" fill-opacity="0.34"/>
<path d="M1712.38 302.444C1713.51 302.444 1714.43 301.53 1714.43 300.401C1714.43 299.273 1713.51 298.358 1712.38 298.358C1711.25 298.358 1710.34 299.273 1710.34 300.401C1710.34 301.53 1711.25 302.444 1712.38 302.444Z" fill="#4181E0" fill-opacity="0.34"/>
<path d="M1739.03 302.444C1740.16 302.444 1741.08 301.53 1741.08 300.401C1741.08 299.273 1740.16 298.358 1739.03 298.358C1737.9 298.358 1736.99 299.273 1736.99 300.401C1736.99 301.53 1737.9 302.444 1739.03 302.444Z" fill="#4181E0" fill-opacity="0.34"/>
<path d="M1765.68 302.444C1766.81 302.444 1767.73 301.53 1767.73 300.401C1767.73 299.273 1766.81 298.358 1765.68 298.358C1764.55 298.358 1763.64 299.273 1763.64 300.401C1763.64 301.53 1764.55 302.444 1765.68 302.444Z" fill="#4181E0" fill-opacity="0.34"/>
<path d="M1685.73 328.86C1686.86 328.86 1687.78 327.945 1687.78 326.817C1687.78 325.688 1686.86 324.774 1685.73 324.774C1684.6 324.774 1683.69 325.688 1683.69 326.817C1683.69 327.945 1684.6 328.86 1685.73 328.86Z" fill="#4181E0" fill-opacity="0.34"/>
<path d="M1712.38 328.86C1713.51 328.86 1714.43 327.945 1714.43 326.817C1714.43 325.688 1713.51 324.774 1712.38 324.774C1711.25 324.774 1710.34 325.688 1710.34 326.817C1710.34 327.945 1711.25 328.86 1712.38 328.86Z" fill="#4181E0" fill-opacity="0.34"/>
<path d="M1739.03 328.86C1740.16 328.86 1741.08 327.945 1741.08 326.817C1741.08 325.688 1740.16 324.774 1739.03 324.774C1737.9 324.774 1736.99 325.688 1736.99 326.817C1736.99 327.945 1737.9 328.86 1739.03 328.86Z" fill="#4181E0" fill-opacity="0.34"/>
<path d="M1765.68 328.86C1766.81 328.86 1767.73 327.945 1767.73 326.817C1767.73 325.688 1766.81 324.774 1765.68 324.774C1764.55 324.774 1763.64 325.688 1763.64 326.817C1763.64 327.945 1764.55 328.86 1765.68 328.86Z" fill="#4181E0" fill-opacity="0.34"/>
<path d="M1687.78 353.232C1687.78 353.636 1687.65 354.031 1687.43 354.367C1687.2 354.704 1686.88 354.965 1686.52 355.119C1686.14 355.274 1685.73 355.315 1685.33 355.235C1684.94 355.157 1684.57 354.962 1684.29 354.677C1684 354.391 1683.8 354.028 1683.73 353.63C1683.65 353.234 1683.69 352.823 1683.84 352.45C1684 352.078 1684.26 351.758 1684.6 351.533C1684.93 351.309 1685.32 351.189 1685.73 351.189C1686.27 351.189 1686.79 351.404 1687.17 351.788C1687.56 352.171 1687.78 352.691 1687.78 353.232Z" fill="#4181E0" fill-opacity="0.34"/>
<path d="M1714.43 353.232C1714.43 353.636 1714.3 354.031 1714.08 354.367C1713.85 354.704 1713.53 354.965 1713.17 355.119C1712.79 355.274 1712.38 355.315 1711.98 355.235C1711.59 355.157 1711.22 354.962 1710.94 354.677C1710.65 354.391 1710.45 354.028 1710.38 353.63C1710.3 353.234 1710.34 352.823 1710.49 352.45C1710.65 352.078 1710.91 351.758 1711.25 351.533C1711.58 351.309 1711.97 351.189 1712.38 351.189C1712.92 351.189 1713.44 351.404 1713.83 351.788C1714.2 352.171 1714.43 352.691 1714.43 353.232Z" fill="#4181E0" fill-opacity="0.34"/>
<path d="M1741.08 353.232C1741.08 353.636 1740.95 354.031 1740.73 354.367C1740.5 354.704 1740.19 354.965 1739.81 355.119C1739.44 355.274 1739.02 355.315 1738.64 355.235C1738.24 355.157 1737.87 354.962 1737.59 354.677C1737.3 354.391 1737.1 354.028 1737.03 353.63C1736.95 353.234 1736.99 352.823 1737.14 352.45C1737.3 352.078 1737.56 351.758 1737.9 351.533C1738.23 351.309 1738.63 351.189 1739.03 351.189C1739.57 351.189 1740.09 351.404 1740.48 351.788C1740.85 352.171 1741.08 352.691 1741.08 353.232Z" fill="#4181E0" fill-opacity="0.34"/>
<path d="M1767.72 353.232C1767.72 353.636 1767.6 354.031 1767.38 354.367C1767.16 354.704 1766.84 354.965 1766.46 355.119C1766.09 355.274 1765.67 355.315 1765.28 355.235C1764.88 355.157 1764.52 354.962 1764.23 354.677C1763.95 354.391 1763.75 354.028 1763.68 353.63C1763.6 353.234 1763.64 352.823 1763.79 352.45C1763.95 352.078 1764.21 351.758 1764.54 351.533C1764.88 351.309 1765.28 351.189 1765.67 351.189C1765.94 351.189 1766.22 351.242 1766.46 351.345C1766.71 351.448 1766.93 351.598 1767.13 351.788C1767.31 351.978 1767.47 352.202 1767.56 352.45C1767.67 352.698 1767.72 352.964 1767.72 353.232Z" fill="#4181E0" fill-opacity="0.34"/>
<path d="M1687.78 379.65C1687.78 380.053 1687.65 380.449 1687.43 380.784C1687.2 381.12 1686.88 381.382 1686.52 381.536C1686.14 381.691 1685.73 381.731 1685.33 381.652C1684.94 381.573 1684.57 381.379 1684.29 381.093C1684 380.807 1683.8 380.443 1683.73 380.047C1683.65 379.65 1683.69 379.24 1683.84 378.867C1684 378.493 1684.26 378.174 1684.6 377.949C1684.93 377.726 1685.32 377.606 1685.73 377.606C1686 377.606 1686.26 377.659 1686.52 377.762C1686.76 377.864 1686.98 378.014 1687.17 378.204C1687.37 378.394 1687.51 378.62 1687.62 378.868C1687.72 379.116 1687.78 379.381 1687.78 379.65Z" fill="#4181E0" fill-opacity="0.34"/>
<path d="M1714.43 379.65C1714.43 380.053 1714.3 380.449 1714.08 380.784C1713.85 381.12 1713.53 381.382 1713.16 381.536C1712.79 381.691 1712.37 381.731 1711.98 381.652C1711.59 381.573 1711.22 381.379 1710.94 381.093C1710.65 380.807 1710.45 380.443 1710.38 380.047C1710.3 379.65 1710.34 379.24 1710.49 378.867C1710.65 378.493 1710.91 378.174 1711.25 377.949C1711.58 377.726 1711.97 377.606 1712.38 377.606C1712.65 377.606 1712.91 377.659 1713.17 377.762C1713.41 377.864 1713.63 378.014 1713.83 378.204C1714.02 378.394 1714.16 378.62 1714.27 378.868C1714.37 379.116 1714.43 379.381 1714.43 379.65Z" fill="#4181E0" fill-opacity="0.34"/>
<path d="M1741.08 379.65C1741.08 380.053 1740.95 380.449 1740.73 380.784C1740.5 381.12 1740.19 381.382 1739.81 381.536C1739.44 381.691 1739.02 381.731 1738.63 381.652C1738.24 381.573 1737.87 381.379 1737.59 381.093C1737.3 380.807 1737.1 380.443 1737.03 380.047C1736.95 379.65 1736.99 379.24 1737.14 378.867C1737.3 378.493 1737.56 378.174 1737.9 377.949C1738.23 377.726 1738.63 377.606 1739.03 377.606C1739.57 377.606 1740.09 377.822 1740.48 378.204C1740.85 378.588 1741.08 379.108 1741.08 379.65Z" fill="#4181E0" fill-opacity="0.34"/>
<path d="M1767.72 379.65C1767.72 380.053 1767.6 380.449 1767.38 380.784C1767.16 381.12 1766.84 381.382 1766.46 381.536C1766.09 381.691 1765.67 381.731 1765.28 381.652C1764.88 381.573 1764.52 381.379 1764.23 381.093C1763.95 380.807 1763.75 380.443 1763.68 380.047C1763.6 379.65 1763.64 379.24 1763.79 378.867C1763.95 378.493 1764.21 378.174 1764.54 377.949C1764.88 377.726 1765.28 377.606 1765.68 377.606C1765.94 377.606 1766.22 377.659 1766.46 377.762C1766.71 377.864 1766.93 378.014 1767.13 378.204C1767.31 378.394 1767.47 378.62 1767.56 378.868C1767.67 379.116 1767.72 379.381 1767.72 379.65Z" fill="#4181E0" fill-opacity="0.34"/>
<path d="M1685.73 406.12C1686.86 406.12 1687.78 405.206 1687.78 404.077C1687.78 402.949 1686.86 402.034 1685.73 402.034C1684.6 402.034 1683.69 402.949 1683.69 404.077C1683.69 405.206 1684.6 406.12 1685.73 406.12Z" fill="#4181E0" fill-opacity="0.34"/>
<path d="M1712.38 406.12C1713.51 406.12 1714.43 405.206 1714.43 404.077C1714.43 402.949 1713.51 402.034 1712.38 402.034C1711.25 402.034 1710.34 402.949 1710.34 404.077C1710.34 405.206 1711.25 406.12 1712.38 406.12Z" fill="#4181E0" fill-opacity="0.34"/>
<path d="M1739.03 406.12C1740.16 406.12 1741.08 405.206 1741.08 404.077C1741.08 402.949 1740.16 402.034 1739.03 402.034C1737.9 402.034 1736.99 402.949 1736.99 404.077C1736.99 405.206 1737.9 406.12 1739.03 406.12Z" fill="#4181E0" fill-opacity="0.34"/>
<path d="M1765.68 406.12C1766.81 406.12 1767.73 405.206 1767.73 404.077C1767.73 402.949 1766.81 402.034 1765.68 402.034C1764.55 402.034 1763.64 402.949 1763.64 404.077C1763.64 405.206 1764.55 406.12 1765.68 406.12Z" fill="#4181E0" fill-opacity="0.34"/>
<path d="M1685.73 432.535C1686.86 432.535 1687.78 431.621 1687.78 430.492C1687.78 429.364 1686.86 428.449 1685.73 428.449C1684.6 428.449 1683.69 429.364 1683.69 430.492C1683.69 431.621 1684.6 432.535 1685.73 432.535Z" fill="#4181E0" fill-opacity="0.34"/>
<path d="M1712.38 432.535C1713.51 432.535 1714.43 431.621 1714.43 430.492C1714.43 429.364 1713.51 428.449 1712.38 428.449C1711.25 428.449 1710.34 429.364 1710.34 430.492C1710.34 431.621 1711.25 432.535 1712.38 432.535Z" fill="#4181E0" fill-opacity="0.34"/>
<path d="M1739.03 432.535C1740.16 432.535 1741.08 431.621 1741.08 430.492C1741.08 429.364 1740.16 428.449 1739.03 428.449C1737.9 428.449 1736.99 429.364 1736.99 430.492C1736.99 431.621 1737.9 432.535 1739.03 432.535Z" fill="#4181E0" fill-opacity="0.34"/>
<path d="M1765.68 432.535C1766.81 432.535 1767.73 431.621 1767.73 430.492C1767.73 429.364 1766.81 428.449 1765.68 428.449C1764.55 428.449 1763.64 429.364 1763.64 430.492C1763.64 431.621 1764.55 432.535 1765.68 432.535Z" fill="#4181E0" fill-opacity="0.34"/>
<path d="M1687.78 456.908C1687.78 457.312 1687.65 457.707 1687.43 458.043C1687.2 458.379 1686.88 458.641 1686.52 458.795C1686.14 458.95 1685.73 458.991 1685.33 458.911C1684.94 458.833 1684.57 458.638 1684.29 458.352C1684 458.066 1683.8 457.703 1683.73 457.306C1683.65 456.91 1683.69 456.499 1683.84 456.126C1684 455.753 1684.26 455.434 1684.6 455.209C1684.93 454.985 1685.32 454.865 1685.73 454.865C1686.27 454.865 1686.79 455.08 1687.17 455.464C1687.56 455.846 1687.78 456.366 1687.78 456.908Z" fill="#4181E0" fill-opacity="0.34"/>
<path d="M1714.43 456.908C1714.43 457.312 1714.3 457.707 1714.08 458.043C1713.85 458.379 1713.53 458.641 1713.17 458.795C1712.79 458.95 1712.38 458.991 1711.98 458.911C1711.59 458.833 1711.22 458.638 1710.94 458.352C1710.65 458.066 1710.45 457.703 1710.38 457.306C1710.3 456.91 1710.34 456.499 1710.49 456.126C1710.65 455.753 1710.91 455.434 1711.25 455.209C1711.58 454.985 1711.97 454.865 1712.38 454.865C1712.92 454.865 1713.44 455.08 1713.83 455.464C1714.2 455.846 1714.43 456.366 1714.43 456.908Z" fill="#4181E0" fill-opacity="0.34"/>
<path d="M1741.08 456.908C1741.08 457.312 1740.95 457.707 1740.73 458.043C1740.5 458.379 1740.19 458.641 1739.81 458.795C1739.44 458.95 1739.02 458.991 1738.64 458.911C1738.24 458.833 1737.87 458.638 1737.59 458.352C1737.3 458.066 1737.1 457.703 1737.03 457.306C1736.95 456.91 1736.99 456.499 1737.14 456.126C1737.3 455.753 1737.56 455.434 1737.9 455.209C1738.23 454.985 1738.63 454.865 1739.03 454.865C1739.57 454.865 1740.09 455.08 1740.48 455.464C1740.85 455.846 1741.08 456.366 1741.08 456.908Z" fill="#4181E0" fill-opacity="0.34"/>
<path d="M1767.72 456.908C1767.72 457.312 1767.6 457.707 1767.38 458.043C1767.16 458.379 1766.84 458.641 1766.46 458.795C1766.09 458.95 1765.67 458.991 1765.28 458.911C1764.88 458.833 1764.52 458.638 1764.23 458.352C1763.95 458.066 1763.75 457.703 1763.68 457.306C1763.6 456.91 1763.64 456.499 1763.79 456.126C1763.95 455.753 1764.21 455.434 1764.54 455.209C1764.88 454.985 1765.28 454.865 1765.67 454.865C1765.94 454.865 1766.22 454.918 1766.46 455.021C1766.71 455.124 1766.93 455.274 1767.13 455.464C1767.31 455.653 1767.47 455.878 1767.56 456.126C1767.67 456.374 1767.72 456.64 1767.72 456.908Z" fill="#4181E0" fill-opacity="0.34"/>
<path d="M1687.78 483.325C1687.78 483.729 1687.65 484.124 1687.43 484.46C1687.2 484.796 1686.88 485.057 1686.52 485.212C1686.14 485.366 1685.73 485.407 1685.33 485.327C1684.94 485.249 1684.57 485.054 1684.29 484.769C1684 484.483 1683.8 484.119 1683.73 483.722C1683.65 483.326 1683.69 482.915 1683.84 482.542C1684 482.169 1684.26 481.85 1684.6 481.625C1684.93 481.401 1685.32 481.281 1685.73 481.281C1686 481.281 1686.26 481.335 1686.52 481.437C1686.76 481.54 1686.98 481.69 1687.17 481.88C1687.37 482.07 1687.51 482.295 1687.62 482.543C1687.72 482.791 1687.78 483.057 1687.78 483.325Z" fill="#4181E0" fill-opacity="0.34"/>
<path d="M1714.43 483.325C1714.43 483.729 1714.3 484.124 1714.08 484.46C1713.85 484.796 1713.53 485.057 1713.16 485.212C1712.79 485.366 1712.37 485.407 1711.98 485.327C1711.59 485.249 1711.22 485.054 1710.94 484.769C1710.65 484.483 1710.45 484.119 1710.38 483.722C1710.3 483.326 1710.34 482.915 1710.49 482.542C1710.65 482.169 1710.91 481.85 1711.25 481.625C1711.58 481.401 1711.97 481.281 1712.38 481.281C1712.65 481.281 1712.91 481.335 1713.17 481.437C1713.41 481.54 1713.63 481.69 1713.83 481.88C1714.02 482.07 1714.16 482.295 1714.27 482.543C1714.37 482.791 1714.43 483.057 1714.43 483.325Z" fill="#4181E0" fill-opacity="0.34"/>
<path d="M1741.08 483.325C1741.08 483.729 1740.95 484.124 1740.73 484.46C1740.5 484.796 1740.19 485.057 1739.81 485.212C1739.44 485.366 1739.02 485.407 1738.63 485.327C1738.24 485.249 1737.87 485.054 1737.59 484.769C1737.3 484.483 1737.1 484.119 1737.03 483.722C1736.95 483.326 1736.99 482.915 1737.14 482.542C1737.3 482.169 1737.56 481.85 1737.9 481.625C1738.23 481.401 1738.63 481.281 1739.03 481.281C1739.57 481.281 1740.09 481.497 1740.48 481.88C1740.85 482.263 1741.08 482.784 1741.08 483.325Z" fill="#4181E0" fill-opacity="0.34"/>
<path d="M1767.72 483.325C1767.72 483.729 1767.6 484.124 1767.38 484.46C1767.16 484.796 1766.84 485.057 1766.46 485.212C1766.09 485.366 1765.67 485.407 1765.28 485.327C1764.88 485.249 1764.52 485.054 1764.23 484.769C1763.95 484.483 1763.75 484.119 1763.68 483.722C1763.6 483.326 1763.64 482.915 1763.79 482.542C1763.95 482.169 1764.21 481.85 1764.54 481.625C1764.88 481.401 1765.28 481.281 1765.68 481.281C1765.94 481.281 1766.22 481.335 1766.46 481.437C1766.71 481.54 1766.93 481.69 1767.13 481.88C1767.31 482.07 1767.47 482.295 1767.56 482.543C1767.67 482.791 1767.72 483.057 1767.72 483.325Z" fill="#4181E0" fill-opacity="0.34"/>
<path d="M1789.14 406.12C1790.27 406.12 1791.18 405.206 1791.18 404.077C1791.18 402.949 1790.27 402.034 1789.14 402.034C1788.01 402.034 1787.1 402.949 1787.1 404.077C1787.1 405.206 1788.01 406.12 1789.14 406.12Z" fill="#4181E0" fill-opacity="0.34"/>
<path d="M1815.79 406.12C1816.92 406.12 1817.83 405.206 1817.83 404.077C1817.83 402.949 1816.92 402.034 1815.79 402.034C1814.66 402.034 1813.74 402.949 1813.74 404.077C1813.74 405.206 1814.66 406.12 1815.79 406.12Z" fill="#4181E0" fill-opacity="0.34"/>
<path d="M1842.44 406.12C1843.57 406.12 1844.48 405.206 1844.48 404.077C1844.48 402.949 1843.57 402.034 1842.44 402.034C1841.31 402.034 1840.39 402.949 1840.39 404.077C1840.39 405.206 1841.31 406.12 1842.44 406.12Z" fill="#4181E0" fill-opacity="0.34"/>
<path d="M1789.14 432.535C1790.27 432.535 1791.18 431.621 1791.18 430.492C1791.18 429.364 1790.27 428.449 1789.14 428.449C1788.01 428.449 1787.1 429.364 1787.1 430.492C1787.1 431.621 1788.01 432.535 1789.14 432.535Z" fill="#4181E0" fill-opacity="0.34"/>
<path d="M1815.79 432.535C1816.92 432.535 1817.83 431.621 1817.83 430.492C1817.83 429.364 1816.92 428.449 1815.79 428.449C1814.66 428.449 1813.74 429.364 1813.74 430.492C1813.74 431.621 1814.66 432.535 1815.79 432.535Z" fill="#4181E0" fill-opacity="0.34"/>
<path d="M1842.44 432.535C1843.57 432.535 1844.48 431.621 1844.48 430.492C1844.48 429.364 1843.57 428.449 1842.44 428.449C1841.31 428.449 1840.39 429.364 1840.39 430.492C1840.39 431.621 1841.31 432.535 1842.44 432.535Z" fill="#4181E0" fill-opacity="0.34"/>
<path d="M1791.18 456.908C1791.18 457.312 1791.06 457.707 1790.84 458.043C1790.62 458.379 1790.3 458.641 1789.92 458.795C1789.55 458.95 1789.14 458.991 1788.74 458.911C1788.34 458.833 1787.98 458.638 1787.69 458.352C1787.41 458.066 1787.22 457.703 1787.14 457.306C1787.05 456.91 1787.1 456.499 1787.26 456.126C1787.41 455.753 1787.67 455.434 1788 455.209C1788.34 454.985 1788.74 454.865 1789.14 454.865C1789.68 454.865 1790.2 455.08 1790.59 455.464C1790.97 455.846 1791.18 456.366 1791.18 456.908Z" fill="#4181E0" fill-opacity="0.34"/>
<path d="M1817.83 456.908C1817.83 457.312 1817.71 457.707 1817.49 458.043C1817.26 458.379 1816.95 458.641 1816.57 458.795C1816.19 458.95 1815.79 458.991 1815.39 458.911C1814.99 458.833 1814.63 458.638 1814.34 458.352C1814.06 458.066 1813.87 457.703 1813.78 457.306C1813.7 456.91 1813.74 456.499 1813.9 456.126C1814.05 455.753 1814.31 455.434 1814.65 455.209C1814.99 454.985 1815.39 454.865 1815.79 454.865C1816.33 454.865 1816.85 455.08 1817.23 455.464C1817.62 455.846 1817.83 456.366 1817.83 456.908Z" fill="#4181E0" fill-opacity="0.34"/>
<path d="M1844.48 456.908C1844.48 457.312 1844.36 457.707 1844.14 458.043C1843.91 458.379 1843.59 458.641 1843.22 458.795C1842.84 458.95 1842.44 458.991 1842.04 458.911C1841.64 458.833 1841.28 458.638 1840.99 458.352C1840.71 458.066 1840.51 457.703 1840.43 457.306C1840.35 456.91 1840.39 456.499 1840.55 456.126C1840.7 455.753 1840.96 455.434 1841.3 455.209C1841.64 454.985 1842.03 454.865 1842.44 454.865C1842.98 454.865 1843.5 455.08 1843.88 455.464C1844.27 455.846 1844.48 456.366 1844.48 456.908Z" fill="#4181E0" fill-opacity="0.34"/>
<path d="M1791.18 483.325C1791.18 483.729 1791.06 484.124 1790.84 484.46C1790.62 484.796 1790.3 485.057 1789.92 485.212C1789.55 485.366 1789.14 485.407 1788.74 485.327C1788.34 485.249 1787.98 485.054 1787.69 484.769C1787.41 484.483 1787.22 484.119 1787.14 483.722C1787.05 483.326 1787.1 482.915 1787.26 482.542C1787.41 482.169 1787.67 481.85 1788 481.625C1788.34 481.401 1788.74 481.281 1789.14 481.281C1789.41 481.281 1789.68 481.335 1789.92 481.437C1790.17 481.54 1790.4 481.69 1790.59 481.88C1790.77 482.07 1790.93 482.295 1791.03 482.543C1791.13 482.791 1791.18 483.057 1791.18 483.325Z" fill="#4181E0" fill-opacity="0.34"/>
<path d="M1817.83 483.325C1817.83 483.729 1817.71 484.124 1817.49 484.46C1817.26 484.796 1816.94 485.057 1816.57 485.212C1816.19 485.366 1815.79 485.407 1815.39 485.327C1814.99 485.249 1814.63 485.054 1814.34 484.769C1814.06 484.483 1813.87 484.119 1813.78 483.722C1813.7 483.326 1813.74 482.915 1813.9 482.542C1814.05 482.169 1814.31 481.85 1814.65 481.625C1814.99 481.401 1815.39 481.281 1815.79 481.281C1816.06 481.281 1816.32 481.335 1816.57 481.437C1816.82 481.54 1817.05 481.69 1817.23 481.88C1817.42 482.07 1817.58 482.295 1817.68 482.543C1817.78 482.791 1817.83 483.057 1817.83 483.325Z" fill="#4181E0" fill-opacity="0.34"/>
<path d="M1844.48 483.325C1844.48 483.729 1844.36 484.124 1844.14 484.46C1843.91 484.796 1843.59 485.057 1843.22 485.212C1842.84 485.366 1842.44 485.407 1842.04 485.327C1841.64 485.249 1841.28 485.054 1840.99 484.769C1840.71 484.483 1840.51 484.119 1840.43 483.722C1840.35 483.326 1840.39 482.915 1840.55 482.542C1840.7 482.169 1840.96 481.85 1841.3 481.625C1841.64 481.401 1842.03 481.281 1842.44 481.281C1842.98 481.281 1843.5 481.497 1843.88 481.88C1844.27 482.263 1844.48 482.784 1844.48 483.325Z" fill="#4181E0" fill-opacity="0.34"/>
<path d="M1685.73 509.796C1686.86 509.796 1687.78 508.881 1687.78 507.753C1687.78 506.624 1686.86 505.71 1685.73 505.71C1684.6 505.71 1683.69 506.624 1683.69 507.753C1683.69 508.881 1684.6 509.796 1685.73 509.796Z" fill="#4181E0" fill-opacity="0.34"/>
<path d="M1712.38 509.796C1713.51 509.796 1714.43 508.881 1714.43 507.753C1714.43 506.624 1713.51 505.71 1712.38 505.71C1711.25 505.71 1710.34 506.624 1710.34 507.753C1710.34 508.881 1711.25 509.796 1712.38 509.796Z" fill="#4181E0" fill-opacity="0.34"/>
<path d="M1739.03 509.796C1740.16 509.796 1741.08 508.881 1741.08 507.753C1741.08 506.624 1740.16 505.71 1739.03 505.71C1737.9 505.71 1736.99 506.624 1736.99 507.753C1736.99 508.881 1737.9 509.796 1739.03 509.796Z" fill="#4181E0" fill-opacity="0.34"/>
<path d="M1765.68 509.796C1766.81 509.796 1767.73 508.881 1767.73 507.753C1767.73 506.624 1766.81 505.71 1765.68 505.71C1764.55 505.71 1763.64 506.624 1763.64 507.753C1763.64 508.881 1764.55 509.796 1765.68 509.796Z" fill="#4181E0" fill-opacity="0.34"/>
<path d="M1685.73 536.211C1686.86 536.211 1687.78 535.297 1687.78 534.168C1687.78 533.039 1686.86 532.125 1685.73 532.125C1684.6 532.125 1683.69 533.039 1683.69 534.168C1683.69 535.297 1684.6 536.211 1685.73 536.211Z" fill="#4181E0" fill-opacity="0.34"/>
<path d="M1712.38 536.211C1713.51 536.211 1714.43 535.297 1714.43 534.168C1714.43 533.039 1713.51 532.125 1712.38 532.125C1711.25 532.125 1710.34 533.039 1710.34 534.168C1710.34 535.297 1711.25 536.211 1712.38 536.211Z" fill="#4181E0" fill-opacity="0.34"/>
<path d="M1739.03 536.211C1740.16 536.211 1741.08 535.297 1741.08 534.168C1741.08 533.039 1740.16 532.125 1739.03 532.125C1737.9 532.125 1736.99 533.039 1736.99 534.168C1736.99 535.297 1737.9 536.211 1739.03 536.211Z" fill="#4181E0" fill-opacity="0.34"/>
<path d="M1765.68 536.211C1766.81 536.211 1767.73 535.297 1767.73 534.168C1767.73 533.039 1766.81 532.125 1765.68 532.125C1764.55 532.125 1763.64 533.039 1763.64 534.168C1763.64 535.297 1764.55 536.211 1765.68 536.211Z" fill="#4181E0" fill-opacity="0.34"/>
<path d="M1687.78 560.583C1687.78 560.987 1687.65 561.383 1687.43 561.719C1687.2 562.055 1686.88 562.316 1686.52 562.47C1686.14 562.625 1685.73 562.666 1685.33 562.587C1684.94 562.508 1684.57 562.314 1684.29 562.028C1684 561.742 1683.8 561.379 1683.73 560.982C1683.65 560.585 1683.69 560.175 1683.84 559.802C1684 559.429 1684.26 559.109 1684.6 558.884C1684.93 558.661 1685.32 558.541 1685.73 558.541C1686.27 558.541 1686.79 558.756 1687.17 559.139C1687.56 559.522 1687.78 560.042 1687.78 560.583Z" fill="#4181E0" fill-opacity="0.34"/>
<path d="M1714.43 560.583C1714.43 560.987 1714.3 561.383 1714.08 561.719C1713.85 562.055 1713.53 562.316 1713.17 562.47C1712.79 562.625 1712.38 562.666 1711.98 562.587C1711.59 562.508 1711.22 562.314 1710.94 562.028C1710.65 561.742 1710.45 561.379 1710.38 560.982C1710.3 560.585 1710.34 560.175 1710.49 559.802C1710.65 559.429 1710.91 559.109 1711.25 558.884C1711.58 558.661 1711.97 558.541 1712.38 558.541C1712.92 558.541 1713.44 558.756 1713.83 559.139C1714.2 559.522 1714.43 560.042 1714.43 560.583Z" fill="#4181E0" fill-opacity="0.34"/>
<path d="M1741.08 560.583C1741.08 560.987 1740.95 561.383 1740.73 561.719C1740.5 562.055 1740.19 562.316 1739.81 562.47C1739.44 562.625 1739.02 562.666 1738.64 562.587C1738.24 562.508 1737.87 562.314 1737.59 562.028C1737.3 561.742 1737.1 561.379 1737.03 560.982C1736.95 560.585 1736.99 560.175 1737.14 559.802C1737.3 559.429 1737.56 559.109 1737.9 558.884C1738.23 558.661 1738.63 558.541 1739.03 558.541C1739.57 558.541 1740.09 558.756 1740.48 559.139C1740.85 559.522 1741.08 560.042 1741.08 560.583Z" fill="#4181E0" fill-opacity="0.34"/>
<path d="M1767.72 560.583C1767.72 560.987 1767.6 561.383 1767.38 561.719C1767.16 562.055 1766.84 562.316 1766.46 562.47C1766.09 562.625 1765.67 562.666 1765.28 562.587C1764.88 562.508 1764.52 562.314 1764.23 562.028C1763.95 561.742 1763.75 561.379 1763.68 560.982C1763.6 560.585 1763.64 560.175 1763.79 559.802C1763.95 559.429 1764.21 559.109 1764.54 558.884C1764.88 558.661 1765.28 558.541 1765.67 558.541C1765.94 558.541 1766.22 558.594 1766.46 558.696C1766.71 558.799 1766.93 558.949 1767.13 559.139C1767.31 559.329 1767.47 559.554 1767.56 559.802C1767.67 560.05 1767.72 560.315 1767.72 560.583Z" fill="#4181E0" fill-opacity="0.34"/>
<path d="M1687.78 587.001C1687.78 587.405 1687.65 587.8 1687.43 588.135C1687.2 588.471 1686.88 588.733 1686.52 588.888C1686.14 589.042 1685.73 589.083 1685.33 589.003C1684.94 588.925 1684.57 588.73 1684.29 588.444C1684 588.158 1683.8 587.794 1683.73 587.398C1683.65 587.002 1683.69 586.591 1683.84 586.218C1684 585.844 1684.26 585.526 1684.6 585.301C1684.93 585.077 1685.32 584.957 1685.73 584.957C1686 584.957 1686.26 585.01 1686.52 585.113C1686.76 585.216 1686.98 585.366 1687.17 585.556C1687.37 585.745 1687.51 585.971 1687.62 586.219C1687.72 586.467 1687.78 586.732 1687.78 587.001Z" fill="#4181E0" fill-opacity="0.34"/>
<path d="M1714.43 587.001C1714.43 587.405 1714.3 587.8 1714.08 588.135C1713.85 588.471 1713.53 588.733 1713.16 588.888C1712.79 589.042 1712.37 589.083 1711.98 589.003C1711.59 588.925 1711.22 588.73 1710.94 588.444C1710.65 588.158 1710.45 587.794 1710.38 587.398C1710.3 587.002 1710.34 586.591 1710.49 586.218C1710.65 585.844 1710.91 585.526 1711.25 585.301C1711.58 585.077 1711.97 584.957 1712.38 584.957C1712.65 584.957 1712.91 585.01 1713.17 585.113C1713.41 585.216 1713.63 585.366 1713.83 585.556C1714.02 585.745 1714.16 585.971 1714.27 586.219C1714.37 586.467 1714.43 586.732 1714.43 587.001Z" fill="#4181E0" fill-opacity="0.34"/>
<path d="M1741.08 587.001C1741.08 587.405 1740.95 587.8 1740.73 588.135C1740.5 588.471 1740.19 588.733 1739.81 588.888C1739.44 589.042 1739.02 589.083 1738.63 589.003C1738.24 588.925 1737.87 588.73 1737.59 588.444C1737.3 588.158 1737.1 587.794 1737.03 587.398C1736.95 587.002 1736.99 586.591 1737.14 586.218C1737.3 585.844 1737.56 585.526 1737.9 585.301C1738.23 585.077 1738.63 584.957 1739.03 584.957C1739.57 584.957 1740.09 585.173 1740.48 585.556C1740.85 585.939 1741.08 586.459 1741.08 587.001Z" fill="#4181E0" fill-opacity="0.34"/>
<path d="M1767.72 587.001C1767.72 587.405 1767.6 587.8 1767.38 588.135C1767.16 588.471 1766.84 588.733 1766.46 588.888C1766.09 589.042 1765.67 589.083 1765.28 589.003C1764.88 588.925 1764.52 588.73 1764.23 588.444C1763.95 588.158 1763.75 587.794 1763.68 587.398C1763.6 587.002 1763.64 586.591 1763.79 586.218C1763.95 585.844 1764.21 585.526 1764.54 585.301C1764.88 585.077 1765.28 584.957 1765.68 584.957C1765.94 584.957 1766.22 585.01 1766.46 585.113C1766.71 585.216 1766.93 585.366 1767.13 585.556C1767.31 585.745 1767.47 585.971 1767.56 586.219C1767.67 586.467 1767.72 586.732 1767.72 587.001Z" fill="#4181E0" fill-opacity="0.34"/>
<path d="M1789.14 509.796C1790.27 509.796 1791.18 508.881 1791.18 507.753C1791.18 506.624 1790.27 505.71 1789.14 505.71C1788.01 505.71 1787.1 506.624 1787.1 507.753C1787.1 508.881 1788.01 509.796 1789.14 509.796Z" fill="#4181E0" fill-opacity="0.34"/>
<path d="M1815.79 509.796C1816.92 509.796 1817.83 508.881 1817.83 507.753C1817.83 506.624 1816.92 505.71 1815.79 505.71C1814.66 505.71 1813.74 506.624 1813.74 507.753C1813.74 508.881 1814.66 509.796 1815.79 509.796Z" fill="#4181E0" fill-opacity="0.34"/>
<path d="M1842.44 509.796C1843.57 509.796 1844.48 508.881 1844.48 507.753C1844.48 506.624 1843.57 505.71 1842.44 505.71C1841.31 505.71 1840.39 506.624 1840.39 507.753C1840.39 508.881 1841.31 509.796 1842.44 509.796Z" fill="#4181E0" fill-opacity="0.34"/>
<path d="M1789.14 536.211C1790.27 536.211 1791.18 535.297 1791.18 534.168C1791.18 533.039 1790.27 532.125 1789.14 532.125C1788.01 532.125 1787.1 533.039 1787.1 534.168C1787.1 535.297 1788.01 536.211 1789.14 536.211Z" fill="#4181E0" fill-opacity="0.34"/>
<path d="M1815.79 536.211C1816.92 536.211 1817.83 535.297 1817.83 534.168C1817.83 533.039 1816.92 532.125 1815.79 532.125C1814.66 532.125 1813.74 533.039 1813.74 534.168C1813.74 535.297 1814.66 536.211 1815.79 536.211Z" fill="#4181E0" fill-opacity="0.34"/>
<path d="M1842.44 536.211C1843.57 536.211 1844.48 535.297 1844.48 534.168C1844.48 533.039 1843.57 532.125 1842.44 532.125C1841.31 532.125 1840.39 533.039 1840.39 534.168C1840.39 535.297 1841.31 536.211 1842.44 536.211Z" fill="#4181E0" fill-opacity="0.34"/>
<path d="M1791.18 560.583C1791.18 560.987 1791.06 561.383 1790.84 561.719C1790.62 562.055 1790.3 562.316 1789.92 562.47C1789.55 562.625 1789.14 562.666 1788.74 562.587C1788.34 562.508 1787.98 562.314 1787.69 562.028C1787.41 561.742 1787.22 561.379 1787.14 560.982C1787.05 560.585 1787.1 560.175 1787.26 559.802C1787.41 559.429 1787.67 559.109 1788 558.884C1788.34 558.661 1788.74 558.541 1789.14 558.541C1789.68 558.541 1790.2 558.756 1790.59 559.139C1790.97 559.522 1791.18 560.042 1791.18 560.583Z" fill="#4181E0" fill-opacity="0.34"/>
<path d="M1817.83 560.583C1817.83 560.987 1817.71 561.383 1817.49 561.719C1817.26 562.055 1816.95 562.316 1816.57 562.47C1816.19 562.625 1815.79 562.666 1815.39 562.587C1814.99 562.508 1814.63 562.314 1814.34 562.028C1814.06 561.742 1813.87 561.379 1813.78 560.982C1813.7 560.585 1813.74 560.175 1813.9 559.802C1814.05 559.429 1814.31 559.109 1814.65 558.884C1814.99 558.661 1815.39 558.541 1815.79 558.541C1816.33 558.541 1816.85 558.756 1817.23 559.139C1817.62 559.522 1817.83 560.042 1817.83 560.583Z" fill="#4181E0" fill-opacity="0.34"/>
<path d="M1844.48 560.583C1844.48 560.987 1844.36 561.383 1844.14 561.719C1843.91 562.055 1843.59 562.316 1843.22 562.47C1842.84 562.625 1842.44 562.666 1842.04 562.587C1841.64 562.508 1841.28 562.314 1840.99 562.028C1840.71 561.742 1840.51 561.379 1840.43 560.982C1840.35 560.585 1840.39 560.175 1840.55 559.802C1840.7 559.429 1840.96 559.109 1841.3 558.884C1841.64 558.661 1842.03 558.541 1842.44 558.541C1842.98 558.541 1843.5 558.756 1843.88 559.139C1844.27 559.522 1844.48 560.042 1844.48 560.583Z" fill="#4181E0" fill-opacity="0.34"/>
<path d="M1791.18 587.001C1791.18 587.405 1791.06 587.8 1790.84 588.135C1790.62 588.471 1790.3 588.733 1789.92 588.888C1789.55 589.042 1789.14 589.083 1788.74 589.003C1788.34 588.925 1787.98 588.73 1787.69 588.444C1787.41 588.158 1787.22 587.794 1787.14 587.398C1787.05 587.002 1787.1 586.591 1787.26 586.218C1787.41 585.844 1787.67 585.526 1788 585.301C1788.34 585.077 1788.74 584.957 1789.14 584.957C1789.41 584.957 1789.68 585.01 1789.92 585.113C1790.17 585.216 1790.4 585.366 1790.59 585.556C1790.77 585.745 1790.93 585.971 1791.03 586.219C1791.13 586.467 1791.18 586.732 1791.18 587.001Z" fill="#4181E0" fill-opacity="0.34"/>
<path d="M1817.83 587.001C1817.83 587.405 1817.71 587.8 1817.49 588.135C1817.26 588.471 1816.94 588.733 1816.57 588.888C1816.19 589.042 1815.79 589.083 1815.39 589.003C1814.99 588.925 1814.63 588.73 1814.34 588.444C1814.06 588.158 1813.87 587.794 1813.78 587.398C1813.7 587.002 1813.74 586.591 1813.9 586.218C1814.05 585.844 1814.31 585.526 1814.65 585.301C1814.99 585.077 1815.39 584.957 1815.79 584.957C1816.06 584.957 1816.32 585.01 1816.57 585.113C1816.82 585.216 1817.05 585.366 1817.23 585.556C1817.42 585.745 1817.58 585.971 1817.68 586.219C1817.78 586.467 1817.83 586.732 1817.83 587.001Z" fill="#4181E0" fill-opacity="0.34"/>
<path d="M1844.48 587.001C1844.48 587.405 1844.36 587.8 1844.14 588.135C1843.91 588.471 1843.59 588.733 1843.22 588.888C1842.84 589.042 1842.44 589.083 1842.04 589.003C1841.64 588.925 1841.28 588.73 1840.99 588.444C1840.71 588.158 1840.51 587.794 1840.43 587.398C1840.35 587.002 1840.39 586.591 1840.55 586.218C1840.7 585.844 1840.96 585.526 1841.3 585.301C1841.64 585.077 1842.03 584.957 1842.44 584.957C1842.98 584.957 1843.5 585.173 1843.88 585.556C1844.27 585.939 1844.48 586.459 1844.48 587.001Z" fill="#4181E0" fill-opacity="0.34"/>
</svg>
