<svg width="44" height="956" viewBox="0 0 44 956" fill="none" xmlns="http://www.w3.org/2000/svg">
<g clip-path="url(#clip0_25_2522)">
<path d="M119.767 956C116.354 954.718 112.917 952.921 109.55 950.658C105.632 948.028 101.693 944.683 97.8447 940.729C93.9449 936.723 90.0383 931.985 86.2339 926.647C82.0405 920.764 77.9063 914.307 73.9494 907.456C69.9806 900.586 66.0895 893.148 62.3832 885.351C58.661 877.518 55.0323 869.125 51.6 860.405C48.1477 851.636 44.804 842.311 41.6614 832.691C28.7397 793.109 18.6278 746.969 11.6111 695.547C9.81526 682.385 8.22147 668.867 6.83707 655.057C5.43408 641.032 4.24767 626.73 3.28345 612.218C2.29866 597.349 1.54124 582.291 1.01469 567.115C0.473258 551.42 0.165575 535.63 0.092999 519.814C0.020281 503.319 0.183284 486.822 0.581345 470.389C0.987187 453.515 1.64646 436.193 2.54142 418.908C3.45026 401.355 4.62615 383.368 6.03695 365.446C7.46987 347.24 9.18346 328.611 11.1302 310.076C14.893 274.246 19.8204 236.905 25.7754 199.09C31.863 160.658 38.5957 123.641 45.9349 88.2498C53.5283 51.5357 61.6823 16.4163 70.358 -16.9409C78.9931 -50.2211 88.1539 -81.625 97.7933 -110.992C100.264 -118.499 102.786 -125.903 105.289 -133H119.767V955.999V956Z" fill="#1E5DE9" fill-opacity="0.07"/>
</g>
<defs>
<clipPath id="clip0_25_2522">
<rect width="119.693" height="1089" fill="white" transform="translate(0.0761719 -133)"/>
</clipPath>
</defs>
</svg>
