<svg width="42" height="42" viewBox="0 0 42 42" fill="none" xmlns="http://www.w3.org/2000/svg">
<path d="M0 21C0 9.40202 9.40202 0 21 0H30C36.6274 0 42 5.37258 42 12V21C42 32.598 32.598 42 21 42C9.40202 42 0 32.598 0 21Z" fill="#F87F28"/>
<path d="M26.7479 17.1306C27.5596 17.5259 28.4788 17.643 29.3636 17.4636V26.5455C29.3636 26.7625 29.2774 26.9706 29.124 27.124C28.9706 27.2774 28.7625 27.3636 28.5455 27.3636H13.8182C13.6012 27.3636 13.3931 27.2774 13.2396 27.124C13.0862 26.9706 13 26.7625 13 26.5455V13.4545C13 13.2376 13.0862 13.0294 13.2396 12.876C13.3931 12.7226 13.6012 12.6364 13.8182 12.6364H24.5364C24.4824 12.9006 24.4545 13.1747 24.4545 13.4545C24.4532 14.4266 24.7994 15.3671 25.4306 16.1063L21.2317 19.7406L15.9839 15.2856L14.9252 16.5325L21.2415 21.8957L26.7479 17.1306ZM28.5455 15.9091C28.2231 15.9091 27.9039 15.8456 27.6061 15.7222C27.3083 15.5989 27.0378 15.4181 26.8098 15.1902C26.5819 14.9622 26.4011 14.6917 26.2778 14.3939C26.1544 14.0961 26.0909 13.7769 26.0909 13.4545C26.0909 13.1322 26.1544 12.813 26.2778 12.5152C26.4011 12.2174 26.5819 11.9468 26.8098 11.7189C27.0378 11.491 27.3083 11.3102 27.6061 11.1868C27.9039 11.0635 28.2231 11 28.5455 11C29.1964 11 29.8208 11.2586 30.2811 11.7189C30.7414 12.1792 31 12.8036 31 13.4545C31 14.1055 30.7414 14.7299 30.2811 15.1902C29.8208 15.6505 29.1964 15.9091 28.5455 15.9091Z" fill="white"/>
</svg>
