<svg width="21" height="21" viewBox="0 0 21 21" fill="none" xmlns="http://www.w3.org/2000/svg">
<path d="M14.0005 11L20.9645 15.062L17.9915 15.912L20.1165 19.593L18.3845 20.593L16.2595 16.913L14.0365 19.063L14.0005 11ZM12.0005 4H14.0005V6H19.0005C19.2657 6 19.5201 6.10536 19.7076 6.29289C19.8951 6.48043 20.0005 6.73478 20.0005 7V11H18.0005V8H8.00049V18H12.0005V20H7.00049C6.73527 20 6.48092 19.8946 6.29338 19.7071C6.10585 19.5196 6.00049 19.2652 6.00049 19V14H4.00049V12H6.00049V7C6.00049 6.73478 6.10585 6.48043 6.29338 6.29289C6.48092 6.10536 6.73527 6 7.00049 6H12.0005V4ZM2.00049 12V14H0.000488281V12H2.00049ZM2.00049 8V10H0.000488281V8H2.00049ZM2.00049 4V6H0.000488281V4H2.00049ZM2.00049 0V2H0.000488281V0H2.00049ZM6.00049 0V2H4.00049V0H6.00049ZM10.0005 0V2H8.00049V0H10.0005ZM14.0005 0V2H12.0005V0H14.0005Z" fill="#F87F28"/>
</svg>
