<svg width="42" height="42" viewBox="0 0 42 42" fill="none" xmlns="http://www.w3.org/2000/svg">
<path d="M0 21C0 9.40202 9.40202 0 21 0H30C36.6274 0 42 5.37258 42 12V21C42 32.598 32.598 42 21 42V42C9.40202 42 0 32.598 0 21V21Z" fill="#F87F28"/>
<path d="M26.728 23.7279L21.4558 29L16.1837 23.7279C15.141 22.6852 14.4309 21.3567 14.1433 19.9104C13.8556 18.4641 14.0032 16.965 14.5676 15.6026C15.1319 14.2402 16.0875 13.0758 17.3136 12.2565C18.5397 11.4373 19.9812 11 21.4558 11C22.9305 11 24.372 11.4373 25.5981 12.2565C26.8242 13.0758 27.7798 14.2402 28.3441 15.6026C28.9085 16.965 29.0561 18.4641 28.7684 19.9104C28.4808 21.3567 27.7707 22.6852 26.728 23.7279ZM21.4558 20.1126C21.8953 20.1126 22.3167 19.9381 22.6274 19.6274C22.9381 19.3166 23.1127 18.8952 23.1127 18.4558C23.1127 18.0164 22.9381 17.5949 22.6274 17.2842C22.3167 16.9735 21.8953 16.7989 21.4558 16.7989C21.0164 16.7989 20.595 16.9735 20.2843 17.2842C19.9736 17.5949 19.799 18.0164 19.799 18.4558C19.799 18.8952 19.9736 19.3166 20.2843 19.6274C20.595 19.9381 21.0164 20.1126 21.4558 20.1126Z" fill="#F7FBFE"/>
</svg>
