<svg width="42" height="42" viewBox="0 0 42 42" fill="none" xmlns="http://www.w3.org/2000/svg">
<path d="M0 21C0 9.40202 9.40202 0 21 0H30C36.6274 0 42 5.37258 42 12V21C42 32.598 32.598 42 21 42C9.40202 42 0 32.598 0 21Z" fill="#F87F28"/>
<path d="M30 25.42V28.956C30.0001 29.2092 29.9042 29.453 29.7316 29.6382C29.559 29.8234 29.3226 29.9363 29.07 29.954C28.633 29.984 28.276 30 28 30C19.163 30 12 22.837 12 14C12 13.724 12.015 13.367 12.046 12.93C12.0637 12.6774 12.1766 12.441 12.3618 12.2684C12.547 12.0958 12.7908 11.9999 13.044 12H16.58C16.704 11.9999 16.8237 12.0459 16.9157 12.129C17.0078 12.2122 17.0656 12.3266 17.078 12.45C17.101 12.68 17.122 12.863 17.142 13.002C17.3407 14.3889 17.748 15.7378 18.35 17.003C18.445 17.203 18.383 17.442 18.203 17.57L16.045 19.112C17.3645 22.1865 19.8145 24.6365 22.889 25.956L24.429 23.802C24.4919 23.714 24.5838 23.6509 24.6885 23.6237C24.7932 23.5964 24.9042 23.6068 25.002 23.653C26.267 24.2539 27.6156 24.6601 29.002 24.858C29.141 24.878 29.324 24.9 29.552 24.922C29.6752 24.9346 29.7894 24.9926 29.8724 25.0846C29.9553 25.1766 30.0012 25.2961 30.001 25.42H30Z" fill="white"/>
</svg>
