<svg width="20" height="19" viewBox="0 0 20 19" fill="none" xmlns="http://www.w3.org/2000/svg">
<path d="M1.05625 5.28284L9.53266 0.200836C9.67513 0.115356 9.83815 0.0702019 10.0043 0.0702019C10.1704 0.0702019 10.3334 0.115356 10.4759 0.200836L18.9441 5.28375C19.012 5.32447 19.0683 5.38209 19.1073 5.45101C19.1463 5.51993 19.1668 5.59779 19.1668 5.677V17.3333C19.1668 17.5765 19.0703 17.8096 18.8983 17.9815C18.7264 18.1534 18.4933 18.25 18.2502 18.25H1.75016C1.50705 18.25 1.27389 18.1534 1.10198 17.9815C0.930073 17.8096 0.833496 17.5765 0.833496 17.3333V5.67609C0.833479 5.59688 0.853991 5.51902 0.893029 5.4501C0.932068 5.38118 0.988302 5.32355 1.05625 5.28284ZM2.66683 6.45525V16.4167H17.3335V6.45434L10.0038 2.05434L2.66683 6.45434V6.45525ZM10.0552 11.5565L14.9098 7.46542L16.0905 8.86792L10.068 13.9435L3.91716 8.87434L5.08316 7.459L10.0552 11.5565Z" fill="white"/>
</svg>
