<svg width="24" height="24" viewBox="0 0 24 24" fill="none" xmlns="http://www.w3.org/2000/svg">
<path d="M9.45862 20.9787L10.6997 18.8296C11.7528 19.2729 12.8943 19.4664 14.0347 19.3949C15.1751 19.3235 16.2835 18.989 17.2731 18.4178C18.2627 17.8465 19.1066 17.0539 19.7388 16.1021C20.3709 15.1503 20.7742 14.0651 20.917 12.9314H23.3992C23.2664 14.3447 22.8291 15.7126 22.1174 16.9409C21.6345 17.7792 21.0309 18.5419 20.3261 19.2047C19.9223 19.0815 19.4975 19.0429 19.0781 19.091C18.6587 19.1392 18.2537 19.2732 17.8883 19.4847C17.5229 19.6952 17.2046 19.9786 16.9533 20.3173C16.7021 20.6561 16.5231 21.0428 16.4277 21.4537C14.1243 22.1529 11.6446 21.9839 9.45739 20.9787H9.45862ZM7.85484 20.0534C5.89191 18.6615 4.50683 16.5988 3.96134 14.2551C4.55968 13.6926 4.93472 12.8944 4.93472 12.0061C4.93472 11.1179 4.55968 10.3172 3.95888 9.75467C4.18033 8.81291 4.53906 7.90882 5.02354 7.07142C5.73151 5.8413 6.6974 4.77904 7.85484 3.95761L9.09592 6.10668C8.18547 6.79714 7.44721 7.68898 6.93893 8.71235C6.43066 9.73573 6.16616 10.8629 6.16616 12.0055C6.16616 13.1482 6.43066 14.2753 6.93893 15.2987C7.44721 16.3221 8.18547 17.2139 9.09592 17.9044L7.85607 20.0534H7.85484ZM9.45862 3.03359C11.6456 2.03127 14.1232 1.86151 16.4264 2.55615C16.614 3.35804 17.1198 4.08345 17.8883 4.52757C18.6569 4.9717 19.5378 5.04572 20.3261 4.80762C22.0799 6.45481 23.1722 8.68546 23.398 11.0809H20.9146C20.7727 9.94723 20.3698 8.86192 19.7377 7.91022C19.1056 6.95852 18.2614 6.16635 17.2715 5.59594C16.2826 5.0237 15.1745 4.68856 14.0342 4.61685C12.8939 4.54514 11.7525 4.73882 10.6997 5.18266L9.45862 3.03359ZM18.5052 3.45921C18.293 3.33858 18.1068 3.17719 17.9573 2.98432C17.8078 2.79144 17.6979 2.57089 17.6339 2.33537C17.57 2.09985 17.5533 1.85401 17.5847 1.612C17.6162 1.36999 17.6952 1.13659 17.8172 0.925239C17.9393 0.71389 18.1019 0.528765 18.2957 0.380523C18.4896 0.232281 18.7109 0.123849 18.9468 0.0614703C19.1828 -0.000908367 19.4287 -0.0160018 19.6705 0.017059C19.9123 0.0501199 20.1452 0.130682 20.3557 0.254107C20.7773 0.501245 21.084 0.905094 21.2089 1.37752C21.3338 1.84995 21.2667 2.35261 21.0224 2.7758C20.7781 3.19899 20.3763 3.50836 19.9047 3.63639C19.4331 3.76442 18.93 3.70073 18.5052 3.45921ZM3.70104 12.0061C3.70104 12.4969 3.50607 12.9676 3.15903 13.3147C2.81199 13.6617 2.34131 13.8567 1.85052 13.8567C1.35973 13.8567 0.889044 13.6617 0.542005 13.3147C0.194965 12.9676 0 12.4969 0 12.0061C0 11.5153 0.194965 11.0447 0.542005 10.6976C0.889044 10.3506 1.35973 10.1556 1.85052 10.1556C2.34131 10.1556 2.81199 10.3506 3.15903 10.6976C3.50607 11.0447 3.70104 11.5153 3.70104 12.0061ZM18.5052 20.5531C18.7157 20.4296 18.9486 20.3491 19.1904 20.316C19.4322 20.283 19.6781 20.2981 19.9141 20.3604C20.15 20.4228 20.3713 20.5312 20.5651 20.6795C20.759 20.8277 20.9216 21.0128 21.0437 21.2242C21.1657 21.4355 21.2447 21.6689 21.2762 21.911C21.3076 22.153 21.2909 22.3988 21.227 22.6343C21.163 22.8699 21.0531 23.0904 20.9036 23.2833C20.7541 23.4762 20.5679 23.6375 20.3557 23.7582C19.9309 23.9997 19.4278 24.0634 18.9562 23.9354C18.4846 23.8073 18.0828 23.4979 17.8385 23.0748C17.5942 22.6516 17.5271 22.1489 17.652 21.6765C17.7769 21.2041 18.0836 20.8002 18.5052 20.5531Z" fill="#767E90"/>
</svg>
