<?xml version="1.0" encoding="UTF-8"?><svg id="Calque_1" xmlns="http://www.w3.org/2000/svg" viewBox="0 0 2500 533.73"><defs><style>.cls-1{fill:#00adef;}.cls-2{fill:#fff;}.cls-3{fill:#f1511b;}.cls-4{fill:#fbbc09;}.cls-5{fill:#80cc28;}</style></defs><path class="cls-2" d="M2500,241.45v-43.97h-54.6v-68.35l-1.84,.57-51.28,15.69-1.01,.31v51.79h-80.94v-28.85c0-13.43,3-23.71,8.92-30.57,5.88-6.77,14.29-10.22,25.01-10.22,7.71,0,15.69,1.82,23.73,5.4l2.01,.9v-46.3l-.95-.35c-7.49-2.69-17.69-4.05-30.32-4.05-15.93,0-30.39,3.47-43.01,10.33-12.63,6.88-22.56,16.7-29.52,29.18-6.93,12.47-10.45,26.87-10.45,42.81v31.72h-38.02v43.97h38.02v185.22h54.58V241.45h80.94v117.71c0,48.48,22.87,73.04,67.96,73.04,7.41,0,15.21-.87,23.17-2.57,8.11-1.75,13.63-3.49,16.88-5.35l.72-.43v-44.37l-2.22,1.47c-2.96,1.97-6.65,3.59-10.97,4.79-4.34,1.22-7.97,1.83-10.78,1.83-10.56,0-18.38-2.85-23.23-8.46-4.9-5.67-7.39-15.58-7.39-29.45v-108.2h54.6Zm-404.14,146.12c-19.81,0-35.43-6.57-46.43-19.51-11.07-13-16.68-31.54-16.68-55.1s5.61-43.32,16.69-56.56c11.01-13.15,26.48-19.82,45.98-19.82s33.99,6.37,44.78,18.95c10.84,12.64,16.35,31.51,16.35,56.1s-5.18,44.01-15.38,56.79c-10.14,12.69-25.38,19.14-45.3,19.14m2.43-195.61c-37.79,0-67.81,11.07-89.21,32.91-21.39,21.84-32.23,52.07-32.23,89.85s10.59,64.75,31.47,85.78c20.88,21.04,49.3,31.69,84.45,31.69s66.05-11.23,87.45-33.37c21.39-22.12,32.23-52.06,32.23-88.96s-10.17-65.52-30.23-86.41c-20.08-20.9-48.31-31.49-83.91-31.49m-209.44,0c-25.71,0-46.97,6.58-63.22,19.54-16.34,13.04-24.63,30.15-24.63,50.85,0,10.76,1.79,20.32,5.31,28.42,3.54,8.13,9.03,15.29,16.31,21.3,7.23,5.96,18.39,12.21,33.17,18.56,12.43,5.11,21.7,9.44,27.59,12.85,5.76,3.34,9.84,6.7,12.15,9.97,2.24,3.2,3.38,7.58,3.38,12.99,0,15.4-11.53,22.89-35.26,22.89-8.8,0-18.84-1.84-29.84-5.46-10.92-3.57-21.22-8.79-30.55-15.49l-2.27-1.63v52.54l.83,.39c7.72,3.56,17.46,6.57,28.93,8.94,11.45,2.37,21.86,3.57,30.9,3.57,27.9,0,50.36-6.61,66.75-19.65,16.5-13.13,24.86-30.64,24.86-52.06,0-15.45-4.5-28.7-13.37-39.38-8.81-10.6-24.1-20.33-45.43-28.93-16.99-6.82-27.88-12.48-32.37-16.83-4.33-4.2-6.53-10.14-6.53-17.65,0-6.67,2.71-12,8.28-16.33,5.61-4.35,13.43-6.56,23.23-6.56,9.09,0,18.4,1.44,27.65,4.25,9.25,2.82,17.37,6.59,24.15,11.2l2.23,1.52v-49.84l-.86-.37c-6.25-2.68-14.5-4.98-24.52-6.84-9.97-1.85-19.02-2.78-26.88-2.78m-230.13,195.61c-19.8,0-35.43-6.57-46.43-19.51-11.08-13-16.68-31.54-16.68-55.1s5.61-43.32,16.69-56.56c11-13.15,26.47-19.82,45.98-19.82s33.98,6.37,44.77,18.95c10.85,12.64,16.35,31.51,16.35,56.1s-5.18,44.01-15.38,56.79c-10.14,12.69-25.37,19.14-45.3,19.14m2.43-195.61c-37.8,0-67.82,11.07-89.21,32.91-21.39,21.84-32.24,52.07-32.24,89.85s10.59,64.75,31.47,85.78c20.88,21.04,49.29,31.69,84.45,31.69s66.06-11.23,87.45-33.37c21.39-22.12,32.23-52.06,32.23-88.96s-10.17-65.52-30.24-86.41c-20.08-20.9-48.31-31.49-83.91-31.49m-204.3,45.21v-39.69h-53.91v229.18h53.91v-117.24c0-19.93,4.52-36.31,13.44-48.68,8.81-12.22,20.54-18.42,34.87-18.42,4.86,0,10.31,.8,16.21,2.38,5.84,1.57,10.08,3.28,12.57,5.08l2.27,1.64v-54.35l-.87-.37c-5.02-2.13-12.12-3.21-21.11-3.21-13.55,0-25.67,4.35-36.06,12.92-9.11,7.53-15.7,17.86-20.74,30.74h-.57Zm-150.46-45.21c-24.73,0-46.79,5.3-65.56,15.76-18.8,10.48-33.34,25.44-43.24,44.46-9.85,18.98-14.85,41.14-14.85,65.86,0,21.65,4.85,41.53,14.43,59.04,9.59,17.54,23.16,31.27,40.34,40.79,17.16,9.51,36.98,14.33,58.94,14.33,25.62,0,47.49-5.12,65.03-15.22l.71-.41v-49.39l-2.27,1.65c-7.94,5.79-16.82,10.41-26.37,13.73-9.53,3.33-18.22,5.01-25.83,5.01-21.15,0-38.14-6.62-50.46-19.67-12.35-13.07-18.62-31.41-18.62-54.5s6.53-42.05,19.41-55.94c12.83-13.85,29.85-20.87,50.56-20.87,17.72,0,34.99,6,51.32,17.85l2.26,1.64v-52.04l-.73-.41c-6.15-3.44-14.53-6.28-24.94-8.44-10.37-2.15-20.5-3.23-30.14-3.23m-160.78,5.52h-53.91v229.18h53.91V197.48h0Zm-26.4-97.63c-8.87,0-16.61,3.02-22.97,9.01-6.38,6-9.62,13.56-9.62,22.48s3.2,16.2,9.52,22.04c6.28,5.83,14.05,8.78,23.07,8.78s16.82-2.95,23.17-8.77c6.4-5.85,9.64-13.27,9.64-22.05s-3.16-16.09-9.38-22.24c-6.22-6.14-14.11-9.25-23.44-9.25m-134.51,80.72v246.09h55.02V106.87h-76.15l-96.79,237.54-93.93-237.54h-79.25V426.66h51.7V180.55h1.78l99.19,246.11h39.02l97.64-246.09h1.78Z"/><path class="cls-3" d="M253.61,253.61H0V0H253.61V253.61Z"/><path class="cls-5" d="M533.63,253.61h-253.61V0h253.61V253.61h0Z"/><path class="cls-1" d="M253.6,533.73H0v-253.61H253.6v253.61Z"/><path class="cls-4" d="M533.63,533.73h-253.61v-253.61h253.61v253.61h0Z"/></svg>