<svg width="24" height="22" viewBox="0 0 24 22" fill="none" xmlns="http://www.w3.org/2000/svg">
<path d="M12 12.4232C11.5453 12.4232 11.1093 12.2426 10.7878 11.9211C10.4663 11.5996 10.2857 11.1636 10.2857 10.7089C10.2857 10.2542 10.4663 9.81821 10.7878 9.49672C11.1093 9.17523 11.5453 8.99462 12 8.99462C12.4547 8.99462 12.8907 9.17523 13.2122 9.49672C13.5337 9.81821 13.7143 10.2542 13.7143 10.7089C13.7143 11.1636 13.5337 11.5996 13.2122 11.9211C12.8907 12.2426 12.4547 12.4232 12 12.4232ZM11.3966 15.8449C11.5966 16.0849 11.7977 16.3181 12 16.5409C12.2023 16.3181 12.4034 16.086 12.6034 15.8449C12.2012 15.8534 11.7988 15.8534 11.3966 15.8449ZM9.11657 15.702C8.23893 15.6107 7.36708 15.4703 6.50514 15.2815C6.41943 15.6815 6.35429 16.07 6.31086 16.4426C6.09371 18.2518 6.39657 19.3512 6.85714 19.6163C7.31771 19.8826 8.42057 19.5946 9.88 18.5032C10.1806 18.278 10.4834 18.0278 10.7874 17.7546C10.1926 17.1022 9.63474 16.4169 9.11657 15.702ZM17.4949 15.2815C16.6754 15.4643 15.8 15.606 14.8834 15.702C14.3653 16.4169 13.8074 17.1022 13.2126 17.7546C13.5166 18.0289 13.8194 18.278 14.12 18.5032C15.5794 19.5946 16.6823 19.8826 17.1429 19.6163C17.6034 19.3512 17.9051 18.2518 17.6903 16.4426C17.6431 16.0528 17.5783 15.6654 17.496 15.2815H17.4949ZM19.152 14.8392C19.8114 17.8552 19.4651 20.2563 18 21.102C16.5349 21.9478 14.2823 21.0472 12 18.9683C9.71771 21.0472 7.46514 21.9466 6 21.1009C4.53486 20.2552 4.18857 17.8552 4.84686 14.838C1.90514 13.902 0 12.4003 0 10.7089C0 9.01748 1.90514 7.51691 4.84686 6.57862C4.18857 3.56262 4.53486 1.16148 6 0.315763C7.46514 -0.529952 9.71771 0.37062 12 2.44948C14.2823 0.37062 16.5349 -0.528809 18 0.316906C19.4651 1.16262 19.8114 3.56262 19.1531 6.57976C22.0949 7.51576 24 9.01748 24 10.7089C24 12.4003 22.0949 13.9009 19.1531 14.8392H19.152ZM10.7863 3.66319C10.4956 3.40011 10.1932 3.15033 9.88 2.91462C8.42057 1.82319 7.31771 1.53519 6.85714 1.80148C6.39657 2.06662 6.09486 3.16605 6.30971 4.97519C6.35543 5.34891 6.41943 5.73633 6.504 6.13633C7.36632 5.94746 8.23854 5.80705 9.11657 5.71576C9.65943 4.96948 10.2194 4.28262 10.7874 3.66319H10.7863ZM14.8834 5.71576C15.8 5.81176 16.6754 5.95462 17.4949 6.13633C17.5806 5.73633 17.6457 5.34776 17.6891 4.97519C17.9063 3.16605 17.6034 2.06662 17.1429 1.80148C16.6823 1.53519 15.5794 1.82319 14.12 2.91462C13.8064 3.15031 13.5036 3.40009 13.2126 3.66319C13.7806 4.28262 14.3406 4.96948 14.8834 5.71576ZM12.6034 5.57291C12.4034 5.33291 12.2023 5.09976 12 4.87691C11.7977 5.09976 11.5966 5.33176 11.3966 5.57291C11.7988 5.56437 12.2012 5.56437 12.6034 5.57291ZM7.85371 13.7992C7.64521 13.4553 7.44402 13.107 7.25029 12.7546C7.14171 13.0483 7.04114 13.3375 6.94971 13.6243C7.24343 13.6883 7.54514 13.7466 7.85257 13.7992H7.85371ZM10.0617 14.0666C11.3521 14.1625 12.6479 14.1625 13.9383 14.0666C14.6665 12.9969 15.3144 11.8745 15.8766 10.7089C15.3144 9.54328 14.6665 8.42096 13.9383 7.35119C12.6479 7.25535 11.3521 7.25535 10.0617 7.35119C9.33348 8.42096 8.68561 9.54328 8.12343 10.7089C8.68561 11.8745 9.33348 12.9969 10.0617 14.0666ZM16.7497 8.66319C16.8583 8.36948 16.9589 8.08033 17.0503 7.79348C16.7507 7.72846 16.4496 7.67016 16.1474 7.61862C16.3556 7.96251 16.5564 8.31078 16.7497 8.66319ZM5.29143 8.23691C4.90286 8.36262 4.53486 8.49976 4.18971 8.64833C2.51543 9.36605 1.71429 10.1775 1.71429 10.7089C1.71429 11.2403 2.51429 12.0518 4.18971 12.7695C4.53486 12.918 4.90286 13.0552 5.29143 13.1809C5.54514 12.3809 5.85943 11.5512 6.23429 10.7089C5.87409 9.90316 5.55931 9.07787 5.29143 8.23691ZM6.94857 7.79348C7.04114 8.07919 7.14171 8.36948 7.25029 8.66205C7.44403 8.31001 7.64522 7.96213 7.85371 7.61862C7.54514 7.67119 7.24343 7.72948 6.94971 7.79348H6.94857ZM18.7086 13.1809C19.0971 13.0552 19.4651 12.918 19.8103 12.7695C21.4846 12.0518 22.2857 11.2403 22.2857 10.7089C22.2857 10.1775 21.4857 9.36605 19.8103 8.64833C19.4495 8.49462 19.0818 8.35734 18.7086 8.23691C18.4549 9.03691 18.1406 9.86662 17.7657 10.7089C18.1406 11.5512 18.4549 12.3798 18.7086 13.1809ZM17.0514 13.6243C16.9589 13.3386 16.8583 13.0483 16.7497 12.7558C16.556 13.1078 16.3548 13.4557 16.1463 13.7992C16.4549 13.7466 16.7566 13.6883 17.0503 13.6243H17.0514Z" fill="#767E90"/>
</svg>
