<?xml version="1.0" encoding="UTF-8"?><svg id="Calque_1" xmlns="http://www.w3.org/2000/svg" viewBox="0 0 300 99.56"><defs><style>.cls-1{fill:#fff;}.cls-2{fill:#0060a8;}.cls-3{fill:#231f20;}</style></defs><path class="cls-1" d="M147.81,90.89c5.51,5.35,13.02,8.66,21.3,8.66h130.89s-28.27-84.32-28.27-84.32c-3.86-8.96-12.92-15.23-23.8-15.23s-20.03,6.48-23.75,15.4l-9.42,27.47-.04-41.45-45.71-.02c-8.26,0-15.69,3.22-21.16,8.56l.02-8.52h-46.8c-8.72,0-16.65,3.72-22.19,9.56V1.4l-44.11,.04C15.73,1.42,.11,16.3,.09,35.98c0,9.11,3.98,17.37,9.85,23.5l-9.94-.02v40.09H44.44c12.49-.02,24.86-7.56,29.16-16.58l.13-.37c4.97,10.04,15.34,16.96,27.34,16.96h46.73v-8.66"/><path class="cls-2" d="M6.87,92.69l37.48-.04c15.33,0,27.76-12.39,27.76-27.65s-12.43-27.68-27.76-27.68l-9.73,.05c-.77,0-1.39-.63-1.39-1.4s.62-1.4,1.39-1.4h37.41s.01-11.73,.01-11.73H34.6c-7.24,0-13.12,5.88-13.12,13.1s5.89,13.09,13.12,13.09l9.78,.13c8.78,0,15.89,7.08,15.89,15.83s-7.11,15.85-15.89,15.85H6.88v11.86"/><path class="cls-2" d="M6.88,78.07H44.38c7.26,0,13.13-5.86,13.13-13.09s-5.87-13.08-13.13-13.08l-9.78-.11c-8.77,0-15.89-7.09-15.89-15.86s7.12-15.83,15.89-15.83h37.43s-.01-11.79-.01-11.79H34.61c-15.32,0-27.76,12.37-27.76,27.65s12.44,27.66,27.76,27.66h9.68c.74,.01,1.36,.61,1.36,1.37s-.62,1.34-1.36,1.34l-37.42,.03v11.7"/><path class="cls-2" d="M101.16,80.9c-6.5,0-11.83-5.18-11.83-11.8V31.67c0-6.36,5.33-11.6,11.83-11.6h40s0-11.75,0-11.75h-40c-13.02,0-23.56,10.51-23.56,23.48v37.31c0,12.97,10.54,23.5,23.56,23.5l39.84,.02v-11.73s-39.84,.01-39.84,.01"/><path class="cls-2" d="M92.2,31.79c0-4.96,3.99-8.98,8.96-8.98h40v11.77h-34.46c-2.76,0-2.8,2.74-2.8,2.74h28.75v11.72h-40.47V31.79"/><path class="cls-2" d="M101.16,78.05c-4.95,0-8.97-4-8.97-8.94v-17.27h40.47v11.74h-28.75c.04,2.76,2.8,2.77,2.8,2.77h34.3v11.68s-39.83,.02-39.83,.02"/><path class="cls-2" d="M169.19,80.87c-6.48,0-11.77-5.28-11.77-11.77V31.79c0-6.49,5.26-11.73,11.74-11.73h38.74V8.31h-38.83c-13.01,0-23.56,10.51-23.56,23.48v37.31c0,12.97,10.64,23.5,23.65,23.5l38.74,.02V37.33h-33.3v11.72h21.53v31.82h-26.95"/><path class="cls-2" d="M160.18,69.1c0,4.97,4.02,9.01,8.98,9.01h24.2v-26.29h-18.72v11.76h6.95l.02,2.76h-6.92c-1.51,0-2.75-1.25-2.75-2.76l-.06-26.26s0-2.73,2.78-2.8h33.26v-11.71s-38.76,0-38.76,0c-4.96,0-8.98,4.02-8.98,8.98v37.31"/><path class="cls-2" d="M244.32,22.64c.52-1.49,1.94-2.57,3.62-2.57s3.11,1.08,3.62,2.57l18.81,55.56h-27.54l.03-13.07h9.2l-4.14-12.31-13.5,39.79h-13.88l23.78-69.97"/><path class="cls-2" d="M274.15,80.87h-31.29v11.74h47.61l-24.76-73.26c-2.17-7.15-9.32-12.4-17.79-12.4s-15.61,5.23-17.8,12.37l-24.99,73.29h12.46l24.26-71.24c.99-2.36,3.31-4.02,6.04-4.02s5.05,1.66,6.05,4.01l20.2,59.52"/><path class="cls-3" d="M281.5,17.64c2.22,0,4.3-.86,5.86-2.42,1.56-1.57,2.43-3.64,2.43-5.86s-.87-4.26-2.43-5.83c-1.56-1.55-3.65-2.41-5.86-2.41-4.56,0-8.28,3.69-8.28,8.25,0,2.22,.86,4.29,2.44,5.86,1.56,1.55,3.63,2.42,5.84,2.42m-7.11-8.28c0-1.89,.73-3.68,2.08-5.02,1.35-1.34,3.14-2.07,5.03-2.07s3.7,.73,5.05,2.07c1.34,1.34,2.09,3.13,2.09,5.02,0,3.92-3.2,7.11-7.14,7.11-1.89,0-3.68-.74-5.03-2.08-1.36-1.34-2.08-3.12-2.08-5.03Z"/><path class="cls-3" d="M279.38,10.06v3.9h-1.2V4.79h3.41c1.28,.01,2.03,.01,2.75,.55,.69,.51,.98,1.28,.98,2.12,0,2.14-1.74,2.42-2.19,2.51l2.58,3.98h-1.45l-2.51-3.9h-2.37m0-1.01h2.43c.39,0,.75,0,1.12-.09,.85-.2,1.15-.81,1.15-1.48,0-.24-.02-.86-.55-1.28-.48-.4-1.08-.39-1.79-.39h-2.37v3.24Z"/></svg>