<?xml version="1.0" encoding="UTF-8"?><svg id="Calque_1" xmlns="http://www.w3.org/2000/svg" viewBox="0 0 1000 914.75"><defs><style>.cls-1{fill:#fff;}</style></defs><path class="cls-1" d="M0,727.61v111.62c0,45.32,30.9,74.21,75.89,74.21,47.33,0,76.3-30.46,76.3-77.27v-108.56h-40.06v106.52c0,25.52-12.85,41.35-35.81,41.35-25.16,0-36.26-18.2-36.26-39.31v-108.56H0Zm171.67,1.54v182.47h63.81c35.34,0,65.37-18.02,65.37-53.77s-32.65-45.59-32.65-45.59c0,0,24.18-6.72,24.18-38.64s-30.56-44.47-56.89-44.47h-63.81Zm40.36,34.66h19.37c13.44,0,22.04,7.08,22.04,19.4,0,11.02-7.3,19.34-21.02,19.34h-20.39v-38.74h0Zm0,67.28h21.41c20.13,0,27.11,10.34,27.11,22.68,0,14.36-9.03,22.78-25.07,22.78h-23.44v-45.46h0Zm103.98-101.95h40.26v182.47h-40.27v-182.47Zm439.35,182.47h-40.27v-182.47h126.4v37.72h-86.14v41.79h78.49v30.58h-78.49v72.38Zm100.92-182.47v37.72h51.99v144.75h40.78v-144.75h50.97v-37.72h-143.73Zm-454.03,121.8l-31.99,23.39s11.05,40.42,66.46,40.42c36.9,0,64.05-21.53,64.05-59.39,0-61.01-85.31-48.07-85.31-79.44,0-8.26,7.34-15.55,20.89-15.55,21.74,0,30.01,21.33,30.01,21.33l32-22.46s-12.5-33.31-60.4-33.31c-39.36,0-60.28,25.26-60.28,51.32,0,62.17,82.83,48.68,82.83,81.31,0,11.01-8.68,19.1-22.19,19.01-26.77,0-36.08-26.62-36.08-26.62h0Zm202.5-125.1c-47.42,0-68.55,25.74-68.55,25.74l6.12,6.12s-30.68,21.79-30.68,68.58c0,53.84,41.53,88.43,93.34,88.43,60.2,0,94.35-44.42,94.35-94.35,0-53.25-39-94.51-94.58-94.51h0Zm.86,37.88c32.15,0,53.01,24.57,53.01,56.48s-20.61,56.83-53.01,56.83-53.04-22.35-53.04-52.02c0-27,18.28-38.77,18.28-38.77l-6.63-6.63s14.1-15.9,41.38-15.9ZM481.52,0C274.72,0,185.46,184.07,185.46,184.07l26.27,18.81s-33.07,62.88-32.15,143.53c0,164.64,131.06,319.73,323.99,319.73,175.27,0,320.05-142.66,320.05-319.33,0-230.42-178.68-346.82-342.1-346.82h0Zm1.79,56.17c161.57,0,286.95,130.2,286.95,281.56,0,160.45-120.68,272.04-261.31,272.04-103.5,0-196.86-78.82-196.86-186.88,0-62.41,33.17-105.93,70.35-129.12l5.44,5.9c-10.17,7.96-39.18,54.56-39.18,100.36,0,85.02,66.67,143.91,150.68,143.91,107.01,0,178.37-91.27,178.37-197.24,0-123.3-108.83-227.97-239.81-227.97-72.44,0-133.93,31.15-169.26,58.66l-5.5-4.98c46.22-71.27,126.26-116.24,220.13-116.24Zm-48.21,117.95c83.58,0,165.18,55.29,185.55,133.78l-7.41,2.81c-36.57-48.29-96.5-88.32-167.26-88.32-130.21,0-198.6,118.32-188.56,217.15l-7.67,2.81s-14.38-31.73-14.38-69.36c0-108.97,89.49-198.86,199.73-198.86h0Zm55.24,136.76c39.57,0,71.22,32.07,71.22,70.15,0,31.51-20.23,50.18-20.23,50.18l23.96,16.75s-23.76,37.3-72.26,37.3-87.42-37.44-87.42-87.8,44.63-86.58,84.73-86.58h0Z"/></svg>